<svg width="73" height="81" viewBox="0 0 73 81" fill="none" xmlns="http://www.w3.org/2000/svg">
<g clip-path="url(#clip0_26_479)">
<g clip-path="url(#clip1_26_479)">
<g filter="url(#filter0_d_26_479)">
<path d="M33.3026 10.9611C36.1583 8.30765 40.6603 8.58444 43.1747 11.568C44.7381 13.4233 47.1702 14.3105 49.5589 13.8952C53.3668 13.2331 56.9652 15.8681 57.4854 19.6995L57.5084 19.8693C57.8362 22.2832 59.4032 24.3506 61.639 25.3186C65.2101 26.8649 66.8196 31.0403 65.2092 34.5803L65.1529 34.704C64.1394 36.9318 64.3599 39.5411 65.7196 41.5785C67.8957 44.8389 67.0044 49.2734 63.7172 51.4021C61.6676 52.7294 60.4553 55.0267 60.5157 57.469L60.5202 57.6514C60.6159 61.5214 57.4982 64.7039 53.6275 64.6871C51.1987 64.6766 48.9267 65.9814 47.6829 68.0667C45.6977 71.3947 41.2998 72.4476 38.0643 70.3095C36.0403 68.9719 33.4582 68.8131 31.2878 69.8928C27.8183 71.6188 23.5801 70.0349 22.0112 66.4884C21.0282 64.2662 18.9305 62.6927 16.5184 62.4056C12.6744 61.948 9.96372 58.4073 10.5256 54.5776L10.5521 54.3972C10.9067 51.9804 9.98067 49.5516 8.10642 47.9831C5.10037 45.4674 4.75078 40.9566 7.30405 37.987C8.89953 36.1314 9.43314 33.5684 8.69595 31.2329L8.65505 31.1033C7.48367 27.3922 9.58501 23.445 13.3163 22.3477C15.6522 21.6607 17.4571 19.8006 18.0736 17.4448L18.117 17.2791C19.0956 13.5399 22.9852 11.3652 26.685 12.4889C29.0059 13.1938 31.5269 12.611 33.3026 10.9611Z" fill="#FA12E3"/>
<path d="M57.061 19.757L57.4855 19.6998M57.061 19.757L57.084 19.9268C57.432 22.4895 59.0956 24.6844 61.4692 25.7121C64.8202 27.1631 66.3305 31.081 64.8193 34.4029L64.7631 34.5265M57.061 19.757C56.5735 16.1665 53.2013 13.6971 49.6328 14.3176C47.0938 14.7591 44.509 13.816 42.8473 11.8442C40.4908 9.04788 36.2709 8.78844 33.5945 11.2754C31.7073 13.0289 29.0279 13.6483 26.561 12.8991C23.0938 11.8461 19.4486 13.884 18.5315 17.3882L18.4882 17.5539C17.8337 20.055 15.9175 22.0297 13.4376 22.7591C9.9363 23.7887 7.96447 27.4926 9.06365 30.975L9.10456 31.1046C9.88673 33.5826 9.32039 36.2997 7.62907 38.2668C5.22982 41.0573 5.56042 45.2943 8.38125 47.655C10.3698 49.3191 11.3524 51.8959 10.9761 54.4601L10.9496 54.6405C10.4227 58.2314 12.9644 61.5514 16.5688 61.9805C19.1338 62.2858 21.3598 63.9573 22.403 66.3156C23.8754 69.6439 27.851 71.1242 31.0968 69.5095C33.4039 68.3617 36.1488 68.5305 38.3004 69.9524C41.3273 71.9527 45.452 70.9704 47.315 67.8472C48.6351 65.6342 51.0462 64.2478 53.629 64.259C57.2584 64.2747 60.1818 61.2906 60.0921 57.6619L60.0875 57.4795C60.0235 54.8883 61.3096 52.4509 63.4842 51.0427C66.5689 49.0452 67.4082 44.8801 65.3634 41.8164C63.9219 39.6567 63.6877 36.8904 64.7631 34.5265M64.7631 34.5265L65.153 34.7043" stroke="#8A007C" stroke-width="0.856841"/>
</g>
<path d="M18.4902 44.9673L19.1026 34.8545L25.8486 35.2693L25.7326 37.1851L21.0117 36.8949L20.8742 39.1665L25.0203 39.4214L24.9051 41.3235L20.759 41.0686L20.5154 45.0918L18.4902 44.9673ZM32.5096 45.8292L30.5979 42.0169L29.3937 41.9429L29.1708 45.624L27.1456 45.4994L27.758 35.3867L31.6304 35.6248C33.9977 35.7703 35.0004 37.3566 34.8985 39.0398C34.8248 40.2577 34.1344 41.4514 32.6662 41.8831L34.8769 45.9748L32.5096 45.8292ZM29.6696 37.386L29.5039 40.1228L31.1596 40.2246C32.2954 40.2945 32.7747 39.6372 32.8169 38.9393C32.8609 38.214 32.42 37.5551 31.5032 37.4987L29.6696 37.386ZM36.7899 46.0924L37.4023 35.9796L44.2577 36.4011L44.1434 38.2896L39.3268 37.9934L39.195 40.1692L43.6559 40.4435L43.5415 42.3319L39.0807 42.0577L38.9431 44.3293L43.7598 44.6254L43.6454 46.5139L36.7899 46.0924ZM45.913 46.6533L46.5254 36.5405L53.3809 36.962L53.2665 38.8505L48.4499 38.5543L48.3181 40.7301L52.779 41.0044L52.6647 42.8928L48.2038 42.6186L48.0662 44.8902L52.8829 45.1863L52.7685 47.0748L45.913 46.6533Z" fill="white"/>
</g>
</g>
<defs>
<filter id="filter0_d_26_479" x="2.17078" y="9.1377" width="68.166" height="69.1379" filterUnits="userSpaceOnUse" color-interpolation-filters="sRGB">
<feFlood flood-opacity="0" result="BackgroundImageFix"/>
<feColorMatrix in="SourceAlpha" type="matrix" values="0 0 0 0 0 0 0 0 0 0 0 0 0 0 0 0 0 0 127 0" result="hardAlpha"/>
<feOffset dy="3.42736"/>
<feGaussianBlur stdDeviation="1.71368"/>
<feComposite in2="hardAlpha" operator="out"/>
<feColorMatrix type="matrix" values="0 0 0 0 0.342829 0 0 0 0 0.2925 0 0 0 0 0.675 0 0 0 0.15 0"/>
<feBlend mode="normal" in2="BackgroundImageFix" result="effect1_dropShadow_26_479"/>
<feBlend mode="normal" in="SourceGraphic" in2="effect1_dropShadow_26_479" result="shape"/>
</filter>
<clipPath id="clip0_26_479">
<rect width="72" height="80" fill="white" transform="translate(0.934814 0.0214844)"/>
</clipPath>
<clipPath id="clip1_26_479">
<rect width="72" height="72" fill="white" transform="translate(0.934814 4.02148)"/>
</clipPath>
</defs>
</svg>
