<svg width="56" height="56" viewBox="0 0 56 56" fill="none" xmlns="http://www.w3.org/2000/svg">
<mask id="mask0_26_101" style="mask-type:alpha" maskUnits="userSpaceOnUse" x="0" y="0" width="56" height="56">
<g clip-path="url(#clip0_26_101)">
<path d="M55.4348 28.0713C55.4348 21.9261 55.1687 16.9467 54.8252 13.0792C54.2506 6.60826 49.3978 1.75553 42.9269 1.18087C39.0594 0.837407 34.08 0.571289 27.9348 0.571289C21.7896 0.571289 16.8102 0.837407 12.9427 1.18087C6.47178 1.75553 1.61905 6.60826 1.04439 13.0792C0.700932 16.9467 0.434814 21.9261 0.434814 28.0713C0.434814 34.4475 0.721319 39.5686 1.08345 43.4949C1.65863 49.7311 6.26196 54.4087 12.5 54.9637C16.3494 55.3062 21.43 55.5713 27.9348 55.5713C34.4396 55.5713 39.5202 55.3062 43.3696 54.9637C49.6077 54.4087 54.211 49.7311 54.7862 43.4949C55.1483 39.5686 55.4348 34.4475 55.4348 28.0713Z" fill="black"/>
</g>
</mask>
<g mask="url(#mask0_26_101)">
<rect width="55" height="55" transform="translate(0.434814 0.571289)" fill="#F8F8FC"/>
<g clip-path="url(#clip1_26_101)">
<path d="M41.2921 28.2063C41.2921 25.3347 41.1718 22.9902 41.0137 21.1495C40.7358 17.9132 38.3067 15.4841 35.0704 15.2062C33.2296 15.0481 30.8852 14.9277 28.0136 14.9277C25.142 14.9277 22.7975 15.0481 20.9567 15.2062C17.7204 15.4841 15.2913 17.9132 15.0134 21.1495C14.8553 22.9902 14.735 25.3347 14.735 28.2063C14.735 31.1933 14.8652 33.6098 15.0326 35.4825C15.3115 38.6013 17.6158 40.9385 20.7356 41.2067C22.5725 41.3647 24.9701 41.4848 28.0136 41.4848C31.0569 41.4848 33.4546 41.3647 35.2915 41.2067C38.4114 40.9385 40.7156 38.6013 40.9945 35.4825C41.162 33.6098 41.2921 31.1933 41.2921 28.2063Z" stroke="#7F76B3" stroke-width="2" stroke-linecap="round" stroke-linejoin="round"/>
<path d="M40.7812 22.333L34.9618 28.618C34.6045 29.0039 34.0929 29.2092 33.5679 29.1774L26.9052 28.7736C26.321 28.7382 25.7577 28.9962 25.403 29.4617L22.3063 33.5262C22.0355 33.8816 21.6395 34.1203 21.1988 34.1937L15.7562 35.1009" stroke="#7F76B3" stroke-width="2" stroke-linecap="round" stroke-linejoin="round"/>
<path d="M34.3975 28.9723L41.2921 22.333L40.7814 38.1652L36.4403 41.2294L20.3529 41.4847L16.7779 39.6972L14.9904 35.1009L21.885 34.0794L26.4814 28.717L34.3975 28.9723Z" fill="#7F76B3" fill-opacity="0.1"/>
</g>
</g>
<defs>
<clipPath id="clip0_26_101">
<rect width="55" height="55" fill="white" transform="translate(0.434814 0.571289)"/>
</clipPath>
<clipPath id="clip1_26_101">
<rect width="29.7" height="28.8" fill="white" transform="translate(13.0848 13.6709)"/>
</clipPath>
</defs>
</svg>
