<svg width="70" height="70" viewBox="0 0 70 70" fill="none" xmlns="http://www.w3.org/2000/svg">
<mask id="mask0_26_93" style="mask-type:alpha" maskUnits="userSpaceOnUse" x="0" y="0" width="70" height="70">
<g clip-path="url(#clip0_26_93)">
<path d="M55.5648 28.2012C55.5648 22.056 55.2987 17.0766 54.9552 13.2091C54.3806 6.73814 49.5278 1.88541 43.0569 1.31075C39.1894 0.96729 34.21 0.701172 28.0648 0.701172C21.9196 0.701172 16.9402 0.96729 13.0727 1.31075C6.60179 1.88541 1.74906 6.73814 1.1744 13.2091C0.830937 17.0766 0.564819 22.056 0.564819 28.2012C0.564819 34.5774 0.851324 39.6985 1.21345 43.6248C1.78864 49.861 6.39197 54.5386 12.63 55.0936C16.4794 55.4361 21.56 55.7012 28.0648 55.7012C34.5696 55.7012 39.6502 55.4361 43.4996 55.0936C49.7377 54.5386 54.341 49.861 54.9162 43.6248C55.2783 39.6985 55.5648 34.5774 55.5648 28.2012Z" fill="black"/>
</g>
</mask>
<g mask="url(#mask0_26_93)">
<rect width="68.75" height="68.75" transform="translate(0.564819 0.701172)" fill="url(#paint0_linear_26_93)"/>
<g clip-path="url(#clip1_26_93)">
<path d="M51.3634 34.9028C51.3634 38.6366 51.2006 41.6572 50.9912 43.9981C50.6427 47.8967 47.7623 50.8182 43.8625 51.1535C41.5664 51.3509 38.5693 51.5011 34.7651 51.5011C30.9608 51.5011 27.9637 51.3509 25.6676 51.1535C21.7678 50.8182 18.8875 47.8967 18.5389 43.9981C18.3296 41.6572 18.1669 38.6366 18.1669 34.9028C18.1669 31.3133 18.3173 28.3828 18.5149 26.0818C18.8623 22.0365 21.8987 19.0001 25.944 18.6527C28.2451 18.4551 31.1756 18.3047 34.7651 18.3047" stroke="white" stroke-width="2" stroke-linecap="round" stroke-linejoin="round"/>
<path d="M27.988 34.5544C32.0012 37.2638 33.7204 39.6678 33.7204 39.6678C33.7204 39.6678 35.4503 35.7295 38.7682 31.3871C42.3419 26.7099 44.9908 24.9482 44.9908 24.9482" stroke="white" stroke-width="2" stroke-linecap="round" stroke-linejoin="round"/>
</g>
</g>
<defs>
<linearGradient id="paint0_linear_26_93" x1="-2.72346" y1="3.2457" x2="71.4735" y2="65.5043" gradientUnits="userSpaceOnUse">
<stop stop-color="#24223E"/>
<stop offset="1" stop-color="#282642"/>
</linearGradient>
<clipPath id="clip0_26_93">
<rect width="68.75" height="68.75" fill="white" transform="translate(0.564819 0.701172)"/>
</clipPath>
<clipPath id="clip1_26_93">
<rect width="36" height="36" fill="white" transform="translate(16.9348 17.0713)"/>
</clipPath>
</defs>
</svg>
