<svg width="56" height="56" viewBox="0 0 56 56" fill="none" xmlns="http://www.w3.org/2000/svg">
<mask id="mask0_26_39" style="mask-type:alpha" maskUnits="userSpaceOnUse" x="0" y="0" width="56" height="56">
<g clip-path="url(#clip0_26_39)">
<path d="M55.4348 28.0713C55.4348 21.9261 55.1687 16.9467 54.8252 13.0792C54.2506 6.60826 49.3978 1.75553 42.9269 1.18087C39.0594 0.837407 34.08 0.571289 27.9348 0.571289C21.7896 0.571289 16.8102 0.837407 12.9427 1.18087C6.47178 1.75553 1.61905 6.60826 1.04439 13.0792C0.700932 16.9467 0.434814 21.9261 0.434814 28.0713C0.434814 34.4475 0.721319 39.5686 1.08345 43.4949C1.65863 49.7311 6.26196 54.4087 12.5 54.9637C16.3494 55.3062 21.43 55.5713 27.9348 55.5713C34.4396 55.5713 39.5202 55.3062 43.3696 54.9637C49.6077 54.4087 54.211 49.7311 54.7862 43.4949C55.1483 39.5686 55.4348 34.4475 55.4348 28.0713Z" fill="black"/>
</g>
</mask>
<g mask="url(#mask0_26_39)">
<rect width="55" height="55" transform="translate(0.434814 0.571289)" fill="#F8F8FC"/>
<g clip-path="url(#clip1_26_39)">
<path d="M34.6848 34.8213C33.5323 34.8213 32.5887 34.8412 31.8447 34.8674C30.4513 34.9166 29.2848 35.6771 29.2848 37.0713C29.2848 38.4674 30.4483 39.2311 31.8437 39.2783C32.5744 39.303 33.5116 39.3213 34.6848 39.3213C35.858 39.3213 36.7952 39.303 37.5259 39.2783C38.9213 39.2311 40.0848 38.4674 40.0848 37.0713C40.0848 35.6771 38.9183 34.9166 37.5249 34.8674C36.7809 34.8412 35.8372 34.8213 34.6848 34.8213Z" stroke="#7F76B3" stroke-width="2" stroke-linecap="round" stroke-linejoin="round"/>
<path d="M36.4848 28.0713C36.4848 28.0427 36.4846 28.0144 36.4842 27.9865C36.4651 26.5656 35.0881 25.9448 33.6678 25.9003C32.3697 25.8597 30.4718 25.8213 27.9348 25.8213C25.3978 25.8213 23.4998 25.8597 22.2017 25.9003C20.7814 25.9448 19.4044 26.5656 19.3853 27.9865C19.385 28.0144 19.3848 28.0427 19.3848 28.0713C19.3848 28.1166 19.3852 28.1609 19.3862 28.2044C19.4159 29.5939 20.7625 30.2012 22.1516 30.2448C23.4161 30.2845 25.2995 30.3213 27.9348 30.3213C30.5701 30.3213 32.4535 30.2845 33.7179 30.2448C35.107 30.2012 36.4537 29.5939 36.4833 28.2044C36.4843 28.1609 36.4848 28.1166 36.4848 28.0713Z" stroke="#7F76B3" stroke-width="2" stroke-linecap="round" stroke-linejoin="round"/>
<path d="M21.1848 16.8213C20.0323 16.8213 19.0887 16.8412 18.3446 16.8674C16.9513 16.9166 15.7848 17.6771 15.7848 19.0713C15.7848 20.4674 16.9483 21.2311 18.3436 21.2783C19.0743 21.303 20.0116 21.3213 21.1848 21.3213C22.358 21.3213 23.2952 21.303 24.0259 21.2783C25.4213 21.2311 26.5848 20.4674 26.5848 19.0713C26.5848 17.6771 25.4183 16.9166 24.0249 16.8674C23.2809 16.8412 22.3372 16.8213 21.1848 16.8213Z" stroke="#7F76B3" stroke-width="2" stroke-linecap="round" stroke-linejoin="round"/>
</g>
</g>
<defs>
<clipPath id="clip0_26_39">
<rect width="55" height="55" fill="white" transform="translate(0.434814 0.571289)"/>
</clipPath>
<clipPath id="clip1_26_39">
<rect width="26.1" height="24.3" fill="white" transform="translate(14.8848 15.9209)"/>
</clipPath>
</defs>
</svg>
