<svg width="56" height="56" viewBox="0 0 56 56" fill="none" xmlns="http://www.w3.org/2000/svg">
<mask id="mask0_26_110" style="mask-type:alpha" maskUnits="userSpaceOnUse" x="0" y="0" width="56" height="56">
<g clip-path="url(#clip0_26_110)">
<path d="M55.4348 28.0713C55.4348 21.9261 55.1687 16.9467 54.8252 13.0792C54.2506 6.60826 49.3978 1.75553 42.9269 1.18087C39.0594 0.837407 34.08 0.571289 27.9348 0.571289C21.7896 0.571289 16.8102 0.837407 12.9427 1.18087C6.47178 1.75553 1.61905 6.60826 1.04439 13.0792C0.700932 16.9467 0.434814 21.9261 0.434814 28.0713C0.434814 34.4475 0.721319 39.5686 1.08345 43.4949C1.65863 49.7311 6.26196 54.4087 12.5 54.9637C16.3494 55.3062 21.43 55.5713 27.9348 55.5713C34.4396 55.5713 39.5202 55.3062 43.3696 54.9637C49.6077 54.4087 54.211 49.7311 54.7862 43.4949C55.1483 39.5686 55.4348 34.4475 55.4348 28.0713Z" fill="black"/>
</g>
</mask>
<g mask="url(#mask0_26_110)">
<rect width="55" height="55" transform="translate(0.434814 0.571289)" fill="#F8F8FC"/>
<path d="M40.015 22.16L40.0245 22.1819L40.0351 22.2032C42.0633 26.2851 41.7942 29.6096 40.2898 32.2664C38.7541 34.9785 35.8569 37.1235 32.4042 38.614C25.6573 41.5264 17.8891 39.1074 15.1931 32.8749C12.5206 26.697 16.2681 19.9985 23.0793 17.0583C29.8905 14.1181 37.3426 15.9821 40.015 22.16ZM18.4718 32.167C19.4946 34.5314 21.8604 35.6356 24.2019 35.9924C26.5553 36.3508 29.1239 36.0021 30.9359 35.2199C32.8158 34.4084 34.0691 32.9953 34.5789 31.1977C35.0815 29.4253 34.836 27.376 33.9318 25.2858C33.029 23.1986 31.6274 21.4342 29.9474 20.3793C28.2496 19.3131 26.2412 18.9652 24.2721 19.8151C22.3783 20.6327 20.4917 22.6294 19.2985 24.8687C18.1093 27.1005 17.4678 29.8462 18.4718 32.167Z" fill="url(#paint0_linear_26_110)" stroke="#7F76B3" stroke-width="2"/>
<path opacity="0.8" d="M15.134 32.4413C17.6376 39.9933 25.528 44.6348 33.0893 42.1486C40.6506 39.6623 44.215 31.2544 41.7114 23.7023C39.2078 16.1503 31.3175 11.5088 23.7562 13.995C16.1948 16.4813 12.6304 24.8893 15.134 32.4413ZM36.0871 25.5517C37.2489 29.0565 34.2268 37.734 29.8657 39.1679C25.5046 40.602 19.4463 36.6009 19.4364 31.4445C19.4264 26.2881 22.3402 24.4098 26.462 23.0376C30.5838 21.6653 34.9252 22.0469 36.0871 25.5517Z" fill="#7F76B3"/>
<path opacity="0.5" d="M39.506 33.8946C43.097 27.675 41.4928 19.5688 35.2792 15.9612C29.0655 12.3537 21.2566 14.9948 17.6656 21.2144C14.0746 27.4342 15.6787 35.5404 21.8923 39.1479C28.106 42.7554 35.915 40.1143 39.506 33.8946ZM22.2875 23.8979C23.954 21.0114 31.6194 17.8429 35.2032 19.9236C38.7871 22.0043 39.7238 28.4907 36.2523 31.5913C32.7808 34.6919 29.7657 33.8538 26.3671 31.8974C22.9685 29.9411 20.621 26.7844 22.2875 23.8979Z" fill="url(#paint1_linear_26_110)"/>
</g>
<defs>
<linearGradient id="paint0_linear_26_110" x1="22.734" y1="16.2271" x2="32.7555" y2="39.4426" gradientUnits="userSpaceOnUse">
<stop stop-color="#7F76B3"/>
<stop offset="1" stop-color="#7F76B3" stop-opacity="0"/>
</linearGradient>
<linearGradient id="paint1_linear_26_110" x1="39.506" y1="33.8946" x2="17.635" y2="21.2674" gradientUnits="userSpaceOnUse">
<stop stop-color="white"/>
<stop offset="1" stop-color="white" stop-opacity="0"/>
</linearGradient>
<clipPath id="clip0_26_110">
<rect width="55" height="55" fill="white" transform="translate(0.434814 0.571289)"/>
</clipPath>
</defs>
</svg>
