<svg width="56" height="56" viewBox="0 0 56 56" fill="none" xmlns="http://www.w3.org/2000/svg">
<mask id="mask0_26_48" style="mask-type:alpha" maskUnits="userSpaceOnUse" x="0" y="0" width="56" height="56">
<g clip-path="url(#clip0_26_48)">
<path d="M55.4348 28.0713C55.4348 21.9261 55.1687 16.9467 54.8252 13.0792C54.2506 6.60826 49.3978 1.75553 42.9269 1.18087C39.0594 0.837407 34.08 0.571289 27.9348 0.571289C21.7896 0.571289 16.8102 0.837407 12.9427 1.18087C6.47178 1.75553 1.61905 6.60826 1.04439 13.0792C0.700932 16.9467 0.434814 21.9261 0.434814 28.0713C0.434814 34.4475 0.721319 39.5686 1.08345 43.4949C1.65863 49.7311 6.26196 54.4087 12.5 54.9637C16.3494 55.3062 21.43 55.5713 27.9348 55.5713C34.4396 55.5713 39.5202 55.3062 43.3696 54.9637C49.6077 54.4087 54.211 49.7311 54.7862 43.4949C55.1483 39.5686 55.4348 34.4475 55.4348 28.0713Z" fill="black"/>
</g>
</mask>
<g mask="url(#mask0_26_48)">
<rect width="55" height="55" transform="translate(0.434814 0.571289)" fill="#F8F8FC"/>
<g clip-path="url(#clip1_26_48)">
<path fill-rule="evenodd" clip-rule="evenodd" d="M27.7974 41.3266C25.5752 41.3266 23.7876 41.2213 22.3846 41.0782C19.7104 40.8055 17.8329 38.7351 17.6135 36.056C17.4565 34.1398 17.3278 31.5122 17.3278 28.0481C17.3278 24.584 17.4565 21.9564 17.6135 20.0402C17.8329 17.3612 19.7104 15.2907 22.3846 15.018C23.7876 14.8749 25.5753 14.7695 27.7974 14.7695C29.9836 14.7695 31.8002 14.8715 33.2627 15.0111C36.1826 15.2897 38.2833 17.5708 38.5106 20.4953C38.6591 22.4045 38.7778 24.9119 38.7778 28.0481C38.7778 29.2509 38.7603 30.3612 38.7304 31.3807C36.2413 33.4773 33.2357 33.503 31.6707 33.3337C31.2085 33.2836 30.7673 33.7498 30.8346 34.2098C31.0583 35.7391 31.0866 38.6796 28.8002 41.3194C28.475 41.3241 28.1408 41.3266 27.7974 41.3266Z" fill="#7F76B3" fill-opacity="0.1"/>
<path d="M22.8072 41.119C24.1414 41.2409 25.7926 41.3266 27.7976 41.3266C29.7565 41.3266 31.4187 41.2447 32.7953 41.1274C36.007 40.8533 38.316 38.3489 38.5456 35.1337C38.6773 33.2886 38.7779 30.9347 38.7779 28.0481C38.7779 25.1615 38.6773 22.8076 38.5456 20.9625C38.316 17.7473 36.007 15.2428 32.7953 14.9689C31.4187 14.8514 29.7565 14.7695 27.7976 14.7695C25.7926 14.7695 24.1414 14.8553 22.8072 14.9772C19.8655 15.2459 17.8027 17.518 17.5803 20.4635C17.4388 22.3376 17.3279 24.8324 17.3279 28.0481C17.3279 31.2637 17.4388 33.7586 17.5803 35.6327C17.8027 38.5782 19.8655 40.8504 22.8072 41.119Z" fill="#7F76B3" fill-opacity="0.1" stroke="#7F76B3" stroke-width="2" stroke-linecap="round" stroke-linejoin="round"/>
<path d="M38.5225 31.1133C35.6078 34.2834 33.3747 31.1539 31.1172 33.4114C28.8596 35.6691 31.989 37.9022 28.5636 41.0721" stroke="#7F76B3" stroke-width="2" stroke-linecap="round" stroke-linejoin="round"/>
<path d="M22.9457 20.8994H33.1599" stroke="#7F76B3" stroke-width="2" stroke-linecap="round" stroke-linejoin="round"/>
<path d="M22.9457 26.0068H29.5849" stroke="#7F76B3" stroke-width="2" stroke-linecap="round" stroke-linejoin="round"/>
</g>
</g>
<defs>
<clipPath id="clip0_26_48">
<rect width="55" height="55" fill="white" transform="translate(0.434814 0.571289)"/>
</clipPath>
<clipPath id="clip1_26_48">
<rect width="24.3" height="28.8" fill="white" transform="translate(15.7848 13.6709)"/>
</clipPath>
</defs>
</svg>
