<svg width="56" height="56" viewBox="0 0 56 56" fill="none" xmlns="http://www.w3.org/2000/svg">
<mask id="mask0_26_119" style="mask-type:alpha" maskUnits="userSpaceOnUse" x="0" y="0" width="56" height="56">
<g clip-path="url(#clip0_26_119)">
<path d="M55.4348 28.0713C55.4348 21.9261 55.1687 16.9467 54.8252 13.0792C54.2506 6.60826 49.3978 1.75553 42.9269 1.18087C39.0594 0.837407 34.08 0.571289 27.9348 0.571289C21.7896 0.571289 16.8102 0.837407 12.9427 1.18087C6.47178 1.75553 1.61905 6.60826 1.04439 13.0792C0.700932 16.9467 0.434814 21.9261 0.434814 28.0713C0.434814 34.4475 0.721319 39.5686 1.08345 43.4949C1.65863 49.7311 6.26196 54.4087 12.5 54.9637C16.3494 55.3062 21.43 55.5713 27.9348 55.5713C34.4396 55.5713 39.5202 55.3062 43.3696 54.9637C49.6077 54.4087 54.211 49.7311 54.7862 43.4949C55.1483 39.5686 55.4348 34.4475 55.4348 28.0713Z" fill="black"/>
</g>
</mask>
<g mask="url(#mask0_26_119)">
<rect width="55" height="55" transform="translate(0.434814 0.571289)" fill="#F8F8FC"/>
<g clip-path="url(#clip1_26_119)">
<path d="M41.3701 28.0698C41.3701 26.5721 41.3088 25.2708 41.2163 24.1593C40.9523 20.9895 38.4235 18.779 35.2492 18.5761C33.3935 18.4574 31.0159 18.3662 28.0916 18.3662C25.1672 18.3662 22.7897 18.4574 20.9339 18.5761C17.7596 18.779 15.2308 20.9895 14.9668 24.1593C14.8743 25.2708 14.813 26.5721 14.813 28.0698C14.813 29.6411 14.8805 30.9964 14.9807 32.143C15.2502 35.2237 17.6836 37.3718 20.77 37.5673C22.6125 37.6842 25.024 37.7734 28.0916 37.7734C31.1591 37.7734 33.5707 37.6842 35.4132 37.5673C38.4995 37.3718 40.933 35.2237 41.2024 32.143C41.3027 30.9964 41.3701 29.6411 41.3701 28.0698Z" fill="#7F76B3" fill-opacity="0.1" stroke="#7F76B3" stroke-width="2" stroke-linecap="round" stroke-linejoin="round"/>
<path d="M29.1133 30.1113L32.6883 32.6649L36.2632 30.1113" stroke="#7F76B3" stroke-width="2" stroke-linecap="round" stroke-linejoin="round"/>
<path d="M36.2632 26.0262L32.6883 23.4727L29.1133 26.0262" stroke="#7F76B3" stroke-width="2" stroke-linecap="round" stroke-linejoin="round"/>
</g>
</g>
<defs>
<clipPath id="clip0_26_119">
<rect width="55" height="55" fill="white" transform="translate(0.434814 0.571289)"/>
</clipPath>
<clipPath id="clip1_26_119">
<rect width="29.7" height="22.5" fill="white" transform="translate(13.0847 16.8213)"/>
</clipPath>
</defs>
</svg>
