<svg width="56" height="56" viewBox="0 0 56 56" fill="none" xmlns="http://www.w3.org/2000/svg">
<mask id="mask0_26_79" style="mask-type:alpha" maskUnits="userSpaceOnUse" x="0" y="0" width="56" height="56">
<g clip-path="url(#clip0_26_79)">
<path d="M55.4348 28.0713C55.4348 21.9261 55.1687 16.9467 54.8252 13.0792C54.2506 6.60826 49.3978 1.75553 42.9269 1.18087C39.0594 0.837407 34.08 0.571289 27.9348 0.571289C21.7896 0.571289 16.8102 0.837407 12.9427 1.18087C6.47178 1.75553 1.61905 6.60826 1.04439 13.0792C0.700932 16.9467 0.434814 21.9261 0.434814 28.0713C0.434814 34.4475 0.721319 39.5686 1.08345 43.4949C1.65863 49.7311 6.26196 54.4087 12.5 54.9637C16.3494 55.3062 21.43 55.5713 27.9348 55.5713C34.4396 55.5713 39.5202 55.3062 43.3696 54.9637C49.6077 54.4087 54.211 49.7311 54.7862 43.4949C55.1483 39.5686 55.4348 34.4475 55.4348 28.0713Z" fill="black"/>
</g>
</mask>
<g mask="url(#mask0_26_79)">
<rect width="55" height="55" transform="translate(0.434814 0.571289)" fill="#F8F8FC"/>
<g clip-path="url(#clip1_26_79)">
<path d="M39.2899 15.0381L41.3328 17.847L34.9489 34.7006L28.8203 32.4024L35.9703 15.2934L39.2899 15.0381Z" fill="#7F76B3" fill-opacity="0.1"/>
<path d="M33.0171 37.849C31.7129 39.0567 29.1549 41.3653 28.8014 41.2309C28.4457 41.0957 28.2024 37.6807 28.1014 35.9482C28.0634 35.2957 28.1719 34.645 28.4096 34.0362L28.8014 33.0331L35.0979 16.9097C35.7305 15.2899 37.5275 14.4251 39.1529 15.0431C40.7348 15.6446 41.4672 17.4468 40.8516 19.0232L34.6281 34.9595L34.1569 36.166C33.9071 36.8059 33.5212 37.3823 33.0171 37.849Z" fill="#7F76B3" fill-opacity="0.1"/>
<path d="M28.8014 33.0331L28.4096 34.0362C28.1719 34.645 28.0634 35.2957 28.1014 35.9482C28.2024 37.6807 28.4457 41.0957 28.8014 41.2309C29.1549 41.3653 31.7129 39.0567 33.0171 37.849C33.5212 37.3823 33.9071 36.8059 34.1569 36.166L34.6281 34.9595M28.8014 33.0331L35.0979 16.9097C35.7305 15.2899 37.5275 14.4251 39.1529 15.0431C40.7348 15.6446 41.4672 17.4468 40.8516 19.0232L34.6281 34.9595M28.8014 33.0331C28.8014 33.0331 30.0972 32.8378 31.8847 33.4288C33.6721 34.0198 34.6281 34.9595 34.6281 34.9595" stroke="#7F76B3" stroke-width="2" stroke-linecap="round" stroke-linejoin="round"/>
<path d="M16.5635 19.3828C16.5635 19.3828 15.5421 21.4106 15.5421 28.0649C15.5421 34.7193 16.5635 36.7471 16.5635 36.7471" stroke="#7F76B3" stroke-width="2" stroke-linecap="round" stroke-linejoin="round"/>
<path d="M19.1168 16.8293C19.1168 16.8293 20.3936 16.0632 24.607 15.8078C28.8204 15.5525 31.1186 16.0632 31.1186 16.0632" stroke="#7F76B3" stroke-width="2" stroke-linecap="round" stroke-linejoin="round"/>
<path d="M19.1168 39.3018H24.4793" stroke="#7F76B3" stroke-width="2" stroke-linecap="round" stroke-linejoin="round"/>
<path d="M14.5205 17.0863C14.5205 18.3556 15.5495 19.3845 16.8187 19.3845C18.088 19.3845 19.1169 18.3556 19.1169 17.0863C19.1169 15.817 18.088 14.7881 16.8187 14.7881C15.5495 14.7881 14.5205 15.817 14.5205 17.0863Z" fill="#7F76B3" fill-opacity="0.1" stroke="#7F76B3" stroke-width="2" stroke-linecap="round" stroke-linejoin="round"/>
<path d="M14.5205 39.0463C14.5205 40.3156 15.5495 41.3444 16.8187 41.3444C18.088 41.3444 19.1169 40.3156 19.1169 39.0463C19.1169 37.777 18.088 36.748 16.8187 36.748C15.5495 36.748 14.5205 37.777 14.5205 39.0463Z" fill="#7F76B3" fill-opacity="0.1" stroke="#7F76B3" stroke-width="2" stroke-linecap="round" stroke-linejoin="round"/>
</g>
</g>
<defs>
<clipPath id="clip0_26_79">
<rect width="55" height="55" fill="white" transform="translate(0.434814 0.571289)"/>
</clipPath>
<clipPath id="clip1_26_79">
<rect width="28.8" height="28.8" fill="white" transform="translate(13.5348 13.6709)"/>
</clipPath>
</defs>
</svg>
