<svg width="41" height="41" viewBox="0 0 41 41" fill="none" xmlns="http://www.w3.org/2000/svg">
<mask id="mask0_26_463" style="mask-type:alpha" maskUnits="userSpaceOnUse" x="0" y="0" width="41" height="41">
<g clip-path="url(#clip0_26_463)">
<path d="M20.9348 40.0205C24.8349 40.0205 28.0893 39.8731 30.7241 39.6696C36.1217 39.2526 40.1669 35.2075 40.5839 29.8099C40.7874 27.1752 40.9348 23.9209 40.9348 20.021C40.9348 16.1211 40.7874 12.8669 40.5839 10.2321C40.1669 4.83453 36.1217 0.789336 30.7241 0.372395C28.0893 0.168866 24.8349 0.0214845 20.9348 0.0214844C16.8532 0.0214842 13.4788 0.1829 10.7817 0.401162C5.57983 0.822115 1.68977 4.66154 1.28799 9.86493C1.08329 12.5159 0.934815 15.8696 0.934814 20.021C0.934814 24.1724 1.08329 27.5261 1.28799 30.177C1.68977 35.3804 5.57983 39.2199 10.7817 39.6408C13.4788 39.8591 16.8532 40.0205 20.9348 40.0205Z" fill="black"/>
</g>
</mask>
<g mask="url(#mask0_26_463)">
<rect width="40" height="40" transform="translate(0.934814 0.0214844)" fill="#F8F8FC"/>
<g clip-path="url(#clip1_26_463)">
<path d="M20.7424 8.13965C14.286 8.13965 9.052 13.3736 9.052 19.83C9.052 20.145 9.06445 20.457 9.08889 20.7657C9.24338 22.7166 11.6438 23.1452 13.1223 21.8631C15.9334 19.4253 20.397 16.3284 25.0139 16.233C28.563 16.1597 30.2219 17.901 30.9807 19.7877C31.2452 20.4452 32.4328 20.5388 32.4328 19.8301C32.4328 13.3736 27.1989 8.13965 20.7424 8.13965Z" fill="#242236" fill-opacity="0.09"/>
<path d="M25.0136 18.7061L21.8662 26.125" stroke="#24223E" stroke-width="2" stroke-linecap="round" stroke-linejoin="round"/>
<path d="M31.5336 24.3343C32.1129 22.948 32.4328 21.4264 32.4328 19.8301C32.4328 13.3736 27.1989 8.13965 20.7424 8.13965C14.286 8.13965 9.052 13.3736 9.052 19.83C9.052 21.5978 9.44435 23.2739 10.1467 24.776" stroke="#24223E" stroke-width="2" stroke-linecap="round" stroke-linejoin="round"/>
<path d="M13.0994 20.0854C13.0994 15.723 16.7229 12.1865 21.1927 12.1865" stroke="#24223E" stroke-width="2" stroke-linecap="round" stroke-linejoin="round"/>
<path d="M20.742 31.5206C22.2319 31.5206 23.4398 30.3127 23.4398 28.8228C23.4398 27.3328 22.2319 26.125 20.742 26.125C19.252 26.125 18.0442 27.3328 18.0442 28.8228C18.0442 30.3127 19.252 31.5206 20.742 31.5206Z" fill="#242236" fill-opacity="0.09" stroke="#24223E" stroke-width="2" stroke-linecap="round" stroke-linejoin="round"/>
</g>
</g>
<defs>
<clipPath id="clip0_26_463">
<rect width="40" height="40" fill="white" transform="translate(0.934814 0.0214844)"/>
</clipPath>
<clipPath id="clip1_26_463">
<rect width="26" height="26" fill="white" transform="translate(7.93481 7.02148)"/>
</clipPath>
</defs>
</svg>
