<svg width="83" height="42" viewBox="0 0 83 42" fill="none" xmlns="http://www.w3.org/2000/svg">
<g clip-path="url(#clip0_26_347)">
<path d="M41.5535 1.3291C46.5984 1.3291 50.0226 1.4658 52.2255 1.60899C54.2291 1.73923 55.7514 3.30281 55.9183 5.30378C56.0798 7.23993 56.2417 9.69085 56.2449 11.7642C56.2483 13.9786 56.0706 16.6237 55.9038 18.6124C55.7519 20.4231 54.476 21.8993 52.6768 22.1524C50.6209 22.4416 47.4233 22.7454 42.8843 22.795C42.4617 22.7997 42.5786 22.8021 42.1327 22.8021C42.1327 22.8021 40.3229 24.9156 37.8948 27.0402C35.1185 29.4694 33.0914 30.7132 33.0914 30.7132C33.0914 30.7132 33.3742 28.664 33.3742 26.4751C33.3742 25.0082 33.2472 23.6759 33.1634 22.9567C33.1258 22.6341 32.851 22.3971 32.5263 22.3971C31.7513 22.3186 31.0734 22.2352 30.4879 22.1529C28.6864 21.8997 27.4048 20.4214 27.2484 18.6091C27.0769 16.6208 26.8926 13.9774 26.8892 11.7642C26.886 9.68963 27.0417 7.23704 27.1986 5.30036C27.3606 3.30103 28.8773 1.73943 30.879 1.60921C33.0814 1.46593 36.506 1.3291 41.5535 1.3291Z" fill="#24223E" fill-opacity="0.1"/>
<path d="M42.1327 22.8021C42.5786 22.8021 42.4617 22.7997 42.8843 22.795M42.1327 22.8021L42.8843 22.795M42.1327 22.8021C42.1327 22.8021 40.3229 24.9156 37.8948 27.0402C35.1185 29.4694 33.0914 30.7132 33.0914 30.7132C33.0914 30.7132 33.3742 28.664 33.3742 26.4751C33.3742 25.0082 33.2472 23.6759 33.1634 22.9567C33.1258 22.6341 32.851 22.3971 32.5263 22.3971C31.7513 22.3186 31.0734 22.2352 30.4879 22.1529C28.6864 21.8997 27.4048 20.4214 27.2484 18.6091C27.0769 16.6208 26.8926 13.9774 26.8892 11.7642C26.886 9.68963 27.0417 7.23704 27.1986 5.30036C27.3606 3.30103 28.8773 1.73943 30.879 1.60921C33.0814 1.46593 36.506 1.3291 41.5535 1.3291C46.5984 1.3291 50.0226 1.4658 52.2255 1.60899C54.2291 1.73923 55.7514 3.30281 55.9183 5.30378C56.0798 7.23993 56.2417 9.69085 56.2449 11.7642C56.2483 13.9786 56.0706 16.6237 55.9038 18.6124C55.7519 20.4231 54.476 21.8993 52.6768 22.1524C50.6209 22.4416 47.4233 22.7454 42.8843 22.795" stroke="#514B81" stroke-width="2" stroke-linecap="round" stroke-linejoin="round"/>
<path d="M34.7871 14.3262H42.6983" stroke="#514B81" stroke-width="2" stroke-linecap="round" stroke-linejoin="round"/>
<path d="M34.7871 8.67578H48.349" stroke="#514B81" stroke-width="2" stroke-linecap="round" stroke-linejoin="round"/>
</g>
<defs>
<clipPath id="clip0_26_347">
<rect width="32" height="32" fill="white" transform="translate(25.3848 0.0214844)"/>
</clipPath>
</defs>
</svg>
