<svg width="41" height="41" viewBox="0 0 41 41" fill="none" xmlns="http://www.w3.org/2000/svg">
<mask id="mask0_26_431" style="mask-type:alpha" maskUnits="userSpaceOnUse" x="0" y="0" width="41" height="41">
<g clip-path="url(#clip0_26_431)">
<path d="M20.9348 40.0205C24.8349 40.0205 28.0893 39.8731 30.7241 39.6696C36.1217 39.2526 40.1669 35.2075 40.5839 29.8099C40.7874 27.1752 40.9348 23.9209 40.9348 20.021C40.9348 16.1211 40.7874 12.8669 40.5839 10.2321C40.1669 4.83453 36.1217 0.789336 30.7241 0.372395C28.0893 0.168866 24.8349 0.0214845 20.9348 0.0214844C16.8532 0.0214842 13.4788 0.1829 10.7817 0.401162C5.57983 0.822115 1.68977 4.66154 1.28799 9.86493C1.08329 12.5159 0.934815 15.8696 0.934814 20.021C0.934814 24.1724 1.08329 27.5261 1.28799 30.177C1.68977 35.3804 5.57983 39.2199 10.7817 39.6408C13.4788 39.8591 16.8532 40.0205 20.9348 40.0205Z" fill="black"/>
</g>
</mask>
<g mask="url(#mask0_26_431)">
<rect width="40" height="40" transform="translate(0.934814 0.0214844)" fill="#F8F8FC"/>
<g clip-path="url(#clip1_26_431)">
<path d="M24.8558 20.021C24.8558 17.8548 23.0997 16.0986 20.9334 16.0986C18.7671 16.0986 17.011 17.8548 17.011 20.021C17.011 22.1873 18.7671 23.9434 20.9334 23.9434C23.0997 23.9434 24.8558 22.1873 24.8558 20.021Z" stroke="#24223E" stroke-width="2" stroke-linecap="round" stroke-linejoin="round"/>
<path d="M18.7578 29.1543C19.4545 29.3377 20.1835 29.4353 20.9342 29.4353C21.7603 29.4353 22.5603 29.3174 23.3197 29.0966L23.76 29.9C24.254 30.8015 25.2276 31.1838 26.0834 30.6633L27.1164 30.035C27.9721 29.5145 28.1296 28.4442 27.6355 27.5427L27.1963 26.7411C28.3057 25.5953 29.1331 24.1475 29.5584 22.524H30.4764C31.4645 22.524 32.2656 21.6801 32.2656 20.639V19.3824C32.2656 18.3414 31.4645 17.4975 30.4764 17.4975H29.5584C29.1331 15.8739 28.3057 14.4262 27.1963 13.2804L27.6355 12.4788C28.1296 11.5773 27.9721 10.507 27.1163 9.98647L26.0834 9.35817C25.2276 8.83766 24.2691 9.22911 23.775 10.1306L23.2333 10.9003C22.4996 10.6954 21.729 10.5862 20.9342 10.5862C20.108 10.5862 19.3081 10.704 18.5486 10.9249L18.0934 10.1306C17.5993 9.2291 16.6407 8.83766 15.785 9.35817L14.752 9.98647C13.8962 10.507 13.7237 11.5864 14.2178 12.4879L14.6721 13.2804C13.5626 14.4262 12.7353 15.8739 12.3099 17.4975H11.392C10.4038 17.4975 9.60278 18.3414 9.60278 19.3824V20.639C9.60278 21.6801 10.4038 22.524 11.392 22.524H12.3099C12.7353 24.1475 13.5626 25.5953 14.6721 26.7411L14.2328 27.5427C13.7388 28.4442 13.8963 29.5145 14.752 30.035L15.785 30.6633C16.6407 31.1838 17.735 30.8749 18.229 29.9733L18.7578 29.1543Z" stroke="#24223E" stroke-width="2" stroke-linecap="round" stroke-linejoin="round"/>
<path fill-rule="evenodd" clip-rule="evenodd" d="M20.9342 29.4353C20.1835 29.4353 19.4545 29.3377 18.7578 29.1543L18.229 29.9733C17.735 30.8749 16.6407 31.1838 15.785 30.6633L14.752 30.035C13.8963 29.5145 13.7388 28.4442 14.2328 27.5426L14.6721 26.7411C13.5626 25.5952 12.7353 24.1475 12.3099 22.5239H11.3919C10.4038 22.5239 9.60278 21.68 9.60278 20.639V19.3824C9.60278 18.3414 10.4038 17.4975 11.3919 17.4975H12.3099C12.7353 15.8739 13.5626 14.4262 14.6721 13.2804L14.2178 12.4879C13.7237 11.5864 13.8962 10.507 14.752 9.98647L15.785 9.35817C16.6407 8.83766 17.5993 9.2291 18.0934 10.1306L18.5486 10.9249C19.3081 10.704 20.108 10.5862 20.9342 10.5862C21.729 10.5862 22.4996 10.6954 23.2333 10.9003L23.775 10.1307C24.2691 9.22912 25.2276 8.83766 26.0834 9.35817L27.1163 9.98647C27.9721 10.507 28.1296 11.5773 27.6355 12.4788L27.1963 13.2804C28.3057 14.4262 29.1331 15.8739 29.5584 17.4975H30.4764C31.4645 17.4975 32.2656 18.3414 32.2656 19.3824V20.639C32.2656 21.68 31.4645 22.5239 30.4764 22.5239H29.5584C29.1331 24.1475 28.3057 25.5952 27.1963 26.7411L27.6355 27.5426C28.1296 28.4442 27.9721 29.5145 27.1164 30.035L26.0834 30.6633C25.2276 31.1838 24.254 30.8015 23.76 29.8999L23.3197 29.0966C22.5603 29.3174 21.7603 29.4353 20.9342 29.4353ZM20.9334 16.098C18.7671 16.098 17.011 17.8541 17.011 20.0204C17.011 22.1866 18.7671 23.9428 20.9334 23.9428C23.0997 23.9428 24.8558 22.1866 24.8558 20.0204C24.8558 17.8541 23.0997 16.098 20.9334 16.098Z" fill="#242236" fill-opacity="0.09"/>
</g>
</g>
<defs>
<clipPath id="clip0_26_431">
<rect width="40" height="40" fill="white" transform="translate(0.934814 0.0214844)"/>
</clipPath>
<clipPath id="clip1_26_431">
<rect width="26" height="24" fill="white" transform="translate(7.93481 8.02148)"/>
</clipPath>
</defs>
</svg>
