<svg width="97" height="43" viewBox="0 0 97 43" fill="none" xmlns="http://www.w3.org/2000/svg">
<path d="M61.5476 3.88372L63.5254 10.6647L62.9603 28.1821L58.1571 31.5726L46.573 31.7564L51.0936 2.18848L61.5476 3.88372Z" fill="#514B81" fill-opacity="0.1"/>
<path d="M42.617 17.163L39.9602 12.6464C39.8562 12.4695 39.8562 12.2502 39.9602 12.0733L42.6171 7.55664" stroke="#514B81" stroke-width="2" stroke-linecap="round" stroke-linejoin="round"/>
<path d="M55.0503 17.1631L57.7072 21.6798C57.8112 21.8566 57.8112 22.076 57.7072 22.2528L55.0503 26.7695" stroke="#514B81" stroke-width="2" stroke-linecap="round" stroke-linejoin="round"/>
<path d="M46.5739 31.2905L51.0945 2.75391" stroke="#514B81" stroke-width="2" stroke-linecap="round" stroke-linejoin="round"/>
<path d="M63.5255 17.1628C63.5255 13.3281 63.3315 10.3431 63.1043 8.16195C62.8085 5.3221 60.6741 3.18769 57.8342 2.89187C55.653 2.66465 52.6681 2.4707 48.8334 2.4707C44.9988 2.4707 42.0138 2.66465 39.8326 2.89187C36.9928 3.18769 34.8584 5.3221 34.5625 8.16195C34.3353 10.3431 34.1414 13.3281 34.1414 17.1628C34.1414 21.1103 34.3469 24.1573 34.5827 26.3541C34.8764 29.0908 36.9004 31.151 39.6379 31.4383C41.7833 31.6635 44.7944 31.8548 48.8334 31.8548C52.8724 31.8548 55.8836 31.6635 58.029 31.4383C60.7664 31.151 62.7904 29.0908 63.0842 26.3541C63.3199 24.1573 63.5255 21.1103 63.5255 17.1628Z" stroke="#514B81" stroke-width="2" stroke-linecap="round" stroke-linejoin="round"/>
</svg>
