<svg width="61" height="29" viewBox="0 0 61 29" fill="none" xmlns="http://www.w3.org/2000/svg">
<g clip-path="url(#clip0_26_593)">
<path d="M47.1534 0.0917969H14.987C7.37571 0.0917969 1.20557 6.26192 1.20557 13.8731C1.20557 21.4844 7.37571 27.6545 14.987 27.6545H47.1534C54.7646 27.6545 60.9348 21.4844 60.9348 13.8731C60.9348 6.26192 54.7646 0.0917969 47.1534 0.0917969Z" fill="#4AB9FD"/>
<path d="M46.9135 24.0963C52.6614 24.0963 57.3209 19.5184 57.3209 13.8714C57.3209 8.22433 52.6614 3.64648 46.9135 3.64648C41.1657 3.64648 36.5061 8.22433 36.5061 13.8714C36.5061 19.5184 41.1657 24.0963 46.9135 24.0963Z" fill="white"/>
</g>
<defs>
<clipPath id="clip0_26_593">
<rect width="60" height="28" fill="white" transform="translate(0.93457 0.0917969)"/>
</clipPath>
</defs>
</svg>
