<svg width="40" height="42" viewBox="0 0 40 42" fill="none" xmlns="http://www.w3.org/2000/svg">
<g clip-path="url(#clip0_26_335)">
<path d="M33.1327 27.6539C33.8014 25.8531 34.6809 22.456 34.6809 17.0452C34.6809 15.4181 34.3948 11.4434 34.3948 11.4434C34.3948 11.4434 29.2444 10.2988 19.802 10.2988C10.3596 10.2988 4.92313 11.4434 4.92313 11.4434L4.9231 17.0452C4.9231 22.5626 5.83762 25.9547 6.51059 27.7039C6.89961 28.715 7.6968 29.4722 8.73696 29.7753C10.4408 30.2718 13.786 30.9004 19.802 30.9004C25.6584 30.9004 28.9839 30.332 30.728 29.8648C31.8574 29.5623 32.7258 28.75 33.1327 27.6539Z" fill="#514B81" fill-opacity="0.1" stroke="#292D34"/>
<path d="M16.3684 22.8887H22.6634" stroke="#292D34" stroke-width="2" stroke-linecap="round" stroke-linejoin="round"/>
<path d="M16.3684 17.7383H27.2415" stroke="#292D34" stroke-width="2" stroke-linecap="round" stroke-linejoin="round"/>
<path d="M12.3625 17.166C12.0465 17.166 11.7903 17.4222 11.7903 17.7383C11.7903 18.0543 12.0465 18.3105 12.3625 18.3105C12.6786 18.3105 12.9348 18.0543 12.9348 17.7383C12.9348 17.4222 12.6786 17.166 12.3625 17.166Z" fill="#514B81" stroke="#292D34" stroke-width="2" stroke-linecap="round" stroke-linejoin="round"/>
<path d="M12.3625 22.3164C12.0465 22.3164 11.7903 22.5726 11.7903 22.8887C11.7903 23.2047 12.0465 23.4609 12.3625 23.4609C12.6786 23.4609 12.9348 23.2047 12.9348 22.8887C12.9348 22.5726 12.6786 22.3164 12.3625 22.3164Z" fill="#514B81" stroke="#292D34" stroke-width="2" stroke-linecap="round" stroke-linejoin="round"/>
<path d="M34.472 11.4434C34.415 10.6548 34.3498 9.93051 34.281 9.27181C33.9699 6.29637 31.6965 4.06925 28.7172 3.79789C26.527 3.5984 23.5694 3.43164 19.802 3.43164C16.0346 3.43164 13.077 3.5984 10.8869 3.79789C7.90755 4.06925 5.63416 6.29637 5.32307 9.27181C5.2542 9.93051 5.189 10.6548 5.13201 11.4434M34.472 11.4434C34.5958 13.1562 34.6809 15.1722 34.6809 17.4782C34.6809 20.8341 34.5007 23.4776 34.2832 25.4457C33.9769 28.2187 31.8758 30.2592 29.0982 30.5214C26.9266 30.7265 23.8822 30.9004 19.802 30.9004C15.7219 30.9004 12.6774 30.7265 10.5058 30.5214C7.72828 30.2592 5.62715 28.2187 5.32079 25.4457C5.10335 23.4776 4.9231 20.8341 4.9231 17.4782C4.9231 15.1722 5.00821 13.1562 5.13201 11.4434M34.472 11.4434C34.472 11.4434 28.9646 10.2988 19.802 10.2988C10.6394 10.2988 5.13201 11.4434 5.13201 11.4434" stroke="#292D34" stroke-width="2" stroke-linecap="round" stroke-linejoin="round"/>
<path d="M11.8343 1.14258C11.8343 1.14258 11.7903 2.04866 11.7903 6.29297M27.7697 1.14258C27.7697 1.14258 27.8137 2.04866 27.8137 6.29297" stroke="#292D34" stroke-width="2" stroke-linecap="round" stroke-linejoin="round"/>
</g>
<defs>
<clipPath id="clip0_26_335">
<rect width="32" height="32" fill="white" transform="translate(3.74487 0.0214844)"/>
</clipPath>
</defs>
</svg>
