<svg width="145" height="33" viewBox="0 0 145 33" fill="none" xmlns="http://www.w3.org/2000/svg">
<g clip-path="url(#clip0_26_912)">
<path d="M23.1648 0.589844H2.70481C1.73481 0.589844 0.934814 1.35984 0.934814 2.30984V22.8698C0.934814 23.8198 1.73481 24.5898 2.70481 24.5898H23.1648C24.1448 24.5898 24.9348 23.8198 24.9348 22.8698V2.30984C24.9348 1.35984 24.1348 0.589844 23.1648 0.589844ZM8.20481 20.6898H4.58481V9.82984H8.20481V20.6898ZM6.40481 8.34984H6.37481C5.15481 8.34984 4.37481 7.51984 4.37481 6.47984C4.37481 5.41984 5.17481 4.60984 6.42481 4.60984C7.66481 4.60984 8.42481 5.40984 8.44481 6.47984C8.44481 7.51984 7.66481 8.34984 6.39481 8.34984H6.40481ZM21.2748 20.6898H17.6448V14.8898C17.6448 13.4398 17.1248 12.4398 15.8148 12.4398C14.8148 12.4398 14.2148 13.1098 13.9448 13.7598C13.8448 13.9898 13.8348 14.3098 13.8348 14.6398V20.6898H10.2148C10.2148 20.6898 10.2648 10.8698 10.2148 9.84984H13.8448V11.3898C14.1725 10.8211 14.6494 10.3528 15.224 10.0356C15.7986 9.71832 16.449 9.56419 17.1048 9.58984C19.4948 9.58984 21.2848 11.1498 21.2848 14.4798V20.6898H21.2748Z" fill="white"/>
</g>
<g clip-path="url(#clip1_26_912)">
<path d="M63.4348 0.589844C64.2648 0.589844 64.9348 1.25984 64.9348 2.08984V23.0898C64.9348 23.9198 64.2648 24.5898 63.4348 24.5898H57.4348V15.5898H60.4348L61.1848 11.8398H57.4348V10.3398C57.4348 8.83984 58.1848 8.08984 59.6848 8.08984H61.1848V4.33984H58.1848C55.4248 4.33984 53.6848 6.49984 53.6848 9.58984V11.8398H50.6848V15.5898H53.6848V24.5898H42.4348C42.037 24.5898 41.6555 24.4318 41.3742 24.1505C41.0928 23.8692 40.9348 23.4877 40.9348 23.0898V2.08984C40.9348 1.25984 41.6048 0.589844 42.4348 0.589844H63.4348Z" fill="white"/>
</g>
<g clip-path="url(#clip2_26_912)">
<path d="M97.9148 0.590047C98.8516 0.5577 99.7852 0.716586 100.659 1.05701C101.532 1.39743 102.327 1.91225 102.995 2.57005C103.639 3.23785 104.142 4.02794 104.475 4.8936C104.808 5.75927 104.965 6.68295 104.935 7.61005V17.57C104.935 19.65 104.255 21.44 102.955 22.7C101.576 23.9733 99.7507 24.6523 97.8748 24.59H87.9948C86.1345 24.6477 84.3268 23.9684 82.9648 22.7C82.2896 22.0238 81.7609 21.2158 81.4117 20.3263C81.0624 19.4369 80.9001 18.485 80.9348 17.53V7.61005C80.9348 3.39005 83.7348 0.590047 87.9548 0.590047H97.9148ZM97.9648 2.82005H87.9948C86.5448 2.82005 85.2948 3.25005 84.4648 4.07005C84.0213 4.54243 83.6775 5.09939 83.4542 5.70763C83.2308 6.31587 83.1324 6.9629 83.1648 7.61005V17.53C83.1648 19.03 83.5948 20.23 84.4648 21.11C85.4351 21.9683 86.7006 22.4164 87.9948 22.36H97.8748C99.1689 22.4164 100.434 21.9683 101.405 21.11C101.871 20.6492 102.236 20.0965 102.477 19.4871C102.718 18.8777 102.829 18.2249 102.805 17.57V7.61005C102.837 6.32271 102.371 5.07257 101.505 4.12005C101.032 3.67654 100.475 3.33283 99.8672 3.10947C99.2589 2.8861 98.6119 2.78767 97.9648 2.82005ZM92.9348 6.35005C96.3248 6.35005 99.1348 9.15005 99.1348 12.55C99.1348 14.1944 98.4815 15.7714 97.3188 16.9341C96.1561 18.0968 94.5791 18.75 92.9348 18.75C91.2904 18.75 89.7134 18.0968 88.5507 16.9341C87.388 15.7714 86.7348 14.1944 86.7348 12.55C86.7348 10.9057 87.388 9.32871 88.5507 8.16598C89.7134 7.00326 91.2904 6.35005 92.9348 6.35005ZM92.9348 8.57005C91.8835 8.5753 90.8767 8.99526 90.1334 9.73864C89.39 10.482 88.97 11.4888 88.9648 12.54C88.97 13.5913 89.39 14.5981 90.1334 15.3415C90.8767 16.0848 91.8835 16.5048 92.9348 16.51C93.986 16.5048 94.9928 16.0848 95.7362 15.3415C96.4795 14.5981 96.8995 13.5913 96.9048 12.54C96.8995 11.4888 96.4795 10.482 95.7362 9.73864C94.9928 8.99526 93.986 8.5753 92.9348 8.57005ZM99.3748 4.80005C99.7461 4.80005 100.102 4.94755 100.365 5.2101C100.627 5.47265 100.775 5.82874 100.775 6.20005C100.775 6.57135 100.627 6.92745 100.365 7.19C100.102 7.45255 99.7461 7.60005 99.3748 7.60005C99.0035 7.60005 98.6474 7.45255 98.3848 7.19C98.1223 6.92745 97.9748 6.57135 97.9748 6.20005C97.9748 5.82874 98.1223 5.47265 98.3848 5.2101C98.6474 4.94755 99.0035 4.80005 99.3748 4.80005Z" fill="white"/>
</g>
<path d="M139.179 2.83984H142.487L135.26 11.0998L143.762 22.3398H137.105L131.891 15.5228L125.925 22.3398H122.615L130.345 13.5048L122.189 2.83984H129.015L133.728 9.07084L139.179 2.83984ZM138.018 20.3598H139.851L128.019 4.71584H126.052L138.018 20.3598Z" fill="white"/>
<defs>
<clipPath id="clip0_26_912">
<rect width="24" height="24" fill="white" transform="translate(0.934814 0.589844)"/>
</clipPath>
<clipPath id="clip1_26_912">
<rect width="24" height="24" fill="white" transform="translate(40.9348 0.589844)"/>
</clipPath>
<clipPath id="clip2_26_912">
<rect width="24" height="24" fill="white" transform="translate(80.9348 0.589844)"/>
</clipPath>
</defs>
</svg>
