<svg width="64" height="42" viewBox="0 0 64 42" fill="none" xmlns="http://www.w3.org/2000/svg">
<g clip-path="url(#clip0_26_356)">
<path d="M46.1857 20.6325C46.3763 19.0005 46.5261 16.831 46.5261 14.0438C46.5261 11.282 46.379 9.05314 46.1909 7.33225C45.883 4.51564 43.6806 2.48881 40.8577 2.24478C38.6746 2.05604 35.6821 1.89453 31.834 1.89453C27.986 1.89453 24.9935 2.05604 22.8103 2.24478C19.9875 2.48881 17.785 4.51564 17.4772 7.33225C17.2891 9.05314 17.142 11.282 17.142 14.0438C17.142 16.831 17.2918 19.0005 17.4824 20.6325C17.7836 23.2115 19.7878 25.025 22.3737 25.2599C24.5336 25.4562 27.626 25.6279 31.834 25.6279C36.0421 25.6279 39.1344 25.4562 41.2944 25.2599C43.8803 25.025 45.8845 23.2115 46.1857 20.6325Z" fill="#24223E" fill-opacity="0.1" stroke="#514B81" stroke-width="2" stroke-linecap="round" stroke-linejoin="round"/>
<path d="M39.7455 19.9769V19.9769C39.7455 20.289 39.9985 20.542 40.3106 20.542H40.3106C40.6226 20.542 40.8756 20.289 40.8756 19.9769V19.9769C40.8756 19.6648 40.6226 19.4118 40.3106 19.4118H40.3106C39.9985 19.4118 39.7455 19.6648 39.7455 19.9769Z" fill="#514B81" stroke="#514B81" stroke-width="2" stroke-linecap="round" stroke-linejoin="round"/>
<path d="M41.4406 30.1481C41.4406 30.1481 38.5284 29.583 31.8343 29.583C25.1402 29.583 22.2279 30.1481 22.2279 30.1481" stroke="#514B81" stroke-width="2" stroke-linecap="round" stroke-linejoin="round"/>
</g>
<defs>
<clipPath id="clip0_26_356">
<rect width="32" height="32" fill="white" transform="translate(16.0248 0.0214844)"/>
</clipPath>
</defs>
</svg>
