<svg width="386" height="280" viewBox="0 0 386 280" fill="none" xmlns="http://www.w3.org/2000/svg">
<mask id="mask0_26_510" style="mask-type:alpha" maskUnits="userSpaceOnUse" x="0" y="0" width="386" height="280">
<g clip-path="url(#clip0_26_510)">
<path d="M-4.63745 3.75781L416.299 32.9797V328.211H-4.63745V3.75781Z" fill="black"/>
</g>
</mask>
<g mask="url(#mask0_26_510)">
<rect width="385" height="279" transform="translate(0.434814 0.210938)" fill="url(#paint0_linear_26_510)"/>
<g clip-path="url(#clip1_26_510)">
<path d="M45.8251 41.4171V44.8743H53.8353V49.4519H45.8251V57.6028H40.4348V36.8463H54.4236V41.4171H45.8251ZM58.7263 57.6028V36.8463H64.1166V57.6028H58.7263ZM84.556 57.6028L74.6236 44.9016V57.596H69.2333V36.8463H74.6236L84.5628 49.5407V36.8463H89.9531V57.6028H84.556ZM108.956 57.6028L107.615 53.9954H100.173L98.7431 57.6028H93.0792L100.925 36.8463H106.904L114.723 57.6028H108.956ZM103.908 43.2892L101.664 49.8892H106.151L103.908 43.2892ZM145.389 41.4171V57.596H139.998V41.4171H135.005V36.8463H150.478V41.4171H145.389ZM164.638 57.6028L159.466 49.6364V57.6028H154.076V36.8463H162.49C164.453 36.8463 166.163 37.2221 167.566 38.6842C168.749 39.9004 169.344 41.6085 169.344 43.2892C169.344 44.5942 168.94 46.0563 168.161 47.1152C167.319 48.2631 166.197 48.796 164.829 49.1034L171.341 57.596H164.638V57.6028ZM160.492 41.014H159.466V46.1519H160.492C162.175 46.1519 163.796 45.496 163.796 43.5693C163.796 41.6358 162.141 41.014 160.492 41.014ZM188.662 57.6028L187.321 53.9954H179.878L178.449 57.6028H172.751L180.727 36.8463H186.616L194.435 57.6028H188.662ZM183.613 43.2892L181.37 49.8892H185.857L183.613 43.2892ZM131.967 54.5351C130.613 57.1724 127.371 58.2109 124.573 58.2109C121.96 58.2109 119.34 57.2817 117.199 55.8059L119.6 51.4538C120.954 52.6494 122.555 53.5923 124.416 53.5923C125.736 53.5923 127.029 53.0252 127.029 51.5152C127.029 47.8668 118.122 50.6339 118.122 43.2824C118.122 39.0395 121.016 36.2109 125.236 36.2109C127.562 36.2109 129.608 36.7097 131.653 37.7755L129.82 42.2097C128.78 41.3625 127.535 40.7407 126.146 40.7407C125.079 40.7407 123.82 41.3352 123.82 42.565C123.82 45.6463 132.754 43.6308 132.754 50.7979C132.754 51.9935 132.535 53.4693 131.967 54.5351Z" fill="white"/>
</g>
<path d="M43.2766 101.646C42.8274 101.731 42.5116 102.057 42.3293 102.623C42.2382 102.903 42.1926 103.18 42.1926 103.453C42.1926 103.486 42.1926 103.515 42.1926 103.541C42.1991 103.561 42.2056 103.609 42.2122 103.688H43.2766V105.816H41.1965V103.854C41.1965 102.89 41.3886 102.148 41.7727 101.627C42.1568 101.106 42.6581 100.807 43.2766 100.729V101.646ZM46.5676 101.646C46.2096 101.705 45.9361 101.907 45.7473 102.252C45.565 102.597 45.4739 102.994 45.4739 103.443C45.4739 103.482 45.4739 103.521 45.4739 103.561C45.4804 103.6 45.4902 103.642 45.5032 103.688H46.5676V105.816H44.4778V103.854C44.4778 103.079 44.6405 102.389 44.9661 101.783C45.2916 101.171 45.8254 100.82 46.5676 100.729V101.646ZM49.5657 100.865L52.2708 112.535L55.5129 100.865H57.6223L60.8645 112.535L63.5696 100.865H65.6985L61.929 115.211H59.8879L56.5774 103.316L53.2473 115.211H51.2063L47.4563 100.865H49.5657ZM67.2708 104.801H69.0579V115.211H67.2708V104.801ZM67.2708 100.865H69.0579V102.857H67.2708V100.865ZM72.0754 101.832H73.8528V104.752H75.5227V106.188H73.8528V113.014C73.8528 113.378 73.9765 113.622 74.2239 113.746C74.3606 113.818 74.5885 113.854 74.9075 113.854C74.9921 113.854 75.0833 113.854 75.1809 113.854C75.2786 113.847 75.3925 113.837 75.5227 113.824V115.211C75.3209 115.27 75.1093 115.312 74.8879 115.338C74.6731 115.364 74.4387 115.377 74.1848 115.377C73.3645 115.377 72.8079 115.169 72.5149 114.752C72.2219 114.329 72.0754 113.782 72.0754 113.111V106.188H70.6594V104.752H72.0754V101.832ZM77.2903 100.816H79.0481V106.168C79.4648 105.641 79.8391 105.27 80.1711 105.055C80.7375 104.684 81.4439 104.498 82.2903 104.498C83.8072 104.498 84.8359 105.029 85.3762 106.09C85.6692 106.669 85.8157 107.473 85.8157 108.502V115.211H84.009V108.619C84.009 107.851 83.9114 107.288 83.7161 106.93C83.3971 106.357 82.7981 106.07 81.9192 106.07C81.19 106.07 80.5292 106.321 79.9368 106.822C79.3443 107.324 79.0481 108.271 79.0481 109.664V115.211H77.2903V100.816ZM100.269 100.475C102.085 100.475 103.495 100.953 104.497 101.91C105.5 102.867 106.057 103.954 106.167 105.172H104.273C104.058 104.247 103.628 103.515 102.984 102.975C102.346 102.434 101.447 102.164 100.288 102.164C98.8756 102.164 97.733 102.662 96.8606 103.658C95.9947 104.648 95.5618 106.168 95.5618 108.219C95.5618 109.898 95.9524 111.262 96.7336 112.311C97.5214 113.352 98.6933 113.873 100.249 113.873C101.682 113.873 102.772 113.323 103.521 112.223C103.918 111.643 104.214 110.882 104.409 109.938H106.304C106.135 111.448 105.575 112.714 104.624 113.736C103.485 114.967 101.948 115.582 100.015 115.582C98.3482 115.582 96.9485 115.077 95.8157 114.068C94.3248 112.734 93.5793 110.673 93.5793 107.887C93.5793 105.771 94.1392 104.036 95.259 102.682C96.47 101.21 98.1399 100.475 100.269 100.475ZM108.491 100.865H110.249V115.211H108.491V100.865ZM112.896 104.801H114.683V115.211H112.896V104.801ZM112.896 100.865H114.683V102.857H112.896V100.865ZM121.382 104.449C122.56 104.449 123.517 104.736 124.253 105.309C124.995 105.882 125.441 106.868 125.591 108.268H123.882C123.778 107.623 123.54 107.089 123.169 106.666C122.798 106.236 122.202 106.021 121.382 106.021C120.262 106.021 119.462 106.568 118.98 107.662C118.667 108.372 118.511 109.247 118.511 110.289C118.511 111.337 118.732 112.219 119.175 112.936C119.618 113.652 120.314 114.01 121.265 114.01C121.994 114.01 122.57 113.788 122.993 113.346C123.423 112.896 123.719 112.285 123.882 111.51H125.591C125.396 112.896 124.907 113.912 124.126 114.557C123.345 115.195 122.346 115.514 121.128 115.514C119.761 115.514 118.67 115.016 117.857 114.02C117.043 113.017 116.636 111.767 116.636 110.27C116.636 108.434 117.082 107.005 117.974 105.982C118.866 104.96 120.002 104.449 121.382 104.449ZM127.31 100.865H128.999V109.195L133.511 104.752H135.757L131.753 108.668L135.982 115.211H133.736L130.474 109.938L128.999 111.285V115.211H127.31V100.865ZM139.693 100.865V109.732C139.693 110.774 139.888 111.64 140.279 112.33C140.858 113.372 141.835 113.893 143.208 113.893C144.855 113.893 145.975 113.329 146.568 112.203C146.887 111.591 147.046 110.768 147.046 109.732V100.865H149.019V108.922C149.019 110.686 148.781 112.044 148.306 112.994C147.434 114.726 145.786 115.592 143.365 115.592C140.943 115.592 139.299 114.726 138.433 112.994C137.958 112.044 137.72 110.686 137.72 108.922V100.865H139.693ZM156.216 114.029C157.036 114.029 157.717 113.688 158.257 113.004C158.804 112.314 159.077 111.285 159.077 109.918C159.077 109.085 158.957 108.368 158.716 107.77C158.26 106.617 157.427 106.041 156.216 106.041C154.999 106.041 154.165 106.65 153.716 107.867C153.475 108.518 153.355 109.345 153.355 110.348C153.355 111.155 153.475 111.842 153.716 112.408C154.172 113.489 155.005 114.029 156.216 114.029ZM151.665 104.801H153.374V106.188C153.726 105.712 154.11 105.344 154.527 105.084C155.119 104.693 155.816 104.498 156.616 104.498C157.801 104.498 158.807 104.954 159.634 105.865C160.461 106.77 160.874 108.066 160.874 109.752C160.874 112.031 160.279 113.658 159.087 114.635C158.332 115.253 157.453 115.562 156.45 115.562C155.663 115.562 155.002 115.39 154.468 115.045C154.156 114.85 153.807 114.514 153.423 114.039V119.381H151.665V104.801ZM169.312 104.752L171.323 112.994L173.365 104.752H175.337L177.388 112.945L179.527 104.752H181.284L178.247 115.211H176.421L174.292 107.115L172.232 115.211H170.406L167.388 104.752H169.312ZM187.31 104.518C188.052 104.518 188.771 104.693 189.468 105.045C190.165 105.39 190.695 105.839 191.06 106.393C191.411 106.92 191.646 107.535 191.763 108.238C191.867 108.72 191.919 109.488 191.919 110.543H184.253C184.286 111.604 184.536 112.457 185.005 113.102C185.474 113.74 186.2 114.059 187.183 114.059C188.101 114.059 188.833 113.756 189.38 113.15C189.693 112.799 189.914 112.392 190.044 111.93H191.773C191.727 112.314 191.574 112.743 191.314 113.219C191.06 113.688 190.773 114.072 190.454 114.371C189.92 114.892 189.26 115.243 188.472 115.426C188.049 115.53 187.57 115.582 187.036 115.582C185.734 115.582 184.631 115.11 183.726 114.166C182.821 113.215 182.368 111.887 182.368 110.182C182.368 108.502 182.824 107.138 183.736 106.09C184.647 105.042 185.838 104.518 187.31 104.518ZM190.113 109.146C190.041 108.385 189.875 107.776 189.615 107.32C189.133 106.474 188.329 106.051 187.202 106.051C186.395 106.051 185.718 106.344 185.171 106.93C184.624 107.509 184.335 108.248 184.302 109.146H190.113ZM196.099 100.865L195.777 106.607H194.644L194.322 100.865H196.099ZM198.775 104.752L201.568 113.268L204.488 104.752H206.411L202.466 115.211H200.591L196.734 104.752H198.775ZM212.271 104.518C213.013 104.518 213.732 104.693 214.429 105.045C215.126 105.39 215.656 105.839 216.021 106.393C216.372 106.92 216.607 107.535 216.724 108.238C216.828 108.72 216.88 109.488 216.88 110.543H209.214C209.247 111.604 209.497 112.457 209.966 113.102C210.435 113.74 211.161 114.059 212.144 114.059C213.062 114.059 213.794 113.756 214.341 113.15C214.654 112.799 214.875 112.392 215.005 111.93H216.734C216.688 112.314 216.535 112.743 216.275 113.219C216.021 113.688 215.734 114.072 215.415 114.371C214.881 114.892 214.221 115.243 213.433 115.426C213.01 115.53 212.531 115.582 211.997 115.582C210.695 115.582 209.592 115.11 208.687 114.166C207.782 113.215 207.329 111.887 207.329 110.182C207.329 108.502 207.785 107.138 208.697 106.09C209.608 105.042 210.799 104.518 212.271 104.518ZM215.073 109.146C215.002 108.385 214.836 107.776 214.575 107.32C214.094 106.474 213.29 106.051 212.163 106.051C211.356 106.051 210.679 106.344 210.132 106.93C209.585 107.509 209.295 108.248 209.263 109.146H215.073ZM225.659 111.93C225.712 112.516 225.858 112.965 226.099 113.277C226.542 113.844 227.31 114.127 228.404 114.127C229.055 114.127 229.628 113.987 230.122 113.707C230.617 113.421 230.865 112.981 230.865 112.389C230.865 111.939 230.666 111.598 230.269 111.363C230.015 111.22 229.514 111.054 228.765 110.865L227.368 110.514C226.476 110.292 225.819 110.045 225.396 109.771C224.641 109.296 224.263 108.639 224.263 107.799C224.263 106.809 224.618 106.008 225.327 105.396C226.044 104.785 227.004 104.479 228.208 104.479C229.784 104.479 230.92 104.941 231.616 105.865C232.053 106.451 232.264 107.083 232.251 107.76H230.591C230.559 107.363 230.419 107.001 230.171 106.676C229.767 106.214 229.068 105.982 228.072 105.982C227.407 105.982 226.903 106.109 226.558 106.363C226.219 106.617 226.05 106.952 226.05 107.369C226.05 107.825 226.275 108.189 226.724 108.463C226.984 108.626 227.368 108.769 227.876 108.893L229.038 109.176C230.301 109.482 231.148 109.778 231.577 110.064C232.261 110.514 232.603 111.22 232.603 112.184C232.603 113.115 232.248 113.919 231.538 114.596C230.835 115.273 229.761 115.611 228.316 115.611C226.76 115.611 225.656 115.26 225.005 114.557C224.361 113.847 224.016 112.971 223.97 111.93H225.659ZM238.97 104.518C239.712 104.518 240.432 104.693 241.128 105.045C241.825 105.39 242.355 105.839 242.72 106.393C243.072 106.92 243.306 107.535 243.423 108.238C243.527 108.72 243.579 109.488 243.579 110.543H235.913C235.946 111.604 236.197 112.457 236.665 113.102C237.134 113.74 237.86 114.059 238.843 114.059C239.761 114.059 240.493 113.756 241.04 113.15C241.353 112.799 241.574 112.392 241.704 111.93H243.433C243.387 112.314 243.234 112.743 242.974 113.219C242.72 113.688 242.434 114.072 242.115 114.371C241.581 114.892 240.92 115.243 240.132 115.426C239.709 115.53 239.23 115.582 238.697 115.582C237.394 115.582 236.291 115.11 235.386 114.166C234.481 113.215 234.029 111.887 234.029 110.182C234.029 108.502 234.484 107.138 235.396 106.09C236.307 105.042 237.499 104.518 238.97 104.518ZM241.773 109.146C241.701 108.385 241.535 107.776 241.275 107.32C240.793 106.474 239.989 106.051 238.863 106.051C238.055 106.051 237.378 106.344 236.831 106.93C236.284 107.509 235.995 108.248 235.962 109.146H241.773ZM250.103 104.518C250.845 104.518 251.564 104.693 252.261 105.045C252.958 105.39 253.488 105.839 253.853 106.393C254.204 106.92 254.439 107.535 254.556 108.238C254.66 108.72 254.712 109.488 254.712 110.543H247.046C247.079 111.604 247.329 112.457 247.798 113.102C248.267 113.74 248.993 114.059 249.976 114.059C250.894 114.059 251.626 113.756 252.173 113.15C252.486 112.799 252.707 112.392 252.837 111.93H254.566C254.52 112.314 254.367 112.743 254.107 113.219C253.853 113.688 253.566 114.072 253.247 114.371C252.713 114.892 252.053 115.243 251.265 115.426C250.842 115.53 250.363 115.582 249.829 115.582C248.527 115.582 247.424 115.11 246.519 114.166C245.614 113.215 245.161 111.887 245.161 110.182C245.161 108.502 245.617 107.138 246.529 106.09C247.44 105.042 248.631 104.518 250.103 104.518ZM252.906 109.146C252.834 108.385 252.668 107.776 252.407 107.32C251.926 106.474 251.122 106.051 249.995 106.051C249.188 106.051 248.511 106.344 247.964 106.93C247.417 107.509 247.128 108.248 247.095 109.146H252.906ZM256.88 104.752H258.55V106.236C259.045 105.624 259.569 105.185 260.122 104.918C260.676 104.651 261.291 104.518 261.968 104.518C263.452 104.518 264.455 105.035 264.976 106.07C265.262 106.637 265.406 107.447 265.406 108.502V115.211H263.618V108.619C263.618 107.981 263.524 107.467 263.335 107.076C263.023 106.425 262.456 106.1 261.636 106.1C261.219 106.1 260.878 106.142 260.611 106.227C260.129 106.37 259.706 106.656 259.341 107.086C259.048 107.431 258.856 107.789 258.765 108.16C258.68 108.525 258.638 109.049 258.638 109.732V115.211H256.88V104.752ZM274.927 112.428C274.927 112.936 275.113 113.336 275.484 113.629C275.855 113.922 276.294 114.068 276.802 114.068C277.42 114.068 278.019 113.925 278.599 113.639C279.575 113.163 280.064 112.385 280.064 111.305V109.889C279.849 110.025 279.572 110.139 279.234 110.23C278.895 110.322 278.563 110.387 278.238 110.426L277.173 110.562C276.535 110.647 276.057 110.781 275.738 110.963C275.197 111.269 274.927 111.757 274.927 112.428ZM279.185 108.873C279.588 108.821 279.859 108.652 279.995 108.365C280.073 108.209 280.113 107.984 280.113 107.691C280.113 107.092 279.898 106.66 279.468 106.393C279.045 106.119 278.436 105.982 277.642 105.982C276.724 105.982 276.073 106.23 275.689 106.725C275.474 106.998 275.334 107.405 275.269 107.945H273.628C273.661 106.656 274.077 105.761 274.878 105.26C275.685 104.752 276.62 104.498 277.681 104.498C278.911 104.498 279.911 104.732 280.679 105.201C281.441 105.67 281.822 106.399 281.822 107.389V113.414C281.822 113.596 281.857 113.743 281.929 113.854C282.007 113.964 282.167 114.02 282.407 114.02C282.486 114.02 282.573 114.016 282.671 114.01C282.769 113.997 282.873 113.98 282.984 113.961V115.26C282.71 115.338 282.502 115.387 282.359 115.406C282.215 115.426 282.02 115.436 281.773 115.436C281.167 115.436 280.728 115.221 280.454 114.791C280.311 114.563 280.21 114.241 280.152 113.824C279.794 114.293 279.279 114.7 278.609 115.045C277.938 115.39 277.199 115.562 276.392 115.562C275.422 115.562 274.628 115.27 274.009 114.684C273.397 114.091 273.091 113.352 273.091 112.467C273.091 111.497 273.394 110.745 273.999 110.211C274.605 109.677 275.399 109.348 276.382 109.225L279.185 108.873ZM50.8938 136.986V139.164H49.2922V142.211H46.5676V139.164H40.9622V136.732L46.1672 128.139H49.2922V136.986H50.8938ZM43.0227 136.986H46.5676V130.873L43.0227 136.986ZM57.0754 142.562C55.2721 142.562 54.0058 141.931 53.2766 140.668C52.554 139.405 52.1926 137.605 52.1926 135.268C52.1926 132.93 52.554 131.127 53.2766 129.857C54.0058 128.588 55.2721 127.953 57.0754 127.953C58.8788 127.953 60.1451 128.588 60.8743 129.857C61.5969 131.127 61.9583 132.93 61.9583 135.268C61.9583 137.605 61.5937 139.405 60.8645 140.668C60.1418 141.931 58.8788 142.562 57.0754 142.562ZM58.7063 138.998C58.9602 138.139 59.0872 136.895 59.0872 135.268C59.0872 133.562 58.9569 132.299 58.6965 131.479C58.4426 130.658 57.9023 130.248 57.0754 130.248C56.2486 130.248 55.7017 130.658 55.4348 131.479C55.1679 132.299 55.0344 133.562 55.0344 135.268C55.0344 136.895 55.1679 138.142 55.4348 139.008C55.7017 139.867 56.2486 140.297 57.0754 140.297C57.9023 140.297 58.4459 139.864 58.7063 138.998ZM72.6516 138.861C72.6516 137.852 73.0064 136.993 73.7161 136.283C74.4257 135.58 75.2818 135.229 76.2844 135.229C77.287 135.229 78.1431 135.583 78.8528 136.293C79.5624 137.003 79.9172 137.859 79.9172 138.861C79.9172 139.864 79.5624 140.72 78.8528 141.43C78.1431 142.139 77.287 142.494 76.2844 142.494C75.2818 142.494 74.4257 142.139 73.7161 141.43C73.0064 140.72 72.6516 139.864 72.6516 138.861ZM64.2239 134.32C63.5142 133.611 63.1594 132.755 63.1594 131.752C63.1594 130.749 63.5142 129.893 64.2239 129.184C64.9335 128.474 65.7896 128.119 66.7922 128.119C67.7948 128.119 68.651 128.474 69.3606 129.184C70.0702 129.893 70.425 130.749 70.425 131.752C70.425 132.755 70.0702 133.611 69.3606 134.32C68.6575 135.03 67.8014 135.385 66.7922 135.385C65.7896 135.385 64.9335 135.03 64.2239 134.32ZM68.3254 142.582H66.8118L74.7317 128.051H76.2161L68.3254 142.582ZM75.1907 139.955C75.4902 140.261 75.8547 140.414 76.2844 140.414C76.7141 140.414 77.0787 140.264 77.3782 139.965C77.6842 139.659 77.8372 139.291 77.8372 138.861C77.8372 138.432 77.6842 138.067 77.3782 137.768C77.0787 137.462 76.7141 137.309 76.2844 137.309C75.8547 137.309 75.4869 137.462 75.1809 137.768C74.8814 138.067 74.7317 138.432 74.7317 138.861C74.7317 139.291 74.8847 139.656 75.1907 139.955ZM65.6985 132.846C65.998 133.152 66.3625 133.305 66.7922 133.305C67.2219 133.305 67.5865 133.155 67.886 132.855C68.192 132.549 68.345 132.182 68.345 131.752C68.345 131.322 68.192 130.958 67.886 130.658C67.5865 130.352 67.2219 130.199 66.7922 130.199C66.3625 130.199 65.9947 130.352 65.6887 130.658C65.3892 130.958 65.2395 131.322 65.2395 131.752C65.2395 132.182 65.3925 132.546 65.6985 132.846ZM90.22 131.566V142.211H87.3977V131.566H90.22ZM90.22 127.729V130.297H87.3977V127.729H90.22ZM98.9016 134.496C98.6672 133.982 98.2083 133.725 97.5247 133.725C96.7304 133.725 96.1965 133.982 95.9231 134.496C95.7734 134.789 95.6985 135.225 95.6985 135.805V142.211H92.8762V131.586H95.5813V133.139C95.9264 132.585 96.2519 132.191 96.5579 131.957C97.0982 131.54 97.7981 131.332 98.6575 131.332C99.4713 131.332 100.129 131.511 100.63 131.869C101.034 132.201 101.34 132.628 101.548 133.148C101.913 132.523 102.365 132.064 102.906 131.771C103.478 131.479 104.116 131.332 104.82 131.332C105.288 131.332 105.751 131.423 106.206 131.605C106.662 131.788 107.075 132.107 107.447 132.562C107.746 132.934 107.948 133.389 108.052 133.93C108.117 134.288 108.15 134.812 108.15 135.502L108.13 142.211H105.279V135.434C105.279 135.03 105.213 134.698 105.083 134.438C104.836 133.943 104.38 133.695 103.716 133.695C102.948 133.695 102.417 134.014 102.124 134.652C101.975 134.991 101.9 135.398 101.9 135.873V142.211H99.0969V135.873C99.0969 135.242 99.0318 134.783 98.9016 134.496ZM119.634 132.709C120.493 133.627 120.923 134.975 120.923 136.752C120.923 138.627 120.5 140.056 119.654 141.039C118.814 142.022 117.73 142.514 116.402 142.514C115.555 142.514 114.852 142.302 114.292 141.879C113.986 141.645 113.687 141.303 113.394 140.854V146.4H110.64V131.566H113.306V133.139C113.605 132.676 113.924 132.312 114.263 132.045C114.881 131.57 115.617 131.332 116.47 131.332C117.713 131.332 118.768 131.791 119.634 132.709ZM118.052 136.889C118.052 136.068 117.863 135.342 117.486 134.711C117.115 134.079 116.509 133.764 115.669 133.764C114.66 133.764 113.967 134.242 113.589 135.199C113.394 135.707 113.296 136.352 113.296 137.133C113.296 138.37 113.625 139.239 114.282 139.74C114.673 140.033 115.135 140.18 115.669 140.18C116.444 140.18 117.033 139.88 117.437 139.281C117.847 138.682 118.052 137.885 118.052 136.889ZM128.296 134.135C127.176 134.135 126.424 134.499 126.04 135.229C125.825 135.639 125.718 136.27 125.718 137.123V142.211H122.915V131.566H125.572V133.422C126.001 132.712 126.376 132.227 126.695 131.967C127.215 131.531 127.892 131.312 128.726 131.312C128.778 131.312 128.82 131.316 128.853 131.322C128.892 131.322 128.973 131.326 129.097 131.332V134.184C128.921 134.164 128.765 134.151 128.628 134.145C128.491 134.138 128.381 134.135 128.296 134.135ZM139.615 132.914C140.513 134.04 140.962 135.372 140.962 136.908C140.962 138.471 140.513 139.809 139.615 140.922C138.716 142.029 137.352 142.582 135.523 142.582C133.693 142.582 132.329 142.029 131.431 140.922C130.532 139.809 130.083 138.471 130.083 136.908C130.083 135.372 130.532 134.04 131.431 132.914C132.329 131.788 133.693 131.225 135.523 131.225C137.352 131.225 138.716 131.788 139.615 132.914ZM135.513 133.578C134.699 133.578 134.071 133.868 133.628 134.447C133.192 135.02 132.974 135.84 132.974 136.908C132.974 137.976 133.192 138.799 133.628 139.379C134.071 139.958 134.699 140.248 135.513 140.248C136.327 140.248 136.952 139.958 137.388 139.379C137.824 138.799 138.042 137.976 138.042 136.908C138.042 135.84 137.824 135.02 137.388 134.447C136.952 133.868 136.327 133.578 135.513 133.578ZM141.919 131.566H145.044L147.261 139.418L149.527 131.566H152.515L148.677 142.211H145.738L141.919 131.566ZM163.208 139.086C163.137 139.717 162.808 140.359 162.222 141.01C161.31 142.045 160.034 142.562 158.394 142.562C157.04 142.562 155.845 142.126 154.81 141.254C153.775 140.382 153.257 138.962 153.257 136.996C153.257 135.154 153.723 133.741 154.654 132.758C155.591 131.775 156.805 131.283 158.296 131.283C159.182 131.283 159.979 131.449 160.689 131.781C161.398 132.113 161.984 132.637 162.447 133.354C162.863 133.985 163.133 134.717 163.257 135.551C163.329 136.039 163.358 136.742 163.345 137.66H156.06C156.099 138.728 156.434 139.477 157.066 139.906C157.45 140.173 157.912 140.307 158.452 140.307C159.025 140.307 159.491 140.144 159.849 139.818C160.044 139.643 160.217 139.398 160.366 139.086H163.208ZM160.454 135.824C160.409 135.089 160.184 134.532 159.781 134.154C159.383 133.77 158.889 133.578 158.296 133.578C157.652 133.578 157.15 133.78 156.792 134.184C156.441 134.587 156.219 135.134 156.128 135.824H160.454ZM171.206 134.496C170.972 133.982 170.513 133.725 169.829 133.725C169.035 133.725 168.501 133.982 168.228 134.496C168.078 134.789 168.003 135.225 168.003 135.805V142.211H165.181V131.586H167.886V133.139C168.231 132.585 168.557 132.191 168.863 131.957C169.403 131.54 170.103 131.332 170.962 131.332C171.776 131.332 172.434 131.511 172.935 131.869C173.338 132.201 173.644 132.628 173.853 133.148C174.217 132.523 174.67 132.064 175.21 131.771C175.783 131.479 176.421 131.332 177.124 131.332C177.593 131.332 178.055 131.423 178.511 131.605C178.967 131.788 179.38 132.107 179.751 132.562C180.051 132.934 180.253 133.389 180.357 133.93C180.422 134.288 180.454 134.812 180.454 135.502L180.435 142.211H177.583V135.434C177.583 135.03 177.518 134.698 177.388 134.438C177.141 133.943 176.685 133.695 176.021 133.695C175.253 133.695 174.722 134.014 174.429 134.652C174.279 134.991 174.204 135.398 174.204 135.873V142.211H171.402V135.873C171.402 135.242 171.337 134.783 171.206 134.496ZM192.134 139.086C192.062 139.717 191.734 140.359 191.148 141.01C190.236 142.045 188.96 142.562 187.32 142.562C185.965 142.562 184.771 142.126 183.736 141.254C182.7 140.382 182.183 138.962 182.183 136.996C182.183 135.154 182.648 133.741 183.579 132.758C184.517 131.775 185.731 131.283 187.222 131.283C188.107 131.283 188.905 131.449 189.615 131.781C190.324 132.113 190.91 132.637 191.372 133.354C191.789 133.985 192.059 134.717 192.183 135.551C192.254 136.039 192.284 136.742 192.271 137.66H184.986C185.025 138.728 185.36 139.477 185.991 139.906C186.376 140.173 186.838 140.307 187.378 140.307C187.951 140.307 188.417 140.144 188.775 139.818C188.97 139.643 189.142 139.398 189.292 139.086H192.134ZM189.38 135.824C189.335 135.089 189.11 134.532 188.706 134.154C188.309 133.77 187.814 133.578 187.222 133.578C186.577 133.578 186.076 133.78 185.718 134.184C185.366 134.587 185.145 135.134 185.054 135.824H189.38ZM199.165 133.627C198.221 133.627 197.573 134.027 197.222 134.828C197.04 135.251 196.948 135.792 196.948 136.449V142.211H194.175V131.586H196.861V133.139C197.219 132.592 197.557 132.198 197.876 131.957C198.449 131.527 199.175 131.312 200.054 131.312C201.154 131.312 202.053 131.602 202.749 132.182C203.452 132.755 203.804 133.708 203.804 135.043V142.211H200.952V135.736C200.952 135.176 200.878 134.747 200.728 134.447C200.454 133.9 199.934 133.627 199.165 133.627ZM211.255 140.229V142.309L209.937 142.357C208.622 142.403 207.723 142.175 207.241 141.674C206.929 141.355 206.773 140.863 206.773 140.199V133.646H205.288V131.664H206.773V128.695H209.527V131.664H211.255V133.646H209.527V139.271C209.527 139.708 209.582 139.981 209.693 140.092C209.803 140.196 210.142 140.248 210.708 140.248C210.793 140.248 210.881 140.248 210.972 140.248C211.07 140.242 211.164 140.235 211.255 140.229ZM218.599 131.801H220.386V142.211H218.599V131.801ZM218.599 127.865H220.386V129.857H218.599V127.865ZM223.052 131.752H224.722V133.236C225.217 132.624 225.741 132.185 226.294 131.918C226.848 131.651 227.463 131.518 228.14 131.518C229.624 131.518 230.627 132.035 231.148 133.07C231.434 133.637 231.577 134.447 231.577 135.502V142.211H229.79V135.619C229.79 134.981 229.696 134.467 229.507 134.076C229.195 133.425 228.628 133.1 227.808 133.1C227.391 133.1 227.049 133.142 226.782 133.227C226.301 133.37 225.878 133.656 225.513 134.086C225.22 134.431 225.028 134.789 224.937 135.16C224.852 135.525 224.81 136.049 224.81 136.732V142.211H223.052V131.752ZM243.902 141.078C245.067 141.078 245.865 140.639 246.294 139.76C246.73 138.874 246.948 137.891 246.948 136.811C246.948 135.834 246.792 135.04 246.48 134.428C245.985 133.464 245.132 132.982 243.921 132.982C242.847 132.982 242.066 133.393 241.577 134.213C241.089 135.033 240.845 136.023 240.845 137.182C240.845 138.295 241.089 139.223 241.577 139.965C242.066 140.707 242.84 141.078 243.902 141.078ZM243.97 131.449C245.318 131.449 246.457 131.898 247.388 132.797C248.319 133.695 248.784 135.017 248.784 136.762C248.784 138.448 248.374 139.841 247.554 140.941C246.734 142.042 245.461 142.592 243.736 142.592C242.297 142.592 241.154 142.107 240.308 141.137C239.462 140.16 239.038 138.852 239.038 137.211C239.038 135.453 239.484 134.053 240.376 133.012C241.268 131.97 242.466 131.449 243.97 131.449ZM252.642 131.752V138.695C252.642 139.229 252.726 139.665 252.896 140.004C253.208 140.629 253.791 140.941 254.644 140.941C255.868 140.941 256.701 140.395 257.144 139.301C257.385 138.715 257.505 137.911 257.505 136.889V131.752H259.263V142.211H257.603L257.622 140.668C257.394 141.065 257.111 141.4 256.773 141.674C256.102 142.221 255.288 142.494 254.331 142.494C252.84 142.494 251.825 141.996 251.284 141C250.991 140.466 250.845 139.753 250.845 138.861V131.752H252.642ZM262.066 131.752H263.736V133.559C263.872 133.207 264.208 132.781 264.741 132.279C265.275 131.771 265.891 131.518 266.587 131.518C266.62 131.518 266.675 131.521 266.753 131.527C266.831 131.534 266.965 131.547 267.154 131.566V133.422C267.049 133.402 266.952 133.389 266.861 133.383C266.776 133.376 266.682 133.373 266.577 133.373C265.692 133.373 265.012 133.66 264.536 134.232C264.061 134.799 263.823 135.453 263.823 136.195V142.211H262.066V131.752ZM274.595 128.832H276.372V131.752H278.042V133.188H276.372V140.014C276.372 140.378 276.496 140.622 276.743 140.746C276.88 140.818 277.108 140.854 277.427 140.854C277.512 140.854 277.603 140.854 277.7 140.854C277.798 140.847 277.912 140.837 278.042 140.824V142.211C277.84 142.27 277.629 142.312 277.407 142.338C277.193 142.364 276.958 142.377 276.704 142.377C275.884 142.377 275.327 142.169 275.034 141.752C274.741 141.329 274.595 140.782 274.595 140.111V133.188H273.179V131.752H274.595V128.832ZM283.96 141.078C285.126 141.078 285.923 140.639 286.353 139.76C286.789 138.874 287.007 137.891 287.007 136.811C287.007 135.834 286.851 135.04 286.538 134.428C286.044 133.464 285.191 132.982 283.98 132.982C282.906 132.982 282.124 133.393 281.636 134.213C281.148 135.033 280.904 136.023 280.904 137.182C280.904 138.295 281.148 139.223 281.636 139.965C282.124 140.707 282.899 141.078 283.96 141.078ZM284.029 131.449C285.376 131.449 286.516 131.898 287.447 132.797C288.378 133.695 288.843 135.017 288.843 136.762C288.843 138.448 288.433 139.841 287.613 140.941C286.792 142.042 285.519 142.592 283.794 142.592C282.355 142.592 281.213 142.107 280.366 141.137C279.52 140.16 279.097 138.852 279.097 137.211C279.097 135.453 279.543 134.053 280.435 133.012C281.327 131.97 282.525 131.449 284.029 131.449ZM291.294 128.832H293.072V131.752H294.741V133.188H293.072V140.014C293.072 140.378 293.195 140.622 293.443 140.746C293.579 140.818 293.807 140.854 294.126 140.854C294.211 140.854 294.302 140.854 294.4 140.854C294.497 140.847 294.611 140.837 294.741 140.824V142.211C294.54 142.27 294.328 142.312 294.107 142.338C293.892 142.364 293.657 142.377 293.404 142.377C292.583 142.377 292.027 142.169 291.734 141.752C291.441 141.329 291.294 140.782 291.294 140.111V133.188H289.878V131.752H291.294V128.832ZM297.857 139.428C297.857 139.936 298.042 140.336 298.413 140.629C298.784 140.922 299.224 141.068 299.732 141.068C300.35 141.068 300.949 140.925 301.529 140.639C302.505 140.163 302.993 139.385 302.993 138.305V136.889C302.779 137.025 302.502 137.139 302.163 137.23C301.825 137.322 301.493 137.387 301.167 137.426L300.103 137.562C299.465 137.647 298.986 137.781 298.667 137.963C298.127 138.269 297.857 138.757 297.857 139.428ZM302.115 135.873C302.518 135.821 302.788 135.652 302.925 135.365C303.003 135.209 303.042 134.984 303.042 134.691C303.042 134.092 302.827 133.66 302.398 133.393C301.975 133.119 301.366 132.982 300.572 132.982C299.654 132.982 299.003 133.23 298.618 133.725C298.404 133.998 298.264 134.405 298.198 134.945H296.558C296.59 133.656 297.007 132.761 297.808 132.26C298.615 131.752 299.549 131.498 300.611 131.498C301.841 131.498 302.84 131.732 303.609 132.201C304.37 132.67 304.751 133.399 304.751 134.389V140.414C304.751 140.596 304.787 140.743 304.859 140.854C304.937 140.964 305.096 141.02 305.337 141.02C305.415 141.02 305.503 141.016 305.601 141.01C305.698 140.997 305.803 140.98 305.913 140.961V142.26C305.64 142.338 305.432 142.387 305.288 142.406C305.145 142.426 304.95 142.436 304.702 142.436C304.097 142.436 303.657 142.221 303.384 141.791C303.241 141.563 303.14 141.241 303.081 140.824C302.723 141.293 302.209 141.7 301.538 142.045C300.868 142.39 300.129 142.562 299.322 142.562C298.351 142.562 297.557 142.27 296.939 141.684C296.327 141.091 296.021 140.352 296.021 139.467C296.021 138.497 296.323 137.745 296.929 137.211C297.534 136.677 298.329 136.348 299.312 136.225L302.115 135.873ZM307.691 127.865H309.448V142.211H307.691V127.865ZM45.4153 158.566C46.2356 158.566 46.9517 158.768 47.5637 159.172C47.8958 159.4 48.2343 159.732 48.5793 160.168V158.85H50.2004V168.361C50.2004 169.689 50.0051 170.738 49.6145 171.506C48.8853 172.925 47.5084 173.635 45.4836 173.635C44.3573 173.635 43.4101 173.381 42.6418 172.873C41.8736 172.372 41.4439 171.584 41.3528 170.51H43.1399C43.2245 170.979 43.3938 171.34 43.6477 171.594C44.0448 171.984 44.6698 172.18 45.5227 172.18C46.8704 172.18 47.7525 171.704 48.1692 170.754C48.4166 170.194 48.5305 169.195 48.511 167.756C48.1594 168.29 47.7362 168.687 47.2415 168.947C46.7467 169.208 46.0924 169.338 45.2786 169.338C44.1458 169.338 43.1529 168.938 42.3 168.137C41.4537 167.329 41.0305 165.998 41.0305 164.143C41.0305 162.391 41.4569 161.024 42.3098 160.041C43.1692 159.058 44.2043 158.566 45.4153 158.566ZM48.5793 163.938C48.5793 162.642 48.3124 161.682 47.7786 161.057C47.2447 160.432 46.5644 160.119 45.7375 160.119C44.5006 160.119 43.6542 160.699 43.1985 161.857C42.9576 162.476 42.8372 163.286 42.8372 164.289C42.8372 165.467 43.0748 166.366 43.55 166.984C44.0318 167.596 44.6764 167.902 45.4836 167.902C46.7467 167.902 47.6353 167.333 48.1497 166.193C48.4361 165.549 48.5793 164.797 48.5793 163.938ZM57.0071 168.078C58.1724 168.078 58.97 167.639 59.3997 166.76C59.8359 165.874 60.054 164.891 60.054 163.811C60.054 162.834 59.8977 162.04 59.5852 161.428C59.0904 160.464 58.2375 159.982 57.0266 159.982C55.9524 159.982 55.1711 160.393 54.6829 161.213C54.1946 162.033 53.9504 163.023 53.9504 164.182C53.9504 165.295 54.1946 166.223 54.6829 166.965C55.1711 167.707 55.9459 168.078 57.0071 168.078ZM57.0754 158.449C58.4231 158.449 59.5624 158.898 60.4934 159.797C61.4244 160.695 61.8899 162.017 61.8899 163.762C61.8899 165.448 61.4797 166.841 60.6594 167.941C59.8391 169.042 58.5663 169.592 56.8411 169.592C55.4023 169.592 54.2597 169.107 53.4133 168.137C52.567 167.16 52.1438 165.852 52.1438 164.211C52.1438 162.453 52.5898 161.053 53.4817 160.012C54.3736 158.97 55.5715 158.449 57.0754 158.449ZM63.5305 162.736H68.4329V164.543H63.5305V162.736ZM71.0012 155.832H72.7786V158.752H74.4485V160.188H72.7786V167.014C72.7786 167.378 72.9023 167.622 73.1497 167.746C73.2864 167.818 73.5142 167.854 73.8333 167.854C73.9179 167.854 74.009 167.854 74.1067 167.854C74.2043 167.847 74.3183 167.837 74.4485 167.824V169.211C74.2467 169.27 74.0351 169.312 73.8137 169.338C73.5989 169.364 73.3645 169.377 73.1106 169.377C72.2903 169.377 71.7336 169.169 71.4407 168.752C71.1477 168.329 71.0012 167.782 71.0012 167.111V160.188H69.5852V158.752H71.0012V155.832ZM80.3665 168.078C81.5318 168.078 82.3293 167.639 82.759 166.76C83.1952 165.874 83.4133 164.891 83.4133 163.811C83.4133 162.834 83.2571 162.04 82.9446 161.428C82.4498 160.464 81.5969 159.982 80.386 159.982C79.3118 159.982 78.5305 160.393 78.0422 161.213C77.554 162.033 77.3098 163.023 77.3098 164.182C77.3098 165.295 77.554 166.223 78.0422 166.965C78.5305 167.707 79.3053 168.078 80.3665 168.078ZM80.4348 158.449C81.7825 158.449 82.9218 158.898 83.8528 159.797C84.7838 160.695 85.2493 162.017 85.2493 163.762C85.2493 165.448 84.8391 166.841 84.0188 167.941C83.1985 169.042 81.9257 169.592 80.2004 169.592C78.7616 169.592 77.6191 169.107 76.7727 168.137C75.9264 167.16 75.5032 165.852 75.5032 164.211C75.5032 162.453 75.9491 161.053 76.8411 160.012C77.733 158.97 78.9309 158.449 80.4348 158.449ZM86.8899 162.736H91.7922V164.543H86.8899V162.736ZM94.009 158.752H95.7473V160.236C96.164 159.722 96.5416 159.348 96.8801 159.113C97.4596 158.716 98.1171 158.518 98.8528 158.518C99.6861 158.518 100.357 158.723 100.865 159.133C101.151 159.367 101.411 159.712 101.646 160.168C102.036 159.608 102.495 159.195 103.023 158.928C103.55 158.654 104.142 158.518 104.8 158.518C106.206 158.518 107.163 159.025 107.671 160.041C107.945 160.588 108.081 161.324 108.081 162.248V169.211H106.255V161.945C106.255 161.249 106.079 160.77 105.728 160.51C105.383 160.249 104.96 160.119 104.458 160.119C103.768 160.119 103.172 160.35 102.671 160.812C102.176 161.275 101.929 162.046 101.929 163.127V169.211H100.142V162.385C100.142 161.675 100.057 161.158 99.8879 160.832C99.621 160.344 99.123 160.1 98.3938 160.1C97.7297 160.1 97.1243 160.357 96.5774 160.871C96.037 161.385 95.7668 162.316 95.7668 163.664V169.211H94.009V158.752ZM112.017 166.428C112.017 166.936 112.202 167.336 112.573 167.629C112.945 167.922 113.384 168.068 113.892 168.068C114.51 168.068 115.109 167.925 115.689 167.639C116.665 167.163 117.154 166.385 117.154 165.305V163.889C116.939 164.025 116.662 164.139 116.323 164.23C115.985 164.322 115.653 164.387 115.327 164.426L114.263 164.562C113.625 164.647 113.146 164.781 112.827 164.963C112.287 165.269 112.017 165.757 112.017 166.428ZM116.275 162.873C116.678 162.821 116.948 162.652 117.085 162.365C117.163 162.209 117.202 161.984 117.202 161.691C117.202 161.092 116.988 160.66 116.558 160.393C116.135 160.119 115.526 159.982 114.732 159.982C113.814 159.982 113.163 160.23 112.779 160.725C112.564 160.998 112.424 161.405 112.359 161.945H110.718C110.751 160.656 111.167 159.761 111.968 159.26C112.775 158.752 113.71 158.498 114.771 158.498C116.001 158.498 117.001 158.732 117.769 159.201C118.531 159.67 118.911 160.399 118.911 161.389V167.414C118.911 167.596 118.947 167.743 119.019 167.854C119.097 167.964 119.256 168.02 119.497 168.02C119.575 168.02 119.663 168.016 119.761 168.01C119.859 167.997 119.963 167.98 120.073 167.961V169.26C119.8 169.338 119.592 169.387 119.448 169.406C119.305 169.426 119.11 169.436 118.863 169.436C118.257 169.436 117.818 169.221 117.544 168.791C117.401 168.563 117.3 168.241 117.241 167.824C116.883 168.293 116.369 168.7 115.698 169.045C115.028 169.39 114.289 169.562 113.482 169.562C112.512 169.562 111.717 169.27 111.099 168.684C110.487 168.091 110.181 167.352 110.181 166.467C110.181 165.497 110.484 164.745 111.089 164.211C111.695 163.677 112.489 163.348 113.472 163.225L116.275 162.873ZM121.851 158.752H123.521V160.559C123.657 160.207 123.993 159.781 124.527 159.279C125.06 158.771 125.676 158.518 126.372 158.518C126.405 158.518 126.46 158.521 126.538 158.527C126.616 158.534 126.75 158.547 126.939 158.566V160.422C126.835 160.402 126.737 160.389 126.646 160.383C126.561 160.376 126.467 160.373 126.363 160.373C125.477 160.373 124.797 160.66 124.322 161.232C123.846 161.799 123.609 162.453 123.609 163.195V169.211H121.851V158.752ZM128.423 154.865H130.113V163.195L134.624 158.752H136.87L132.866 162.668L137.095 169.211H134.849L131.587 163.938L130.113 165.285V169.211H128.423V154.865ZM142.818 158.518C143.56 158.518 144.279 158.693 144.976 159.045C145.672 159.39 146.203 159.839 146.568 160.393C146.919 160.92 147.154 161.535 147.271 162.238C147.375 162.72 147.427 163.488 147.427 164.543H139.761C139.794 165.604 140.044 166.457 140.513 167.102C140.982 167.74 141.708 168.059 142.691 168.059C143.609 168.059 144.341 167.756 144.888 167.15C145.2 166.799 145.422 166.392 145.552 165.93H147.281C147.235 166.314 147.082 166.743 146.822 167.219C146.568 167.688 146.281 168.072 145.962 168.371C145.428 168.892 144.767 169.243 143.98 169.426C143.557 169.53 143.078 169.582 142.544 169.582C141.242 169.582 140.139 169.11 139.234 168.166C138.329 167.215 137.876 165.887 137.876 164.182C137.876 162.502 138.332 161.138 139.243 160.09C140.155 159.042 141.346 158.518 142.818 158.518ZM145.62 163.146C145.549 162.385 145.383 161.776 145.122 161.32C144.641 160.474 143.837 160.051 142.71 160.051C141.903 160.051 141.226 160.344 140.679 160.93C140.132 161.509 139.842 162.248 139.81 163.146H145.62ZM149.947 155.832H151.724V158.752H153.394V160.188H151.724V167.014C151.724 167.378 151.848 167.622 152.095 167.746C152.232 167.818 152.46 167.854 152.779 167.854C152.863 167.854 152.954 167.854 153.052 167.854C153.15 167.847 153.264 167.837 153.394 167.824V169.211C153.192 169.27 152.98 169.312 152.759 169.338C152.544 169.364 152.31 169.377 152.056 169.377C151.236 169.377 150.679 169.169 150.386 168.752C150.093 168.329 149.947 167.782 149.947 167.111V160.188H148.531V158.752H149.947V155.832ZM165.083 158.518C165.825 158.518 166.545 158.693 167.241 159.045C167.938 159.39 168.469 159.839 168.833 160.393C169.185 160.92 169.419 161.535 169.536 162.238C169.641 162.72 169.693 163.488 169.693 164.543H162.027C162.059 165.604 162.31 166.457 162.779 167.102C163.247 167.74 163.973 168.059 164.956 168.059C165.874 168.059 166.607 167.756 167.154 167.15C167.466 166.799 167.687 166.392 167.818 165.93H169.546C169.501 166.314 169.348 166.743 169.087 167.219C168.833 167.688 168.547 168.072 168.228 168.371C167.694 168.892 167.033 169.243 166.245 169.426C165.822 169.53 165.344 169.582 164.81 169.582C163.508 169.582 162.404 169.11 161.499 168.166C160.594 167.215 160.142 165.887 160.142 164.182C160.142 162.502 160.598 161.138 161.509 160.09C162.42 159.042 163.612 158.518 165.083 158.518ZM167.886 163.146C167.814 162.385 167.648 161.776 167.388 161.32C166.906 160.474 166.102 160.051 164.976 160.051C164.169 160.051 163.491 160.344 162.945 160.93C162.398 161.509 162.108 162.248 162.075 163.146H167.886ZM172.3 157.16C172.326 156.431 172.453 155.897 172.681 155.559C173.091 154.96 173.882 154.66 175.054 154.66C175.165 154.66 175.279 154.663 175.396 154.67C175.513 154.676 175.646 154.686 175.796 154.699V156.301C175.614 156.288 175.48 156.281 175.396 156.281C175.318 156.275 175.243 156.271 175.171 156.271C174.637 156.271 174.318 156.411 174.214 156.691C174.11 156.965 174.058 157.668 174.058 158.801H175.796V160.188H174.038V169.211H172.3V160.188H170.845V158.801H172.3V157.16ZM177.866 157.16C177.892 156.431 178.019 155.897 178.247 155.559C178.657 154.96 179.448 154.66 180.62 154.66C180.731 154.66 180.845 154.663 180.962 154.67C181.079 154.676 181.213 154.686 181.363 154.699V156.301C181.18 156.288 181.047 156.281 180.962 156.281C180.884 156.275 180.809 156.271 180.738 156.271C180.204 156.271 179.885 156.411 179.781 156.691C179.676 156.965 179.624 157.668 179.624 158.801H181.363V160.188H179.605V169.211H177.866V160.188H176.411V158.801H177.866V157.16ZM183.052 156.857V154.865H184.81V156.857H183.052ZM183.052 158.801H184.81V169.211H183.052V158.801ZM191.46 158.449C192.639 158.449 193.596 158.736 194.331 159.309C195.073 159.882 195.519 160.868 195.669 162.268H193.96C193.856 161.623 193.618 161.089 193.247 160.666C192.876 160.236 192.281 160.021 191.46 160.021C190.34 160.021 189.54 160.568 189.058 161.662C188.745 162.372 188.589 163.247 188.589 164.289C188.589 165.337 188.81 166.219 189.253 166.936C189.696 167.652 190.392 168.01 191.343 168.01C192.072 168.01 192.648 167.788 193.072 167.346C193.501 166.896 193.797 166.285 193.96 165.51H195.669C195.474 166.896 194.986 167.912 194.204 168.557C193.423 169.195 192.424 169.514 191.206 169.514C189.839 169.514 188.749 169.016 187.935 168.02C187.121 167.017 186.714 165.767 186.714 164.27C186.714 162.434 187.16 161.005 188.052 159.982C188.944 158.96 190.08 158.449 191.46 158.449ZM197.427 158.801H199.214V169.211H197.427V158.801ZM197.427 154.865H199.214V156.857H197.427V154.865ZM206.236 158.518C206.978 158.518 207.697 158.693 208.394 159.045C209.09 159.39 209.621 159.839 209.986 160.393C210.337 160.92 210.572 161.535 210.689 162.238C210.793 162.72 210.845 163.488 210.845 164.543H203.179C203.212 165.604 203.462 166.457 203.931 167.102C204.4 167.74 205.126 168.059 206.109 168.059C207.027 168.059 207.759 167.756 208.306 167.15C208.618 166.799 208.84 166.392 208.97 165.93H210.698C210.653 166.314 210.5 166.743 210.24 167.219C209.986 167.688 209.699 168.072 209.38 168.371C208.846 168.892 208.185 169.243 207.398 169.426C206.975 169.53 206.496 169.582 205.962 169.582C204.66 169.582 203.557 169.11 202.652 168.166C201.747 167.215 201.294 165.887 201.294 164.182C201.294 162.502 201.75 161.138 202.661 160.09C203.573 159.042 204.764 158.518 206.236 158.518ZM209.038 163.146C208.967 162.385 208.801 161.776 208.54 161.32C208.059 160.474 207.254 160.051 206.128 160.051C205.321 160.051 204.644 160.344 204.097 160.93C203.55 161.509 203.26 162.248 203.228 163.146H209.038ZM213.013 158.752H214.683V160.236C215.178 159.624 215.702 159.185 216.255 158.918C216.809 158.651 217.424 158.518 218.101 158.518C219.585 158.518 220.588 159.035 221.109 160.07C221.395 160.637 221.538 161.447 221.538 162.502V169.211H219.751V162.619C219.751 161.981 219.657 161.467 219.468 161.076C219.156 160.425 218.589 160.1 217.769 160.1C217.352 160.1 217.01 160.142 216.743 160.227C216.262 160.37 215.838 160.656 215.474 161.086C215.181 161.431 214.989 161.789 214.898 162.16C214.813 162.525 214.771 163.049 214.771 163.732V169.211H213.013V158.752ZM228.179 158.449C229.357 158.449 230.314 158.736 231.05 159.309C231.792 159.882 232.238 160.868 232.388 162.268H230.679C230.575 161.623 230.337 161.089 229.966 160.666C229.595 160.236 228.999 160.021 228.179 160.021C227.059 160.021 226.258 160.568 225.777 161.662C225.464 162.372 225.308 163.247 225.308 164.289C225.308 165.337 225.529 166.219 225.972 166.936C226.415 167.652 227.111 168.01 228.062 168.01C228.791 168.01 229.367 167.788 229.79 167.346C230.22 166.896 230.516 166.285 230.679 165.51H232.388C232.193 166.896 231.704 167.912 230.923 168.557C230.142 169.195 229.142 169.514 227.925 169.514C226.558 169.514 225.467 169.016 224.654 168.02C223.84 167.017 223.433 165.767 223.433 164.27C223.433 162.434 223.879 161.005 224.771 159.982C225.663 158.96 226.799 158.449 228.179 158.449ZM240.679 158.752H242.622C242.375 159.423 241.825 160.952 240.972 163.342C240.334 165.139 239.8 166.604 239.37 167.736C238.355 170.406 237.639 172.033 237.222 172.619C236.805 173.205 236.089 173.498 235.073 173.498C234.826 173.498 234.634 173.488 234.497 173.469C234.367 173.449 234.204 173.413 234.009 173.361V171.76C234.315 171.844 234.536 171.896 234.673 171.916C234.81 171.936 234.93 171.945 235.034 171.945C235.36 171.945 235.598 171.89 235.747 171.779C235.904 171.675 236.034 171.545 236.138 171.389C236.17 171.337 236.288 171.07 236.49 170.588C236.691 170.106 236.838 169.748 236.929 169.514L233.062 158.752H235.054L237.857 167.268L240.679 158.752ZM245.171 154.865H247.154V159.582L246.675 165.793H245.679L245.171 159.582V154.865ZM245.171 167.18H247.115V169.211H245.171V167.18ZM252.466 159.035C252.954 158.944 253.277 158.586 253.433 157.961C253.524 157.59 253.557 157.268 253.531 156.994H252.466V154.865H254.556V156.828C254.556 157.603 254.396 158.296 254.077 158.908C253.758 159.514 253.221 159.862 252.466 159.953V159.035ZM249.185 159.035C249.673 158.944 249.999 158.586 250.161 157.961C250.253 157.59 250.282 157.268 250.249 156.994H249.185V154.865H251.265V156.828C251.265 157.603 251.105 158.293 250.786 158.898C250.467 159.497 249.934 159.849 249.185 159.953V159.035Z" fill="white"/>
<rect x="40.4348" y="206.211" width="305" height="41" rx="14" fill="white" fill-opacity="0.1"/>
<path d="M145.493 230.211V220.029H149.123C149.911 220.029 150.566 220.165 151.086 220.437C151.61 220.709 152.001 221.085 152.26 221.565C152.518 222.043 152.647 222.594 152.647 223.221C152.647 223.844 152.517 224.393 152.255 224.866C151.996 225.337 151.605 225.703 151.081 225.965C150.561 226.227 149.906 226.358 149.118 226.358H146.368V225.036H148.978C149.476 225.036 149.88 224.964 150.192 224.822C150.506 224.679 150.737 224.472 150.883 224.2C151.028 223.929 151.101 223.602 151.101 223.221C151.101 222.836 151.027 222.503 150.878 222.222C150.732 221.94 150.501 221.724 150.187 221.575C149.875 221.423 149.466 221.347 148.959 221.347H147.03V230.211H145.493ZM150.52 225.617L153.035 230.211H151.285L148.819 225.617H150.52ZM157.593 230.365C156.841 230.365 156.193 230.204 155.649 229.883C155.109 229.558 154.691 229.102 154.396 228.516C154.105 227.926 153.959 227.235 153.959 226.442C153.959 225.66 154.105 224.971 154.396 224.374C154.691 223.778 155.102 223.312 155.629 222.977C156.159 222.643 156.779 222.475 157.489 222.475C157.919 222.475 158.337 222.546 158.741 222.689C159.146 222.831 159.509 223.055 159.83 223.36C160.152 223.665 160.405 224.061 160.591 224.548C160.776 225.032 160.869 225.621 160.869 226.313V226.84H154.799V225.727H159.413C159.413 225.335 159.333 224.989 159.174 224.688C159.015 224.383 158.791 224.142 158.503 223.967C158.218 223.791 157.883 223.703 157.499 223.703C157.081 223.703 156.716 223.806 156.405 224.011C156.097 224.214 155.858 224.479 155.689 224.807C155.523 225.132 155.44 225.485 155.44 225.866V226.736C155.44 227.246 155.53 227.68 155.709 228.038C155.891 228.396 156.145 228.67 156.469 228.859C156.794 229.044 157.174 229.137 157.608 229.137C157.89 229.137 158.146 229.097 158.378 229.018C158.61 228.935 158.811 228.812 158.98 228.65C159.149 228.487 159.278 228.287 159.368 228.048L160.775 228.302C160.662 228.716 160.46 229.079 160.168 229.391C159.88 229.699 159.517 229.939 159.079 230.112C158.645 230.281 158.15 230.365 157.593 230.365ZM164.741 230.38C164.257 230.38 163.819 230.29 163.428 230.112C163.037 229.929 162.727 229.666 162.499 229.321C162.273 228.976 162.161 228.554 162.161 228.053C162.161 227.622 162.243 227.268 162.409 226.989C162.575 226.711 162.799 226.491 163.08 226.328C163.362 226.166 163.677 226.043 164.025 225.96C164.373 225.877 164.728 225.814 165.089 225.771C165.546 225.718 165.917 225.675 166.203 225.642C166.488 225.606 166.695 225.548 166.824 225.468C166.953 225.388 167.018 225.259 167.018 225.08V225.045C167.018 224.611 166.895 224.275 166.65 224.036C166.408 223.798 166.047 223.678 165.566 223.678C165.066 223.678 164.671 223.789 164.383 224.011C164.098 224.23 163.901 224.474 163.791 224.742L162.394 224.424C162.56 223.96 162.802 223.585 163.12 223.3C163.442 223.012 163.811 222.803 164.229 222.674C164.646 222.541 165.086 222.475 165.546 222.475C165.851 222.475 166.174 222.512 166.516 222.585C166.86 222.654 167.182 222.783 167.48 222.972C167.782 223.161 168.029 223.431 168.221 223.783C168.413 224.131 168.509 224.583 168.509 225.14V230.211H167.058V229.167H166.998C166.902 229.359 166.758 229.548 166.565 229.734C166.373 229.919 166.126 230.073 165.825 230.196C165.523 230.319 165.162 230.38 164.741 230.38ZM165.064 229.187C165.475 229.187 165.826 229.106 166.118 228.943C166.413 228.781 166.637 228.569 166.789 228.307C166.945 228.042 167.023 227.758 167.023 227.457V226.472C166.97 226.525 166.867 226.575 166.715 226.621C166.565 226.665 166.395 226.703 166.203 226.736C166.01 226.766 165.823 226.794 165.641 226.82C165.458 226.844 165.306 226.863 165.183 226.88C164.895 226.916 164.632 226.978 164.393 227.064C164.158 227.15 163.969 227.274 163.826 227.437C163.687 227.596 163.617 227.808 163.617 228.073C163.617 228.441 163.753 228.719 164.025 228.908C164.297 229.094 164.643 229.187 165.064 229.187ZM173.348 230.36C172.731 230.36 172.181 230.203 171.697 229.888C171.217 229.57 170.839 229.117 170.564 228.531C170.292 227.941 170.156 227.233 170.156 226.408C170.156 225.582 170.294 224.876 170.569 224.29C170.847 223.703 171.228 223.254 171.712 222.942C172.196 222.631 172.745 222.475 173.358 222.475C173.832 222.475 174.213 222.555 174.501 222.714C174.793 222.87 175.018 223.052 175.177 223.261C175.34 223.469 175.466 223.653 175.555 223.812H175.645V220.029H177.131V230.211H175.68V229.023H175.555C175.466 229.185 175.337 229.371 175.168 229.58C175.002 229.788 174.773 229.971 174.481 230.126C174.19 230.282 173.812 230.36 173.348 230.36ZM173.676 229.092C174.104 229.092 174.465 228.98 174.76 228.754C175.058 228.526 175.284 228.209 175.436 227.805C175.592 227.4 175.67 226.93 175.67 226.393C175.67 225.862 175.593 225.398 175.441 225.001C175.289 224.603 175.065 224.293 174.77 224.071C174.475 223.849 174.11 223.738 173.676 223.738C173.229 223.738 172.856 223.854 172.557 224.086C172.259 224.318 172.034 224.634 171.881 225.036C171.732 225.437 171.658 225.889 171.658 226.393C171.658 226.903 171.734 227.362 171.886 227.77C172.039 228.178 172.264 228.501 172.562 228.739C172.864 228.975 173.235 229.092 173.676 229.092ZM188.68 224.439L187.333 224.678C187.277 224.505 187.187 224.341 187.065 224.185C186.945 224.03 186.783 223.902 186.577 223.803C186.372 223.703 186.115 223.653 185.807 223.653C185.386 223.653 185.034 223.748 184.753 223.937C184.471 224.122 184.33 224.363 184.33 224.658C184.33 224.913 184.425 225.118 184.614 225.274C184.802 225.43 185.107 225.558 185.528 225.657L186.741 225.935C187.444 226.098 187.968 226.348 188.312 226.686C188.657 227.024 188.829 227.463 188.829 228.004C188.829 228.461 188.697 228.869 188.432 229.227C188.17 229.581 187.804 229.86 187.333 230.062C186.866 230.264 186.324 230.365 185.707 230.365C184.852 230.365 184.155 230.183 183.614 229.818C183.074 229.45 182.743 228.928 182.62 228.252L184.057 228.033C184.146 228.408 184.33 228.691 184.609 228.884C184.887 229.072 185.25 229.167 185.697 229.167C186.185 229.167 186.574 229.066 186.866 228.864C187.157 228.658 187.303 228.408 187.303 228.113C187.303 227.874 187.214 227.674 187.035 227.511C186.859 227.349 186.589 227.226 186.224 227.143L184.932 226.86C184.219 226.698 183.692 226.439 183.351 226.085C183.013 225.73 182.844 225.281 182.844 224.737C182.844 224.286 182.97 223.892 183.222 223.554C183.473 223.216 183.821 222.952 184.266 222.763C184.71 222.571 185.218 222.475 185.792 222.475C186.617 222.475 187.267 222.654 187.741 223.012C188.215 223.367 188.528 223.842 188.68 224.439ZM194.029 222.575V223.768H189.857V222.575H194.029ZM190.976 220.745H192.462V227.969C192.462 228.257 192.506 228.474 192.592 228.62C192.678 228.763 192.789 228.86 192.925 228.913C193.064 228.963 193.215 228.988 193.377 228.988C193.497 228.988 193.601 228.98 193.69 228.963C193.78 228.946 193.85 228.933 193.899 228.923L194.168 230.151C194.082 230.184 193.959 230.218 193.8 230.251C193.641 230.287 193.442 230.307 193.203 230.31C192.812 230.317 192.448 230.247 192.109 230.102C191.771 229.956 191.498 229.73 191.289 229.425C191.08 229.121 190.976 228.738 190.976 228.277V220.745ZM198.807 230.365C198.092 230.365 197.467 230.201 196.933 229.873C196.4 229.545 195.985 229.086 195.69 228.496C195.395 227.906 195.248 227.216 195.248 226.428C195.248 225.635 195.395 224.943 195.69 224.349C195.985 223.756 196.4 223.295 196.933 222.967C197.467 222.639 198.092 222.475 198.807 222.475C199.523 222.475 200.148 222.639 200.682 222.967C201.215 223.295 201.63 223.756 201.925 224.349C202.22 224.943 202.367 225.635 202.367 226.428C202.367 227.216 202.22 227.906 201.925 228.496C201.63 229.086 201.215 229.545 200.682 229.873C200.148 230.201 199.523 230.365 198.807 230.365ZM198.812 229.117C199.276 229.117 199.661 228.995 199.966 228.749C200.271 228.504 200.496 228.178 200.642 227.77C200.791 227.362 200.866 226.913 200.866 226.423C200.866 225.935 200.791 225.488 200.642 225.08C200.496 224.669 200.271 224.339 199.966 224.091C199.661 223.842 199.276 223.718 198.812 223.718C198.345 223.718 197.957 223.842 197.649 224.091C197.344 224.339 197.117 224.669 196.968 225.08C196.822 225.488 196.749 225.935 196.749 226.423C196.749 226.913 196.822 227.362 196.968 227.77C197.117 228.178 197.344 228.504 197.649 228.749C197.957 228.995 198.345 229.117 198.812 229.117ZM204.026 230.211V222.575H205.463V223.788H205.543C205.682 223.377 205.927 223.054 206.279 222.818C206.633 222.58 207.034 222.46 207.482 222.46C207.574 222.46 207.684 222.464 207.81 222.47C207.939 222.477 208.04 222.485 208.113 222.495V223.917C208.053 223.9 207.947 223.882 207.795 223.862C207.642 223.839 207.49 223.827 207.337 223.827C206.986 223.827 206.673 223.902 206.398 224.051C206.126 224.197 205.911 224.401 205.752 224.663C205.592 224.921 205.513 225.216 205.513 225.548V230.211H204.026ZM210.571 233.075C210.349 233.075 210.147 233.056 209.965 233.02C209.783 232.987 209.647 232.95 209.557 232.911L209.915 231.692C210.187 231.765 210.429 231.797 210.641 231.787C210.853 231.777 211.04 231.697 211.203 231.548C211.369 231.399 211.514 231.156 211.64 230.817L211.824 230.31L209.03 222.575H210.621L212.555 228.501H212.635L214.569 222.575H216.165L213.018 231.23C212.872 231.628 212.686 231.964 212.461 232.239C212.235 232.518 211.967 232.727 211.655 232.866C211.344 233.005 210.982 233.075 210.571 233.075Z" fill="white"/>
<g clip-path="url(#clip2_26_510)">
<path d="M240.309 222.742L234.334 228.717M240.309 222.742L235.995 222.874M240.309 222.742L240.177 227.057" stroke="white" stroke-width="1.26748" stroke-linecap="round" stroke-linejoin="round"/>
</g>
<rect x="-3.56519" y="1.52148" width="392.69" height="6" transform="rotate(4 -3.56519 1.52148)" fill="white"/>
</g>
<defs>
<linearGradient id="paint0_linear_26_510" x1="284.456" y1="-49.0384" x2="100.544" y2="328.038" gradientUnits="userSpaceOnUse">
<stop stop-color="#26ABFA" stop-opacity="0.8"/>
<stop offset="0.525" stop-color="#7612FA" stop-opacity="0.8"/>
</linearGradient>
<clipPath id="clip0_26_510">
<rect width="385" height="279" fill="white" transform="translate(0.434814 0.210938)"/>
</clipPath>
<clipPath id="clip1_26_510">
<rect width="154" height="22" fill="white" transform="translate(40.4348 36.2109)"/>
</clipPath>
<clipPath id="clip2_26_510">
<rect width="8" height="8" fill="white" transform="translate(233.495 221.711)"/>
</clipPath>
</defs>
</svg>
