<svg width="386" height="284" viewBox="0 0 386 284" fill="none" xmlns="http://www.w3.org/2000/svg">
<mask id="mask0_26_525" style="mask-type:alpha" maskUnits="userSpaceOnUse" x="0" y="0" width="386" height="284">
<g clip-path="url(#clip0_26_525)">
<path d="M-4.63745 3.75781L416.299 32.9797V328.211H-4.63745V3.75781Z" fill="black"/>
</g>
</mask>
<g mask="url(#mask0_26_525)">
<rect width="385" height="283" transform="translate(0.434814 0.210938)" fill="url(#paint0_linear_26_525)"/>
<path d="M60.7197 52.4519C59.5815 55.9749 57.5892 59.0328 52.4257 59.235C44.7429 59.235 42.4055 52.8571 42.4055 49.4344C42.4055 40.6269 49.4996 38.5 52.3453 38.5C55.5766 38.5 60.1506 39.9791 60.1506 43.7852C60.1506 45.1213 59.2966 46.4177 57.9147 46.4177C56.5735 46.4177 55.5766 45.5272 55.5766 44.0893C55.5766 42.166 57.1622 41.9024 57.1622 41.3759C57.1622 40.0398 54.0323 39.493 52.9347 39.493C48.1577 39.493 46.9172 42.9554 46.9172 49.4352C46.9172 52.4114 47.6697 54.6792 47.9539 55.3675C48.7065 57.0077 50.2304 58.0404 52.8122 58.182C55.7194 58.3445 58.4838 56.0153 59.683 52.4519H60.7197ZM66.8605 48.848C66.8605 52.9986 66.9018 58.2434 71.9224 58.2434C76.9431 58.2434 76.9829 52.9986 76.9829 48.8473C76.9829 44.7378 76.9431 39.493 71.9224 39.493C66.9018 39.493 66.8605 44.7371 66.8605 48.848ZM81.5164 48.848C81.5164 54.841 77.1461 59.235 71.9427 59.235C66.7387 59.235 62.3488 54.8208 62.3488 48.848C62.3488 42.8745 66.7184 38.5007 71.9224 38.5007C77.1258 38.5007 81.5164 42.8543 81.5164 48.848ZM85.0326 40.1402H82.3088V39.0063H83.3455C84.2808 39.0272 85.195 38.9868 86.1295 38.9052C87.0648 38.8452 88 38.7029 88.915 38.5007V43.7448H89.0165C90.3983 40.6269 92.3297 38.5007 95.9475 38.5007C97.7368 38.5007 101.863 38.9052 101.863 43.4407V57.4331H104.545V58.5669H95.3994V57.4331H97.9804V44.069C97.9804 40.4652 96.8421 39.9177 94.8506 39.9177C91.4764 39.9177 88.8954 44.5147 88.8954 48.2197V57.4128H91.5779V58.5467H82.3088V57.4128H85.0326V40.1402ZM116.274 39.007V40.1409H119.303L114.282 54.3354H114.181L109.363 40.1402H112.006V39.0063H103.062V40.1402H105.44L112.087 59.2343H113.794L120.644 40.1402H123.023V39.0063L116.274 39.007ZM136.375 45.871V44.1904C136.375 40.6269 134.281 39.493 131.802 39.493C128.813 39.493 127.472 42.2664 127.37 42.6109C127.065 43.6639 126.883 44.7776 126.883 45.871H136.375ZM140.847 52.4519C139.851 57.0481 136.476 59.235 132.106 59.235C127.045 59.235 122.166 55.1855 122.166 49.6778C122.166 43.8466 126.049 38.5007 131.944 38.5007C137.005 38.5007 140.827 41.9226 140.888 47.3089H126.822V49.3333C126.822 54.2336 127.472 58.182 132.879 58.182C135.704 58.182 139.038 55.712 139.729 52.4519H140.847ZM144.67 40.1402H141.946V39.0063H142.982C143.917 39.0272 144.832 38.9868 145.767 38.9052C146.702 38.8452 147.637 38.7029 148.552 38.5007V43.7448H148.654C150.036 40.6269 151.967 38.5007 155.605 38.5007C157.394 38.5007 161.52 38.9052 161.52 43.4407V57.4331H164.204V58.5669H155.056V57.4331H157.638V44.069C157.638 40.4652 156.5 39.9177 154.507 39.9177C151.133 39.9177 148.552 44.5147 148.552 48.2197V57.4128H151.235V58.5467H141.946V57.4128H144.67V40.1402ZM178.9 45.871V44.1904C178.9 40.6269 176.807 39.493 174.327 39.493C171.339 39.493 169.997 42.2664 169.916 42.6109C169.611 43.6639 169.428 44.7776 169.428 45.871H178.9ZM183.372 52.4519C182.376 57.0481 179.002 59.235 174.632 59.235C169.571 59.235 164.712 55.1855 164.712 49.6778C164.712 43.8466 168.575 38.5007 174.49 38.5007C179.551 38.5007 183.372 41.9226 183.433 47.3089H169.367V49.3333C169.367 54.2336 170.017 58.182 175.424 58.182C178.25 58.182 181.583 55.712 182.274 52.4519H183.372Z" fill="white"/>
<path d="M43.2766 105.646C42.8274 105.731 42.5116 106.057 42.3293 106.623C42.2382 106.903 42.1926 107.18 42.1926 107.453C42.1926 107.486 42.1926 107.515 42.1926 107.541C42.1991 107.561 42.2056 107.609 42.2122 107.688H43.2766V109.816H41.1965V107.854C41.1965 106.89 41.3886 106.148 41.7727 105.627C42.1568 105.106 42.6581 104.807 43.2766 104.729V105.646ZM46.5676 105.646C46.2096 105.705 45.9361 105.907 45.7473 106.252C45.565 106.597 45.4739 106.994 45.4739 107.443C45.4739 107.482 45.4739 107.521 45.4739 107.561C45.4804 107.6 45.4902 107.642 45.5032 107.688H46.5676V109.816H44.4778V107.854C44.4778 107.079 44.6405 106.389 44.9661 105.783C45.2916 105.171 45.8254 104.82 46.5676 104.729V105.646ZM54.6633 104.475C56.4797 104.475 57.8892 104.953 58.8918 105.91C59.8944 106.867 60.4511 107.954 60.5618 109.172H58.6672C58.4524 108.247 58.0227 107.515 57.3782 106.975C56.7402 106.434 55.8417 106.164 54.6829 106.164C53.2701 106.164 52.1275 106.662 51.2551 107.658C50.3892 108.648 49.9563 110.168 49.9563 112.219C49.9563 113.898 50.3469 115.262 51.1282 116.311C51.9159 117.352 53.0878 117.873 54.6438 117.873C56.0761 117.873 57.1666 117.323 57.9153 116.223C58.3124 115.643 58.6086 114.882 58.804 113.938H60.6985C60.5292 115.448 59.9693 116.714 59.0188 117.736C57.8795 118.967 56.343 119.582 54.4094 119.582C52.7428 119.582 51.343 119.077 50.2102 118.068C48.7193 116.734 47.9739 114.673 47.9739 111.887C47.9739 109.771 48.5338 108.036 49.6536 106.682C50.8645 105.21 52.5344 104.475 54.6633 104.475ZM62.886 104.865H64.6438V119.211H62.886V104.865ZM67.2903 108.801H69.0774V119.211H67.2903V108.801ZM67.2903 104.865H69.0774V106.857H67.2903V104.865ZM75.7766 108.449C76.955 108.449 77.912 108.736 78.6477 109.309C79.3899 109.882 79.8359 110.868 79.9856 112.268H78.2766C78.1724 111.623 77.9348 111.089 77.5637 110.666C77.1926 110.236 76.5969 110.021 75.7766 110.021C74.6568 110.021 73.856 110.568 73.3743 111.662C73.0618 112.372 72.9055 113.247 72.9055 114.289C72.9055 115.337 73.1269 116.219 73.5696 116.936C74.0123 117.652 74.7089 118.01 75.6594 118.01C76.3886 118.01 76.9648 117.788 77.3879 117.346C77.8176 116.896 78.1139 116.285 78.2766 115.51H79.9856C79.7903 116.896 79.302 117.912 78.5208 118.557C77.7395 119.195 76.7402 119.514 75.5227 119.514C74.1555 119.514 73.065 119.016 72.2512 118.02C71.4374 117.017 71.0305 115.767 71.0305 114.27C71.0305 112.434 71.4765 111.005 72.3684 109.982C73.2603 108.96 74.3964 108.449 75.7766 108.449ZM81.7043 104.865H83.3938V113.195L87.9055 108.752H90.1516L86.1477 112.668L90.3762 119.211H88.1301L84.8684 113.938L83.3938 115.285V119.211H81.7043V104.865ZM94.0872 104.865V113.732C94.0872 114.774 94.2825 115.64 94.6731 116.33C95.2525 117.372 96.2291 117.893 97.6028 117.893C99.2499 117.893 100.37 117.329 100.962 116.203C101.281 115.591 101.441 114.768 101.441 113.732V104.865H103.413V112.922C103.413 114.686 103.176 116.044 102.7 116.994C101.828 118.726 100.181 119.592 97.759 119.592C95.3372 119.592 93.6933 118.726 92.8274 116.994C92.3521 116.044 92.1145 114.686 92.1145 112.922V104.865H94.0872ZM110.611 118.029C111.431 118.029 112.111 117.688 112.652 117.004C113.198 116.314 113.472 115.285 113.472 113.918C113.472 113.085 113.351 112.368 113.111 111.77C112.655 110.617 111.822 110.041 110.611 110.041C109.393 110.041 108.56 110.65 108.111 111.867C107.87 112.518 107.749 113.345 107.749 114.348C107.749 115.155 107.87 115.842 108.111 116.408C108.566 117.489 109.4 118.029 110.611 118.029ZM106.06 108.801H107.769V110.188C108.12 109.712 108.504 109.344 108.921 109.084C109.514 108.693 110.21 108.498 111.011 108.498C112.196 108.498 113.202 108.954 114.029 109.865C114.855 110.77 115.269 112.066 115.269 113.752C115.269 116.031 114.673 117.658 113.482 118.635C112.726 119.253 111.848 119.562 110.845 119.562C110.057 119.562 109.396 119.39 108.863 119.045C108.55 118.85 108.202 118.514 107.818 118.039V123.381H106.06V108.801ZM122.896 108.801H124.683V119.211H122.896V108.801ZM122.896 104.865H124.683V106.857H122.896V104.865ZM128.394 115.93C128.446 116.516 128.592 116.965 128.833 117.277C129.276 117.844 130.044 118.127 131.138 118.127C131.789 118.127 132.362 117.987 132.857 117.707C133.351 117.421 133.599 116.981 133.599 116.389C133.599 115.939 133.4 115.598 133.003 115.363C132.749 115.22 132.248 115.054 131.499 114.865L130.103 114.514C129.211 114.292 128.553 114.045 128.13 113.771C127.375 113.296 126.997 112.639 126.997 111.799C126.997 110.809 127.352 110.008 128.062 109.396C128.778 108.785 129.738 108.479 130.943 108.479C132.518 108.479 133.654 108.941 134.351 109.865C134.787 110.451 134.999 111.083 134.986 111.76H133.325C133.293 111.363 133.153 111.001 132.906 110.676C132.502 110.214 131.802 109.982 130.806 109.982C130.142 109.982 129.637 110.109 129.292 110.363C128.954 110.617 128.784 110.952 128.784 111.369C128.784 111.825 129.009 112.189 129.458 112.463C129.719 112.626 130.103 112.769 130.611 112.893L131.773 113.176C133.036 113.482 133.882 113.778 134.312 114.064C134.995 114.514 135.337 115.22 135.337 116.184C135.337 117.115 134.982 117.919 134.273 118.596C133.57 119.273 132.495 119.611 131.05 119.611C129.494 119.611 128.391 119.26 127.74 118.557C127.095 117.847 126.75 116.971 126.704 115.93H128.394ZM142.915 104.816H144.673V110.168C145.09 109.641 145.464 109.27 145.796 109.055C146.363 108.684 147.069 108.498 147.915 108.498C149.432 108.498 150.461 109.029 151.001 110.09C151.294 110.669 151.441 111.473 151.441 112.502V119.211H149.634V112.619C149.634 111.851 149.536 111.288 149.341 110.93C149.022 110.357 148.423 110.07 147.544 110.07C146.815 110.07 146.154 110.321 145.562 110.822C144.969 111.324 144.673 112.271 144.673 113.664V119.211H142.915V104.816ZM158.198 118.078C159.364 118.078 160.161 117.639 160.591 116.76C161.027 115.874 161.245 114.891 161.245 113.811C161.245 112.834 161.089 112.04 160.777 111.428C160.282 110.464 159.429 109.982 158.218 109.982C157.144 109.982 156.363 110.393 155.874 111.213C155.386 112.033 155.142 113.023 155.142 114.182C155.142 115.295 155.386 116.223 155.874 116.965C156.363 117.707 157.137 118.078 158.198 118.078ZM158.267 108.449C159.615 108.449 160.754 108.898 161.685 109.797C162.616 110.695 163.081 112.017 163.081 113.762C163.081 115.448 162.671 116.841 161.851 117.941C161.031 119.042 159.758 119.592 158.032 119.592C156.594 119.592 155.451 119.107 154.605 118.137C153.758 117.16 153.335 115.852 153.335 114.211C153.335 112.453 153.781 111.053 154.673 110.012C155.565 108.97 156.763 108.449 158.267 108.449ZM165.991 108.752L168.003 116.994L170.044 108.752H172.017L174.068 116.945L176.206 108.752H177.964L174.927 119.211H173.101L170.972 111.115L168.911 119.211H167.085L164.068 108.752H165.991ZM189.351 118.078C190.516 118.078 191.314 117.639 191.743 116.76C192.18 115.874 192.398 114.891 192.398 113.811C192.398 112.834 192.241 112.04 191.929 111.428C191.434 110.464 190.581 109.982 189.37 109.982C188.296 109.982 187.515 110.393 187.027 111.213C186.538 112.033 186.294 113.023 186.294 114.182C186.294 115.295 186.538 116.223 187.027 116.965C187.515 117.707 188.29 118.078 189.351 118.078ZM189.419 108.449C190.767 108.449 191.906 108.898 192.837 109.797C193.768 110.695 194.234 112.017 194.234 113.762C194.234 115.448 193.823 116.841 193.003 117.941C192.183 119.042 190.91 119.592 189.185 119.592C187.746 119.592 186.603 119.107 185.757 118.137C184.911 117.16 184.488 115.852 184.488 114.211C184.488 112.453 184.934 111.053 185.825 110.012C186.717 108.97 187.915 108.449 189.419 108.449ZM198.091 108.752V115.695C198.091 116.229 198.176 116.665 198.345 117.004C198.657 117.629 199.24 117.941 200.093 117.941C201.317 117.941 202.15 117.395 202.593 116.301C202.834 115.715 202.954 114.911 202.954 113.889V108.752H204.712V119.211H203.052L203.072 117.668C202.844 118.065 202.56 118.4 202.222 118.674C201.551 119.221 200.738 119.494 199.781 119.494C198.29 119.494 197.274 118.996 196.734 118C196.441 117.466 196.294 116.753 196.294 115.861V108.752H198.091ZM207.515 108.752H209.185V110.559C209.322 110.207 209.657 109.781 210.191 109.279C210.725 108.771 211.34 108.518 212.036 108.518C212.069 108.518 212.124 108.521 212.202 108.527C212.281 108.534 212.414 108.547 212.603 108.566V110.422C212.499 110.402 212.401 110.389 212.31 110.383C212.225 110.376 212.131 110.373 212.027 110.373C211.141 110.373 210.461 110.66 209.986 111.232C209.51 111.799 209.273 112.453 209.273 113.195V119.211H207.515V108.752ZM220.044 105.832H221.822V108.752H223.491V110.188H221.822V117.014C221.822 117.378 221.945 117.622 222.193 117.746C222.329 117.818 222.557 117.854 222.876 117.854C222.961 117.854 223.052 117.854 223.15 117.854C223.247 117.847 223.361 117.837 223.491 117.824V119.211C223.29 119.27 223.078 119.312 222.857 119.338C222.642 119.364 222.407 119.377 222.154 119.377C221.333 119.377 220.777 119.169 220.484 118.752C220.191 118.329 220.044 117.782 220.044 117.111V110.188H218.628V108.752H220.044V105.832ZM229.615 108.518C230.357 108.518 231.076 108.693 231.773 109.045C232.469 109.39 233 109.839 233.365 110.393C233.716 110.92 233.95 111.535 234.068 112.238C234.172 112.72 234.224 113.488 234.224 114.543H226.558C226.59 115.604 226.841 116.457 227.31 117.102C227.779 117.74 228.504 118.059 229.488 118.059C230.406 118.059 231.138 117.756 231.685 117.15C231.997 116.799 232.219 116.392 232.349 115.93H234.077C234.032 116.314 233.879 116.743 233.618 117.219C233.365 117.688 233.078 118.072 232.759 118.371C232.225 118.892 231.564 119.243 230.777 119.426C230.353 119.53 229.875 119.582 229.341 119.582C228.039 119.582 226.935 119.11 226.031 118.166C225.126 117.215 224.673 115.887 224.673 114.182C224.673 112.502 225.129 111.138 226.04 110.09C226.952 109.042 228.143 108.518 229.615 108.518ZM232.417 113.146C232.346 112.385 232.18 111.776 231.919 111.32C231.437 110.474 230.633 110.051 229.507 110.051C228.7 110.051 228.023 110.344 227.476 110.93C226.929 111.509 226.639 112.248 226.607 113.146H232.417ZM237.74 116.428C237.74 116.936 237.925 117.336 238.296 117.629C238.667 117.922 239.107 118.068 239.615 118.068C240.233 118.068 240.832 117.925 241.411 117.639C242.388 117.163 242.876 116.385 242.876 115.305V113.889C242.661 114.025 242.385 114.139 242.046 114.23C241.708 114.322 241.376 114.387 241.05 114.426L239.986 114.562C239.348 114.647 238.869 114.781 238.55 114.963C238.01 115.269 237.74 115.757 237.74 116.428ZM241.997 112.873C242.401 112.821 242.671 112.652 242.808 112.365C242.886 112.209 242.925 111.984 242.925 111.691C242.925 111.092 242.71 110.66 242.281 110.393C241.857 110.119 241.249 109.982 240.454 109.982C239.536 109.982 238.885 110.23 238.501 110.725C238.286 110.998 238.146 111.405 238.081 111.945H236.441C236.473 110.656 236.89 109.761 237.691 109.26C238.498 108.752 239.432 108.498 240.493 108.498C241.724 108.498 242.723 108.732 243.491 109.201C244.253 109.67 244.634 110.399 244.634 111.389V117.414C244.634 117.596 244.67 117.743 244.741 117.854C244.82 117.964 244.979 118.02 245.22 118.02C245.298 118.02 245.386 118.016 245.484 118.01C245.581 117.997 245.685 117.98 245.796 117.961V119.26C245.523 119.338 245.314 119.387 245.171 119.406C245.028 119.426 244.833 119.436 244.585 119.436C243.98 119.436 243.54 119.221 243.267 118.791C243.124 118.563 243.023 118.241 242.964 117.824C242.606 118.293 242.092 118.7 241.421 119.045C240.751 119.39 240.012 119.562 239.204 119.562C238.234 119.562 237.44 119.27 236.822 118.684C236.21 118.091 235.904 117.352 235.904 116.467C235.904 115.497 236.206 114.745 236.812 114.211C237.417 113.677 238.212 113.348 239.195 113.225L241.997 112.873ZM247.525 108.752H249.263V110.236C249.68 109.722 250.057 109.348 250.396 109.113C250.975 108.716 251.633 108.518 252.368 108.518C253.202 108.518 253.872 108.723 254.38 109.133C254.667 109.367 254.927 109.712 255.161 110.168C255.552 109.608 256.011 109.195 256.538 108.928C257.066 108.654 257.658 108.518 258.316 108.518C259.722 108.518 260.679 109.025 261.187 110.041C261.46 110.588 261.597 111.324 261.597 112.248V119.211H259.771V111.945C259.771 111.249 259.595 110.77 259.243 110.51C258.898 110.249 258.475 110.119 257.974 110.119C257.284 110.119 256.688 110.35 256.187 110.812C255.692 111.275 255.445 112.046 255.445 113.127V119.211H253.657V112.385C253.657 111.675 253.573 111.158 253.404 110.832C253.137 110.344 252.639 110.1 251.909 110.1C251.245 110.1 250.64 110.357 250.093 110.871C249.553 111.385 249.282 112.316 249.282 113.664V119.211H247.525V108.752ZM265.23 115.93C265.282 116.516 265.428 116.965 265.669 117.277C266.112 117.844 266.88 118.127 267.974 118.127C268.625 118.127 269.198 117.987 269.693 117.707C270.187 117.421 270.435 116.981 270.435 116.389C270.435 115.939 270.236 115.598 269.839 115.363C269.585 115.22 269.084 115.054 268.335 114.865L266.939 114.514C266.047 114.292 265.389 114.045 264.966 113.771C264.211 113.296 263.833 112.639 263.833 111.799C263.833 110.809 264.188 110.008 264.898 109.396C265.614 108.785 266.574 108.479 267.779 108.479C269.354 108.479 270.49 108.941 271.187 109.865C271.623 110.451 271.835 111.083 271.822 111.76H270.161C270.129 111.363 269.989 111.001 269.741 110.676C269.338 110.214 268.638 109.982 267.642 109.982C266.978 109.982 266.473 110.109 266.128 110.363C265.79 110.617 265.62 110.952 265.62 111.369C265.62 111.825 265.845 112.189 266.294 112.463C266.555 112.626 266.939 112.769 267.447 112.893L268.609 113.176C269.872 113.482 270.718 113.778 271.148 114.064C271.831 114.514 272.173 115.22 272.173 116.184C272.173 117.115 271.818 117.919 271.109 118.596C270.406 119.273 269.331 119.611 267.886 119.611C266.33 119.611 265.226 119.26 264.575 118.557C263.931 117.847 263.586 116.971 263.54 115.93H265.23ZM50.9426 139.385H48.0911C48.039 138.988 47.9055 138.63 47.6907 138.311C47.3782 137.881 46.8931 137.666 46.2356 137.666C45.2981 137.666 44.6568 138.132 44.3118 139.062C44.1295 139.557 44.0383 140.215 44.0383 141.035C44.0383 141.816 44.1295 142.445 44.3118 142.92C44.6438 143.805 45.2688 144.248 46.1868 144.248C46.8378 144.248 47.3 144.072 47.5735 143.721C47.8469 143.369 48.0129 142.913 48.0715 142.354H50.9133C50.8482 143.2 50.5422 144.001 49.9954 144.756C49.123 145.973 47.8306 146.582 46.1184 146.582C44.4062 146.582 43.1464 146.074 42.3391 145.059C41.5318 144.043 41.1282 142.725 41.1282 141.104C41.1282 139.274 41.5741 137.852 42.4661 136.836C43.358 135.82 44.5885 135.312 46.1575 135.312C47.4921 135.312 48.5826 135.612 49.429 136.211C50.2818 136.81 50.7864 137.868 50.9426 139.385ZM61.9778 143.086C61.9062 143.717 61.5774 144.359 60.9915 145.01C60.08 146.045 58.804 146.562 57.1633 146.562C55.8092 146.562 54.6145 146.126 53.5793 145.254C52.5442 144.382 52.0266 142.962 52.0266 140.996C52.0266 139.154 52.4921 137.741 53.4231 136.758C54.3606 135.775 55.5748 135.283 57.0657 135.283C57.9511 135.283 58.7486 135.449 59.4583 135.781C60.1679 136.113 60.7538 136.637 61.2161 137.354C61.6327 137.985 61.9029 138.717 62.0266 139.551C62.0982 140.039 62.1275 140.742 62.1145 141.66H54.8293C54.8684 142.728 55.2037 143.477 55.8352 143.906C56.2193 144.173 56.6816 144.307 57.2219 144.307C57.7948 144.307 58.2603 144.144 58.6184 143.818C58.8137 143.643 58.9862 143.398 59.136 143.086H61.9778ZM59.2239 139.824C59.1783 139.089 58.9537 138.532 58.55 138.154C58.1529 137.77 57.6581 137.578 57.0657 137.578C56.4211 137.578 55.9198 137.78 55.5618 138.184C55.2102 138.587 54.9889 139.134 54.8977 139.824H59.2239ZM69.009 137.627C68.065 137.627 67.4172 138.027 67.0657 138.828C66.8834 139.251 66.7922 139.792 66.7922 140.449V146.211H64.0188V135.586H66.7043V137.139C67.0624 136.592 67.401 136.198 67.72 135.957C68.2929 135.527 69.0188 135.312 69.8977 135.312C70.998 135.312 71.8964 135.602 72.593 136.182C73.2961 136.755 73.6477 137.708 73.6477 139.043V146.211H70.7961V139.736C70.7961 139.176 70.7213 138.747 70.5715 138.447C70.2981 137.9 69.7773 137.627 69.009 137.627ZM81.0989 144.229V146.309L79.7805 146.357C78.4654 146.403 77.567 146.175 77.0852 145.674C76.7727 145.355 76.6165 144.863 76.6165 144.199V137.646H75.1321V135.664H76.6165V132.695H79.3704V135.664H81.0989V137.646H79.3704V143.271C79.3704 143.708 79.4257 143.981 79.5364 144.092C79.6471 144.196 79.9856 144.248 80.552 144.248C80.6366 144.248 80.7245 144.248 80.8157 144.248C80.9133 144.242 81.0077 144.235 81.0989 144.229ZM88.2375 138.135C87.1178 138.135 86.3658 138.499 85.9817 139.229C85.7668 139.639 85.6594 140.27 85.6594 141.123V146.211H82.8567V135.566H85.5129V137.422C85.9426 136.712 86.317 136.227 86.636 135.967C87.1568 135.531 87.8339 135.312 88.6672 135.312C88.7193 135.312 88.7616 135.316 88.7942 135.322C88.8333 135.322 88.9146 135.326 89.0383 135.332V138.184C88.8625 138.164 88.7063 138.151 88.5696 138.145C88.4329 138.138 88.3222 138.135 88.2375 138.135ZM91.0793 136.719C91.815 135.781 93.078 135.312 94.8684 135.312C96.0338 135.312 97.0689 135.544 97.9739 136.006C98.8788 136.468 99.3313 137.34 99.3313 138.623V143.506C99.3313 143.844 99.3378 144.255 99.3508 144.736C99.3704 145.101 99.4257 145.348 99.5168 145.479C99.608 145.609 99.7447 145.716 99.927 145.801V146.211H96.8997C96.815 145.996 96.7564 145.794 96.7239 145.605C96.6913 145.417 96.6653 145.202 96.6458 144.961C96.2616 145.378 95.8189 145.732 95.3176 146.025C94.7187 146.37 94.0416 146.543 93.2864 146.543C92.3228 146.543 91.5253 146.27 90.8938 145.723C90.2688 145.169 89.9563 144.388 89.9563 143.379C89.9563 142.07 90.4609 141.123 91.47 140.537C92.0234 140.218 92.8372 139.99 93.9114 139.854L94.8586 139.736C95.373 139.671 95.7408 139.59 95.9622 139.492C96.3593 139.323 96.5579 139.059 96.5579 138.701C96.5579 138.265 96.4049 137.965 96.0989 137.803C95.7994 137.633 95.3567 137.549 94.7708 137.549C94.1132 137.549 93.6477 137.712 93.3743 138.037C93.179 138.278 93.0487 138.604 92.9836 139.014H90.2981C90.3567 138.083 90.6171 137.318 91.0793 136.719ZM93.1497 144.199C93.4101 144.414 93.7291 144.521 94.1067 144.521C94.7056 144.521 95.2558 144.346 95.7571 143.994C96.2649 143.643 96.5286 143.001 96.5481 142.07V141.035C96.3723 141.146 96.1933 141.237 96.011 141.309C95.8352 141.374 95.5911 141.436 95.2786 141.494L94.6536 141.611C94.0676 141.715 93.6477 141.842 93.3938 141.992C92.9641 142.246 92.7493 142.64 92.7493 143.174C92.7493 143.649 92.8827 143.991 93.1497 144.199ZM101.87 131.816H104.654V146.211H101.87V131.816ZM110.24 135.566V146.211H107.417V135.566H110.24ZM110.24 131.729V134.297H107.417V131.729H110.24ZM121.157 146.211H111.968V144.043L117.427 137.832H112.339V135.566H120.972V137.881L115.572 143.926H121.157V146.211ZM132.056 143.086C131.984 143.717 131.656 144.359 131.07 145.01C130.158 146.045 128.882 146.562 127.241 146.562C125.887 146.562 124.693 146.126 123.657 145.254C122.622 144.382 122.105 142.962 122.105 140.996C122.105 139.154 122.57 137.741 123.501 136.758C124.439 135.775 125.653 135.283 127.144 135.283C128.029 135.283 128.827 135.449 129.536 135.781C130.246 136.113 130.832 136.637 131.294 137.354C131.711 137.985 131.981 138.717 132.105 139.551C132.176 140.039 132.206 140.742 132.193 141.66H124.907C124.947 142.728 125.282 143.477 125.913 143.906C126.297 144.173 126.76 144.307 127.3 144.307C127.873 144.307 128.338 144.144 128.697 143.818C128.892 143.643 129.064 143.398 129.214 143.086H132.056ZM129.302 139.824C129.256 139.089 129.032 138.532 128.628 138.154C128.231 137.77 127.736 137.578 127.144 137.578C126.499 137.578 125.998 137.78 125.64 138.184C125.288 138.587 125.067 139.134 124.976 139.824H129.302ZM147.72 146.211L146.05 138.457L144.361 146.211H141.47L138.482 135.566H141.47L143.13 143.203L144.663 135.566H147.486L149.107 143.232L150.767 135.566H153.667L150.581 146.211H147.72ZM164.087 136.914C164.986 138.04 165.435 139.372 165.435 140.908C165.435 142.471 164.986 143.809 164.087 144.922C163.189 146.029 161.825 146.582 159.995 146.582C158.166 146.582 156.802 146.029 155.904 144.922C155.005 143.809 154.556 142.471 154.556 140.908C154.556 139.372 155.005 138.04 155.904 136.914C156.802 135.788 158.166 135.225 159.995 135.225C161.825 135.225 163.189 135.788 164.087 136.914ZM159.986 137.578C159.172 137.578 158.544 137.868 158.101 138.447C157.665 139.02 157.447 139.84 157.447 140.908C157.447 141.976 157.665 142.799 158.101 143.379C158.544 143.958 159.172 144.248 159.986 144.248C160.799 144.248 161.424 143.958 161.861 143.379C162.297 142.799 162.515 141.976 162.515 140.908C162.515 139.84 162.297 139.02 161.861 138.447C161.424 137.868 160.799 137.578 159.986 137.578ZM172.788 138.135C171.669 138.135 170.917 138.499 170.532 139.229C170.318 139.639 170.21 140.27 170.21 141.123V146.211H167.407V135.566H170.064V137.422C170.493 136.712 170.868 136.227 171.187 135.967C171.708 135.531 172.385 135.312 173.218 135.312C173.27 135.312 173.312 135.316 173.345 135.322C173.384 135.322 173.465 135.326 173.589 135.332V138.184C173.413 138.164 173.257 138.151 173.12 138.145C172.984 138.138 172.873 138.135 172.788 138.135ZM184.995 146.211H181.636L179.087 141.66L177.935 142.861V146.211H175.2V131.865H177.935V139.619L181.402 135.615H184.849L181.128 139.688L184.995 146.211ZM186.724 148.252C187.173 148.174 187.489 147.858 187.671 147.305C187.769 147.012 187.818 146.729 187.818 146.455C187.818 146.41 187.814 146.367 187.808 146.328C187.808 146.296 187.801 146.257 187.788 146.211H186.724V144.082H188.814V146.055C188.814 146.829 188.657 147.51 188.345 148.096C188.032 148.682 187.492 149.043 186.724 149.18V148.252ZM198.531 142.93C198.583 143.516 198.729 143.965 198.97 144.277C199.413 144.844 200.181 145.127 201.275 145.127C201.926 145.127 202.499 144.987 202.993 144.707C203.488 144.421 203.736 143.981 203.736 143.389C203.736 142.939 203.537 142.598 203.14 142.363C202.886 142.22 202.385 142.054 201.636 141.865L200.24 141.514C199.348 141.292 198.69 141.045 198.267 140.771C197.512 140.296 197.134 139.639 197.134 138.799C197.134 137.809 197.489 137.008 198.198 136.396C198.915 135.785 199.875 135.479 201.079 135.479C202.655 135.479 203.791 135.941 204.488 136.865C204.924 137.451 205.135 138.083 205.122 138.76H203.462C203.43 138.363 203.29 138.001 203.042 137.676C202.639 137.214 201.939 136.982 200.943 136.982C200.279 136.982 199.774 137.109 199.429 137.363C199.09 137.617 198.921 137.952 198.921 138.369C198.921 138.825 199.146 139.189 199.595 139.463C199.855 139.626 200.24 139.769 200.747 139.893L201.909 140.176C203.172 140.482 204.019 140.778 204.448 141.064C205.132 141.514 205.474 142.22 205.474 143.184C205.474 144.115 205.119 144.919 204.409 145.596C203.706 146.273 202.632 146.611 201.187 146.611C199.631 146.611 198.527 146.26 197.876 145.557C197.232 144.847 196.887 143.971 196.841 142.93H198.531ZM207.837 132.832H209.615V135.752H211.284V137.188H209.615V144.014C209.615 144.378 209.738 144.622 209.986 144.746C210.122 144.818 210.35 144.854 210.669 144.854C210.754 144.854 210.845 144.854 210.943 144.854C211.04 144.847 211.154 144.837 211.284 144.824V146.211C211.083 146.27 210.871 146.312 210.65 146.338C210.435 146.364 210.2 146.377 209.947 146.377C209.126 146.377 208.57 146.169 208.277 145.752C207.984 145.329 207.837 144.782 207.837 144.111V137.188H206.421V135.752H207.837V132.832ZM214.4 143.428C214.4 143.936 214.585 144.336 214.956 144.629C215.327 144.922 215.767 145.068 216.275 145.068C216.893 145.068 217.492 144.925 218.072 144.639C219.048 144.163 219.536 143.385 219.536 142.305V140.889C219.322 141.025 219.045 141.139 218.706 141.23C218.368 141.322 218.036 141.387 217.71 141.426L216.646 141.562C216.008 141.647 215.529 141.781 215.21 141.963C214.67 142.269 214.4 142.757 214.4 143.428ZM218.657 139.873C219.061 139.821 219.331 139.652 219.468 139.365C219.546 139.209 219.585 138.984 219.585 138.691C219.585 138.092 219.37 137.66 218.941 137.393C218.517 137.119 217.909 136.982 217.115 136.982C216.197 136.982 215.545 137.23 215.161 137.725C214.947 137.998 214.807 138.405 214.741 138.945H213.101C213.133 137.656 213.55 136.761 214.351 136.26C215.158 135.752 216.092 135.498 217.154 135.498C218.384 135.498 219.383 135.732 220.152 136.201C220.913 136.67 221.294 137.399 221.294 138.389V144.414C221.294 144.596 221.33 144.743 221.402 144.854C221.48 144.964 221.639 145.02 221.88 145.02C221.958 145.02 222.046 145.016 222.144 145.01C222.241 144.997 222.346 144.98 222.456 144.961V146.26C222.183 146.338 221.975 146.387 221.831 146.406C221.688 146.426 221.493 146.436 221.245 146.436C220.64 146.436 220.2 146.221 219.927 145.791C219.784 145.563 219.683 145.241 219.624 144.824C219.266 145.293 218.752 145.7 218.081 146.045C217.411 146.39 216.672 146.562 215.865 146.562C214.894 146.562 214.1 146.27 213.482 145.684C212.87 145.091 212.564 144.352 212.564 143.467C212.564 142.497 212.866 141.745 213.472 141.211C214.077 140.677 214.872 140.348 215.855 140.225L218.657 139.873ZM230.718 135.752H232.661C232.414 136.423 231.864 137.952 231.011 140.342C230.373 142.139 229.839 143.604 229.409 144.736C228.394 147.406 227.678 149.033 227.261 149.619C226.844 150.205 226.128 150.498 225.113 150.498C224.865 150.498 224.673 150.488 224.536 150.469C224.406 150.449 224.243 150.413 224.048 150.361V148.76C224.354 148.844 224.575 148.896 224.712 148.916C224.849 148.936 224.969 148.945 225.073 148.945C225.399 148.945 225.637 148.89 225.786 148.779C225.943 148.675 226.073 148.545 226.177 148.389C226.21 148.337 226.327 148.07 226.529 147.588C226.73 147.106 226.877 146.748 226.968 146.514L223.101 135.752H225.093L227.896 144.268L230.718 135.752ZM243.902 145.078C245.067 145.078 245.865 144.639 246.294 143.76C246.73 142.874 246.948 141.891 246.948 140.811C246.948 139.834 246.792 139.04 246.48 138.428C245.985 137.464 245.132 136.982 243.921 136.982C242.847 136.982 242.066 137.393 241.577 138.213C241.089 139.033 240.845 140.023 240.845 141.182C240.845 142.295 241.089 143.223 241.577 143.965C242.066 144.707 242.84 145.078 243.902 145.078ZM243.97 135.449C245.318 135.449 246.457 135.898 247.388 136.797C248.319 137.695 248.784 139.017 248.784 140.762C248.784 142.448 248.374 143.841 247.554 144.941C246.734 146.042 245.461 146.592 243.736 146.592C242.297 146.592 241.154 146.107 240.308 145.137C239.462 144.16 239.038 142.852 239.038 141.211C239.038 139.453 239.484 138.053 240.376 137.012C241.268 135.97 242.466 135.449 243.97 135.449ZM250.884 135.752H252.554V137.236C253.049 136.624 253.573 136.185 254.126 135.918C254.68 135.651 255.295 135.518 255.972 135.518C257.456 135.518 258.459 136.035 258.98 137.07C259.266 137.637 259.409 138.447 259.409 139.502V146.211H257.622V139.619C257.622 138.981 257.528 138.467 257.339 138.076C257.027 137.425 256.46 137.1 255.64 137.1C255.223 137.1 254.881 137.142 254.615 137.227C254.133 137.37 253.71 137.656 253.345 138.086C253.052 138.431 252.86 138.789 252.769 139.16C252.684 139.525 252.642 140.049 252.642 140.732V146.211H250.884V135.752ZM267.935 132.832H269.712V135.752H271.382V137.188H269.712V144.014C269.712 144.378 269.836 144.622 270.083 144.746C270.22 144.818 270.448 144.854 270.767 144.854C270.851 144.854 270.943 144.854 271.04 144.854C271.138 144.847 271.252 144.837 271.382 144.824V146.211C271.18 146.27 270.969 146.312 270.747 146.338C270.532 146.364 270.298 146.377 270.044 146.377C269.224 146.377 268.667 146.169 268.374 145.752C268.081 145.329 267.935 144.782 267.935 144.111V137.188H266.519V135.752H267.935V132.832ZM273.198 135.752H274.868V137.559C275.005 137.207 275.34 136.781 275.874 136.279C276.408 135.771 277.023 135.518 277.72 135.518C277.753 135.518 277.808 135.521 277.886 135.527C277.964 135.534 278.098 135.547 278.286 135.566V137.422C278.182 137.402 278.085 137.389 277.993 137.383C277.909 137.376 277.814 137.373 277.71 137.373C276.825 137.373 276.144 137.66 275.669 138.232C275.194 138.799 274.956 139.453 274.956 140.195V146.211H273.198V135.752ZM281.157 143.428C281.157 143.936 281.343 144.336 281.714 144.629C282.085 144.922 282.525 145.068 283.032 145.068C283.651 145.068 284.25 144.925 284.829 144.639C285.806 144.163 286.294 143.385 286.294 142.305V140.889C286.079 141.025 285.803 141.139 285.464 141.23C285.126 141.322 284.794 141.387 284.468 141.426L283.404 141.562C282.766 141.647 282.287 141.781 281.968 141.963C281.428 142.269 281.157 142.757 281.157 143.428ZM285.415 139.873C285.819 139.821 286.089 139.652 286.226 139.365C286.304 139.209 286.343 138.984 286.343 138.691C286.343 138.092 286.128 137.66 285.698 137.393C285.275 137.119 284.667 136.982 283.872 136.982C282.954 136.982 282.303 137.23 281.919 137.725C281.704 137.998 281.564 138.405 281.499 138.945H279.859C279.891 137.656 280.308 136.761 281.109 136.26C281.916 135.752 282.85 135.498 283.911 135.498C285.142 135.498 286.141 135.732 286.909 136.201C287.671 136.67 288.052 137.399 288.052 138.389V144.414C288.052 144.596 288.088 144.743 288.159 144.854C288.238 144.964 288.397 145.02 288.638 145.02C288.716 145.02 288.804 145.016 288.902 145.01C288.999 144.997 289.103 144.98 289.214 144.961V146.26C288.941 146.338 288.732 146.387 288.589 146.406C288.446 146.426 288.251 146.436 288.003 146.436C287.398 146.436 286.958 146.221 286.685 145.791C286.542 145.563 286.441 145.241 286.382 144.824C286.024 145.293 285.51 145.7 284.839 146.045C284.169 146.39 283.43 146.562 282.622 146.562C281.652 146.562 280.858 146.27 280.24 145.684C279.628 145.091 279.322 144.352 279.322 143.467C279.322 142.497 279.624 141.745 280.23 141.211C280.835 140.677 281.629 140.348 282.613 140.225L285.415 139.873ZM294.976 135.449C296.154 135.449 297.111 135.736 297.847 136.309C298.589 136.882 299.035 137.868 299.185 139.268H297.476C297.372 138.623 297.134 138.089 296.763 137.666C296.392 137.236 295.796 137.021 294.976 137.021C293.856 137.021 293.055 137.568 292.573 138.662C292.261 139.372 292.105 140.247 292.105 141.289C292.105 142.337 292.326 143.219 292.769 143.936C293.212 144.652 293.908 145.01 294.859 145.01C295.588 145.01 296.164 144.788 296.587 144.346C297.017 143.896 297.313 143.285 297.476 142.51H299.185C298.99 143.896 298.501 144.912 297.72 145.557C296.939 146.195 295.939 146.514 294.722 146.514C293.355 146.514 292.264 146.016 291.45 145.02C290.637 144.017 290.23 142.767 290.23 141.27C290.23 139.434 290.676 138.005 291.568 136.982C292.46 135.96 293.596 135.449 294.976 135.449ZM300.904 131.865H302.593V140.195L307.105 135.752H309.351L305.347 139.668L309.575 146.211H307.329L304.068 140.938L302.593 142.285V146.211H300.904V131.865ZM311.314 148.252C311.763 148.174 312.079 147.858 312.261 147.305C312.359 147.012 312.407 146.729 312.407 146.455C312.407 146.41 312.404 146.367 312.398 146.328C312.398 146.296 312.391 146.257 312.378 146.211H311.314V144.082H313.404V146.055C313.404 146.829 313.247 147.51 312.935 148.096C312.622 148.682 312.082 149.043 311.314 149.18V148.252ZM43.0715 170.428C43.0715 170.936 43.2571 171.336 43.6282 171.629C43.9993 171.922 44.4387 172.068 44.9465 172.068C45.565 172.068 46.164 171.925 46.7434 171.639C47.72 171.163 48.2083 170.385 48.2083 169.305V167.889C47.9934 168.025 47.7167 168.139 47.3782 168.23C47.0396 168.322 46.7076 168.387 46.3821 168.426L45.3176 168.562C44.6796 168.647 44.2011 168.781 43.8821 168.963C43.3417 169.269 43.0715 169.757 43.0715 170.428ZM47.3293 166.873C47.733 166.821 48.0032 166.652 48.1399 166.365C48.218 166.209 48.2571 165.984 48.2571 165.691C48.2571 165.092 48.0422 164.66 47.6125 164.393C47.1894 164.119 46.5806 163.982 45.7864 163.982C44.8684 163.982 44.2174 164.23 43.8333 164.725C43.6184 164.998 43.4784 165.405 43.4133 165.945H41.7727C41.8053 164.656 42.2219 163.761 43.0227 163.26C43.83 162.752 44.7642 162.498 45.8254 162.498C47.0559 162.498 48.0553 162.732 48.8235 163.201C49.5852 163.67 49.9661 164.399 49.9661 165.389V171.414C49.9661 171.596 50.0019 171.743 50.0735 171.854C50.1516 171.964 50.3111 172.02 50.552 172.02C50.6301 172.02 50.718 172.016 50.8157 172.01C50.9133 171.997 51.0175 171.98 51.1282 171.961V173.26C50.8547 173.338 50.6464 173.387 50.5032 173.406C50.3599 173.426 50.1646 173.436 49.9172 173.436C49.3118 173.436 48.8723 173.221 48.5989 172.791C48.4556 172.563 48.3547 172.241 48.2961 171.824C47.9381 172.293 47.4237 172.7 46.7532 173.045C46.0826 173.39 45.3437 173.562 44.5364 173.562C43.5663 173.562 42.7721 173.27 42.1536 172.684C41.5416 172.091 41.2356 171.352 41.2356 170.467C41.2356 169.497 41.5383 168.745 42.1438 168.211C42.7493 167.677 43.5435 167.348 44.5266 167.225L47.3293 166.873ZM52.8567 162.752H54.5266V164.236C55.0214 163.624 55.5455 163.185 56.0989 162.918C56.6523 162.651 57.2675 162.518 57.9446 162.518C59.429 162.518 60.4316 163.035 60.9524 164.07C61.2389 164.637 61.3821 165.447 61.3821 166.502V173.211H59.595V166.619C59.595 165.981 59.5006 165.467 59.3118 165.076C58.9993 164.425 58.4329 164.1 57.6125 164.1C57.1959 164.1 56.8541 164.142 56.5872 164.227C56.1054 164.37 55.6822 164.656 55.3176 165.086C55.0247 165.431 54.8326 165.789 54.7415 166.16C54.6568 166.525 54.6145 167.049 54.6145 167.732V173.211H52.8567V162.752ZM65.1028 168.104C65.1028 169.223 65.3404 170.161 65.8157 170.916C66.2909 171.671 67.0527 172.049 68.1008 172.049C68.9146 172.049 69.5819 171.701 70.1028 171.004C70.6301 170.301 70.8938 169.295 70.8938 167.986C70.8938 166.665 70.6236 165.688 70.0833 165.057C69.5429 164.419 68.8756 164.1 68.0813 164.1C67.1959 164.1 66.4765 164.438 65.9231 165.115C65.3762 165.792 65.1028 166.788 65.1028 168.104ZM67.7493 162.566C68.55 162.566 69.2206 162.736 69.761 163.074C70.0735 163.27 70.4283 163.611 70.8254 164.1V158.816H72.5149V173.211H70.9329V171.756C70.5227 172.4 70.0377 172.866 69.4778 173.152C68.9179 173.439 68.2766 173.582 67.554 173.582C66.3886 173.582 65.3795 173.094 64.5266 172.117C63.6737 171.134 63.2473 169.829 63.2473 168.201C63.2473 166.678 63.6347 165.359 64.4094 164.246C65.1907 163.126 66.304 162.566 67.7493 162.566ZM85.0442 162.518C85.7864 162.518 86.5058 162.693 87.2024 163.045C87.899 163.39 88.4296 163.839 88.7942 164.393C89.1458 164.92 89.3801 165.535 89.4973 166.238C89.6015 166.72 89.6536 167.488 89.6536 168.543H81.9875C82.0201 169.604 82.2708 170.457 82.7395 171.102C83.2083 171.74 83.9342 172.059 84.9172 172.059C85.8352 172.059 86.5676 171.756 87.1145 171.15C87.427 170.799 87.6484 170.392 87.7786 169.93H89.5071C89.4615 170.314 89.3085 170.743 89.0481 171.219C88.7942 171.688 88.5077 172.072 88.1887 172.371C87.6549 172.892 86.9941 173.243 86.2063 173.426C85.7831 173.53 85.3046 173.582 84.7708 173.582C83.4687 173.582 82.3652 173.11 81.4602 172.166C80.5553 171.215 80.1028 169.887 80.1028 168.182C80.1028 166.502 80.5585 165.138 81.47 164.09C82.3814 163.042 83.5728 162.518 85.0442 162.518ZM87.8469 167.146C87.7753 166.385 87.6093 165.776 87.3489 165.32C86.8671 164.474 86.0631 164.051 84.9368 164.051C84.1295 164.051 83.4524 164.344 82.9055 164.93C82.3586 165.509 82.0689 166.248 82.0364 167.146H87.8469ZM93.1692 170.428C93.1692 170.936 93.3547 171.336 93.7258 171.629C94.0969 171.922 94.5364 172.068 95.0442 172.068C95.6627 172.068 96.2616 171.925 96.8411 171.639C97.8176 171.163 98.3059 170.385 98.3059 169.305V167.889C98.0911 168.025 97.8144 168.139 97.4758 168.23C97.1373 168.322 96.8053 168.387 96.4797 168.426L95.4153 168.562C94.7773 168.647 94.2987 168.781 93.9797 168.963C93.4394 169.269 93.1692 169.757 93.1692 170.428ZM97.427 166.873C97.8306 166.821 98.1008 166.652 98.2375 166.365C98.3157 166.209 98.3547 165.984 98.3547 165.691C98.3547 165.092 98.1399 164.66 97.7102 164.393C97.287 164.119 96.6783 163.982 95.884 163.982C94.9661 163.982 94.315 164.23 93.9309 164.725C93.7161 164.998 93.5761 165.405 93.511 165.945H91.8704C91.9029 164.656 92.3196 163.761 93.1204 163.26C93.9277 162.752 94.8619 162.498 95.9231 162.498C97.1536 162.498 98.1529 162.732 98.9211 163.201C99.6829 163.67 100.064 164.399 100.064 165.389V171.414C100.064 171.596 100.1 171.743 100.171 171.854C100.249 171.964 100.409 172.02 100.65 172.02C100.728 172.02 100.816 172.016 100.913 172.01C101.011 171.997 101.115 171.98 101.226 171.961V173.26C100.952 173.338 100.744 173.387 100.601 173.406C100.458 173.426 100.262 173.436 100.015 173.436C99.4094 173.436 98.97 173.221 98.6965 172.791C98.5533 172.563 98.4524 172.241 98.3938 171.824C98.0357 172.293 97.5214 172.7 96.8508 173.045C96.1803 173.39 95.4413 173.562 94.634 173.562C93.664 173.562 92.8697 173.27 92.2512 172.684C91.6392 172.091 91.3333 171.352 91.3333 170.467C91.3333 169.497 91.636 168.745 92.2415 168.211C92.8469 167.677 93.6412 167.348 94.6243 167.225L97.427 166.873ZM103.999 169.93C104.051 170.516 104.198 170.965 104.439 171.277C104.881 171.844 105.65 172.127 106.743 172.127C107.394 172.127 107.967 171.987 108.462 171.707C108.957 171.421 109.204 170.981 109.204 170.389C109.204 169.939 109.006 169.598 108.609 169.363C108.355 169.22 107.853 169.054 107.105 168.865L105.708 168.514C104.816 168.292 104.159 168.045 103.736 167.771C102.98 167.296 102.603 166.639 102.603 165.799C102.603 164.809 102.958 164.008 103.667 163.396C104.383 162.785 105.344 162.479 106.548 162.479C108.124 162.479 109.26 162.941 109.956 163.865C110.392 164.451 110.604 165.083 110.591 165.76H108.931C108.898 165.363 108.758 165.001 108.511 164.676C108.107 164.214 107.407 163.982 106.411 163.982C105.747 163.982 105.243 164.109 104.898 164.363C104.559 164.617 104.39 164.952 104.39 165.369C104.39 165.825 104.615 166.189 105.064 166.463C105.324 166.626 105.708 166.769 106.216 166.893L107.378 167.176C108.641 167.482 109.488 167.778 109.917 168.064C110.601 168.514 110.943 169.22 110.943 170.184C110.943 171.115 110.588 171.919 109.878 172.596C109.175 173.273 108.101 173.611 106.656 173.611C105.1 173.611 103.996 173.26 103.345 172.557C102.7 171.847 102.355 170.971 102.31 169.93H103.999ZM112.954 162.801H114.741V173.211H112.954V162.801ZM112.954 158.865H114.741V160.857H112.954V158.865ZM117.456 158.865H119.214V173.211H117.456V158.865ZM128.394 162.752H130.337C130.09 163.423 129.54 164.952 128.687 167.342C128.049 169.139 127.515 170.604 127.085 171.736C126.07 174.406 125.353 176.033 124.937 176.619C124.52 177.205 123.804 177.498 122.788 177.498C122.541 177.498 122.349 177.488 122.212 177.469C122.082 177.449 121.919 177.413 121.724 177.361V175.76C122.03 175.844 122.251 175.896 122.388 175.916C122.525 175.936 122.645 175.945 122.749 175.945C123.075 175.945 123.312 175.89 123.462 175.779C123.618 175.675 123.749 175.545 123.853 175.389C123.885 175.337 124.003 175.07 124.204 174.588C124.406 174.106 124.553 173.748 124.644 173.514L120.777 162.752H122.769L125.572 171.268L128.394 162.752ZM141.46 162.449C142.639 162.449 143.596 162.736 144.331 163.309C145.073 163.882 145.519 164.868 145.669 166.268H143.96C143.856 165.623 143.618 165.089 143.247 164.666C142.876 164.236 142.281 164.021 141.46 164.021C140.34 164.021 139.54 164.568 139.058 165.662C138.745 166.372 138.589 167.247 138.589 168.289C138.589 169.337 138.81 170.219 139.253 170.936C139.696 171.652 140.392 172.01 141.343 172.01C142.072 172.01 142.648 171.788 143.072 171.346C143.501 170.896 143.797 170.285 143.96 169.51H145.669C145.474 170.896 144.986 171.912 144.204 172.557C143.423 173.195 142.424 173.514 141.206 173.514C139.839 173.514 138.749 173.016 137.935 172.02C137.121 171.017 136.714 169.767 136.714 168.27C136.714 166.434 137.16 165.005 138.052 163.982C138.944 162.96 140.08 162.449 141.46 162.449ZM151.577 172.078C152.743 172.078 153.54 171.639 153.97 170.76C154.406 169.874 154.624 168.891 154.624 167.811C154.624 166.834 154.468 166.04 154.156 165.428C153.661 164.464 152.808 163.982 151.597 163.982C150.523 163.982 149.741 164.393 149.253 165.213C148.765 166.033 148.521 167.023 148.521 168.182C148.521 169.295 148.765 170.223 149.253 170.965C149.741 171.707 150.516 172.078 151.577 172.078ZM151.646 162.449C152.993 162.449 154.133 162.898 155.064 163.797C155.995 164.695 156.46 166.017 156.46 167.762C156.46 169.448 156.05 170.841 155.23 171.941C154.409 173.042 153.137 173.592 151.411 173.592C149.973 173.592 148.83 173.107 147.984 172.137C147.137 171.16 146.714 169.852 146.714 168.211C146.714 166.453 147.16 165.053 148.052 164.012C148.944 162.97 150.142 162.449 151.646 162.449ZM158.609 158.865H160.366V173.211H158.609V158.865ZM163.062 158.865H164.82V173.211H163.062V158.865ZM168.814 170.428C168.814 170.936 168.999 171.336 169.37 171.629C169.741 171.922 170.181 172.068 170.689 172.068C171.307 172.068 171.906 171.925 172.486 171.639C173.462 171.163 173.95 170.385 173.95 169.305V167.889C173.736 168.025 173.459 168.139 173.12 168.23C172.782 168.322 172.45 168.387 172.124 168.426L171.06 168.562C170.422 168.647 169.943 168.781 169.624 168.963C169.084 169.269 168.814 169.757 168.814 170.428ZM173.072 166.873C173.475 166.821 173.745 166.652 173.882 166.365C173.96 166.209 173.999 165.984 173.999 165.691C173.999 165.092 173.784 164.66 173.355 164.393C172.932 164.119 172.323 163.982 171.529 163.982C170.611 163.982 169.96 164.23 169.575 164.725C169.361 164.998 169.221 165.405 169.156 165.945H167.515C167.547 164.656 167.964 163.761 168.765 163.26C169.572 162.752 170.506 162.498 171.568 162.498C172.798 162.498 173.797 162.732 174.566 163.201C175.327 163.67 175.708 164.399 175.708 165.389V171.414C175.708 171.596 175.744 171.743 175.816 171.854C175.894 171.964 176.053 172.02 176.294 172.02C176.372 172.02 176.46 172.016 176.558 172.01C176.656 171.997 176.76 171.98 176.87 171.961V173.26C176.597 173.338 176.389 173.387 176.245 173.406C176.102 173.426 175.907 173.436 175.659 173.436C175.054 173.436 174.615 173.221 174.341 172.791C174.198 172.563 174.097 172.241 174.038 171.824C173.68 172.293 173.166 172.7 172.495 173.045C171.825 173.39 171.086 173.562 170.279 173.562C169.309 173.562 168.514 173.27 167.896 172.684C167.284 172.091 166.978 171.352 166.978 170.467C166.978 169.497 167.281 168.745 167.886 168.211C168.491 167.677 169.286 167.348 170.269 167.225L173.072 166.873ZM178.462 158.816H180.171V164.021C180.555 163.52 181.014 163.139 181.548 162.879C182.082 162.612 182.661 162.479 183.286 162.479C184.588 162.479 185.643 162.928 186.45 163.826C187.264 164.718 187.671 166.036 187.671 167.781C187.671 169.435 187.271 170.809 186.47 171.902C185.669 172.996 184.559 173.543 183.14 173.543C182.346 173.543 181.675 173.351 181.128 172.967C180.803 172.739 180.454 172.374 180.083 171.873V173.211H178.462V158.816ZM183.032 171.99C183.983 171.99 184.693 171.613 185.161 170.857C185.637 170.102 185.874 169.106 185.874 167.869C185.874 166.769 185.637 165.857 185.161 165.135C184.693 164.412 183.999 164.051 183.081 164.051C182.281 164.051 181.577 164.347 180.972 164.939C180.373 165.532 180.073 166.508 180.073 167.869C180.073 168.852 180.197 169.65 180.445 170.262C180.907 171.414 181.769 171.99 183.032 171.99ZM193.882 172.078C195.047 172.078 195.845 171.639 196.275 170.76C196.711 169.874 196.929 168.891 196.929 167.811C196.929 166.834 196.773 166.04 196.46 165.428C195.965 164.464 195.113 163.982 193.902 163.982C192.827 163.982 192.046 164.393 191.558 165.213C191.07 166.033 190.825 167.023 190.825 168.182C190.825 169.295 191.07 170.223 191.558 170.965C192.046 171.707 192.821 172.078 193.882 172.078ZM193.95 162.449C195.298 162.449 196.437 162.898 197.368 163.797C198.299 164.695 198.765 166.017 198.765 167.762C198.765 169.448 198.355 170.841 197.534 171.941C196.714 173.042 195.441 173.592 193.716 173.592C192.277 173.592 191.135 173.107 190.288 172.137C189.442 171.16 189.019 169.852 189.019 168.211C189.019 166.453 189.465 165.053 190.357 164.012C191.249 162.97 192.447 162.449 193.95 162.449ZM200.913 162.752H202.583V164.559C202.72 164.207 203.055 163.781 203.589 163.279C204.123 162.771 204.738 162.518 205.435 162.518C205.467 162.518 205.523 162.521 205.601 162.527C205.679 162.534 205.812 162.547 206.001 162.566V164.422C205.897 164.402 205.799 164.389 205.708 164.383C205.624 164.376 205.529 164.373 205.425 164.373C204.54 164.373 203.859 164.66 203.384 165.232C202.909 165.799 202.671 166.453 202.671 167.195V173.211H200.913V162.752ZM208.872 170.428C208.872 170.936 209.058 171.336 209.429 171.629C209.8 171.922 210.24 172.068 210.747 172.068C211.366 172.068 211.965 171.925 212.544 171.639C213.521 171.163 214.009 170.385 214.009 169.305V167.889C213.794 168.025 213.517 168.139 213.179 168.23C212.84 168.322 212.508 168.387 212.183 168.426L211.118 168.562C210.48 168.647 210.002 168.781 209.683 168.963C209.142 169.269 208.872 169.757 208.872 170.428ZM213.13 166.873C213.534 166.821 213.804 166.652 213.941 166.365C214.019 166.209 214.058 165.984 214.058 165.691C214.058 165.092 213.843 164.66 213.413 164.393C212.99 164.119 212.381 163.982 211.587 163.982C210.669 163.982 210.018 164.23 209.634 164.725C209.419 164.998 209.279 165.405 209.214 165.945H207.573C207.606 164.656 208.023 163.761 208.823 163.26C209.631 162.752 210.565 162.498 211.626 162.498C212.857 162.498 213.856 162.732 214.624 163.201C215.386 163.67 215.767 164.399 215.767 165.389V171.414C215.767 171.596 215.803 171.743 215.874 171.854C215.952 171.964 216.112 172.02 216.353 172.02C216.431 172.02 216.519 172.016 216.616 172.01C216.714 171.997 216.818 171.98 216.929 171.961V173.26C216.656 173.338 216.447 173.387 216.304 173.406C216.161 173.426 215.965 173.436 215.718 173.436C215.113 173.436 214.673 173.221 214.4 172.791C214.256 172.563 214.156 172.241 214.097 171.824C213.739 172.293 213.225 172.7 212.554 173.045C211.883 173.39 211.144 173.562 210.337 173.562C209.367 173.562 208.573 173.27 207.954 172.684C207.342 172.091 207.036 171.352 207.036 170.467C207.036 169.497 207.339 168.745 207.945 168.211C208.55 167.677 209.344 167.348 210.327 167.225L213.13 166.873ZM219.009 159.832H220.786V162.752H222.456V164.188H220.786V171.014C220.786 171.378 220.91 171.622 221.157 171.746C221.294 171.818 221.522 171.854 221.841 171.854C221.926 171.854 222.017 171.854 222.115 171.854C222.212 171.847 222.326 171.837 222.456 171.824V173.211C222.254 173.27 222.043 173.312 221.822 173.338C221.607 173.364 221.372 173.377 221.118 173.377C220.298 173.377 219.741 173.169 219.448 172.752C219.156 172.329 219.009 171.782 219.009 171.111V164.188H217.593V162.752H219.009V159.832ZM228.579 162.518C229.322 162.518 230.041 162.693 230.738 163.045C231.434 163.39 231.965 163.839 232.329 164.393C232.681 164.92 232.915 165.535 233.032 166.238C233.137 166.72 233.189 167.488 233.189 168.543H225.523C225.555 169.604 225.806 170.457 226.275 171.102C226.743 171.74 227.469 172.059 228.452 172.059C229.37 172.059 230.103 171.756 230.65 171.15C230.962 170.799 231.184 170.392 231.314 169.93H233.042C232.997 170.314 232.844 170.743 232.583 171.219C232.329 171.688 232.043 172.072 231.724 172.371C231.19 172.892 230.529 173.243 229.741 173.426C229.318 173.53 228.84 173.582 228.306 173.582C227.004 173.582 225.9 173.11 224.995 172.166C224.09 171.215 223.638 169.887 223.638 168.182C223.638 166.502 224.094 165.138 225.005 164.09C225.917 163.042 227.108 162.518 228.579 162.518ZM231.382 167.146C231.31 166.385 231.144 165.776 230.884 165.32C230.402 164.474 229.598 164.051 228.472 164.051C227.665 164.051 226.988 164.344 226.441 164.93C225.894 165.509 225.604 166.248 225.572 167.146H231.382ZM235.777 171.082H237.818V173.211H235.777V171.082ZM243.677 163.035C244.165 162.944 244.488 162.586 244.644 161.961C244.735 161.59 244.767 161.268 244.741 160.994H243.677V158.865H245.767V160.828C245.767 161.603 245.607 162.296 245.288 162.908C244.969 163.514 244.432 163.862 243.677 163.953V163.035ZM240.396 163.035C240.884 162.944 241.21 162.586 241.372 161.961C241.463 161.59 241.493 161.268 241.46 160.994H240.396V158.865H242.476V160.828C242.476 161.603 242.316 162.293 241.997 162.898C241.678 163.497 241.144 163.849 240.396 163.953V163.035Z" fill="white"/>
<rect x="40.4348" y="210.211" width="305" height="41" rx="14" fill="white" fill-opacity="0.1"/>
<path d="M145.493 234.211V224.029H149.123C149.911 224.029 150.566 224.165 151.086 224.437C151.61 224.709 152.001 225.085 152.26 225.565C152.518 226.043 152.647 226.594 152.647 227.221C152.647 227.844 152.517 228.393 152.255 228.866C151.996 229.337 151.605 229.703 151.081 229.965C150.561 230.227 149.906 230.358 149.118 230.358H146.368V229.036H148.978C149.476 229.036 149.88 228.964 150.192 228.822C150.506 228.679 150.737 228.472 150.883 228.2C151.028 227.929 151.101 227.602 151.101 227.221C151.101 226.836 151.027 226.503 150.878 226.222C150.732 225.94 150.501 225.724 150.187 225.575C149.875 225.423 149.466 225.347 148.959 225.347H147.03V234.211H145.493ZM150.52 229.617L153.035 234.211H151.285L148.819 229.617H150.52ZM157.593 234.365C156.841 234.365 156.193 234.204 155.649 233.883C155.109 233.558 154.691 233.102 154.396 232.516C154.105 231.926 153.959 231.235 153.959 230.442C153.959 229.66 154.105 228.971 154.396 228.374C154.691 227.778 155.102 227.312 155.629 226.977C156.159 226.643 156.779 226.475 157.489 226.475C157.919 226.475 158.337 226.546 158.741 226.689C159.146 226.831 159.509 227.055 159.83 227.36C160.152 227.665 160.405 228.061 160.591 228.548C160.776 229.032 160.869 229.621 160.869 230.313V230.84H154.799V229.727H159.413C159.413 229.335 159.333 228.989 159.174 228.688C159.015 228.383 158.791 228.142 158.503 227.967C158.218 227.791 157.883 227.703 157.499 227.703C157.081 227.703 156.716 227.806 156.405 228.011C156.097 228.214 155.858 228.479 155.689 228.807C155.523 229.132 155.44 229.485 155.44 229.866V230.736C155.44 231.246 155.53 231.68 155.709 232.038C155.891 232.396 156.145 232.67 156.469 232.859C156.794 233.044 157.174 233.137 157.608 233.137C157.89 233.137 158.146 233.097 158.378 233.018C158.61 232.935 158.811 232.812 158.98 232.65C159.149 232.487 159.278 232.287 159.368 232.048L160.775 232.302C160.662 232.716 160.46 233.079 160.168 233.391C159.88 233.699 159.517 233.939 159.079 234.112C158.645 234.281 158.15 234.365 157.593 234.365ZM164.741 234.38C164.257 234.38 163.819 234.29 163.428 234.112C163.037 233.929 162.727 233.666 162.499 233.321C162.273 232.976 162.161 232.554 162.161 232.053C162.161 231.622 162.243 231.268 162.409 230.989C162.575 230.711 162.799 230.491 163.08 230.328C163.362 230.166 163.677 230.043 164.025 229.96C164.373 229.877 164.728 229.814 165.089 229.771C165.546 229.718 165.917 229.675 166.203 229.642C166.488 229.606 166.695 229.548 166.824 229.468C166.953 229.388 167.018 229.259 167.018 229.08V229.045C167.018 228.611 166.895 228.275 166.65 228.036C166.408 227.798 166.047 227.678 165.566 227.678C165.066 227.678 164.671 227.789 164.383 228.011C164.098 228.23 163.901 228.474 163.791 228.742L162.394 228.424C162.56 227.96 162.802 227.585 163.12 227.3C163.442 227.012 163.811 226.803 164.229 226.674C164.646 226.541 165.086 226.475 165.546 226.475C165.851 226.475 166.174 226.512 166.516 226.585C166.86 226.654 167.182 226.783 167.48 226.972C167.782 227.161 168.029 227.431 168.221 227.783C168.413 228.131 168.509 228.583 168.509 229.14V234.211H167.058V233.167H166.998C166.902 233.359 166.758 233.548 166.565 233.734C166.373 233.919 166.126 234.073 165.825 234.196C165.523 234.319 165.162 234.38 164.741 234.38ZM165.064 233.187C165.475 233.187 165.826 233.106 166.118 232.943C166.413 232.781 166.637 232.569 166.789 232.307C166.945 232.042 167.023 231.758 167.023 231.457V230.472C166.97 230.525 166.867 230.575 166.715 230.621C166.565 230.665 166.395 230.703 166.203 230.736C166.01 230.766 165.823 230.794 165.641 230.82C165.458 230.844 165.306 230.863 165.183 230.88C164.895 230.916 164.632 230.978 164.393 231.064C164.158 231.15 163.969 231.274 163.826 231.437C163.687 231.596 163.617 231.808 163.617 232.073C163.617 232.441 163.753 232.719 164.025 232.908C164.297 233.094 164.643 233.187 165.064 233.187ZM173.348 234.36C172.731 234.36 172.181 234.203 171.697 233.888C171.217 233.57 170.839 233.117 170.564 232.531C170.292 231.941 170.156 231.233 170.156 230.408C170.156 229.582 170.294 228.876 170.569 228.29C170.847 227.703 171.228 227.254 171.712 226.942C172.196 226.631 172.745 226.475 173.358 226.475C173.832 226.475 174.213 226.555 174.501 226.714C174.793 226.87 175.018 227.052 175.177 227.261C175.34 227.469 175.466 227.653 175.555 227.812H175.645V224.029H177.131V234.211H175.68V233.023H175.555C175.466 233.185 175.337 233.371 175.168 233.58C175.002 233.788 174.773 233.971 174.481 234.126C174.19 234.282 173.812 234.36 173.348 234.36ZM173.676 233.092C174.104 233.092 174.465 232.98 174.76 232.754C175.058 232.526 175.284 232.209 175.436 231.805C175.592 231.4 175.67 230.93 175.67 230.393C175.67 229.862 175.593 229.398 175.441 229.001C175.289 228.603 175.065 228.293 174.77 228.071C174.475 227.849 174.11 227.738 173.676 227.738C173.229 227.738 172.856 227.854 172.557 228.086C172.259 228.318 172.034 228.634 171.881 229.036C171.732 229.437 171.658 229.889 171.658 230.393C171.658 230.903 171.734 231.362 171.886 231.77C172.039 232.178 172.264 232.501 172.562 232.739C172.864 232.975 173.235 233.092 173.676 233.092ZM188.68 228.439L187.333 228.678C187.277 228.505 187.187 228.341 187.065 228.185C186.945 228.03 186.783 227.902 186.577 227.803C186.372 227.703 186.115 227.653 185.807 227.653C185.386 227.653 185.034 227.748 184.753 227.937C184.471 228.122 184.33 228.363 184.33 228.658C184.33 228.913 184.425 229.118 184.614 229.274C184.802 229.43 185.107 229.558 185.528 229.657L186.741 229.935C187.444 230.098 187.968 230.348 188.312 230.686C188.657 231.024 188.829 231.463 188.829 232.004C188.829 232.461 188.697 232.869 188.432 233.227C188.17 233.581 187.804 233.86 187.333 234.062C186.866 234.264 186.324 234.365 185.707 234.365C184.852 234.365 184.155 234.183 183.614 233.818C183.074 233.45 182.743 232.928 182.62 232.252L184.057 232.033C184.146 232.408 184.33 232.691 184.609 232.884C184.887 233.072 185.25 233.167 185.697 233.167C186.185 233.167 186.574 233.066 186.866 232.864C187.157 232.658 187.303 232.408 187.303 232.113C187.303 231.874 187.214 231.674 187.035 231.511C186.859 231.349 186.589 231.226 186.224 231.143L184.932 230.86C184.219 230.698 183.692 230.439 183.351 230.085C183.013 229.73 182.844 229.281 182.844 228.737C182.844 228.286 182.97 227.892 183.222 227.554C183.473 227.216 183.821 226.952 184.266 226.763C184.71 226.571 185.218 226.475 185.792 226.475C186.617 226.475 187.267 226.654 187.741 227.012C188.215 227.367 188.528 227.842 188.68 228.439ZM194.029 226.575V227.768H189.857V226.575H194.029ZM190.976 224.745H192.462V231.969C192.462 232.257 192.506 232.474 192.592 232.62C192.678 232.763 192.789 232.86 192.925 232.913C193.064 232.963 193.215 232.988 193.377 232.988C193.497 232.988 193.601 232.98 193.69 232.963C193.78 232.946 193.85 232.933 193.899 232.923L194.168 234.151C194.082 234.184 193.959 234.218 193.8 234.251C193.641 234.287 193.442 234.307 193.203 234.31C192.812 234.317 192.448 234.247 192.109 234.102C191.771 233.956 191.498 233.73 191.289 233.425C191.08 233.121 190.976 232.738 190.976 232.277V224.745ZM198.807 234.365C198.092 234.365 197.467 234.201 196.933 233.873C196.4 233.545 195.985 233.086 195.69 232.496C195.395 231.906 195.248 231.216 195.248 230.428C195.248 229.635 195.395 228.943 195.69 228.349C195.985 227.756 196.4 227.295 196.933 226.967C197.467 226.639 198.092 226.475 198.807 226.475C199.523 226.475 200.148 226.639 200.682 226.967C201.215 227.295 201.63 227.756 201.925 228.349C202.22 228.943 202.367 229.635 202.367 230.428C202.367 231.216 202.22 231.906 201.925 232.496C201.63 233.086 201.215 233.545 200.682 233.873C200.148 234.201 199.523 234.365 198.807 234.365ZM198.812 233.117C199.276 233.117 199.661 232.995 199.966 232.749C200.271 232.504 200.496 232.178 200.642 231.77C200.791 231.362 200.866 230.913 200.866 230.423C200.866 229.935 200.791 229.488 200.642 229.08C200.496 228.669 200.271 228.339 199.966 228.091C199.661 227.842 199.276 227.718 198.812 227.718C198.345 227.718 197.957 227.842 197.649 228.091C197.344 228.339 197.117 228.669 196.968 229.08C196.822 229.488 196.749 229.935 196.749 230.423C196.749 230.913 196.822 231.362 196.968 231.77C197.117 232.178 197.344 232.504 197.649 232.749C197.957 232.995 198.345 233.117 198.812 233.117ZM204.026 234.211V226.575H205.463V227.788H205.543C205.682 227.377 205.927 227.054 206.279 226.818C206.633 226.58 207.034 226.46 207.482 226.46C207.574 226.46 207.684 226.464 207.81 226.47C207.939 226.477 208.04 226.485 208.113 226.495V227.917C208.053 227.9 207.947 227.882 207.795 227.862C207.642 227.839 207.49 227.827 207.337 227.827C206.986 227.827 206.673 227.902 206.398 228.051C206.126 228.197 205.911 228.401 205.752 228.663C205.592 228.921 205.513 229.216 205.513 229.548V234.211H204.026ZM210.571 237.075C210.349 237.075 210.147 237.056 209.965 237.02C209.783 236.987 209.647 236.95 209.557 236.911L209.915 235.692C210.187 235.765 210.429 235.797 210.641 235.787C210.853 235.777 211.04 235.697 211.203 235.548C211.369 235.399 211.514 235.156 211.64 234.817L211.824 234.31L209.03 226.575H210.621L212.555 232.501H212.635L214.569 226.575H216.165L213.018 235.23C212.872 235.628 212.686 235.964 212.461 236.239C212.235 236.518 211.967 236.727 211.655 236.866C211.344 237.005 210.982 237.075 210.571 237.075Z" fill="white"/>
<g clip-path="url(#clip1_26_525)">
<path d="M240.309 226.742L234.334 232.717M240.309 226.742L235.995 226.874M240.309 226.742L240.177 231.057" stroke="white" stroke-width="1.26748" stroke-linecap="round" stroke-linejoin="round"/>
</g>
<rect x="-3.56519" y="1.52148" width="392.69" height="6" transform="rotate(4 -3.56519 1.52148)" fill="white"/>
</g>
<defs>
<linearGradient id="paint0_linear_26_525" x1="285.244" y1="-48.6541" x2="99.7557" y2="331.654" gradientUnits="userSpaceOnUse">
<stop stop-color="#26ABFA" stop-opacity="0.8"/>
<stop offset="0.525" stop-color="#7612FA" stop-opacity="0.8"/>
</linearGradient>
<clipPath id="clip0_26_525">
<rect width="385" height="283" fill="white" transform="translate(0.434814 0.210938)"/>
</clipPath>
<clipPath id="clip1_26_525">
<rect width="8" height="8" fill="white" transform="translate(233.495 225.711)"/>
</clipPath>
</defs>
</svg>
