<svg width="41" height="41" viewBox="0 0 41 41" fill="none" xmlns="http://www.w3.org/2000/svg">
<mask id="mask0_26_453" style="mask-type:alpha" maskUnits="userSpaceOnUse" x="0" y="0" width="41" height="41">
<g clip-path="url(#clip0_26_453)">
<path d="M20.9348 40.0205C24.8349 40.0205 28.0893 39.8731 30.7241 39.6696C36.1217 39.2526 40.1669 35.2075 40.5839 29.8099C40.7874 27.1752 40.9348 23.9209 40.9348 20.021C40.9348 16.1211 40.7874 12.8669 40.5839 10.2321C40.1669 4.83453 36.1217 0.789336 30.7241 0.372395C28.0893 0.168866 24.8349 0.0214845 20.9348 0.0214844C16.8532 0.0214842 13.4788 0.1829 10.7817 0.401162C5.57983 0.822115 1.68977 4.66154 1.28799 9.86493C1.08329 12.5159 0.934815 15.8696 0.934814 20.021C0.934814 24.1724 1.08329 27.5261 1.28799 30.177C1.68977 35.3804 5.57983 39.2199 10.7817 39.6408C13.4788 39.8591 16.8532 40.0205 20.9348 40.0205Z" fill="black"/>
</g>
</mask>
<g mask="url(#mask0_26_453)">
<rect width="40" height="40" transform="translate(0.934814 0.0214844)" fill="#F8F8FC"/>
<g clip-path="url(#clip1_26_453)">
<path d="M31.7291 19.7592C31.7291 17.866 31.6644 16.2563 31.5711 14.9199C31.3513 11.7679 28.9905 9.40711 25.8384 9.18726C24.502 9.09404 22.8923 9.0293 20.9989 9.0293C19.1056 9.0293 17.4959 9.09404 16.1595 9.18726C13.0074 9.40711 10.6466 11.7679 10.4268 14.9199C10.3335 16.2563 10.2688 17.866 10.2688 19.7592C10.2688 21.7541 10.3407 23.4341 10.442 24.8114C10.6655 27.8493 12.9064 30.1167 15.9451 30.3286C17.3012 30.4232 18.973 30.4891 20.9989 30.4891C23.0248 30.4891 24.6967 30.4232 26.0528 30.3286C29.0915 30.1167 31.3324 27.8493 31.5559 24.8114C31.6572 23.4341 31.7291 21.7541 31.7291 19.7592Z" stroke="#24223E" stroke-width="2" stroke-linecap="round" stroke-linejoin="round"/>
<path d="M31.3172 15.0215L26.7076 19.9997C26.36 20.3751 25.8623 20.5748 25.3517 20.5439L20.2581 20.2352C19.6899 20.2008 19.1419 20.4518 18.7969 20.9046L16.4573 23.9752C16.194 24.3209 15.8087 24.5531 15.3801 24.6245L11.095 25.3387" stroke="#24223E" stroke-width="2" stroke-linecap="round" stroke-linejoin="round"/>
<path d="M26.1603 20.3786L31.7317 15.0137L31.319 27.807L27.8111 30.2831L14.8111 30.4895L11.9222 29.0451L10.4778 25.3309L16.0492 24.5055L19.7635 20.1723L26.1603 20.3786Z" fill="#24223E" fill-opacity="0.1"/>
</g>
</g>
<defs>
<clipPath id="clip0_26_453">
<rect width="40" height="40" fill="white" transform="translate(0.934814 0.0214844)"/>
</clipPath>
<clipPath id="clip1_26_453">
<rect width="24" height="24" fill="white" transform="translate(8.93481 8.02148)"/>
</clipPath>
</defs>
</svg>
