<svg width="41" height="41" viewBox="0 0 41 41" fill="none" xmlns="http://www.w3.org/2000/svg">
<mask id="mask0_26_441" style="mask-type:alpha" maskUnits="userSpaceOnUse" x="0" y="0" width="41" height="41">
<g clip-path="url(#clip0_26_441)">
<path d="M20.9348 40.0205C24.8349 40.0205 28.0893 39.8731 30.7241 39.6696C36.1217 39.2526 40.1669 35.2075 40.5839 29.8099C40.7874 27.1752 40.9348 23.9209 40.9348 20.021C40.9348 16.1211 40.7874 12.8669 40.5839 10.2321C40.1669 4.83453 36.1217 0.789336 30.7241 0.372395C28.0893 0.168866 24.8349 0.0214845 20.9348 0.0214844C16.8532 0.0214842 13.4788 0.1829 10.7817 0.401162C5.57983 0.822115 1.68977 4.66154 1.28799 9.86493C1.08329 12.5159 0.934815 15.8696 0.934814 20.021C0.934814 24.1724 1.08329 27.5261 1.28799 30.177C1.68977 35.3804 5.57983 39.2199 10.7817 39.6408C13.4788 39.8591 16.8532 40.0205 20.9348 40.0205Z" fill="black"/>
</g>
</mask>
<g mask="url(#mask0_26_441)">
<rect width="40" height="40" transform="translate(0.934814 0.0214844)" fill="#F8F8FC"/>
<g clip-path="url(#clip1_26_441)">
<path fill-rule="evenodd" clip-rule="evenodd" d="M20.7202 31.0997C18.6035 31.0997 16.956 30.9859 15.7166 30.8411C13.7581 30.6124 12.3809 29.0904 12.2025 27.1267C12.0535 25.4864 11.9231 23.138 11.9231 19.9424C11.9231 16.7468 12.0535 14.3984 12.2025 12.7582C12.3809 10.7944 13.7581 9.2724 15.7166 9.04369C16.956 8.89896 18.6035 8.78516 20.7202 8.78516C22.8175 8.78516 24.51 8.89689 25.8169 9.03973C27.9559 9.27351 29.495 10.9461 29.6804 13.0898C29.8237 14.7477 29.9464 17.0202 29.9464 19.9424C29.9464 20.9529 29.9317 21.8857 29.9066 22.7423C27.7523 24.5565 25.1378 24.5249 23.8599 24.3696C23.5214 24.3284 23.2006 24.6686 23.2551 25.0052C23.4573 26.2537 23.5428 28.8079 21.5626 31.0935C21.2894 31.0976 21.0086 31.0997 20.7202 31.0997Z" fill="#242236" fill-opacity="0.09"/>
<path d="M15.7168 30.8411C16.9562 30.9859 18.6037 31.0997 20.7204 31.0997C22.8177 31.0997 24.5103 30.9879 25.8172 30.8451C27.9561 30.6113 29.4953 28.9388 29.6806 26.7951C29.824 25.1371 29.9466 22.8647 29.9466 19.9424C29.9466 17.0202 29.824 14.7477 29.6806 13.0898C29.4953 10.9461 27.9561 9.27351 25.8172 9.03973C24.5103 8.89689 22.8177 8.78516 20.7204 8.78516C18.6037 8.78516 16.9562 8.89896 15.7168 9.04369C13.7583 9.2724 12.3811 10.7944 12.2027 12.7582C12.0537 14.3984 11.9233 16.7468 11.9233 19.9424C11.9233 23.138 12.0537 25.4864 12.2027 27.1267C12.3811 29.0904 13.7583 30.6124 15.7168 30.8411Z" stroke="#24223E" stroke-width="2" stroke-linecap="round" stroke-linejoin="round"/>
<path d="M29.7318 22.5166C27.2827 25.1803 25.4064 22.5508 23.5095 24.4477C21.6125 26.3446 24.242 28.221 21.3638 30.8846" stroke="#24223E" stroke-width="2" stroke-linecap="round" stroke-linejoin="round"/>
<path d="M16.6438 13.9346H25.2263" stroke="#24223E" stroke-width="2" stroke-linecap="round" stroke-linejoin="round"/>
<path d="M16.6438 18.2256H22.2224" stroke="#24223E" stroke-width="2" stroke-linecap="round" stroke-linejoin="round"/>
</g>
</g>
<defs>
<clipPath id="clip0_26_441">
<rect width="40" height="40" fill="white" transform="translate(0.934814 0.0214844)"/>
</clipPath>
<clipPath id="clip1_26_441">
<rect width="22" height="26" fill="white" transform="translate(9.93481 7.02148)"/>
</clipPath>
</defs>
</svg>
