<svg width="73" height="42" viewBox="0 0 73 42" fill="none" xmlns="http://www.w3.org/2000/svg">
<g clip-path="url(#clip0_26_374)">
<path d="M49.0746 1.51465L51.3349 4.62258L44.2714 23.2702L37.4905 20.7274L45.4016 1.79719L49.0746 1.51465Z" fill="#24223E" fill-opacity="0.1"/>
<path d="M37.4677 21.4195L36.9835 22.6592C36.7539 23.2473 36.6492 23.8744 36.6851 24.5047C36.7915 26.3705 37.0643 30.3367 37.4677 30.4901C37.8687 30.6426 40.835 27.9524 42.2398 26.6485C42.7261 26.1971 43.0986 25.6407 43.34 25.0226L43.9146 23.5511M37.4677 21.4195L44.4345 3.57994C45.1344 1.78771 47.1227 0.830806 48.9211 1.51464C50.6714 2.18017 51.4818 4.17415 50.8007 5.91837L43.9146 23.5511M37.4677 21.4195C37.4677 21.4195 38.9014 21.2035 40.8792 21.8574C42.8569 22.5114 43.9146 23.5511 43.9146 23.5511" stroke="#514B81" stroke-width="2" stroke-linecap="round" stroke-linejoin="round"/>
<path d="M23.9261 6.31836C23.9261 6.31836 22.7959 8.56204 22.7959 15.9247C22.7959 23.2874 23.926 25.5311 23.926 25.5311" stroke="#514B81" stroke-width="2" stroke-linecap="round" stroke-linejoin="round"/>
<path d="M26.7522 3.49247C26.7522 3.49247 28.1649 2.64485 32.8268 2.36231C37.4887 2.07977 40.0316 2.64485 40.0316 2.64485" stroke="#514B81" stroke-width="2" stroke-linecap="round" stroke-linejoin="round"/>
<path d="M26.7524 28.3564H32.6858" stroke="#514B81" stroke-width="2" stroke-linecap="round" stroke-linejoin="round"/>
<path d="M21.6663 3.77528C21.6663 5.17966 22.8047 6.31814 24.2091 6.31814C25.6135 6.31814 26.752 5.17966 26.752 3.77528C26.752 2.3709 25.6135 1.23242 24.2091 1.23242C22.8047 1.23242 21.6663 2.3709 21.6663 3.77528Z" stroke="#514B81" stroke-width="2" stroke-linecap="round" stroke-linejoin="round"/>
<path d="M21.6663 28.0732C21.6663 29.4776 22.8047 30.616 24.2091 30.616C25.6135 30.616 26.752 29.4776 26.752 28.0732C26.752 26.6688 25.6135 25.5303 24.2091 25.5303C22.8047 25.5303 21.6663 26.6688 21.6663 28.0732Z" stroke="#514B81" stroke-width="2" stroke-linecap="round" stroke-linejoin="round"/>
</g>
<defs>
<clipPath id="clip0_26_374">
<rect width="33" height="32" fill="white" transform="translate(19.8147 0.0214844)"/>
</clipPath>
</defs>
</svg>
