<svg width="32" height="32" viewBox="0 0 32 32" fill="none" xmlns="http://www.w3.org/2000/svg">
<g clip-path="url(#clip0_26_597)">
<path d="M21.2424 5.99071L17.4224 2.12414C16.5822 1.27372 15.22 1.27372 14.3799 2.12414L10.6095 5.94048C10.6095 5.94048 16.8607 8.64706 13.0409 12.5482C9.20452 16.4663 6.51276 10.0872 6.51276 10.0872L2.74243 13.9035C1.90226 14.7539 1.90226 16.1327 2.74243 16.9831L6.56244 20.8497C6.56244 20.8497 0.28505 23.5148 4.19188 27.4347C8.08187 31.3377 10.6976 25.0353 10.6976 25.0353L14.5176 28.9019C15.3578 29.7523 16.7199 29.7523 17.5601 28.9018L21.3305 25.0855C21.3305 25.0855 15.0792 22.3789 18.8991 18.4778C22.7355 14.5597 25.4272 20.9388 25.4272 20.9388L29.1976 17.1225C30.0377 16.2721 30.0377 14.8933 29.1976 14.0429L25.3776 10.1763C25.3776 10.1763 31.6549 7.51117 27.7481 3.59126C23.8581 -0.311752 21.2424 5.99071 21.2424 5.99071Z" fill="white" fill-opacity="0.09" stroke="white" stroke-width="2" stroke-linecap="round" stroke-linejoin="round"/>
</g>
<defs>
<clipPath id="clip0_26_597">
<rect width="31" height="31" fill="white" transform="translate(0.264648 0.0917969)"/>
</clipPath>
</defs>
</svg>
