<svg width="60" height="29" viewBox="0 0 60 29" fill="none" xmlns="http://www.w3.org/2000/svg">
<g clip-path="url(#clip0_26_600)">
<path d="M45.3571 0.0917969H14.945C7.33372 0.0917969 1.16357 6.26192 1.16357 13.8731C1.16357 21.4844 7.33372 27.6545 14.945 27.6545H45.3571C52.9683 27.6545 59.1385 21.4844 59.1385 13.8731C59.1385 6.26192 52.9683 0.0917969 45.3571 0.0917969Z" fill="#020202" fill-opacity="0.2"/>
<path d="M14.7789 24.0963C20.358 24.0963 24.8806 19.5184 24.8806 13.8714C24.8806 8.22433 20.358 3.64648 14.7789 3.64648C9.19993 3.64648 4.67725 8.22433 4.67725 13.8714C4.67725 19.5184 9.19993 24.0963 14.7789 24.0963Z" fill="white"/>
</g>
<defs>
<clipPath id="clip0_26_600">
<rect width="59" height="28" fill="white" transform="translate(0.93457 0.0917969)"/>
</clipPath>
</defs>
</svg>
