<svg width="60" height="29" viewBox="0 0 60 29" fill="none" xmlns="http://www.w3.org/2000/svg">
<g clip-path="url(#clip0_26_582)">
<path d="M45.3571 0.591797H14.945C7.33372 0.591797 1.16357 6.76192 1.16357 14.3731C1.16357 21.9844 7.33372 28.1545 14.945 28.1545H45.3571C52.9683 28.1545 59.1385 21.9844 59.1385 14.3731C59.1385 6.76192 52.9683 0.591797 45.3571 0.591797Z" fill="#020202" fill-opacity="0.2"/>
<path d="M14.7789 24.5963C20.358 24.5963 24.8806 20.0184 24.8806 14.3714C24.8806 8.72433 20.358 4.14648 14.7789 4.14648C9.19993 4.14648 4.67725 8.72433 4.67725 14.3714C4.67725 20.0184 9.19993 24.5963 14.7789 24.5963Z" fill="white"/>
</g>
<defs>
<clipPath id="clip0_26_582">
<rect width="59" height="28" fill="white" transform="translate(0.93457 0.591797)"/>
</clipPath>
</defs>
</svg>
