<svg width="147" height="39" viewBox="0 0 147 39" fill="none" xmlns="http://www.w3.org/2000/svg">
<g clip-path="url(#clip0_26_901)">
<path fill-rule="evenodd" clip-rule="evenodd" d="M6.54993 27.8486L11.5644 23.998C14.2285 27.4834 17.059 29.09 20.2097 29.09C23.3434 29.09 26.0939 27.5024 28.638 24.0444L33.7241 27.8022C30.0533 32.7887 25.4916 35.4233 20.2097 35.4233C14.9446 35.4233 10.3387 32.8055 6.54993 27.8486Z" fill="url(#paint0_linear_26_901)"/>
<path fill-rule="evenodd" clip-rule="evenodd" d="M19.9271 11.1133L11.0017 18.823L6.87598 14.0266L19.946 2.73633L32.9129 14.035L28.7682 18.8146L19.9271 11.1133Z" fill="url(#paint1_linear_26_901)"/>
<path d="M52.6887 30.6665C49.6413 30.6665 47.1014 29.6764 45.0417 27.6961C42.982 25.6885 41.9669 23.115 41.9669 19.9737C41.9669 16.807 43.0094 14.204 45.0691 12.1668C47.1583 10.1022 49.6982 9.08462 52.7182 9.08462C56.4438 9.08462 59.744 10.6954 61.6647 13.2139L58.3055 16.75C56.6965 15.0231 54.9464 14.147 53.0573 14.147C51.4483 14.147 50.1215 14.6832 49.02 15.7874C47.948 16.8915 47.4131 18.2785 47.4131 19.9462C47.4131 21.5591 47.948 22.9166 49.02 24.0207C50.1215 25.0952 51.4483 25.6315 53.0278 25.6315C55.0875 25.6315 56.8945 24.7258 58.3898 22.944L61.89 26.3112C60.9297 27.5842 59.6323 28.6314 58.0233 29.4505C56.4143 30.2717 54.6368 30.6665 52.6887 30.6665ZM67.8101 8.77218V30.3561H62.844V8.77218H67.8101ZM72.5171 13.3532C70.8533 13.3532 69.6402 12.1372 69.6402 10.4695C69.6402 8.85663 70.9102 7.64062 72.5171 7.64062C74.1261 7.64062 75.3686 8.85663 75.3686 10.4695C75.3686 12.1372 74.1261 13.3554 72.5171 13.3554V13.3532ZM75.0296 14.7402V30.3561H70.0341V14.7402H75.0296ZM84.591 30.696C82.1353 30.696 80.1599 29.9318 78.6098 28.4034C77.0851 26.877 76.3227 24.9242 76.3227 22.5197C76.3227 20.1151 77.0851 18.1645 78.6372 16.636C80.1894 15.1076 82.1922 14.3455 84.6752 14.3455C87.9206 14.3455 90.7722 15.9288 92.0969 18.8991L88.1186 20.9934C87.3288 19.6634 86.2274 18.9836 84.7889 18.9836C83.7443 18.9836 82.8977 19.3235 82.2196 20.0032C81.8978 20.3369 81.6449 20.7309 81.4754 21.1628C81.306 21.5946 81.2232 22.0557 81.2318 22.5197C81.2318 24.5844 82.7271 26.1128 84.7321 26.1128C86.1705 26.1128 87.4973 25.3211 88.0617 24.1051L92.0421 26.4801C90.6858 29.0831 87.8932 30.696 84.591 30.696ZM109.364 30.3561H103.436L98.8341 24.16L98.1012 24.8398V30.3561H93.1373V8.77218H98.1033V19.2665L102.787 14.7402H108.855L102.168 21.0208L109.364 30.3561ZM109.697 22.2368V9.44984H115.002V22.1524C115.002 24.4999 116.357 25.6315 118.305 25.6315C120.223 25.6315 121.577 24.4429 121.577 22.1524V9.44984H126.912V22.2368C126.912 28.4034 122.649 30.7235 118.305 30.7235C113.987 30.7235 109.697 28.4034 109.697 22.2368ZM138.702 14.3455C140.932 14.3455 142.739 15.1371 144.177 16.7205C145.616 18.2764 146.321 20.2291 146.321 22.5197C146.321 24.8124 145.588 26.763 144.15 28.3759C142.709 29.9592 140.904 30.753 138.731 30.753C137.008 30.753 135.513 30.1872 134.3 29.0557V36.7781H129.304V14.7402H134.216V16.1842C135.429 14.9661 136.924 14.3455 138.702 14.3455ZM141.241 22.5767C141.241 20.5395 139.776 18.9836 137.743 18.9836C135.711 18.9836 134.216 20.5395 134.216 22.5767C134.216 23.5668 134.553 24.4155 135.203 25.1227C135.879 25.8299 136.726 26.1698 137.743 26.1698C138.758 26.1698 139.605 25.8299 140.254 25.1227C140.901 24.435 141.256 23.522 141.244 22.5767H141.241Z" fill="white"/>
</g>
<defs>
<linearGradient id="paint0_linear_26_901" x1="6.54993" y1="31.7684" x2="33.7241" y2="31.7684" gradientUnits="userSpaceOnUse">
<stop stop-color="#8930FD"/>
<stop offset="1" stop-color="#49CCF9"/>
</linearGradient>
<linearGradient id="paint1_linear_26_901" x1="6.87598" y1="13.6769" x2="32.9129" y2="13.6769" gradientUnits="userSpaceOnUse">
<stop stop-color="#FF02F0"/>
<stop offset="1" stop-color="#FFC800"/>
</linearGradient>
<clipPath id="clip0_26_901">
<rect width="146" height="38" fill="white" transform="translate(0.934814 0.589844)"/>
</clipPath>
</defs>
</svg>
