<svg width="147" height="47" viewBox="0 0 147 47" fill="none" xmlns="http://www.w3.org/2000/svg">
<g clip-path="url(#clip0_26_956)">
<path fill-rule="evenodd" clip-rule="evenodd" d="M6.54993 27.3301L11.5644 23.4795C14.2285 26.9649 17.059 28.5715 20.2097 28.5715C23.3434 28.5715 26.0939 26.9839 28.638 23.5259L33.7241 27.2837C30.0533 32.2702 25.4916 34.9048 20.2097 34.9048C14.9446 34.9048 10.3387 32.287 6.54993 27.3301Z" fill="url(#paint0_linear_26_956)"/>
<path fill-rule="evenodd" clip-rule="evenodd" d="M19.9271 10.5937L11.0017 18.3034L6.87598 13.507L19.946 2.2168L32.9129 13.5154L28.7682 18.295L19.9271 10.5937Z" fill="url(#paint1_linear_26_956)"/>
<path d="M52.6887 30.148C49.6413 30.148 47.1014 29.1579 45.0417 27.1776C42.982 25.17 41.9669 22.5965 41.9669 19.4552C41.9669 16.2885 43.0094 13.6855 45.0691 11.6483C47.1583 9.58363 49.6982 8.56607 52.7182 8.56607C56.4438 8.56607 59.744 10.1769 61.6647 12.6954L58.3055 16.2315C56.6965 14.5046 54.9464 13.6285 53.0573 13.6285C51.4483 13.6285 50.1215 14.1647 49.02 15.2689C47.948 16.373 47.4131 17.76 47.4131 19.4277C47.4131 21.0406 47.948 22.3981 49.02 23.5022C50.1215 24.5767 51.4483 25.113 53.0278 25.113C55.0875 25.113 56.8945 24.2073 58.3898 22.4255L61.89 25.7927C60.9297 27.0657 59.6323 28.1129 58.0233 28.932C56.4143 29.7532 54.6368 30.148 52.6887 30.148ZM67.8101 8.25363V29.8376H62.844V8.25363H67.8101ZM72.5171 12.8347C70.8533 12.8347 69.6402 11.6187 69.6402 9.95096C69.6402 8.33807 70.9102 7.12207 72.5171 7.12207C74.1261 7.12207 75.3686 8.33807 75.3686 9.95096C75.3686 11.6187 74.1261 12.8369 72.5171 12.8369V12.8347ZM75.0296 14.2217V29.8376H70.0341V14.2217H75.0296ZM84.591 30.1775C82.1353 30.1775 80.1599 29.4133 78.6098 27.8849C77.0851 26.3585 76.3227 24.4057 76.3227 22.0012C76.3227 19.5966 77.0851 17.646 78.6372 16.1175C80.1894 14.5891 82.1922 13.827 84.6752 13.827C87.9206 13.827 90.7722 15.4103 92.0969 18.3806L88.1186 20.4749C87.3288 19.1449 86.2274 18.4651 84.7889 18.4651C83.7443 18.4651 82.8977 18.805 82.2196 19.4847C81.8978 19.8184 81.6449 20.2124 81.4754 20.6443C81.306 21.0761 81.2232 21.5372 81.2318 22.0012C81.2318 24.0659 82.7271 25.5943 84.7321 25.5943C86.1705 25.5943 87.4973 24.8026 88.0617 23.5866L92.0421 25.9616C90.6858 28.5646 87.8932 30.1775 84.591 30.1775ZM109.364 29.8376H103.436L98.8341 23.6415L98.1012 24.3213V29.8376H93.1373V8.25363H98.1033V18.748L102.787 14.2217H108.855L102.168 20.5023L109.364 29.8376ZM109.697 21.7183V8.93129H115.002V21.6339C115.002 23.9814 116.357 25.113 118.305 25.113C120.223 25.113 121.577 23.9244 121.577 21.6339V8.93129H126.912V21.7183C126.912 27.8849 122.649 30.205 118.305 30.205C113.987 30.205 109.697 27.8849 109.697 21.7183ZM138.702 13.827C140.932 13.827 142.739 14.6186 144.177 16.202C145.616 17.7579 146.321 19.7106 146.321 22.0012C146.321 24.2939 145.588 26.2445 144.15 27.8574C142.709 29.4407 140.904 30.2345 138.731 30.2345C137.008 30.2345 135.513 29.6687 134.3 28.5372V36.2596H129.304V14.2217H134.216V15.6657C135.429 14.4476 136.924 13.827 138.702 13.827ZM141.241 22.0582C141.241 20.021 139.776 18.4651 137.743 18.4651C135.711 18.4651 134.216 20.021 134.216 22.0582C134.216 23.0483 134.553 23.897 135.203 24.6042C135.879 25.3114 136.726 25.6513 137.743 25.6513C138.758 25.6513 139.605 25.3114 140.254 24.6042C140.901 23.9165 141.256 23.0035 141.244 22.0582H141.241Z" fill="black"/>
</g>
<defs>
<linearGradient id="paint0_linear_26_956" x1="6.54993" y1="31.2499" x2="33.7241" y2="31.2499" gradientUnits="userSpaceOnUse">
<stop stop-color="#8930FD"/>
<stop offset="1" stop-color="#49CCF9"/>
</linearGradient>
<linearGradient id="paint1_linear_26_956" x1="6.87598" y1="13.1573" x2="32.9129" y2="13.1573" gradientUnits="userSpaceOnUse">
<stop stop-color="#FF02F0"/>
<stop offset="1" stop-color="#FFC800"/>
</linearGradient>
<clipPath id="clip0_26_956">
<rect width="146" height="38" fill="white" transform="translate(0.934814 0.0712891)"/>
</clipPath>
</defs>
</svg>
