<svg width="1921" height="361" viewBox="0 0 1921 361" fill="none" xmlns="http://www.w3.org/2000/svg">
<g clip-path="url(#clip0_26_194)">
<g clip-path="url(#clip1_26_194)">
<path d="M-24.489 359.317V66.4251C-24.3531 66.3994 -24.1892 66.3685 -23.9974 66.3326C-23.3393 66.2093 -22.352 66.0262 -21.0367 65.7873C-18.4059 65.3095 -14.4626 64.6085 -9.21468 63.7163C1.28119 61.9318 16.9956 59.3823 37.8655 56.3226C79.6051 50.2032 141.967 42.0434 224.444 33.8833C389.399 17.5631 634.82 1.24219 956.664 1.24219C1278.5 1.24219 1523.93 17.5631 1688.88 33.8833C1771.36 42.0434 1833.72 50.2032 1875.46 56.3226C1896.34 59.3823 1912.04 61.9318 1922.54 63.7163C1927.78 64.6085 1931.74 65.3095 1934.36 65.7873C1935.68 66.0262 1936.67 66.2093 1937.33 66.3326C1937.51 66.3685 1937.68 66.3994 1937.82 66.4251V359.317L1936.79 359.168C1935.64 359.003 1933.94 358.758 1931.7 358.438C1927.22 357.798 1920.61 356.861 1912.05 355.669C1894.93 353.282 1870.06 349.874 1839.02 345.783C1776.93 337.603 1690.15 326.696 1591.39 315.788C1393.87 293.975 1148.4 272.157 956.664 272.157C764.928 272.157 519.459 293.975 321.94 315.788C223.176 326.696 136.396 337.603 74.3057 345.783C43.2605 349.874 18.3879 353.282 1.27619 355.669C-7.27956 356.861 -13.8951 357.798 -18.3719 358.438C-20.6103 358.758 -22.3139 359.003 -23.4581 359.168C-23.8772 359.229 -24.2212 359.277 -24.489 359.317Z" fill="url(#paint0_linear_26_194)" stroke="url(#paint1_linear_26_194)" stroke-width="1.22034"/>
</g>
</g>
<defs>
<linearGradient id="paint0_linear_26_194" x1="956.664" y1="98.5981" x2="956.664" y2="333.141" gradientUnits="userSpaceOnUse">
<stop stop-color="#FAFAFF"/>
<stop offset="1" stop-color="#FAFAFF" stop-opacity="0"/>
</linearGradient>
<linearGradient id="paint1_linear_26_194" x1="956.053" y1="-186.08" x2="956.053" y2="185.513" gradientUnits="userSpaceOnUse">
<stop stop-color="#CECEEA" stop-opacity="0.62"/>
<stop offset="1" stop-color="#CECEEA" stop-opacity="0"/>
</linearGradient>
<clipPath id="clip0_26_194">
<rect width="1920" height="360" fill="white" transform="translate(0.934753 0.0214844)"/>
</clipPath>
<clipPath id="clip1_26_194">
<rect width="1952.54" height="360" fill="white" transform="translate(-15.3364 0.0214844)"/>
</clipPath>
</defs>
</svg>
