<svg width="65" height="27" viewBox="0 0 65 27" fill="none" xmlns="http://www.w3.org/2000/svg">
<g clip-path="url(#clip0_26_225)">
<mask id="mask0_26_225" style="mask-type:luminance" maskUnits="userSpaceOnUse" x="1" y="1" width="64" height="26">
<path d="M64.1909 1.4502H1.86987V26.4502H64.1909V1.4502Z" fill="white"/>
</mask>
<g mask="url(#mask0_26_225)">
<path d="M1.86987 24.709H13.9871V26.4436H1.86987V24.709Z" fill="#1F70C1"/>
<path d="M1.86987 21.3828H13.9871V23.1235H1.86987V21.3828Z" fill="#1F70C1"/>
<path d="M5.3269 18.0615H10.5244V19.8022H5.3269V18.0615Z" fill="#1F70C1"/>
<path d="M5.3269 14.7402H10.5244V16.481H5.3269V14.7402Z" fill="#1F70C1"/>
<path d="M5.3269 11.4189H10.5244V13.1596H5.3269V11.4189Z" fill="#1F70C1"/>
<path d="M5.3269 8.0918H10.5244V9.83255H5.3269V8.0918Z" fill="#1F70C1"/>
<path d="M13.9871 4.77148H1.86987V6.51223H13.9871V4.77148Z" fill="#1F70C1"/>
<path d="M13.9871 1.4502H1.86987V3.19095H13.9871V1.4502Z" fill="#1F70C1"/>
<path d="M15.7153 23.1235H34.3511C34.6659 22.5865 34.9005 22.0001 35.0425 21.3828H15.7153V23.1235Z" fill="#1F70C1"/>
<path d="M32.9002 14.7402H19.178V16.481H34.3508C33.9557 15.8142 33.468 15.2279 32.9002 14.7402Z" fill="#1F70C1"/>
<path d="M19.178 11.4189V13.1596H32.9002C33.4804 12.6719 33.968 12.0855 34.3508 11.4189H19.178Z" fill="#1F70C1"/>
<path d="M34.3512 4.77148H15.7153V6.51223H35.0425C34.882 5.89494 34.6474 5.30856 34.3512 4.77148Z" fill="#1F70C1"/>
<path d="M28.6227 1.4502H15.7153V3.19095H33.0733C31.9129 2.11684 30.3388 1.4502 28.6227 1.4502Z" fill="#1F70C1"/>
<path d="M24.3693 8.09277H19.178V9.83352H24.3693V8.09277Z" fill="#1F70C1"/>
<path d="M29.5669 9.83255H34.999C35.1533 9.27702 35.2335 8.69058 35.2335 8.0918H29.5669V9.83255Z" fill="#1F70C1"/>
<path d="M19.178 18.0615H24.3693V19.8022H19.178V18.0615Z" fill="#1F70C1"/>
<path d="M29.5669 18.0615V19.8022H35.2335C35.2335 19.2034 35.1533 18.617 34.999 18.0615H29.5669Z" fill="#1F70C1"/>
<path d="M15.7153 26.4313L28.6227 26.4498C30.3511 26.4498 31.9129 25.7831 33.0795 24.709H15.7153V26.4313Z" fill="#1F70C1"/>
<path d="M36.4932 24.709H45.1475V26.4436H36.4932V24.709Z" fill="#1F70C1"/>
<path d="M36.4932 21.3828H45.1475V23.1235H36.4932V21.3828Z" fill="#1F70C1"/>
<path d="M39.9502 18.0615H45.1477V19.8022H39.9502V18.0615Z" fill="#1F70C1"/>
<path d="M39.9502 14.7402H45.1477V16.481H39.9502V14.7402Z" fill="#1F70C1"/>
<path d="M47.555 4.77148H36.4932V6.51223H48.1537L47.555 4.77148Z" fill="#1F70C1"/>
<path d="M46.4068 1.4502H36.4932V3.19095H47.0056L46.4068 1.4502Z" fill="#1F70C1"/>
<path d="M55.5303 24.709H64.1908V26.4436H55.5303V24.709Z" fill="#1F70C1"/>
<path d="M55.5303 21.3818H64.1908V23.1224H55.5303V21.3818Z" fill="#1F70C1"/>
<path d="M55.5303 18.0615H60.7278V19.8022H55.5303V18.0615Z" fill="#1F70C1"/>
<path d="M55.5303 14.7402H60.7278V16.481H55.5303V14.7402Z" fill="#1F70C1"/>
<path d="M55.5304 13.1596H60.7279V11.4189H55.5304H50.8268L50.3391 12.8263L49.8514 11.4189H45.1477H39.9502V13.1596H45.1477V11.5608L45.6971 13.1596H54.9811L55.5304 11.5608V13.1596Z" fill="#1F70C1"/>
<path d="M60.7278 8.0918H51.9747L51.376 9.83255H60.7278V8.0918Z" fill="#1F70C1"/>
<path d="M54.2775 1.4502L53.6787 3.19095H64.1911V1.4502H54.2775Z" fill="#1F70C1"/>
<path d="M50.34 26.4313L50.9387 24.709H49.7412L50.34 26.4313Z" fill="#1F70C1"/>
<path d="M49.1902 23.1235H51.4865L52.1038 21.3828H48.5791L49.1902 23.1235Z" fill="#1F70C1"/>
<path d="M48.0242 19.8022H52.6538L53.2649 18.0615H47.4131L48.0242 19.8022Z" fill="#1F70C1"/>
<path d="M46.8634 16.481H53.8202L54.4128 14.7402H46.2646L46.8634 16.481Z" fill="#1F70C1"/>
<path d="M39.9502 9.83255H49.302L48.7033 8.0918H39.9502V9.83255Z" fill="#1F70C1"/>
<path d="M52.5305 6.51223H64.191V4.77148H53.1231L52.5305 6.51223Z" fill="#1F70C1"/>
</g>
</g>
<defs>
<clipPath id="clip0_26_225">
<rect width="64" height="26" fill="white" transform="translate(0.934814 0.521484)"/>
</clipPath>
</defs>
</svg>
