<svg width="133" height="24" viewBox="0 0 133 24" fill="none" xmlns="http://www.w3.org/2000/svg">
<g clip-path="url(#clip0_26_213)">
<mask id="mask0_26_213" style="mask-type:luminance" maskUnits="userSpaceOnUse" x="1" y="0" width="132" height="23">
<path d="M132.87 0.450195H1.75V22.4502H132.87V0.450195Z" fill="white"/>
</mask>
<g mask="url(#mask0_26_213)">
<path d="M53.2463 2.68999C53.2463 2.16951 53.4553 1.67036 53.8273 1.30233C54.1993 0.934297 54.7039 0.727539 55.23 0.727539C55.7561 0.727539 56.2607 0.934297 56.6327 1.30233C57.0047 1.67036 57.2137 2.16951 57.2137 2.68999C57.1945 3.19778 56.9771 3.67847 56.6072 4.03102C56.2373 4.38357 55.7437 4.58054 55.23 4.58054C54.7164 4.58054 54.2227 4.38357 53.8528 4.03102C53.4829 3.67847 53.2655 3.19778 53.2463 2.68999Z" fill="#273B7D"/>
<path d="M84.5432 15.7779C84.5432 14.6887 85.43 13.8086 86.5227 13.8086C87.0503 13.8086 87.5563 14.016 87.9293 14.385C88.3023 14.7541 88.5119 15.2546 88.5119 15.7765C88.5119 16.2985 88.3023 16.799 87.9293 17.1681C87.5563 17.5371 87.0503 17.7445 86.5227 17.7445C85.4314 17.7445 84.5432 16.863 84.5432 15.7765" fill="#499FDD"/>
<path d="M20.6903 14.927C18.9829 14.927 17.7949 13.585 17.7949 11.6663C17.7949 9.74892 18.9829 8.40828 20.6917 8.40828C22.4087 8.40828 23.6092 9.74892 23.6092 11.6663C23.6092 13.615 22.435 14.927 20.6903 14.927ZM20.6903 5.54251C17.0766 5.54251 14.4534 8.11856 14.4534 11.6663C14.4534 15.2153 17.078 17.79 20.6903 17.79C24.3192 17.79 26.9521 15.2153 26.9521 11.6676C26.9521 8.11856 24.3192 5.54251 20.6917 5.54251H20.6903ZM49.4038 11.9738C49.278 11.7331 49.119 11.511 48.9314 11.3137L48.8208 11.2003L48.9369 11.0909C49.1027 10.9174 49.2725 10.7124 49.4355 10.4746L52.6265 5.7844H48.7532L46.3564 9.45373C46.2211 9.65052 45.9476 9.74892 45.5373 9.74892H44.9917V2.81203C44.9917 1.42493 44.1173 1.23633 43.1738 1.23633H41.5575L41.5616 17.6096H44.993V12.6981H45.3149C45.7058 12.6981 45.971 12.7431 46.094 12.9536L47.9865 16.4876C48.5155 17.447 49.0418 17.6096 50.0337 17.6096H52.6625L50.7037 14.4063L49.4052 11.9738H49.4038ZM66.0606 5.51518C64.3145 5.51518 63.2011 6.28321 62.5767 6.93234L62.3695 7.14007L62.2949 6.85718C62.1126 6.16158 61.4937 5.7803 60.564 5.7803H59.0265L59.0362 17.6055H62.444V12.1555C62.444 11.6225 62.5131 11.1606 62.6568 10.7383C63.0353 9.46056 64.0934 8.66657 65.4154 8.66657C66.4791 8.66657 66.8949 9.22278 66.8949 10.6577V15.8084C66.8949 17.0329 67.4681 17.6055 68.7072 17.6055H70.329L70.3235 10.0837C70.3235 7.09634 68.8496 5.51654 66.0606 5.51654V5.51518ZM55.2705 5.7844H53.6557L53.6667 14.9284V17.6096H55.3893L55.4501 17.6124L56.2541 17.6096H57.0526V17.6055H57.058L57.065 7.58148C57.065 6.37204 56.4807 5.78576 55.272 5.78576L55.2705 5.7844ZM34.0745 14.927C32.3671 14.927 31.1778 13.585 31.1778 11.6663C31.1778 9.74892 32.3672 8.40828 34.076 8.40828C35.7889 8.40828 36.9935 9.74892 36.9935 11.6663C36.9935 13.615 35.8193 14.927 34.076 14.927H34.0745ZM34.0745 5.54251C30.4581 5.54251 27.8334 8.11856 27.8334 11.6663C27.8334 15.2153 30.4581 17.79 34.076 17.79C37.6993 17.79 40.3377 15.2153 40.3377 11.6676C40.3377 8.11856 37.6993 5.54251 34.076 5.54251" fill="#273B7D"/>
<path d="M107.117 14.9274C105.409 14.9274 104.219 13.5854 104.219 11.6667C104.219 9.74938 105.409 8.40874 107.117 8.40874C108.832 8.40874 110.036 9.74938 110.036 11.6667C110.036 13.6155 108.862 14.9274 107.117 14.9274ZM107.117 5.54297C103.5 5.54297 100.877 8.11902 100.877 11.6667C100.877 15.2158 103.5 17.7905 107.117 17.7905C110.742 17.7905 113.379 15.2158 113.379 11.6681C113.379 8.11902 110.74 5.54297 107.117 5.54297Z" fill="#499FDD"/>
<path d="M77.5085 14.4064C75.645 14.4064 74.982 12.7993 74.982 11.2919C74.982 10.6277 75.1518 8.46436 77.3303 8.46436C78.4119 8.46436 79.8527 8.77048 79.8527 11.4026C79.8527 13.8857 78.5777 14.4064 77.5085 14.4064ZM81.6223 5.75302C80.9758 5.75302 80.4785 6.00857 80.2285 6.47459L80.1345 6.65498L79.9771 6.51832C79.4273 6.0482 78.441 5.48926 76.8399 5.48926C73.6531 5.48926 71.5078 7.85759 71.5078 11.3794C71.5078 14.8997 73.7277 17.3596 76.9035 17.3596C77.9879 17.3596 78.8457 17.1082 79.5253 16.5998L79.7878 16.4044V16.7323C79.7878 18.3121 78.7559 19.184 76.8841 19.184C75.9738 19.184 75.1464 18.9654 74.591 18.7658C73.87 18.5499 73.4445 18.729 73.153 19.4464L72.8823 20.1079L72.4996 21.0754L72.7358 21.1998C73.9349 21.8284 75.4945 22.2042 76.9035 22.2042C79.8044 22.2042 83.1943 20.7351 83.1943 16.5998L83.2067 5.75302H81.6223Z" fill="#273B7D"/>
<path d="M8.00155 14.792L5.22773 14.7893V11.5094C5.22773 10.807 5.50263 10.4435 6.10906 10.3588H8.00155C9.35116 10.3588 10.2242 11.2006 10.2256 12.5631C10.2242 13.9625 9.37327 14.7907 8.00155 14.7907V14.792ZM5.22773 5.94194V5.07825C5.22773 4.32251 5.55099 3.9631 6.25964 3.91663H7.67973C8.89673 3.91663 9.6261 4.63683 9.6261 5.84355C9.6261 6.7619 9.12601 7.83469 7.72391 7.83469H5.22773V5.94194ZM11.5434 9.21633L11.0419 8.93754L11.4799 8.56719C11.9896 8.13398 12.8419 7.15959 12.8419 5.47866C12.8419 2.90398 10.8251 1.24219 7.70182 1.24219H3.73168C3.28496 1.2583 2.86165 1.44383 2.54944 1.76033C2.23723 2.07683 2.06007 2.50004 2.05469 2.94224V17.5512H7.77222C11.2436 17.5512 13.4842 15.6817 13.4842 12.7859C13.4842 11.2266 12.7604 9.89416 11.5434 9.21633Z" fill="#273B7D"/>
<path d="M128.599 5.55469C127.896 5.55725 127.202 5.71614 126.569 6.01962C125.936 6.3231 125.38 6.76342 124.942 7.30804L124.696 7.6169L124.502 7.27114C123.87 6.13276 122.784 5.55469 121.274 5.55469C119.69 5.55469 118.627 6.42932 118.134 6.94863L117.811 7.29438L117.686 6.8393C117.507 6.18333 116.917 5.82391 116.025 5.82391H114.592L114.578 17.604H117.832V12.4041C117.832 11.9477 117.89 11.4981 118.004 11.0266C118.315 9.7693 119.169 8.41773 120.604 8.55302C121.488 8.63775 121.922 9.31422 121.922 10.6207V17.604H125.198V12.4041C125.198 11.8342 125.252 11.4079 125.382 10.9815C125.645 9.7816 126.537 8.55165 127.921 8.55165C128.924 8.55165 129.294 9.11196 129.294 10.6207V15.8821C129.294 17.0711 129.83 17.604 131.033 17.604H132.564L132.567 10.0836C132.567 7.07845 131.23 5.55469 128.599 5.55469ZM98.9906 13.5138C98.9809 13.5261 97.5816 14.9856 95.7374 14.9856C94.0577 14.9856 92.3614 13.9661 92.3614 11.6907C92.3614 9.72557 93.6764 8.35213 95.5606 8.35213C96.1712 8.35213 96.8675 8.56805 96.9766 8.93294L96.9918 8.99443C97.0614 9.24564 97.2128 9.46711 97.4226 9.6245C97.6324 9.78189 97.8888 9.86641 98.1521 9.86496L99.9341 9.86769V8.32616C99.9341 6.29265 97.3191 5.55469 95.5606 5.55469C91.7977 5.55469 89.0681 8.14577 89.0681 11.7153C89.0681 15.2822 91.7674 17.8705 95.4916 17.8705C98.7213 17.8705 100.478 15.7701 100.495 15.7496L100.589 15.6348L99.1771 13.3184L98.9906 13.5138Z" fill="#499FDD"/>
</g>
</g>
<defs>
<clipPath id="clip0_26_213">
<rect width="132" height="23" fill="white" transform="translate(0.934814 0.0214844)"/>
</clipPath>
</defs>
</svg>
