<svg width="106" height="28" viewBox="0 0 106 28" fill="none" xmlns="http://www.w3.org/2000/svg">
<g clip-path="url(#clip0_26_209)">
<path d="M23.6771 15.8306C21.9475 15.8306 20.6085 14.4916 20.6085 12.7062C20.6085 10.9765 21.9475 9.63746 23.6771 9.63746C25.4067 9.63746 26.7458 10.9765 26.7458 12.7062C26.7458 14.4358 25.351 15.8306 23.6771 15.8306ZM29.2565 9.52587V7.4057H25.5183C24.9046 7.12673 24.2909 7.07094 23.6771 7.07094C20.4411 7.07094 17.9304 9.52588 17.9304 12.762C17.9304 15.998 20.4411 18.3971 23.6213 18.3971C26.8016 18.3971 29.3123 15.9422 29.3123 12.762C29.3123 11.6461 28.9776 10.6418 28.4196 9.86064L29.2565 9.52587ZM11.2351 15.8306C9.50547 15.8306 8.16642 14.4916 8.16642 12.7062C8.16642 10.9765 9.50547 9.63746 11.2351 9.63746C12.9647 9.63746 14.3037 10.9765 14.3037 12.7062C14.3037 14.4358 13.0205 15.8306 11.2351 15.8306ZM11.2351 7.07094C7.99904 7.07094 5.5441 9.52587 5.5441 12.7062C5.5441 15.8864 8.05483 18.3971 11.2351 18.3971C14.4153 18.3971 16.9261 15.9422 16.9261 12.762C16.9261 9.58167 14.4711 7.07094 11.2351 7.07094ZM1.80591 18.1182H4.42822V2.94218H1.80591V18.1182ZM30.4282 18.1182H33.0505V7.4057H30.4282V18.1182ZM23.6771 21.8564C21.9475 21.8564 20.6085 20.5173 20.6085 18.7877H17.9304C17.9304 22.0238 20.4411 24.4229 23.6213 24.4229C26.8016 24.4229 29.3681 21.968 29.3681 18.7877H26.7458C26.69 20.5731 25.351 21.8564 23.6771 21.8564ZM42.9261 11.6461C43.3166 10.2512 44.3209 9.47008 45.7158 9.47008C47.1106 9.47008 48.1707 10.2512 48.4497 11.6461H42.9261ZM45.8273 7.07094C42.5913 7.07094 40.1922 9.52588 40.1922 12.762C40.1922 15.998 42.3681 18.2856 45.8273 18.2856C47.6685 18.2856 49.3982 17.5602 50.6814 16.277L48.8402 14.4358C47.9475 15.3285 46.999 15.8306 45.8831 15.8306C44.3767 15.8306 43.3166 14.9379 42.9819 13.6547H51.2952V13.0409C51.2952 9.52587 49.0076 7.07094 45.8273 7.07094ZM69.3724 7.07094C68.0333 7.07094 66.9175 7.51729 66.1364 8.40999V2.88639H63.514V18.0624H66.1364V12.2598C66.1364 10.6976 67.0848 9.69325 68.7029 9.69325C70.2093 9.69325 71.0462 10.6418 71.0462 12.2598V18.0624H73.6685V11.8135C73.7801 8.85635 71.8831 7.07094 69.3724 7.07094ZM57.823 9.69325C58.9389 9.69325 59.8316 10.2512 60.557 11.0881L62.3982 9.24691C61.3381 7.90785 59.7758 7.12673 57.823 7.12673C54.587 7.12673 52.1321 9.58167 52.1321 12.762C52.1321 15.9422 54.6428 18.3971 57.823 18.3971C59.6643 18.3971 61.3381 17.5044 62.3982 16.277L60.557 14.4358C59.8316 15.2169 58.8831 15.8306 57.823 15.8306C56.0934 15.8306 54.866 14.4916 54.866 12.762C54.7544 11.0323 56.1492 9.69325 57.823 9.69325ZM38.4067 4.11386H35.7844V7.4057H34.3896V9.74905H35.7844V18.0624H38.4067V9.74905H39.9132V7.4057H38.4067V4.11386ZM31.8231 2.60742C30.8746 2.60742 30.0934 3.38854 30.0934 4.44862C30.0934 5.39712 30.8746 6.17823 31.8231 6.17823C32.8831 6.17823 33.6643 5.39712 33.6643 4.44862C33.5527 3.38854 32.7716 2.60742 31.8231 2.60742Z" fill="black"/>
<path fill-rule="evenodd" clip-rule="evenodd" d="M91.3451 0.450195V5.86222C87.1047 5.86222 83.7571 9.20985 83.7571 13.4502C83.7571 17.5789 87.1047 21.0382 91.3451 21.0382V26.4502C84.1477 26.4502 78.2893 20.6476 78.2893 13.4502C78.2893 6.25277 84.1477 0.450195 91.3451 0.450195Z" fill="#00B8FD"/>
<path fill-rule="evenodd" clip-rule="evenodd" d="M105.75 8.46582H94.0891V13.7663H100.394V20.071H105.75V8.46582Z" fill="#00B8FD"/>
</g>
<defs>
<clipPath id="clip0_26_209">
<rect width="105" height="27" fill="white" transform="translate(0.934814 0.0214844)"/>
</clipPath>
</defs>
</svg>
