<svg width="91" height="26" viewBox="0 0 91 26" fill="none" xmlns="http://www.w3.org/2000/svg">
<g clip-path="url(#clip0_26_280)">
<mask id="mask0_26_280" style="mask-type:luminance" maskUnits="userSpaceOnUse" x="1" y="0" width="90" height="25">
<path d="M90.3245 0.450195H1.51978V24.4502H90.3245V0.450195Z" fill="white"/>
</mask>
<g mask="url(#mask0_26_280)">
<path d="M13.7307 22.9032C12.3948 23.1378 11.0354 23.2081 9.62919 23.3954L5.34002 10.833V23.9346C4.00414 24.0752 2.78541 24.2627 1.51978 24.4502V0.450195H5.08237L9.95726 14.0676V0.450195H13.7307V22.9032ZM21.1135 9.23926C22.5667 9.23926 24.7933 9.16893 26.1292 9.16893V12.9188C24.465 12.9188 22.5198 12.9188 21.1135 12.9892V18.5674C23.3167 18.4268 25.5198 18.2391 27.7463 18.1688V21.778L17.3634 22.5984V0.450195H27.7463V4.2002H21.1135V9.23926ZM41.6916 4.20029H37.801V21.4502C36.5354 21.4502 35.2697 21.4502 34.0512 21.497V4.20029H30.1606V0.450195H41.6918L41.6916 4.20029ZM47.7853 8.98152H52.9182V12.7314H47.7853V21.2393H44.1054V0.450195H54.5822V4.2002H47.7853V8.98152ZM60.6759 17.958C62.8088 18.0047 64.9649 18.1691 67.051 18.286V21.9892C63.6995 21.7781 60.3479 21.5675 56.926 21.497V0.450195H60.6759V17.958ZM70.215 22.247C71.4103 22.3175 72.6759 22.3878 73.8947 22.5282V0.450195H70.215V22.247ZM90.3245 0.450195L85.5666 11.8643L90.3245 24.4502C88.9181 24.2627 87.5119 24.0048 86.1056 23.7704L83.4104 16.8331L80.6685 23.2081C79.3088 22.9735 77.9963 22.9032 76.6372 22.7157L81.4653 11.7235L77.1058 0.450195H81.1368L83.5978 6.7549L86.2229 0.450195H90.3245Z" fill="#D81F26"/>
</g>
</g>
<defs>
<clipPath id="clip0_26_280">
<rect width="90" height="25" fill="white" transform="translate(0.934814 0.0214844)"/>
</clipPath>
</defs>
</svg>
