<svg width="86" height="15" viewBox="0 0 86 15" fill="none" xmlns="http://www.w3.org/2000/svg">
<g clip-path="url(#clip0_26_14)">
<path d="M14.5481 5.7301C14.6599 5.61915 14.7717 5.47405 14.7717 5.32042C14.7717 5.06436 14.4965 4.96194 14.2902 4.9278L9.97409 4.30473L8.03957 0.421231C7.96219 0.259063 7.81602 0.0712891 7.61827 0.0712891C7.42052 0.0712891 7.27436 0.259063 7.19698 0.421231L5.26245 4.30473L0.946325 4.9278C0.731378 4.96194 0.464844 5.06436 0.464844 5.32042C0.464844 5.47405 0.576616 5.61915 0.679791 5.7301L3.80941 8.75155L3.07 13.0191C3.06903 13.0259 3.06806 13.0325 3.06711 13.039C3.05957 13.0905 3.0528 13.1368 3.0528 13.1898C3.0528 13.4118 3.16457 13.6166 3.41391 13.6166C3.53428 13.6166 3.64605 13.5739 3.75783 13.5142L7.61827 11.4999L11.4787 13.5142C11.5819 13.5739 11.7022 13.6166 11.8226 13.6166C12.0719 13.6166 12.1751 13.4118 12.1751 13.1898C12.1751 13.1301 12.1751 13.0789 12.1665 13.0191L11.4271 8.75155L14.5481 5.7301Z" fill="#FFC800"/>
<path d="M32.1567 5.7301C32.2684 5.61915 32.3802 5.47405 32.3802 5.32042C32.3802 5.06436 32.1051 4.96194 31.8987 4.9278L27.5826 4.30473L25.6481 0.421231C25.5707 0.259063 25.4245 0.0712891 25.2268 0.0712891C25.029 0.0712891 24.8829 0.259063 24.8055 0.421231L22.871 4.30473L18.5548 4.9278C18.3399 4.96194 18.0734 5.06436 18.0734 5.32042C18.0734 5.47405 18.1851 5.61915 18.2883 5.7301L21.4179 8.75155L20.6785 13.0191C20.6775 13.0259 20.6766 13.0325 20.6756 13.039C20.6681 13.0905 20.6613 13.1368 20.6613 13.1898C20.6613 13.4118 20.7731 13.6166 21.0224 13.6166C21.1428 13.6166 21.2546 13.5739 21.3663 13.5142L25.2268 11.4999L29.0872 13.5142C29.1904 13.5739 29.3108 13.6166 29.4311 13.6166C29.6805 13.6166 29.7837 13.4118 29.7837 13.1898C29.7837 13.1301 29.7837 13.0789 29.7751 13.0191L29.0356 8.75155L32.1567 5.7301Z" fill="#FFC800"/>
<path d="M49.7651 5.7301C49.8769 5.61915 49.9887 5.47405 49.9887 5.32042C49.9887 5.06436 49.7135 4.96194 49.5072 4.9278L45.1911 4.30473L43.2565 0.421231C43.1792 0.259063 43.033 0.0712891 42.8352 0.0712891C42.6375 0.0712891 42.4913 0.259063 42.4139 0.421231L40.4794 4.30473L36.1633 4.9278C35.9483 4.96194 35.6818 5.06436 35.6818 5.32042C35.6818 5.47405 35.7936 5.61915 35.8968 5.7301L39.0264 8.75155L38.287 13.0191C38.286 13.0259 38.285 13.0325 38.2841 13.039C38.2765 13.0905 38.2698 13.1368 38.2698 13.1898C38.2698 13.4118 38.3815 13.6166 38.6309 13.6166C38.7512 13.6166 38.863 13.5739 38.9748 13.5142L42.8352 11.4999L46.6957 13.5142C46.7989 13.5739 46.9192 13.6166 47.0396 13.6166C47.2889 13.6166 47.3921 13.4118 47.3921 13.1898C47.3921 13.1301 47.3921 13.0789 47.3835 13.0191L46.6441 8.75155L49.7651 5.7301Z" fill="#FFC800"/>
<path d="M67.3736 5.7301C67.4853 5.61915 67.5971 5.47405 67.5971 5.32042C67.5971 5.06436 67.322 4.96194 67.1156 4.9278L62.7995 4.30473L60.865 0.421231C60.7876 0.259063 60.6414 0.0712891 60.4437 0.0712891C60.2459 0.0712891 60.0998 0.259063 60.0224 0.421231L58.0879 4.30473L53.7717 4.9278C53.5568 4.96194 53.2903 5.06436 53.2903 5.32042C53.2903 5.47405 53.402 5.61915 53.5052 5.7301L56.6348 8.75155L55.8954 13.0191C55.8944 13.0259 55.8935 13.0325 55.8925 13.039C55.885 13.0905 55.8782 13.1368 55.8782 13.1898C55.8782 13.4118 55.99 13.6166 56.2393 13.6166C56.3597 13.6166 56.4715 13.5739 56.5832 13.5142L60.4437 11.4999L64.3041 13.5142C64.4073 13.5739 64.5277 13.6166 64.6481 13.6166C64.8974 13.6166 65.0006 13.4118 65.0006 13.1898C65.0006 13.1301 65.0006 13.0789 64.992 13.0191L64.2525 8.75155L67.3736 5.7301Z" fill="#FFC800"/>
<path d="M84.982 5.7301C85.0938 5.61915 85.2056 5.47405 85.2056 5.32042C85.2056 5.06436 84.9304 4.96194 84.7241 4.9278L80.408 4.30473L78.4734 0.421231C78.3961 0.259063 78.2499 0.0712891 78.0521 0.0712891C77.8544 0.0712891 77.7082 0.259063 77.6308 0.421231L75.6963 4.30473L71.3802 4.9278C71.1652 4.96194 70.8987 5.06436 70.8987 5.32042C70.8987 5.47405 71.0105 5.61915 71.1137 5.7301L74.2433 8.75155L73.5039 13.0191C73.5029 13.0259 73.5019 13.0325 73.501 13.039C73.4934 13.0905 73.4867 13.1368 73.4867 13.1898C73.4867 13.4118 73.5984 13.6166 73.8478 13.6166C73.9682 13.6166 74.0799 13.5739 74.1917 13.5142L78.0521 11.4999L81.9126 13.5142C82.0158 13.5739 82.1361 13.6166 82.2565 13.6166C82.5058 13.6166 82.609 13.4118 82.609 13.1898C82.609 13.1301 82.609 13.0789 82.6004 13.0191L81.861 8.75155L84.982 5.7301Z" fill="#FFC800"/>
</g>
<defs>
<clipPath id="clip0_26_14">
<rect width="85" height="14" fill="white" transform="translate(0.464844 0.0712891)"/>
</clipPath>
</defs>
</svg>
