<svg width="109" height="34" viewBox="0 0 109 34" fill="none" xmlns="http://www.w3.org/2000/svg">
<g clip-path="url(#clip0_26_274)">
<mask id="mask0_26_274" style="mask-type:luminance" maskUnits="userSpaceOnUse" x="1" y="0" width="108" height="33">
<path d="M108.52 0.450195H1.82715V32.4502H108.52V0.450195Z" fill="white"/>
</mask>
<g mask="url(#mask0_26_274)">
<path d="M17.827 0.450195C8.99074 0.450195 1.82715 7.61359 1.82715 16.4499C1.82715 25.2871 8.99074 32.4502 17.827 32.4502C26.6637 32.4502 33.8269 25.2871 33.8269 16.4499C33.8269 7.61416 26.6643 0.450195 17.827 0.450195ZM25.1645 23.5263C24.8771 23.9977 24.2631 24.1454 23.7932 23.8582C20.0361 21.5619 15.3069 21.0431 9.73757 22.3154C9.20089 22.4384 8.66592 22.102 8.54365 21.5655C8.4208 21.0288 8.75572 20.4938 9.29374 20.3716C15.3885 18.9782 20.6165 19.5779 24.8338 22.1549C25.3038 22.4434 25.453 23.0563 25.1645 23.5263ZM27.1228 19.1704C26.761 19.7575 25.9933 19.9417 25.4069 19.5811C21.1071 16.938 14.5505 16.1725 9.4636 17.7166C8.80387 17.9159 8.10708 17.5441 7.90684 16.8855C7.70814 16.2258 8.08014 15.5303 8.73872 15.3297C14.5494 13.5666 21.773 14.4206 26.7119 17.4556C27.2984 17.8167 27.4839 18.5846 27.1228 19.1704ZM27.291 14.6339C22.1335 11.571 13.6264 11.2894 8.70298 12.7836C7.91238 13.0234 7.0763 12.5771 6.83671 11.7865C6.59712 10.9955 7.04306 10.16 7.83423 9.91967C13.486 8.20396 22.8813 8.53545 28.8183 12.0599C29.5294 12.4819 29.7627 13.4004 29.3412 14.1105C28.9209 14.8217 27.9998 15.0561 27.291 14.6339ZM45.3576 15.2208C42.595 14.562 42.1032 14.0997 42.1032 13.1281C42.1032 12.2103 42.9674 11.5926 44.2525 11.5926C45.4982 11.5926 46.7334 12.0616 48.0284 13.0272C48.0676 13.0565 48.1167 13.0681 48.165 13.0605C48.2133 13.0532 48.2561 13.0267 48.2844 12.9867L49.6333 11.0853C49.6887 11.007 49.6736 10.899 49.5989 10.8392C48.0576 9.60252 46.322 9.00125 44.2934 9.00125C41.3106 9.00125 39.2271 10.7913 39.2271 13.3524C39.2271 16.0989 41.0243 17.0714 44.1302 17.8221C46.7737 18.431 47.2199 18.9411 47.2199 19.853C47.2199 20.8635 46.3177 21.4917 44.8658 21.4917C43.2533 21.4917 41.938 20.9486 40.4666 19.6744C40.4302 19.6429 40.3801 19.6285 40.3339 19.6312C40.2851 19.6352 40.2406 19.6578 40.2097 19.695L38.6973 21.495C38.6338 21.5697 38.6418 21.6813 38.7152 21.7459C40.4271 23.2741 42.5326 24.0814 44.8047 24.0814C48.0189 24.0814 50.0959 22.3252 50.0959 19.607C50.1016 17.3123 48.7279 16.0418 45.3633 15.2233L45.3576 15.2208ZM57.3676 12.4963C55.9744 12.4963 54.8316 13.045 53.8893 14.1694V12.9038C53.8893 12.8039 53.8083 12.7225 53.7086 12.7225H51.2349C51.135 12.7225 51.0542 12.8039 51.0542 12.9038V26.9662C51.0542 27.0661 51.135 27.1475 51.2349 27.1475H53.7086C53.8083 27.1475 53.8893 27.0661 53.8893 26.9662V22.5273C54.8318 23.585 55.9748 24.1018 57.3676 24.1018C59.9562 24.1018 62.5768 22.1091 62.5768 18.2997C62.5807 14.4894 59.9593 12.4961 57.3704 12.4961L57.3676 12.4963ZM59.7004 18.2997C59.7004 20.2395 58.5055 21.5932 56.7946 21.5932C55.1031 21.5932 53.8272 20.178 53.8272 18.2997C53.8272 16.4216 55.1031 15.0062 56.7946 15.0062C58.4778 15.006 59.7004 16.391 59.7004 18.2997ZM69.2935 12.4963C65.9597 12.4963 63.3479 15.0634 63.3479 18.3412C63.3479 21.5833 65.9418 24.1234 69.2526 24.1234C72.5983 24.1234 75.2181 21.5649 75.2181 18.2997C75.2181 15.0458 72.6161 12.4963 69.2935 12.4963ZM69.2935 21.6125C67.5203 21.6125 66.1834 20.1878 66.1834 18.2988C66.1834 16.4017 67.4741 15.0251 69.2526 15.0251C71.0373 15.0251 72.3831 16.4499 72.3831 18.3402C72.3831 20.2369 71.0837 21.6125 69.2935 21.6125ZM82.3372 12.7225H79.6151V9.93955C79.6151 9.83982 79.5345 9.75843 79.4346 9.75843H76.9613C76.8612 9.75843 76.78 9.83982 76.78 9.93955V12.7225H75.5907C75.4911 12.7225 75.4105 12.8039 75.4105 12.9038V15.0297C75.4105 15.1295 75.4911 15.211 75.5907 15.211H76.78V20.7118C76.78 22.9348 77.8864 24.0619 80.0685 24.0619C80.9558 24.0619 81.6919 23.8787 82.3857 23.4853C82.442 23.4537 82.477 23.393 82.477 23.3284V21.3039C82.477 21.2415 82.4445 21.1824 82.391 21.1498C82.3372 21.1159 82.2701 21.1142 82.2149 21.1415C81.7384 21.3813 81.2777 21.4919 80.7628 21.4919C79.9692 21.4919 79.6151 21.1316 79.6151 20.324V15.212H82.3372C82.4371 15.212 82.5175 15.1306 82.5175 15.0307V12.905C82.5213 12.805 82.4411 12.7237 82.3398 12.7237L82.3372 12.7225ZM91.8214 12.7334V12.3916C91.8214 11.386 92.2069 10.9376 93.0717 10.9376C93.5873 10.9376 94.0016 11.04 94.4654 11.1948C94.5226 11.2127 94.5822 11.2038 94.6286 11.1696C94.6764 11.1353 94.7033 11.0805 94.7033 11.0224V8.93801C94.7033 8.85833 94.6521 8.78783 94.5753 8.76433C94.0852 8.61854 93.4582 8.46895 92.5193 8.46895C90.2346 8.46895 89.0269 9.75555 89.0269 12.1883V12.7118H87.8385C87.7388 12.7118 87.657 12.7932 87.657 12.8929V15.0297C87.657 15.1295 87.7388 15.211 87.8385 15.211H89.0269V23.6958C89.0269 23.7957 89.1076 23.8771 89.2073 23.8771H91.6809C91.7809 23.8771 91.8623 23.7957 91.8623 23.6958V15.2116H94.1718L97.7096 23.6943C97.308 24.5856 96.9131 24.7629 96.3739 24.7629C95.9381 24.7629 95.4792 24.6328 95.01 24.376C94.9658 24.3517 94.9135 24.3477 94.8659 24.3624C94.8187 24.379 94.779 24.4142 94.7589 24.46L93.9205 26.2994C93.8806 26.3863 93.9148 26.4883 93.9985 26.5334C94.8737 27.0074 95.6638 27.2098 96.6403 27.2098C98.4668 27.2098 99.4764 26.359 100.366 24.0701L104.658 12.981C104.679 12.9252 104.673 12.8621 104.639 12.8127C104.605 12.7636 104.55 12.734 104.49 12.734H101.915C101.838 12.734 101.769 12.783 101.743 12.8555L99.1053 20.3905L96.2159 12.8505C96.1896 12.7804 96.1219 12.7339 96.0471 12.7339L91.8214 12.7334ZM86.3227 12.7225H83.849C83.7491 12.7225 83.6677 12.8039 83.6677 12.9038V23.6958C83.6677 23.7957 83.7491 23.8771 83.849 23.8771H86.3227C86.4224 23.8771 86.504 23.7957 86.504 23.6958V12.9046C86.504 12.8807 86.4994 12.8571 86.4903 12.8351C86.4811 12.813 86.4678 12.793 86.4509 12.7762C86.434 12.7593 86.414 12.746 86.392 12.7369C86.3699 12.7278 86.3465 12.7224 86.3227 12.7225ZM85.0999 7.80867C84.1199 7.80867 83.3247 8.60193 83.3247 9.58189C83.3247 10.5624 84.1201 11.3566 85.0999 11.3566C86.0795 11.3566 86.8739 10.5624 86.8739 9.58189C86.8739 8.60213 86.0781 7.80867 85.0999 7.80867ZM106.77 16.1923C105.791 16.1923 105.029 15.4061 105.029 14.4514C105.029 13.4967 105.801 12.7015 106.779 12.7015C107.758 12.7015 108.52 13.4875 108.52 14.4414C108.52 15.3962 107.748 16.1923 106.77 16.1923ZM106.78 12.8746C105.888 12.8746 105.213 13.5834 105.213 14.4514C105.213 15.319 105.883 16.0183 106.771 16.0183C107.662 16.0183 108.338 15.31 108.338 14.4414C108.338 13.5739 107.667 12.8746 106.78 12.8746ZM107.166 14.6205L107.658 15.3098H107.243L106.8 14.6774H106.418V15.3098H106.071V13.4825H106.886C107.31 13.4825 107.589 13.6998 107.589 14.0655C107.591 14.365 107.416 14.5481 107.166 14.6205ZM106.871 13.7961H106.418V14.374H106.871C107.098 14.374 107.233 14.2634 107.233 14.0848C107.233 13.8968 107.096 13.7961 106.871 13.7961Z" fill="#2EBD59"/>
</g>
</g>
<defs>
<clipPath id="clip0_26_274">
<rect width="108" height="33" fill="white" transform="translate(0.934814 0.0214844)"/>
</clipPath>
</defs>
</svg>
