<svg width="82" height="15" viewBox="0 0 82 15" fill="none" xmlns="http://www.w3.org/2000/svg">
<g clip-path="url(#clip0_26_21)">
<path d="M0.384766 4.9723H6.85465H10.7837V1.72266L0.384766 4.9723Z" fill="#FF9D28"/>
<path d="M10.7837 2.02856V14.0714L14.0334 0.422852L10.7837 2.02856Z" fill="#68C5ED"/>
<path d="M10.7834 4.97266H6.23389L10.7834 14.0717V4.97266Z" fill="#044D80"/>
<path d="M0.384766 4.97266L6.88406 6.92244L6.00523 4.97266H0.384766Z" fill="#E54747"/>
<path d="M35.3878 5.63944H29.5217L27.7159 0.423828L25.8994 5.63944L20.0332 5.62945L24.7774 8.85673L22.961 14.0724L27.7052 10.8451L32.4494 14.0724L30.6436 8.85673L35.3878 5.63944Z" fill="#00B67A"/>
<path d="M30.2701 9.96476L30.0623 8.95312L28.564 10.6592L30.2701 9.96476Z" fill="#005128"/>
<path d="M50.6192 10.109C51.1146 10.9687 51.6045 11.8187 52.094 12.6677C49.9263 14.3273 46.5538 14.5279 44.0572 12.6167C41.1841 10.4157 40.7119 6.66004 42.2501 3.95659C44.0192 0.847035 47.3299 0.15934 49.4615 0.663601C49.4038 0.788837 48.1272 3.43741 48.1272 3.43741C48.1272 3.43741 48.0262 3.44404 47.9691 3.44514C47.3391 3.47185 46.8698 3.61845 46.3668 3.8785C45.815 4.16645 45.3421 4.58518 44.9895 5.09809C44.6368 5.611 44.4152 6.20247 44.3439 6.82082C44.2695 7.44791 44.3563 8.08361 44.5959 8.66787C44.7984 9.16182 45.085 9.60051 45.4692 9.97088C46.0585 10.5396 46.7599 10.8918 47.5728 11.0083C48.3426 11.1188 49.083 11.0094 49.7768 10.6608C50.037 10.5302 50.2584 10.386 50.5171 10.1882C50.5501 10.1669 50.5794 10.1398 50.6192 10.109Z" fill="#FF492C"/>
<path d="M50.6241 2.56842C50.4983 2.44466 50.3817 2.33047 50.2657 2.21555C50.1965 2.14704 50.1298 2.07576 50.0589 2.00891C50.0335 1.98478 50.0036 1.95182 50.0036 1.95182C50.0036 1.95182 50.0278 1.90062 50.0381 1.87962C50.1738 1.60723 50.3865 1.40814 50.6388 1.24976C50.9179 1.07328 51.2429 0.983489 51.573 0.991731C51.9953 1.00002 52.3879 1.10518 52.7192 1.38844C52.9638 1.59747 53.0892 1.86268 53.1113 2.17927C53.1482 2.71337 52.9272 3.12241 52.4883 3.40787C52.2304 3.57584 51.9523 3.70568 51.6735 3.85946C51.5197 3.94437 51.3882 4.01895 51.2379 4.17255C51.1057 4.32671 51.0993 4.47202 51.0993 4.47202L53.097 4.46944V5.35917H50.0134V5.27316C50.0016 4.83594 50.0526 4.4245 50.2528 4.02743C50.437 3.66314 50.7232 3.39646 51.067 3.19111C51.3319 3.0329 51.6107 2.89827 51.8761 2.74081C52.0398 2.64375 52.1555 2.50138 52.1546 2.29493C52.1546 2.11776 52.0256 1.96029 51.8415 1.91112C51.4072 1.79398 50.9652 1.98092 50.7353 2.37836C50.7018 2.43637 50.6676 2.49402 50.6241 2.56842ZM54.4882 9.16249L52.8047 6.25516H49.4732L47.7788 9.19251H51.1348L52.7909 12.086L54.4882 9.16249Z" fill="#FF492C"/>
<path d="M80.5358 6.85407L75.1434 1.46184C74.957 1.28876 74.6774 1.28876 74.5044 1.46184L73.4392 2.52697L77.7663 6.85407C77.9394 7.02715 77.9394 7.32007 77.7663 7.49315L73.3062 11.9534L74.3713 13.0185C74.5577 13.1916 74.8373 13.1916 75.0104 13.0185L80.5224 7.50646C80.7088 7.32006 80.7088 7.04047 80.5358 6.85407Z" fill="#009C9C"/>
<path d="M71.3496 1.86358L70.9635 1.47747C70.7771 1.30439 70.4975 1.30439 70.3244 1.47747L69.2593 2.5426L69.965 3.24825L71.3496 4.63292L72.7343 3.24825L71.3496 1.86358Z" fill="#40E3E3"/>
<path d="M71.2295 9.87695L69.8448 11.2616L69.1392 11.9673L70.2043 13.0324C70.3907 13.2055 70.6703 13.2055 70.8434 13.0324L71.2295 12.6463L72.6142 11.2616L71.2295 9.87695Z" fill="#40E3E3"/>
<path d="M73.5994 6.85679C73.7725 7.04319 73.7725 7.32279 73.5994 7.49588L71.2295 9.86579L72.6142 11.2505L76.3688 7.49588C76.5419 7.32279 76.5419 7.02988 76.3688 6.85679L72.7473 3.23535L71.3494 4.62002L73.5994 6.85679Z" fill="#1ABAB8"/>
<path d="M64.7988 6.98721L68.5534 3.23263L67.1687 1.84795L66.7693 1.46184C66.5829 1.28876 66.3033 1.28876 66.1302 1.46184L60.6181 6.98721C60.445 7.16029 60.445 7.45321 60.6181 7.62629L66.0104 13.0185C66.1968 13.1916 66.4763 13.1916 66.6494 13.0185L67.0489 12.6324L68.4335 11.2477L64.8121 7.62629C64.6257 7.45321 64.6257 7.17361 64.7988 6.98721Z" fill="#87F0F0"/>
<path d="M68.9793 6.98639L70.6303 5.33544L69.2456 3.95077L68.5399 3.24512L64.812 6.99971C64.6389 7.17279 64.6389 7.4657 64.812 7.63878L68.4201 11.2469L69.1258 10.5413L70.5104 9.1566L68.9793 7.62547C68.8062 7.4657 68.8062 7.17279 68.9793 6.98639Z" fill="#40E3E3"/>
<path d="M68.9792 7.62694L70.5104 9.15806L72.1612 7.50711C72.3343 7.33403 72.3343 7.04112 72.1612 6.86803L70.6302 5.33691L68.9792 6.98786C68.8194 7.17426 68.8194 7.45386 68.9792 7.62694Z" fill="#17CFCF"/>
</g>
<defs>
<clipPath id="clip0_26_21">
<rect width="81" height="14" fill="white" transform="translate(0.384766 0.0712891)"/>
</clipPath>
</defs>
</svg>
