<svg width="81" height="23" viewBox="0 0 81 23" fill="none" xmlns="http://www.w3.org/2000/svg">
<g clip-path="url(#clip0_26_267)">
<mask id="mask0_26_267" style="mask-type:luminance" maskUnits="userSpaceOnUse" x="1" y="1" width="80" height="22">
<path d="M80.8271 1.4502H1.19092V22.4502H80.8271V1.4502Z" fill="white"/>
</mask>
<g mask="url(#mask0_26_267)">
<path d="M10.1322 5.92225V22.0133H7.65221V5.92225H1.19092V3.56023H16.5998V5.92225H10.1322ZM19.5484 22.0133V3.56023H22.0283V22.0133H19.5484ZM39.5283 16.7857C39.5283 19.9159 37.4341 22.0102 32.6813 22.0102H26.3922V3.56023H32.5028C36.9591 3.56023 38.9386 5.56524 38.9386 8.45959C38.9386 10.3467 37.8453 11.7397 35.7765 12.5238C38.2469 13.1231 39.5283 14.7169 39.5283 16.7857ZM32.71 5.86169H28.9008V11.6472H32.3243C34.9796 11.6472 36.43 10.4678 36.43 8.66679C36.43 6.86578 35.1294 5.86169 32.71 5.86169ZM32.5315 13.9232H28.92V19.7087H32.9172C35.6618 19.7087 37.0229 18.7333 37.0229 16.8143C37.0229 14.6914 35.1294 13.9232 32.5315 13.9232ZM55.8872 6.94229C54.4113 5.90312 52.6486 5.34848 50.8412 5.36123C46.8248 5.36123 44.1153 8.13764 44.1153 12.7151C44.1153 17.2925 46.8248 20.2123 50.889 20.2123C52.7793 20.1805 54.6089 19.5461 56.1135 18.405L56.5247 20.9168C54.8002 21.9305 52.8303 22.4596 50.8284 22.4532C45.4095 22.4532 41.5875 18.7046 41.5875 12.8298C41.5875 6.95504 45.4669 3.12034 50.838 3.12034C52.8876 3.10759 54.9022 3.63673 56.6809 4.65677L55.8872 6.94229ZM71.8858 4.42088C71.6085 4.25513 71.3248 4.10212 71.0315 3.96824C68.6185 8.59347 64.2579 14.0921 58.4405 17.2224C58.7624 17.9555 59.1864 18.6377 59.6964 19.2561C64.6818 15.8166 69.2975 10.1044 71.8858 4.42088Z" fill="#3E8EDE"/>
<path d="M70.8108 3.86332C69.5454 3.32461 68.181 3.05047 66.804 3.06322C61.3851 3.06322 57.5504 7.24856 57.5504 12.7599C57.5472 13.6429 57.6428 14.5227 57.8341 15.3833C63.3805 13.1233 68.3149 8.13791 70.8108 3.86332ZM72.1146 4.54865C69.268 11.5486 65.7935 16.499 61.3691 20.7576C62.9789 21.8414 64.8851 22.4056 66.8231 22.3706C72.2421 22.3706 76.0768 18.1565 76.0768 12.642C76.0576 8.99219 74.5467 6.15521 72.1146 4.54865ZM76.0576 3.93982C76.0003 2.62333 77.0203 1.51086 78.3368 1.45348C79.6533 1.3961 80.7657 2.41614 80.8231 3.73262C80.8263 3.80275 80.8263 3.86969 80.8231 3.93982C80.8805 5.2563 79.8605 6.36878 78.544 6.42616C77.2275 6.48353 76.115 5.4635 76.0576 4.14701C76.0545 4.07689 76.0545 4.00676 76.0576 3.93982ZM80.5522 3.93982C80.5522 2.77634 79.6086 1.82962 78.4452 1.82962C77.2817 1.82962 76.335 2.77315 76.335 3.93663V3.93982C76.3382 5.1033 77.2849 6.04683 78.4515 6.04364C79.615 6.04046 80.5586 5.09374 80.5554 3.92707V3.93982H80.5522ZM77.5144 2.67752H78.6109C79.1433 2.67752 79.5417 2.93891 79.5417 3.44574C79.5545 3.79319 79.3218 4.10557 78.9807 4.18527L79.6278 5.08736H79.0668L78.4834 4.22989H77.9861V5.08736H77.5335V2.66477L77.5144 2.67752ZM78.5695 3.88563C78.799 3.92707 79.0158 3.77406 79.0572 3.54455C79.0604 3.52543 79.0636 3.5063 79.0636 3.48718C79.0636 3.26404 78.8819 3.07916 78.6587 3.07916C78.63 3.07916 78.6014 3.08235 78.5727 3.08873H77.9893V3.86969H78.5759L78.5695 3.88563Z" fill="#3E8EDE"/>
</g>
</g>
<defs>
<clipPath id="clip0_26_267">
<rect width="80" height="22" fill="white" transform="translate(0.934814 0.521484)"/>
</clipPath>
</defs>
</svg>
