<svg width="138" height="34" viewBox="0 0 138 34" fill="none" xmlns="http://www.w3.org/2000/svg">
<path d="M101.076 7.9038C101.076 8.12569 101.034 8.34542 100.951 8.55045C100.868 8.75547 100.747 8.94178 100.594 9.09871C100.441 9.25565 100.26 9.38014 100.06 9.46508C99.8601 9.55001 99.646 9.59373 99.4297 9.59373C99.2135 9.59373 98.9993 9.55001 98.7995 9.46508C98.5997 9.38014 98.4182 9.25565 98.2653 9.09871C98.1125 8.94178 97.9912 8.75547 97.9085 8.55045C97.8258 8.34542 97.7833 8.12569 97.7834 7.9038C97.7833 7.68191 97.8258 7.46218 97.9085 7.25715C97.9912 7.05213 98.1125 6.86582 98.2653 6.70889C98.4182 6.55195 98.5997 6.42746 98.7995 6.34252C98.9993 6.25758 99.2135 6.21387 99.4297 6.21387C99.646 6.21387 99.8601 6.25758 100.06 6.34252C100.26 6.42746 100.441 6.55195 100.594 6.70889C100.747 6.86582 100.868 7.05213 100.951 7.25715C101.034 7.46218 101.076 7.68191 101.076 7.9038Z" fill="#999B9E"/>
<path d="M130.351 15.3232H126.161V19.5995H130.351V15.3232Z" fill="#999B9E"/>
<path d="M47.2434 15.3232H43.053V19.5995H47.2434V15.3232Z" fill="#999B9E"/>
<path d="M34.6731 15.3232H30.4827V19.5995H34.6731V15.3232Z" fill="#999B9E"/>
<path d="M22.2961 15.3232H18.1057V19.5995H22.2961V15.3232Z" fill="#999B9E"/>
<path d="M9.47584 15.3232H5.2854V19.5995H9.47584V15.3232Z" fill="#999B9E"/>
<path d="M15.3504 6.78774H15.8476C19.0588 6.78774 20.5555 8.50559 21.1809 13.0868L22.1753 13.0428L22.0426 5.77441H5.7023L5.54126 13.0428L6.49813 13.0868C6.66386 11.3689 6.86262 10.4438 7.29397 9.51867C8.05651 7.80055 9.64792 6.78774 11.6038 6.78774H12.3V22.6014C12.3 24.2753 12.2006 24.804 11.8031 25.2005C11.4714 25.5088 10.8082 25.6409 10.0454 25.6409H9.28291V26.698H18.3675V25.6409H17.6003C16.8424 25.6409 16.1746 25.5085 15.8478 25.2005C15.4501 24.804 15.3507 24.2751 15.3507 22.6014L15.3504 6.78774Z" fill="#ED008C"/>
<path d="M58.5731 26.6987L63.8674 8.22555V22.7221C63.8674 24.3041 63.7774 24.8601 63.4184 25.2449C63.1489 25.5441 62.5242 25.6726 61.8317 25.6726H61.5624V26.6987H69.046V25.6726H68.6565C67.9681 25.6726 67.3396 25.5443 67.0703 25.2449C66.7107 24.8601 66.621 24.3041 66.621 22.7221V10.3639C66.621 8.78152 66.7107 8.18288 67.0703 7.7981C67.3695 7.54158 67.9681 7.37039 68.6565 7.37039H69.046V6.38672H63.2389L58.8684 21.3107L54.5921 6.38672H48.8149V7.37039H49.3535C50.9402 7.37039 51.2394 7.71251 51.2394 9.76519V21.5246C51.2394 23.4061 51.1496 24.1759 50.8801 24.7319C50.5809 25.2878 49.9479 25.6726 49.2936 25.6726H48.8147V26.6987H54.9808V25.6726H54.5919C53.8137 25.6726 53.1849 25.3732 52.8214 24.7745C52.4666 24.1759 52.3768 23.6199 52.3768 21.5246V8.22581L57.6407 26.6989L58.5731 26.6987Z" fill="#999B9E"/>
<path d="M75.4821 12.2441C71.7704 12.2441 69.3459 15.1519 69.3459 19.7277C69.3459 24.1322 71.7704 27.1257 75.3885 27.1257C79.0398 27.1257 81.4646 24.1322 81.4646 19.685C81.4646 15.2802 79.0399 12.2441 75.4821 12.2441ZM75.3625 13.2275C76.4359 13.2275 77.3636 13.9117 77.8725 15.0664C78.3515 16.1354 78.5609 17.5894 78.5609 19.6848C78.5609 24.0035 77.5132 26.1415 75.3882 26.1415C73.2671 26.1415 72.2449 24.0032 72.2449 19.6418C72.2449 17.5891 72.4585 16.1354 72.9375 15.0664C73.4125 13.9547 74.3746 13.2275 75.3625 13.2275Z" fill="#999B9E"/>
<path d="M86.4385 6.17285L82.1877 6.3867V7.32746H82.393C83.6504 7.32746 83.9241 7.75516 83.9241 9.76492V23.6626C83.9241 25.4585 83.8642 25.9291 83.6249 26.6987H84.6127C85.3565 25.4585 85.5404 25.2449 85.8399 25.2449C85.9853 25.2449 86.1305 25.2875 86.3446 25.5014C87.8153 26.6987 88.4439 26.9552 89.791 26.9552C93.0193 26.9552 95.3543 23.8335 95.3543 19.3863C95.3543 15.1956 93.1947 12.3733 89.9663 12.3733C88.2901 12.3733 87.0671 13.1858 86.4385 14.6396V6.17285ZM89.543 13.4423C91.4633 13.4423 92.4509 15.495 92.4509 19.5145C92.4509 23.7479 91.4331 25.9288 89.4874 25.9288C87.3322 25.9288 86.1987 23.705 86.1987 19.6428C86.1987 17.5901 86.4684 16.1792 87.097 15.11C87.6613 14.0839 88.6236 13.4423 89.543 13.4423Z" fill="#999B9E"/>
<path d="M100.891 12.458L96.5247 12.7145V13.6552H96.854C98.1067 13.6552 98.3764 14.0829 98.3764 16.05V23.2768C98.3764 25.2442 98.107 25.7146 96.854 25.7146H96.3792V26.6977H102.897V25.7146H102.426C101.165 25.7146 100.891 25.2866 100.891 23.2768L100.891 12.458Z" fill="#999B9E"/>
<path d="M108.465 6.17285L104.099 6.3867V7.32746H104.424C105.682 7.32746 105.951 7.75516 105.951 9.76492V23.2775C105.951 25.2875 105.682 25.7153 104.424 25.7153H103.95V26.6984H110.471V25.7153H109.992C108.73 25.7153 108.465 25.2873 108.465 23.2775V6.17285Z" fill="#999B9E"/>
<path d="M122.38 19.5992C122.234 15.0663 120.079 12.2441 116.821 12.2441C113.673 12.2441 111.403 15.3229 111.403 19.5992C111.403 24.1746 113.643 27.1254 117.116 27.1254C119.361 27.1254 120.917 25.9279 122.204 23.2766L121.307 22.8062C120.259 25.0298 119.211 25.9279 117.595 25.9279C115.23 25.9279 114.217 24.0466 114.186 19.5992H122.38ZM114.216 18.5299C114.242 15.3229 115.285 13.3131 116.966 13.3131C118.642 13.3131 119.63 15.2802 119.6 18.5299H114.216Z" fill="#999B9E"/>
<path d="M131.924 11.8955C132.177 11.8955 132.424 11.9603 132.665 12.0901C132.906 12.2199 133.093 12.4056 133.228 12.6471C133.362 12.8885 133.429 13.1403 133.429 13.4026C133.429 13.6622 133.363 13.9117 133.23 14.1511C133.098 14.3907 132.912 14.5767 132.674 14.7091C132.435 14.8415 132.185 14.9079 131.924 14.9079C131.663 14.9079 131.413 14.8418 131.174 14.7091C130.935 14.5767 130.749 14.391 130.616 14.1511C130.483 13.9117 130.416 13.6622 130.416 13.4026C130.416 13.1403 130.484 12.8885 130.619 12.6471C130.754 12.4056 130.942 12.2196 131.183 12.0901C131.425 11.9603 131.671 11.8955 131.924 11.8955ZM131.924 12.1463C131.713 12.1463 131.507 12.2004 131.307 12.3089C131.107 12.4174 130.95 12.5719 130.837 12.7733C130.724 12.9746 130.668 13.1846 130.668 13.4023C130.668 13.619 130.723 13.8267 130.835 14.0254C130.945 14.2242 131.101 14.379 131.3 14.4901C131.5 14.6012 131.708 14.6566 131.924 14.6566C132.141 14.6566 132.349 14.6012 132.548 14.4901C132.748 14.3792 132.902 14.2244 133.013 14.0254C133.123 13.8267 133.178 13.619 133.178 13.4023C133.178 13.1846 133.122 12.9746 133.01 12.7733C132.897 12.5721 132.741 12.4174 132.54 12.3089C132.34 12.2004 132.134 12.1463 131.924 12.1463ZM131.263 14.2335V12.6127H131.821C132.012 12.6127 132.15 12.6278 132.235 12.6577C132.321 12.6877 132.388 12.74 132.439 12.8146C132.49 12.889 132.515 12.9684 132.515 13.0522C132.515 13.1705 132.473 13.2738 132.388 13.3615C132.303 13.4492 132.191 13.4986 132.051 13.5093C132.108 13.5332 132.154 13.5618 132.188 13.5951C132.254 13.6589 132.334 13.766 132.428 13.9164L132.626 14.2338H132.305L132.161 13.9781C132.048 13.778 131.957 13.6526 131.889 13.6016C131.841 13.5639 131.771 13.5452 131.679 13.5452H131.525V14.2338L131.263 14.2335ZM131.525 13.3225H131.844C131.996 13.3225 132.1 13.2998 132.156 13.2543C132.211 13.2088 132.239 13.1487 132.239 13.0737C132.239 13.0256 132.225 12.9824 132.199 12.9444C132.172 12.9065 132.135 12.8778 132.087 12.8591C132.04 12.8404 131.952 12.8313 131.824 12.8313H131.525V13.3225Z" fill="#999B9E"/>
</svg>
