<svg width="125" height="17" viewBox="0 0 125 17" fill="none" xmlns="http://www.w3.org/2000/svg">
<g clip-path="url(#clip0_26_201)">
<mask id="mask0_26_201" style="mask-type:luminance" maskUnits="userSpaceOnUse" x="0" y="1" width="125" height="16">
<path d="M124.806 1.4502H0.934814V16.4502H124.806V1.4502Z" fill="white"/>
</mask>
<g mask="url(#mask0_26_201)">
<path d="M81.1604 15.8721H77.773V2.04785L88.6673 2.05682C88.6673 2.05682 90.6619 1.98242 91.9308 3.23598C91.9308 3.23598 93.2259 4.31747 93.2259 6.96084V15.87H89.8473V6.73057C89.8473 6.73057 89.8889 5.79836 89.5713 5.47122C89.5713 5.47122 89.2905 5.11588 88.7566 5.11588H81.1521L81.1592 15.8672L81.1604 15.8721ZM95.5803 15.8697V2.92686V2.05817H109.175V5.13033L98.947 5.12954V7.47832H106.052V10.4449H98.947V12.8016H109.238V15.8745H95.5723L95.5803 15.8697ZM71.8701 15.8697V2.92686V2.05817H75.2432V15.8745H71.8701V15.8697ZM114.03 15.8697V5.12636H110.846V2.0542H123.511V5.12636H117.406V15.8697H114.032H114.03ZM60.7296 15.8697V5.12636H57.5455V2.0542H70.2105V5.12636H64.1051V15.8697H60.732H60.7296ZM50.5579 7.46879C51.3821 7.46244 51.8753 7.46959 52.0738 7.34873C52.0738 7.34873 52.4201 7.15721 52.4241 6.74621L52.4249 5.84259C52.4249 5.42969 52.0746 5.24007 52.0746 5.24007C51.8116 5.09714 51.3659 5.12398 50.3078 5.12295H43.7363V7.46856H50.7088L50.5579 7.46879ZM52.3755 15.8697V11.1547C52.3755 10.7308 52.0212 10.5532 52.0212 10.5532C51.8614 10.454 51.3829 10.4361 50.6785 10.4361H50.8422H43.7363V15.869H40.3632V2.92606V2.05738H50.8922C52.7106 2.06294 53.966 2.33037 54.8307 3.16984C55.6803 4.03535 55.7931 5.16765 55.7978 6.34602V7.32984C55.8088 8.33113 55.2827 9.24428 54.6552 9.77629L54.7813 9.83886C55.0374 9.96289 55.1774 10.1386 55.1774 10.1386C55.6547 10.748 55.6489 11.2725 55.6478 11.9172V15.8724H52.3756L52.3755 15.8697ZM1.36609 2.05341V2.92289V15.8658H4.73919V10.4377H14.9585V7.46959H4.73919V5.12239H16.6181V2.05023H1.3645L1.36609 2.05341Z" fill="#231F20"/>
<path d="M122.37 13.4269V14.0612H122.961C123.121 14.0612 123.276 14.0176 123.299 13.7803C123.333 13.4657 123.106 13.4269 122.961 13.4269H122.37ZM122.133 13.2185H122.956C123.242 13.2185 123.518 13.2721 123.541 13.6879C123.551 13.9262 123.479 14.0126 123.299 14.1485C123.489 14.2696 123.494 14.2984 123.522 14.6179C123.541 14.8601 123.508 14.8989 123.61 15.0586H123.329L123.29 14.8264C123.251 14.608 123.358 14.2696 122.976 14.2696H122.37V15.0587H122.133V13.2185ZM122.752 12.7103C121.939 12.7103 121.276 13.3733 121.282 14.192C121.282 15.0051 121.94 15.6681 122.758 15.6642C123.572 15.6642 124.235 15.0051 124.235 14.1872C124.235 13.3733 123.571 12.7103 122.752 12.7103ZM122.758 15.8563C121.834 15.8563 121.087 15.1109 121.087 14.1872C121.083 13.2669 121.834 12.5166 122.758 12.5166C123.678 12.5166 124.429 13.2669 124.429 14.1872C124.429 15.1115 123.678 15.8531 122.758 15.8563Z" fill="#231F20"/>
<path d="M35.7244 16.0072C36.8202 15.6349 37.673 14.373 37.8778 12.7865V12.328H32.26V16.0076L35.7244 16.0072ZM37.8786 5.5814V5.16651C37.6633 3.51093 36.7471 2.20631 35.5791 1.89981H32.2608V5.581L37.8786 5.5814ZM18.1069 12.3284V12.7829C18.3104 14.371 19.163 15.6352 20.262 16.0076H23.7081V12.328L18.1069 12.3284ZM20.4057 1.90259C19.2392 2.20925 18.3205 3.5145 18.1069 5.17247V5.58442H23.7081V1.90323L20.4057 1.90259ZM37.8826 7.11629H32.2647V10.7974H37.8826V7.11629ZM25.2414 16.0095H30.737V12.3299H25.2414V16.0095ZM30.737 1.89941H25.2414V5.58061H30.737V1.89941ZM18.1117 10.7927H23.7129V7.11152H18.1117V10.7927Z" fill="#EE2E24"/>
</g>
</g>
<defs>
<clipPath id="clip0_26_201">
<rect width="124" height="16" fill="white" transform="translate(0.934814 0.521484)"/>
</clipPath>
</defs>
</svg>
