<svg width="316" height="219" viewBox="0 0 316 219" fill="none" xmlns="http://www.w3.org/2000/svg">
<g clip-path="url(#clip0_26_618)">
<g clip-path="url(#clip1_26_618)">
<g clip-path="url(#clip2_26_618)">
<path d="M104.27 125.834C104.27 113.994 113.867 104.396 125.707 104.396C137.546 104.396 147.144 113.994 147.144 125.834" stroke="white" stroke-width="0.456632" stroke-dasharray="1.83 1.83"/>
<g filter="url(#filter0_d_26_618)">
<path d="M46.8949 205.448C59.7585 205.448 70.1865 195.02 70.1865 182.157C70.1865 169.293 59.7585 158.865 46.8949 158.865C34.0313 158.865 23.6033 169.293 23.6033 182.157C23.6033 195.02 34.0313 205.448 46.8949 205.448Z" fill="white"/>
</g>
<mask id="mask0_26_618" style="mask-type:luminance" maskUnits="userSpaceOnUse" x="33" y="169" width="26" height="26">
<path d="M58.1095 169.217H33.0925V194.234H58.1095V169.217Z" fill="white"/>
</mask>
<g mask="url(#mask0_26_618)">
<path d="M55.8361 171.896H45.0797C45.0797 173.184 45.5913 174.419 46.5018 175.329C47.4125 176.24 48.6476 176.752 49.9353 176.752H51.9168V178.665C51.9185 181.344 54.09 183.516 56.7692 183.518V172.829C56.7692 172.314 56.3516 171.896 55.8361 171.896Z" fill="#2684FF"/>
<path d="M50.5138 177.256H39.7576C39.7592 179.935 41.9307 182.107 44.61 182.109H46.5914V184.028C46.5948 186.707 48.7678 188.877 51.4471 188.877V178.189C51.4471 177.674 51.0292 177.256 50.5138 177.256Z" fill="url(#paint0_linear_26_618)"/>
<path d="M45.1887 182.613H34.4323C34.4323 185.295 36.6063 187.468 39.2879 187.468H41.2755V189.381C41.2773 192.058 43.445 194.229 46.1218 194.234V183.546C46.1218 183.031 45.704 182.613 45.1887 182.613Z" fill="url(#paint1_linear_26_618)"/>
</g>
<g filter="url(#filter1_d_26_618)">
<path d="M281.669 153.042C294.533 153.042 304.961 142.614 304.961 129.751C304.961 116.887 294.533 106.459 281.669 106.459C268.806 106.459 258.378 116.887 258.378 129.751C258.378 142.614 268.806 153.042 281.669 153.042Z" fill="white"/>
</g>
<path fill-rule="evenodd" clip-rule="evenodd" d="M288.814 130.147C285.776 130.147 283.314 132.61 283.314 135.648C283.314 138.685 285.776 141.148 288.814 141.148C291.851 141.148 294.313 138.685 294.313 135.648C294.313 132.61 291.851 130.147 288.814 130.147ZM274.525 130.148C271.488 130.148 269.025 132.61 269.025 135.648C269.025 138.685 271.488 141.148 274.525 141.148C277.562 141.148 280.025 138.685 280.025 135.648C280.025 132.61 277.562 130.148 274.525 130.148ZM287.169 123.273C287.169 126.311 284.707 128.773 281.669 128.773C278.632 128.773 276.17 126.311 276.17 123.273C276.17 120.236 278.632 117.773 281.669 117.773C284.707 117.773 287.169 120.236 287.169 123.273Z" fill="#F06A6A"/>
<g filter="url(#filter2_d_26_618)">
<path d="M282.868 79.548C295.732 79.548 306.16 69.12 306.16 56.2564C306.16 43.3928 295.732 32.9648 282.868 32.9648C270.005 32.9648 259.577 43.3928 259.577 56.2564C259.577 69.12 270.005 79.548 282.868 79.548Z" fill="white"/>
</g>
<path d="M273.903 63.0751C273.349 63.0763 272.806 62.9307 272.328 62.6532C271.85 62.3756 271.454 61.976 271.18 61.4953C270.911 61.018 270.777 60.4764 270.792 59.9286C270.807 59.3808 270.971 58.8474 271.266 58.3855L276.873 49.5814C277.16 49.1082 277.567 48.7196 278.053 48.4554C278.54 48.1912 279.087 48.0608 279.64 48.0776C280.193 48.0909 280.732 48.2507 281.203 48.5408C281.673 48.8309 282.058 49.2408 282.319 49.7286C282.841 50.7169 282.776 51.9059 282.15 52.8336L276.547 61.6378C276.263 62.0806 275.872 62.4444 275.41 62.6958C274.947 62.947 274.429 63.0775 273.903 63.0751Z" fill="#F62B54"/>
<path d="M283.52 63.0748C282.389 63.0748 281.349 62.4702 280.802 61.4985C280.533 61.0225 280.4 60.4823 280.415 59.9359C280.43 59.3896 280.594 58.8576 280.888 58.3971L286.483 49.6131C286.766 49.1333 287.172 48.7379 287.659 48.4677C288.146 48.1977 288.697 48.0629 289.253 48.0772C290.394 48.1021 291.428 48.7401 291.95 49.7378C292.469 50.7356 292.393 51.9317 291.748 52.857L286.153 61.6411C285.87 62.0819 285.48 62.4444 285.02 62.695C284.56 62.9455 284.044 63.0762 283.52 63.0748Z" fill="#FFCC00"/>
<path d="M292.922 63.1477C294.516 63.1477 295.808 61.8826 295.808 60.3219C295.808 58.7612 294.516 57.4961 292.922 57.4961C291.328 57.4961 290.035 58.7612 290.035 60.3219C290.035 61.8826 291.328 63.1477 292.922 63.1477Z" fill="#00CA72"/>
<g filter="url(#filter3_d_26_618)">
<path d="M219.857 200.273C228.194 200.273 234.953 193.514 234.953 185.177C234.953 176.839 228.194 170.08 219.857 170.08C211.519 170.08 204.76 176.839 204.76 185.177C204.76 193.514 211.519 200.273 219.857 200.273Z" fill="white"/>
</g>
<path d="M226.156 177.35H213.557C212.713 177.35 212.028 178.034 212.028 178.878V191.476C212.028 192.321 212.713 193.005 213.557 193.005H226.156C227 193.005 227.685 192.321 227.685 191.476V178.878C227.685 178.034 227 177.35 226.156 177.35Z" fill="url(#paint2_linear_26_618)"/>
<path d="M224.915 179.385H221.609C221.203 179.385 220.874 179.714 220.874 180.119V185.501C220.874 185.906 221.203 186.234 221.609 186.234H224.915C225.321 186.234 225.649 185.906 225.649 185.501V180.119C225.649 179.714 225.321 179.385 224.915 179.385Z" fill="white"/>
<path d="M218.104 179.385H214.797C214.392 179.385 214.063 179.714 214.063 180.119V189.414C214.063 189.82 214.392 190.148 214.797 190.148H218.104C218.51 190.148 218.839 189.82 218.839 189.414V180.119C218.839 179.714 218.51 179.385 218.104 179.385Z" fill="white"/>
<g filter="url(#filter4_d_26_618)">
<path d="M130.142 200.273C138.479 200.273 145.238 193.514 145.238 185.177C145.238 176.839 138.479 170.08 130.142 170.08C121.804 170.08 115.045 176.839 115.045 185.177C115.045 193.514 121.804 200.273 130.142 200.273Z" fill="white"/>
</g>
<path d="M125.652 185.113C125.652 185.113 126.404 183.937 127.429 183.937C128.979 183.89 130.255 186.901 130.483 187.325C132.215 183.184 135.086 179.678 137.409 177.35H123.055C123.055 178.784 123.055 193.254 123.055 194.454C123.055 195.113 122.986 195.724 122.872 196.36C124.74 196.03 126.586 195.56 128.363 194.901C132.716 193.23 134.425 191.466 134.425 191.466L134.539 191.348L134.607 191.49C134.88 192.196 135.291 192.83 135.701 193.466C136.293 194.242 136.612 194.313 136.84 194.242C137.091 194.172 137.228 193.724 137.296 193.042C137.364 192.336 137.409 190.807 137.409 188.901V178.667C133.24 184.196 130.118 192.478 130.118 192.478C130.118 192.478 128.045 185.09 125.652 185.113Z" fill="#003059"/>
<g filter="url(#filter5_d_26_618)">
<path d="M126.814 54.4875C139.677 54.4875 150.105 44.0595 150.105 31.1959C150.105 18.3323 139.677 7.9043 126.814 7.9043C113.95 7.9043 103.522 18.3323 103.522 31.1959C103.522 44.0595 113.95 54.4875 126.814 54.4875Z" fill="white"/>
</g>
<path d="M125.815 20.2629L115.844 24.3885C115.29 24.6179 115.296 25.4056 115.854 25.6268L125.866 29.597C126.745 29.9459 127.725 29.9459 128.604 29.597L138.617 25.6266C139.175 25.4056 139.181 24.6181 138.626 24.3887L128.656 20.2628C127.746 19.8864 126.724 19.8864 125.814 20.2628" fill="#FCB400"/>
<path d="M128.124 31.7644V41.6829C128.124 42.1546 128.6 42.4777 129.038 42.3039L140.195 37.9735C140.319 37.9242 140.426 37.8387 140.501 37.7279C140.576 37.6172 140.616 37.4864 140.616 37.3525V27.4342C140.616 26.9625 140.14 26.6395 139.702 26.8133L128.545 31.1436C128.421 31.193 128.314 31.2786 128.239 31.3893C128.164 31.5 128.124 31.6306 128.124 31.7644Z" fill="#18BFFF"/>
<path d="M125.519 32.2772L122.208 33.8759L121.871 34.0384L114.882 37.3873C114.439 37.601 113.874 37.2782 113.874 36.7859V27.4768C113.874 27.2988 113.965 27.1451 114.087 27.0294C114.137 26.9794 114.195 26.9367 114.257 26.9024C114.423 26.8022 114.662 26.7755 114.864 26.8556L125.463 31.055C126.002 31.2687 126.044 32.0234 125.519 32.2772Z" fill="#F82B60"/>
<path d="M125.519 32.2772L122.207 33.8759L114.087 27.0293C114.138 26.9793 114.194 26.9366 114.256 26.9024C114.423 26.8022 114.662 26.7755 114.864 26.8556L125.463 31.055C126.002 31.2687 126.044 32.0234 125.519 32.2772Z" fill="black" fill-opacity="0.25"/>
<g filter="url(#filter6_d_26_618)">
<path d="M209.454 41.2417C217.791 41.2417 224.55 34.4828 224.55 26.1453C224.55 17.8077 217.791 11.0488 209.454 11.0488C201.116 11.0488 194.357 17.8077 194.357 26.1453C194.357 34.4828 201.116 41.2417 209.454 41.2417Z" fill="white"/>
</g>
<path fill-rule="evenodd" clip-rule="evenodd" d="M204.665 20.6445C205.167 21.0522 205.355 21.021 206.297 20.9582L215.179 20.4249C215.367 20.4249 215.211 20.2369 215.148 20.2057L213.673 19.1393C213.39 18.9198 213.014 18.6686 212.292 18.7314L203.691 19.3587C203.378 19.3898 203.315 19.5467 203.44 19.6723L204.665 20.6445ZM205.198 22.7145V32.0602C205.198 32.5625 205.449 32.7504 206.014 32.7193L215.776 32.1545C216.341 32.1234 216.404 31.7779 216.404 31.3699V22.0869C216.404 21.6796 216.247 21.46 215.902 21.4913L205.7 22.0869C205.324 22.1186 205.198 22.3069 205.198 22.7145ZM214.835 23.2159C214.897 23.4984 214.835 23.7807 214.552 23.8124L214.081 23.9061V30.8058C213.673 31.0252 213.297 31.1507 212.983 31.1507C212.48 31.1507 212.354 30.9937 211.978 30.5236L208.901 25.6939V30.3667L209.875 30.5864C209.875 30.5864 209.875 31.1507 209.09 31.1507L206.924 31.2763C206.861 31.1507 206.924 30.8374 207.144 30.7745L207.71 30.6179V24.4395L206.924 24.3766C206.862 24.0941 207.018 23.6867 207.458 23.6551L209.781 23.4985L212.983 28.3911V24.0629L212.166 23.9692C212.103 23.6238 212.354 23.3731 212.669 23.342L214.835 23.2159ZM202.969 18.5119L211.915 17.8532C213.014 17.759 213.297 17.8221 213.987 18.3236L216.843 20.3308C217.314 20.6759 217.471 20.7699 217.471 21.1462V32.1545C217.471 32.8443 217.219 33.2524 216.341 33.3148L205.952 33.9422C205.292 33.9736 204.978 33.8796 204.633 33.4402L202.53 30.7118C202.153 30.2095 201.996 29.8338 201.996 29.3942V19.6092C201.996 19.0451 202.248 18.5744 202.969 18.5119Z" fill="black"/>
<g filter="url(#filter7_d_26_618)">
<path d="M82.6951 139.888C91.0326 139.888 97.7915 133.129 97.7915 124.792C97.7915 116.454 91.0326 109.695 82.6951 109.695C74.3575 109.695 67.5986 116.454 67.5986 124.792C67.5986 133.129 74.3575 139.888 82.6951 139.888Z" fill="white"/>
</g>
<path d="M78.3798 116.125H87.5692C89.5078 116.125 91.0818 117.699 91.0818 119.637V128.828C91.0818 130.766 89.5078 132.34 87.5692 132.34H78.3798C76.4411 132.34 74.8672 130.766 74.8672 128.828V119.637C74.8672 117.699 76.4411 116.125 78.3798 116.125Z" fill="#FFD02F"/>
<path d="M86.1345 118.148H84.3542L85.837 120.754L82.5739 118.148H80.7935L82.4251 121.335L79.0132 118.148H77.2329L79.0132 122.203L77.2329 130.313H79.0132L82.4251 121.622L80.7935 130.313H82.5739L85.837 121.047L84.3542 130.313H86.1345L89.3976 120.174L86.1345 118.148Z" fill="#050038"/>
<g filter="url(#filter8_d_26_618)">
<path d="M33.0925 105.382C45.9561 105.382 56.3841 94.954 56.3841 82.0904C56.3841 69.2268 45.9561 58.7988 33.0925 58.7988C20.2289 58.7988 9.8009 69.2268 9.8009 82.0904C9.8009 94.954 20.2289 105.382 33.0925 105.382Z" fill="white"/>
</g>
<path d="M25.7644 80.1133C27.1008 80.1133 27.7307 80.3369 28.6986 81.2175L33.8909 85.942C34.0446 86.0818 34.0752 86.1377 34.106 86.2216C34.1214 86.2496 34.1214 86.2915 34.1214 86.3195C34.1214 86.3474 34.1214 86.3893 34.106 86.4173C34.0752 86.5012 34.0446 86.5571 33.8909 86.6968L30.3423 89.9397C30.1887 90.0795 30.1272 90.1074 30.0351 90.1354C30.0043 90.1494 29.9582 90.1494 29.9275 90.1494C29.8968 90.1494 29.8507 90.1494 29.82 90.1354C29.7278 90.1074 29.6664 90.0795 29.5128 89.9397L19.4505 80.7842C19.1586 80.5186 19.2662 80.1133 19.7578 80.1133H25.7644Z" fill="#08CF65"/>
<path d="M40.4202 74.3401C39.0838 74.3401 38.4539 74.5638 37.4861 75.4444L32.2936 80.169C32.14 80.3087 32.1094 80.3647 32.0786 80.4485C32.0632 80.4765 32.0632 80.5184 32.0632 80.5463C32.0632 80.5743 32.0632 80.6162 32.0786 80.6442C32.1094 80.7281 32.14 80.7839 32.2936 80.9238L35.8423 84.1526C35.9959 84.2924 36.0574 84.3204 36.1495 84.3483C36.1803 84.3623 36.2263 84.3623 36.2571 84.3623C36.2878 84.3623 36.3339 84.3623 36.3646 84.3483C36.4569 84.3204 36.5182 84.2924 36.6718 84.1526L46.7342 74.9971C47.026 74.7316 46.9185 74.3262 46.4268 74.3262H40.4202V74.3401Z" fill="#08CF65"/>
<g filter="url(#filter9_d_26_618)">
<path d="M168.097 153.69C192.156 153.69 211.661 134.186 211.661 110.126C211.661 86.0667 192.156 66.5625 168.097 66.5625C144.037 66.5625 124.533 86.0667 124.533 110.126C124.533 134.186 144.037 153.69 168.097 153.69Z" fill="white"/>
</g>
<path d="M145.069 123.808L153.622 117.217C158.166 123.182 162.993 125.932 168.367 125.932C173.712 125.932 178.403 123.215 182.743 117.296L191.417 123.728C185.157 132.263 177.376 136.772 168.367 136.772C159.387 136.772 151.531 132.291 145.069 123.808Z" fill="url(#paint3_linear_26_618)"/>
<path d="M168.34 95.1697L153.117 108.365L146.08 100.156L168.372 80.832L190.488 100.17L183.419 108.351L168.34 95.1697Z" fill="url(#paint4_linear_26_618)"/>
<path fill-rule="evenodd" clip-rule="evenodd" d="M126.684 0.546876C126.38 0.547016 126.076 0.551622 125.773 0.560628L125.78 0.788843L125.793 1.24527L125.8 1.47349C126.096 1.46468 126.394 1.46021 126.691 1.46014C126.99 1.46021 127.287 1.46468 127.584 1.47349L127.59 1.24527L127.604 0.788843L127.61 0.560628C127.308 0.551622 127.004 0.547016 126.699 0.546876C126.694 0.546874 126.689 0.546876 126.684 0.546876ZM123.929 0.67062C123.312 0.725982 122.7 0.79965 122.095 0.891081L122.129 1.11684L122.197 1.56836L122.231 1.79412C122.818 1.70541 123.412 1.63394 124.01 1.58022L123.99 1.35282L123.949 0.898022L123.929 0.67062ZM120.276 1.22235C119.67 1.35169 119.072 1.49892 118.48 1.66349L118.541 1.88345L118.664 2.32337L118.725 2.54333C119.298 2.38372 119.879 2.24091 120.466 2.11546L120.419 1.89219L120.323 1.44564L120.276 1.22235ZM116.715 2.21291C116.131 2.41448 115.555 2.63323 114.988 2.86857L115.075 3.07947L115.25 3.50127L115.338 3.71217C115.887 3.4839 116.446 3.27173 117.013 3.07623L116.939 2.8604L116.79 2.42875L116.715 2.21291ZM113.303 3.6281C112.748 3.89884 112.201 4.18587 111.666 4.48858L111.779 4.68734L112.003 5.08486L112.116 5.28363C112.635 4.98998 113.164 4.71154 113.703 4.44891L113.602 4.24371L113.402 3.83331L113.303 3.6281ZM110.085 5.44623C109.568 5.78161 109.061 6.13219 108.566 6.49736L108.701 6.68116L108.972 7.04874L109.107 7.23253C109.588 6.87822 110.08 6.53808 110.582 6.2127L110.458 6.02108L110.21 5.63784L110.085 5.44623ZM107.111 7.6381C106.638 8.03298 106.177 8.44187 105.728 8.86416L105.885 9.03038L106.198 9.36279L106.355 9.52901C106.789 9.11927 107.237 8.72251 107.696 8.33936L107.55 8.16405L107.258 7.81342L107.111 7.6381ZM104.421 10.1709C103.999 10.6194 103.59 11.0805 103.196 11.5539L103.371 11.7001L103.722 11.9927L103.897 12.1389C104.28 11.6796 104.677 11.2321 105.086 10.7971L104.92 10.6405L104.588 10.3275L104.421 10.1709ZM102.055 13.0079C101.69 13.5034 101.339 14.0103 101.004 14.5279L101.196 14.652L101.578 14.9004L101.77 15.0245C102.095 14.5223 102.436 14.0305 102.79 13.5497L102.606 13.4143L102.239 13.1434L102.055 13.0079ZM100.046 16.1088C99.7436 16.6443 99.4559 17.1899 99.1856 17.7449L99.3911 17.845L99.8011 18.0452L100.007 18.1453C100.269 17.6069 100.547 17.0777 100.841 16.5581L100.642 16.4458L100.245 16.2211L100.046 16.1088ZM98.4258 19.43C98.1911 19.9975 97.9719 20.5736 97.77 21.1578L97.9865 21.2322L98.4175 21.3812L98.634 21.4557C98.8294 20.8891 99.0413 20.3303 99.2696 19.7797L99.0587 19.6923L98.6367 19.5174L98.4258 19.43ZM97.2212 22.9226C97.0568 23.5141 96.9088 24.1127 96.7801 24.718L97.0029 24.7658L97.4495 24.8611L97.6732 24.9089C97.7983 24.3218 97.9408 23.741 98.1006 23.1674L97.8805 23.1062L97.4413 22.9838L97.2212 22.9226ZM96.4485 26.5372C96.3572 27.1428 96.2832 27.7544 96.2284 28.3711L96.4558 28.3916L96.9107 28.4324L97.1381 28.4527C97.191 27.8543 97.2632 27.261 97.3518 26.6734L97.1262 26.6394L96.6741 26.5712L96.4485 26.5372ZM96.1179 30.2152C96.1088 30.5227 96.1042 30.8314 96.1042 31.1412C96.1042 31.451 96.1088 31.7597 96.1179 32.0673L96.3463 32.0605L96.8029 32.0469L97.0312 32.0401C97.0221 31.7416 97.0175 31.4419 97.0175 31.1412C97.0175 30.8405 97.0221 30.5408 97.0312 30.2423L96.8029 30.2355L96.3463 30.2219L96.1179 30.2152ZM96.2284 33.9113C96.2832 34.528 96.3572 35.1396 96.4485 35.7452L96.6741 35.7112L97.1262 35.643L97.3518 35.609C97.2632 35.0214 97.191 34.4281 97.1381 33.8297L96.9107 33.8501L96.4558 33.8909L96.2284 33.9113ZM96.7801 37.5644C96.9088 38.1697 97.0568 38.7683 97.2212 39.3598L97.4413 39.2987L97.8805 39.1762L98.1006 39.115C97.9408 38.5414 97.7983 37.9606 97.6732 37.3735L97.4495 37.4213L97.0029 37.5166L96.7801 37.5644ZM97.77 41.1246C97.9719 41.7088 98.1911 42.2849 98.4258 42.8524L98.6367 42.765L99.0587 42.5901L99.2696 42.5027C99.0413 41.9521 98.8294 41.3933 98.634 40.8267L98.4175 40.9013L97.9865 41.0502L97.77 41.1246ZM99.1856 44.5375C99.4559 45.0925 99.7436 45.6381 100.046 46.1736L100.245 46.0613L100.642 45.8366L100.841 45.7243C100.547 45.2047 100.269 44.6755 100.007 44.1371L99.8011 44.2372L99.3911 44.4374L99.1856 44.5375ZM101.004 47.7545C101.339 48.2721 101.69 48.779 102.055 49.2745L102.239 49.139L102.606 48.8681L102.79 48.7327C102.436 48.2519 102.095 47.7601 101.77 47.2579L101.578 47.382L101.196 47.6304L101.004 47.7545ZM103.196 50.7285C103.59 51.2019 103.999 51.6631 104.421 52.1115L104.588 51.9549L104.92 51.6419L105.086 51.4853C104.677 51.0503 104.28 50.6028 103.897 50.1435L103.722 50.2897L103.371 50.5823L103.196 50.7285ZM105.728 53.4183C106.177 53.8406 106.638 54.2494 107.111 54.6443L107.258 54.469L107.55 54.1184L107.696 53.943C107.237 53.5599 106.789 53.1631 106.355 52.7534L106.198 52.9196L105.885 53.252L105.728 53.4183ZM108.566 55.7851C109.061 56.1502 109.568 56.5008 110.085 56.8361L110.21 56.6445L110.458 56.2613L110.582 56.0697C110.08 55.7443 109.588 55.4042 109.107 55.0499L108.972 55.2336L108.701 55.6012L108.566 55.7851ZM111.666 57.7938C112.201 58.0965 112.748 58.3836 113.303 58.6543L113.402 58.4491L113.602 58.0387L113.703 57.8335C113.164 57.5709 112.635 57.2924 112.116 56.9988L112.003 57.1975L111.779 57.5951L111.666 57.7938ZM114.988 59.4138C115.555 59.6492 116.131 59.8679 116.715 60.0695L116.79 59.8537L116.939 59.4221L117.013 59.2062C116.446 59.0107 115.887 58.7985 115.338 58.5703L115.25 58.7811L115.075 59.203L114.988 59.4138ZM118.48 60.6189C119.072 60.7835 119.67 60.9308 120.276 61.0601L120.323 60.8368L120.419 60.3902L120.466 60.1669C119.879 60.0415 119.298 59.8987 118.725 59.7391L118.664 59.9591L118.541 60.399L118.48 60.6189ZM122.095 61.3913C122.7 61.4827 123.312 61.5564 123.929 61.6118L123.949 61.3844L123.99 60.9296L124.01 60.7022C123.412 60.6485 122.818 60.577 122.231 60.4883L122.197 60.714L122.129 61.1656L122.095 61.3913ZM125.773 61.7217C126.08 61.731 126.389 61.7355 126.699 61.7355V61.5072V61.0506V60.8223C126.398 60.8223 126.099 60.8178 125.8 60.8089L125.793 61.0372L125.78 61.4936L125.773 61.7217ZM131.153 1.79412C130.564 1.70541 129.972 1.63394 129.373 1.58022L129.394 1.35282L129.434 0.898022L129.455 0.67062C130.071 0.725982 130.683 0.79965 131.289 0.891081L131.255 1.11684L131.186 1.56836L131.153 1.79412ZM134.659 2.54333C134.084 2.38372 133.504 2.24091 132.917 2.11546L132.964 1.89219L133.059 1.44564L133.108 1.22235C133.712 1.35169 134.312 1.49892 134.903 1.66349L134.842 1.88345L134.72 2.32337L134.659 2.54333ZM138.046 3.71217C137.495 3.4839 136.936 3.27173 136.37 3.07623L136.444 2.8604L136.594 2.42875L136.668 2.21291C137.252 2.41448 137.829 2.63323 138.396 2.86856L138.308 3.07947L138.134 3.50127L138.046 3.71217ZM141.268 5.28363C140.748 4.98998 140.219 4.71154 139.681 4.44891L139.78 4.24371L139.98 3.83331L140.081 3.6281C140.636 3.89884 141.181 4.18587 141.717 4.48858L141.605 4.68734L141.38 5.08486L141.268 5.28363ZM144.276 7.23252C143.795 6.87822 143.304 6.53808 142.801 6.2127L142.925 6.02108L143.174 5.63784L143.298 5.44623C143.815 5.7816 144.322 6.13219 144.818 6.49736L144.683 6.68115L144.411 7.04874L144.276 7.23252ZM147.029 9.52901C146.593 9.11927 146.146 8.72251 145.686 8.33936L145.833 8.16405L146.126 7.81342L146.272 7.6381C146.745 8.03298 147.206 8.44187 147.654 8.86416L147.498 9.03037L147.185 9.36279L147.029 9.52901ZM149.486 12.1389C149.103 11.6796 148.706 11.2321 148.296 10.7971L148.463 10.6405L148.795 10.3275L148.961 10.1709C149.384 10.6194 149.792 11.0805 150.188 11.5539L150.012 11.7001L149.662 11.9927L149.486 12.1389ZM151.613 15.0245C151.287 14.5223 150.948 14.0305 150.593 13.5497L150.777 13.4143L151.145 13.1434L151.328 13.0079C151.694 13.5034 152.044 14.0103 152.38 14.5279L152.188 14.652L151.804 14.9004L151.613 15.0245ZM153.377 18.1453C153.114 17.6069 152.835 17.0777 152.542 16.5581L152.74 16.4458L153.138 16.2211L153.337 16.1088C153.64 16.6443 153.927 17.1899 154.198 17.7449L153.992 17.845L153.582 18.0452L153.377 18.1453ZM154.749 21.4557C154.554 20.8891 154.342 20.3303 154.114 19.7797L154.324 19.6923L154.746 19.5174L154.957 19.43C155.192 19.9975 155.412 20.5736 155.613 21.1578L155.397 21.2322L154.965 21.3812L154.749 21.4557ZM155.71 24.9089C155.585 24.3218 155.442 23.741 155.282 23.1674L155.502 23.1062L155.942 22.9838L156.162 22.9226C156.327 23.5141 156.474 24.1127 156.603 24.718L156.38 24.7658L155.933 24.8611L155.71 24.9089ZM156.245 28.4527C156.192 27.8543 156.12 27.261 156.032 26.6734L156.257 26.6394L156.708 26.5712L156.935 26.5372C157.026 27.1428 157.099 27.7544 157.155 28.3711L156.928 28.3915L156.473 28.4324L156.245 28.4527ZM156.365 31.1412C156.365 30.8405 156.361 30.5408 156.352 30.2423L156.581 30.2355L157.037 30.2219L157.265 30.2152C157.274 30.5227 157.278 30.8314 157.278 31.1412H157.05H156.593H156.365Z" fill="url(#paint5_linear_26_618)"/>
<path fill-rule="evenodd" clip-rule="evenodd" d="M17.1208 182.301C17.112 182.6 17.1075 182.899 17.1075 183.2C17.1075 183.5 17.112 183.8 17.1208 184.098L16.8926 184.106L16.4361 184.119L16.208 184.126C16.1988 183.818 16.1942 183.509 16.1942 183.2C16.1942 182.89 16.1988 182.582 16.2079 182.274L16.4361 182.28L16.8926 182.294L17.1208 182.301ZM17.4415 178.732C17.3528 179.319 17.2813 179.913 17.2276 180.511L17.0002 180.491L16.5454 180.45L16.318 180.43C16.3733 179.812 16.447 179.202 16.5384 178.596L16.7642 178.63L17.2157 178.698L17.4415 178.732ZM18.1907 175.226C18.0311 175.8 17.8882 176.38 17.7627 176.968L17.5395 176.92L17.093 176.824L16.8697 176.777C16.999 176.171 17.1463 175.572 17.3109 174.981L17.5308 175.043L17.9707 175.165L18.1907 175.226ZM19.3595 171.839C19.1313 172.389 18.919 172.948 18.7236 173.515L18.5077 173.44L18.0761 173.291L17.8603 173.216C18.0618 172.632 18.2806 172.056 18.5159 171.488L18.7268 171.576L19.1486 171.751L19.3595 171.839ZM20.9309 168.617C20.6373 169.136 20.3589 169.665 20.0962 170.204L19.891 170.104L19.4806 169.904L19.2755 169.803C19.5462 169.249 19.8332 168.703 20.1359 168.167L20.3347 168.28L20.7322 168.504L20.9309 168.617ZM22.8799 165.609C22.5255 166.089 22.1854 166.581 21.86 167.083L21.6684 166.959L21.2852 166.711L21.0936 166.587C21.4289 166.069 21.7796 165.562 22.1447 165.067L22.3285 165.202L22.6961 165.473L22.8799 165.609ZM25.1763 162.856C24.7666 163.291 24.3698 163.738 23.9867 164.198L23.8114 164.051L23.4608 163.759L23.2854 163.612C23.6803 163.139 24.0892 162.678 24.5115 162.229L24.6777 162.387L25.0101 162.699L25.1763 162.856ZM27.7863 160.398C27.327 160.781 26.8795 161.178 26.4444 161.587L26.2879 161.421L25.9748 161.089L25.8183 160.923C26.2667 160.501 26.7279 160.091 27.2012 159.697L27.3474 159.872L27.64 160.223L27.7863 160.398ZM30.6718 158.271C30.1696 158.596 29.6778 158.937 29.1971 159.291L29.0616 159.107L28.7908 158.74L28.6552 158.556C29.1508 158.191 29.6576 157.84 30.1753 157.505L30.2994 157.696L30.5477 158.08L30.6718 158.271ZM33.7926 156.508C33.2543 156.77 32.725 157.048 32.2055 157.343L32.0931 157.143L31.8685 156.746L31.756 156.547C32.2917 156.245 32.8373 155.957 33.3922 155.687L33.4923 155.892L33.6925 156.302L33.7926 156.508ZM37.1029 155.135C36.5363 155.331 35.9776 155.543 35.4271 155.771L35.3397 155.56L35.1647 155.138L35.0773 154.927C35.6448 154.692 36.2209 154.473 36.8051 154.271L36.8795 154.488L37.0285 154.919L37.1029 155.135ZM40.5563 154.174C39.9691 154.3 39.3884 154.442 38.8147 154.602L38.7535 154.382L38.6311 153.942L38.5699 153.722C39.1614 153.557 39.7601 153.41 40.3654 153.281L40.413 153.504L40.5085 153.951L40.5563 154.174ZM44.1001 153.638C43.5016 153.692 42.9084 153.764 42.3208 153.853L42.2867 153.626L42.2186 153.175L42.1844 152.95C42.7902 152.858 43.4017 152.784 44.0184 152.729L44.0388 152.956L44.0796 153.411L44.1001 153.638ZM46.7885 153.519C46.4878 153.519 46.1882 153.523 45.8896 153.532L45.8829 153.304L45.8693 152.847L45.8625 152.619C46.1701 152.61 46.4788 152.605 46.7885 152.605V152.834V153.29V153.519ZM16.318 185.97C16.3733 186.587 16.447 187.198 16.5384 187.804L16.7642 187.77L17.2157 187.701L17.4415 187.667C17.3528 187.08 17.2813 186.487 17.2276 185.888L17.0002 185.909L16.5454 185.95L16.318 185.97ZM16.8697 189.623C16.999 190.228 17.1463 190.827 17.3109 191.418L17.5308 191.357L17.9707 191.235L18.1907 191.174C18.0311 190.6 17.8882 190.019 17.7628 189.432L17.5395 189.479L17.093 189.575L16.8697 189.623ZM17.8603 193.184C18.0618 193.767 18.2806 194.343 18.5159 194.911L18.7268 194.824L19.1486 194.648L19.3595 194.561C19.1313 194.011 18.919 193.452 18.7236 192.885L18.5077 192.96L18.0761 193.109L17.8603 193.184ZM19.2755 196.596C19.5462 197.151 19.8332 197.697 20.136 198.232L20.3347 198.12L20.7322 197.895L20.9309 197.783C20.6373 197.263 20.3589 196.734 20.0962 196.196L19.891 196.296L19.4807 196.496L19.2755 196.596ZM21.0936 199.813C21.4289 200.331 21.7796 200.838 22.1447 201.333L22.3285 201.197L22.6961 200.926L22.8799 200.791C22.5256 200.311 22.1854 199.818 21.86 199.316L21.6684 199.44L21.2852 199.689L21.0936 199.813ZM23.2854 202.787C23.6803 203.261 24.0892 203.722 24.5115 204.17L24.6777 204.013L25.0101 203.701L25.1763 203.544C24.7666 203.109 24.3698 202.661 23.9867 202.202L23.8114 202.348L23.4608 202.64L23.2854 202.787ZM25.8183 205.477C26.2667 205.899 26.7279 206.308 27.2012 206.703L27.3474 206.527L27.64 206.177L27.7863 206.001C27.327 205.619 26.8795 205.221 26.4444 204.812L26.2879 204.978L25.9748 205.311L25.8183 205.477ZM28.6552 207.843C29.1508 208.209 29.6576 208.559 30.1753 208.894L30.2994 208.704L30.5477 208.32L30.6718 208.128C30.1696 207.803 29.6778 207.462 29.1971 207.108L29.0616 207.293L28.7908 207.66L28.6552 207.843ZM31.7561 209.852C32.2917 210.155 32.8373 210.442 33.3922 210.713L33.4923 210.507L33.6925 210.097L33.7926 209.892C33.2543 209.63 32.725 209.351 32.2055 209.057L32.0931 209.256L31.8685 209.653L31.7561 209.852ZM35.0773 211.473C35.6448 211.707 36.2209 211.926 36.8051 212.128L36.8795 211.912L37.0285 211.481L37.1029 211.264C36.5364 211.069 35.9776 210.857 35.4271 210.629L35.3397 210.84L35.1647 211.262L35.0773 211.473ZM38.5699 212.677C39.1614 212.843 39.7601 212.99 40.3654 213.118L40.4131 212.895L40.5085 212.449L40.5563 212.225C39.9691 212.1 39.3884 211.958 38.8147 211.798L38.7536 212.018L38.6311 212.457L38.5699 212.677ZM42.1845 213.45C42.7902 213.541 43.4017 213.615 44.0184 213.671L44.0388 213.443L44.0796 212.989L44.1001 212.761C43.5016 212.707 42.9084 212.635 42.3208 212.547L42.2867 212.773L42.2186 213.224L42.1845 213.45ZM45.8625 213.78C46.1701 213.79 46.4788 213.794 46.7885 213.794C47.0983 213.794 47.407 213.79 47.7146 213.78L47.7078 213.552L47.6942 213.095L47.6875 212.867C47.3889 212.876 47.0893 212.881 46.7885 212.881C46.4878 212.881 46.1882 212.876 45.8896 212.867L45.8829 213.095L45.8693 213.552L45.8625 213.78ZM49.5587 213.671C50.1754 213.615 50.7869 213.541 51.3926 213.45L51.3585 213.224L51.2904 212.773L51.2563 212.547C50.6687 212.635 50.0755 212.707 49.477 212.761L49.4974 212.989L49.5383 213.443L49.5587 213.671ZM53.2117 213.118C53.817 212.99 54.4157 212.843 55.0072 212.677L54.946 212.457L54.8235 212.018L54.7623 211.798C54.1887 211.958 53.608 212.1 53.0208 212.225L53.0686 212.449L53.1639 212.895L53.2117 213.118ZM56.772 212.128C57.3562 211.926 57.9323 211.707 58.4998 211.473L58.4124 211.262L58.2374 210.84L58.15 210.629C57.5995 210.857 57.0407 211.069 56.4741 211.264L56.5486 211.481L56.6975 211.912L56.772 212.128ZM60.1848 210.713C60.7398 210.442 61.2854 210.155 61.821 209.852L61.7086 209.653L61.484 209.256L61.3716 209.057C60.8521 209.351 60.3228 209.63 59.7845 209.892L59.8846 210.097L60.0848 210.507L60.1848 210.713ZM63.4018 208.894C63.9195 208.559 64.4263 208.209 64.9218 207.843L64.7863 207.66L64.5154 207.293L64.38 207.108C63.8993 207.462 63.4075 207.803 62.9053 208.128L63.0294 208.32L63.2777 208.704L63.4018 208.894ZM66.3759 206.703C66.8492 206.308 67.3104 205.899 67.7588 205.477L67.6023 205.311L67.2892 204.978L67.1327 204.812C66.6976 205.221 66.2501 205.619 65.7908 206.001L65.937 206.177L66.2296 206.527L66.3759 206.703ZM69.0656 204.17C69.4879 203.722 69.8968 203.261 70.2917 202.787L70.1163 202.64L69.7657 202.348L69.5904 202.202C69.2072 202.661 68.8104 203.109 68.4007 203.544L68.567 203.701L68.8994 204.013L69.0656 204.17ZM71.4324 201.333C71.7975 200.838 72.1481 200.331 72.4835 199.813L72.2919 199.689L71.9087 199.44L71.7171 199.316C71.3917 199.818 71.0515 200.311 70.6972 200.791L70.881 200.926L71.2486 201.197L71.4324 201.333ZM73.4411 198.232C73.7439 197.697 74.0309 197.151 74.3016 196.596L74.0964 196.496L73.6861 196.296L73.4809 196.196C73.2182 196.734 72.9398 197.263 72.6461 197.783L72.8449 197.895L73.2424 198.12L73.4411 198.232ZM75.0612 194.911C75.2965 194.343 75.5153 193.767 75.7168 193.184L75.501 193.109L75.0693 192.96L74.8535 192.885C74.658 193.452 74.4458 194.011 74.2176 194.561L74.4285 194.648L74.8503 194.824L75.0612 194.911ZM76.2662 191.418C76.4308 190.827 76.578 190.228 76.7074 189.623L76.4841 189.575L76.0375 189.479L75.8143 189.432C75.6889 190.019 75.546 190.6 75.3864 191.174L75.6064 191.235L76.0463 191.357L76.2662 191.418ZM77.0387 187.804C77.1301 187.198 77.2038 186.587 77.2591 185.97L77.0317 185.95L76.5769 185.909L76.3495 185.888C76.2958 186.487 76.2243 187.08 76.1356 187.667L76.3614 187.701L76.8129 187.77L77.0387 187.804ZM77.3691 184.126C77.3783 183.818 77.3829 183.509 77.3829 183.2H77.1546H76.6979H76.4696C76.4696 183.5 76.4651 183.8 76.4563 184.098L76.6845 184.106L77.1409 184.119L77.3691 184.126Z" fill="url(#paint6_linear_26_618)"/>
<path d="M76.9258 183.198C76.9258 166.554 90.4189 153.061 107.063 153.061" stroke="white" stroke-width="0.456632" stroke-dasharray="1.83 1.83"/>
<path d="M137.201 122.924C137.201 139.568 123.708 153.062 107.063 153.062" stroke="white" stroke-width="0.456632" stroke-dasharray="1.83 1.83"/>
<path fill-rule="evenodd" clip-rule="evenodd" d="M7.06745 65.4987C7.05803 65.5134 7.04861 65.528 7.03922 65.5426L7.23132 65.666L7.6155 65.9128L7.8076 66.0362C7.96902 65.7849 8.13472 65.5352 8.3047 65.2871L8.23862 65.2418C8.2493 65.2259 8.26 65.21 8.2707 65.194L8.08118 65.0667L7.70215 64.8121L7.51263 64.6847C7.34103 64.9401 7.17267 65.1989 7.00764 65.4611L7.06745 65.4987ZM10.4433 62.3445C10.0552 62.7946 9.67864 63.2586 9.31439 63.7364L9.13281 63.598L8.76967 63.3212L8.5881 63.1827C8.96351 62.6903 9.35163 62.212 9.75169 61.7481L9.92459 61.8972L10.2704 62.1955L10.4433 62.3445ZM12.9452 59.7766C12.5044 60.1771 12.0742 60.5924 11.6553 61.0225L11.4917 60.8631L11.1647 60.5445L11.0011 60.3851C11.433 59.9418 11.8766 59.5136 12.3309 59.1007L12.4845 59.2696L12.7916 59.6076L12.9452 59.7766ZM15.739 57.5323C15.2525 57.8766 14.7753 58.2365 14.3081 58.6118L14.165 58.4338L13.8791 58.0778L13.7361 57.8998C14.2179 57.5129 14.71 57.1418 15.2115 56.7869L15.3433 56.9732L15.6071 57.346L15.739 57.5323ZM18.7851 55.6432C18.2599 55.9264 17.7423 56.2259 17.2332 56.5416L17.1129 56.3477L16.8722 55.9595L16.7519 55.7655C17.2767 55.4401 17.8102 55.1313 18.3517 54.8393L18.4601 55.0402L18.6768 55.4422L18.7851 55.6432ZM22.0372 54.1355C21.4812 54.3535 20.9314 54.5885 20.3885 54.8402L20.2924 54.6331L20.1003 54.2187L20.0043 54.0116C20.5639 53.7523 21.1307 53.5101 21.7037 53.2853L21.787 53.4978L21.9538 53.9229L22.0372 54.1355ZM25.4471 53.0293C24.8686 53.1793 24.2944 53.3466 23.7254 53.5312L23.655 53.314L23.5141 52.8796L23.4437 52.6625C24.03 52.4722 24.6217 52.2998 25.218 52.1453L25.2752 52.3663L25.3899 52.8083L25.4471 53.0293ZM28.9651 52.3398C28.3724 52.4193 27.7822 52.5168 27.1958 52.6317L27.1518 52.4077L27.064 51.9595L27.02 51.7355C27.6245 51.617 28.2327 51.5167 28.8436 51.4347L28.874 51.661L28.9348 52.1135L28.9651 52.3398ZM32.5401 52.0772C31.9417 52.0851 31.3443 52.1109 30.7487 52.1547L30.732 51.927L30.6986 51.4716L30.6819 51.2439C31.2957 51.1988 31.9114 51.1721 32.5282 51.1641L32.5311 51.3924L32.5371 51.849L32.5401 52.0772ZM36.1208 52.2472C35.5253 52.1826 34.929 52.1363 34.3329 52.108L34.3437 51.88L34.3653 51.4239L34.3762 51.1958C34.9906 51.2249 35.6053 51.2727 36.2193 51.3392L36.1946 51.5663L36.1454 52.0202L36.1208 52.2472ZM39.6536 52.849C39.0699 52.7126 38.484 52.5945 37.8965 52.4944L37.9348 52.2694L38.0115 51.8192L38.0499 51.5941C38.6555 51.6973 39.2596 51.8191 39.8613 51.9597L39.8094 52.1821L39.7055 52.6267L39.6536 52.849ZM43.0878 53.8756C42.5241 53.669 41.9566 53.4805 41.386 53.31L41.4514 53.0912L41.5822 52.6537L41.6476 52.435C42.2358 52.6108 42.821 52.8051 43.4021 53.0181L43.3235 53.2325L43.1664 53.6612L43.0878 53.8756ZM46.372 55.3106C45.837 55.0372 45.2968 54.7817 44.7523 54.5437L44.8437 54.3345L45.0266 53.9161L45.118 53.7069C45.6793 53.9522 46.2361 54.2156 46.7875 54.4973L46.6836 54.7006L46.4759 55.1073L46.372 55.3106ZM48.7112 56.6412C48.4567 56.481 48.2007 56.3251 47.9434 56.1736L48.0592 55.9769L48.2909 55.5833L48.4067 55.3866C48.6719 55.5427 48.9356 55.7033 49.1977 55.8683L49.0761 56.0615L48.8329 56.4479L48.7112 56.6412ZM6.0876 67.126C5.78466 67.666 5.49978 68.2121 5.23282 68.7635L5.43832 68.8629L5.8493 69.0619L6.05481 69.1615C6.31377 68.6266 6.59016 68.0968 6.88411 67.5728L6.68498 67.4611L6.28673 67.2377L6.0876 67.126ZM4.47786 70.4513C4.24241 71.0237 4.02546 71.6008 3.82688 72.1817L4.04292 72.2556L4.47501 72.4033L4.69105 72.4772C4.88365 71.9137 5.09408 71.3539 5.32247 70.7987L5.11132 70.7118L4.68902 70.5381L4.47786 70.4513ZM3.28254 73.9482C3.11862 74.544 2.97341 75.1429 2.84676 75.7441L3.07017 75.7911L3.51699 75.8853L3.7404 75.9323C3.86326 75.3492 4.00409 74.7684 4.16308 74.1905L3.94295 74.1299L3.50267 74.0087L3.28254 73.9482ZM2.52085 77.5634C2.43046 78.1743 2.35885 78.7866 2.30583 79.3995L2.5333 79.4192L2.98823 79.4585L3.2157 79.4782C3.26713 78.8836 3.3366 78.2896 3.42428 77.6971L3.19843 77.6637L2.74671 77.5968L2.52085 77.5634ZM2.20227 81.2449C2.18631 81.8615 2.18901 82.4778 2.21018 83.0929L2.43836 83.085L2.89473 83.0693L3.12291 83.0614C3.10236 82.4646 3.09975 81.8667 3.11522 81.2685L2.88699 81.2626L2.4305 81.2508L2.20227 81.2449ZM2.3293 84.9372C2.3875 85.5508 2.46413 86.1624 2.559 86.771L2.78459 86.7359L3.23577 86.6655L3.46137 86.6304C3.3693 86.0398 3.29496 85.4463 3.23848 84.851L3.01119 84.8725L2.55659 84.9156L2.3293 84.9372ZM2.89833 88.5877C3.02956 89.1895 3.17887 89.7875 3.34611 90.3808L3.56586 90.3189L4.00537 90.1949L4.22512 90.133C4.06285 89.5573 3.91796 88.9771 3.79063 88.3932L3.56756 88.4418L3.1214 88.539L2.89833 88.5877ZM3.90079 92.144C4.1031 92.7249 4.32306 93.3011 4.56051 93.8701L4.77123 93.7824L5.19267 93.6062L5.40339 93.5185C5.17301 92.966 4.9596 92.408 4.76331 91.8436L4.54768 91.9185L4.11642 92.0682L3.90079 92.144ZM5.32324 95.5532C5.59394 96.1058 5.88176 96.651 6.18657 97.188L6.38513 97.0757L6.78227 96.8501L6.98083 96.7377C6.68516 96.2163 6.40595 95.6875 6.14335 95.1514L5.93832 95.2519L5.52827 95.4528L5.32324 95.5532ZM7.14726 98.767C7.48238 99.2821 7.834 99.788 8.20194 100.285L8.38538 100.149L8.75224 99.8766L8.93567 99.7406C8.57879 99.2593 8.23774 98.7688 7.91268 98.2693L7.72133 98.3935L7.33862 98.6428L7.14726 98.767ZM9.34723 101.735C9.74213 102.205 10.1528 102.666 10.579 103.114L10.7446 102.957L11.0756 102.643L11.2412 102.486C10.8278 102.05 10.4295 101.604 10.0465 101.148L9.87168 101.295L9.52205 101.589L9.34723 101.735ZM11.8924 104.416C12.3403 104.834 12.8031 105.24 13.2806 105.635L13.4259 105.458L13.7167 105.106L13.8621 104.93C13.3988 104.548 12.9498 104.153 12.5152 103.748L12.3595 103.915L12.0481 104.248L11.8924 104.416ZM14.7396 106.767C14.9882 106.949 15.2402 107.127 15.4957 107.302C15.7513 107.478 16.0085 107.648 16.2675 107.815L16.3908 107.622L16.6377 107.238L16.7611 107.046C16.5097 106.884 16.2601 106.719 16.012 106.549C15.7639 106.379 15.5192 106.206 15.278 106.029L15.1434 106.214L14.8742 106.583L14.7396 106.767ZM17.8509 108.766C18.3909 109.069 18.937 109.354 19.4884 109.621L19.5878 109.416L19.7868 109.004L19.8864 108.798C19.3515 108.54 18.8217 108.263 18.2976 107.969L18.1859 108.168L17.9626 108.567L17.8509 108.766ZM21.1762 110.376C21.7486 110.611 22.3257 110.828 22.9066 111.027L22.9805 110.81L23.1282 110.378L23.202 110.163C22.6386 109.97 22.0788 109.759 21.5236 109.531L21.4367 109.743L21.263 110.165L21.1762 110.376ZM24.673 111.571C25.2689 111.735 25.8678 111.881 26.469 112.007L26.516 111.784L26.6102 111.336L26.6572 111.113C26.0741 110.99 25.4932 110.85 24.9153 110.691L24.8548 110.911L24.7336 111.351L24.673 111.571ZM28.2883 112.333C28.8992 112.423 29.5115 112.494 30.1244 112.547L30.144 112.32L30.1834 111.865L30.2031 111.638C29.6085 111.586 29.0145 111.517 28.422 111.429L28.3886 111.655L28.3217 112.107L28.2883 112.333ZM31.9697 112.651C32.5864 112.667 33.2027 112.664 33.8177 112.643L33.8099 112.415L33.7942 111.959L33.7863 111.731C33.1895 111.751 32.5916 111.754 31.9933 111.738L31.9875 111.966L31.9757 112.423L31.9697 112.651ZM35.6621 112.524C36.2757 112.466 36.8873 112.389 37.4959 112.294L37.4607 112.069L37.3904 111.618L37.3553 111.392C36.7647 111.484 36.1712 111.558 35.5759 111.615L35.5974 111.842L35.6405 112.297L35.6621 112.524ZM39.3126 111.955C39.9144 111.824 40.5124 111.675 41.1057 111.507L41.0438 111.288L40.9198 110.849L40.8579 110.628C40.2822 110.791 39.702 110.935 39.118 111.063L39.1666 111.286L39.2639 111.732L39.3126 111.955ZM42.8685 110.953C43.4498 110.751 44.0256 110.531 44.5949 110.293L44.5069 110.082L44.3311 109.66L44.2433 109.45C43.6909 109.681 43.1324 109.894 42.5684 110.091L42.6434 110.306L42.7936 110.737L42.8685 110.953ZM46.2784 109.531C46.8308 109.26 47.376 108.972 47.913 108.667L47.8003 108.469L47.575 108.071L47.4623 107.872C46.9413 108.168 46.4125 108.448 45.8766 108.711L45.977 108.915L46.1779 109.325L46.2784 109.531ZM49.4921 107.706C50.007 107.371 50.5131 107.019 51.0096 106.651L50.8737 106.469L50.6018 106.101L50.4658 105.918C49.9842 106.275 49.4934 106.616 48.9939 106.941L49.1185 107.133L49.3675 107.515L49.4921 107.706ZM52.4604 105.506C52.9304 105.111 53.3903 104.7 53.8392 104.275L53.6819 104.109L53.3675 103.778L53.2103 103.612C52.7749 104.026 52.3289 104.424 51.873 104.807L52.0198 104.982L52.3135 105.332L52.4604 105.506ZM55.1407 102.962C55.5585 102.513 55.9649 102.05 56.3592 101.573L56.1831 101.427L55.831 101.137L55.655 100.992C55.2724 101.455 54.8781 101.904 54.4728 102.338L54.6398 102.494L54.9737 102.805L55.1407 102.962ZM57.4923 100.114C57.6736 99.8657 57.852 99.6136 58.0271 99.3579L57.8388 99.2291L57.462 98.9707L57.2737 98.8419C57.1038 99.0894 56.9306 99.3342 56.7545 99.5753L56.939 99.7104L57.3079 99.9789L57.4923 100.114Z" fill="url(#paint7_linear_26_618)"/>
<path fill-rule="evenodd" clip-rule="evenodd" d="M311.35 130.358C311.35 130.363 311.35 130.367 311.35 130.372H311.579H311.82L312.022 130.378L312.25 130.384C312.25 130.381 312.25 130.376 312.25 130.372H312.264C312.264 130.219 312.263 130.068 312.26 129.915C312.263 129.763 312.264 129.611 312.264 129.458H312.25C312.25 129.455 312.25 129.45 312.25 129.446L312.022 129.453L311.82 129.458H311.579H311.35C311.35 129.463 311.35 129.468 311.35 129.473H311.337C311.341 129.62 311.345 129.768 311.347 129.915C311.345 130.063 311.341 130.21 311.337 130.358H311.35ZM311.016 125.904C311.105 126.492 311.177 127.085 311.231 127.683L311.458 127.663L311.913 127.622L312.14 127.602C312.085 126.985 312.011 126.373 311.919 125.768L311.694 125.802L311.243 125.87L311.016 125.904ZM310.267 122.398C310.427 122.972 310.569 123.552 310.696 124.14L310.918 124.092L311.365 123.996L311.588 123.949C311.459 123.343 311.312 122.745 311.147 122.153L310.927 122.214L310.487 122.337L310.267 122.398ZM309.098 119.011C309.327 119.561 309.538 120.119 309.734 120.687L309.95 120.612L310.381 120.463L310.598 120.389C310.396 119.804 310.178 119.228 309.942 118.661L309.731 118.748L309.309 118.923L309.098 119.011ZM307.527 115.789C307.821 116.308 308.099 116.838 308.361 117.376L308.567 117.275L308.978 117.075L309.182 116.976C308.912 116.421 308.624 115.875 308.322 115.339L308.123 115.452L307.726 115.676L307.527 115.789ZM305.578 112.78C305.932 113.261 306.273 113.753 306.598 114.255L306.789 114.131L307.173 113.883L307.364 113.758C307.029 113.241 306.678 112.734 306.313 112.239L306.129 112.374L305.762 112.645L305.578 112.78ZM303.282 110.028C303.692 110.463 304.088 110.91 304.471 111.369L304.646 111.223L304.997 110.931L305.172 110.785C304.778 110.311 304.368 109.85 303.947 109.401L303.78 109.558L303.448 109.872L303.282 110.028ZM300.672 107.57C301.131 107.953 301.578 108.35 302.013 108.759L302.17 108.593L302.483 108.261L302.64 108.094C302.191 107.673 301.73 107.263 301.257 106.869L301.111 107.044L300.818 107.395L300.672 107.57ZM297.786 105.443C298.288 105.768 298.78 106.109 299.261 106.463L299.397 106.28L299.667 105.912L299.803 105.728C299.307 105.363 298.8 105.012 298.282 104.677L298.158 104.869L297.91 105.251L297.786 105.443ZM294.665 103.68C295.204 103.942 295.733 104.22 296.252 104.514L296.365 104.315L296.589 103.918L296.702 103.719C296.166 103.417 295.62 103.13 295.066 102.859L294.965 103.064L294.765 103.474L294.665 103.68ZM291.355 102.307C291.922 102.503 292.481 102.714 293.031 102.943L293.118 102.732L293.293 102.31L293.381 102.099C292.813 101.864 292.237 101.645 291.653 101.444L291.578 101.66L291.429 102.092L291.355 102.307ZM287.901 101.346C288.489 101.471 289.069 101.615 289.643 101.774L289.704 101.554L289.827 101.114L289.888 100.894C289.297 100.73 288.698 100.582 288.092 100.453L288.045 100.676L287.95 101.123L287.901 101.346ZM284.358 100.811C284.956 100.865 285.55 100.936 286.137 101.025L286.171 100.799L286.239 100.347L286.273 100.122C285.668 100.03 285.057 99.9563 284.439 99.9015L284.419 100.129L284.378 100.584L284.358 100.811ZM281.669 100.691C281.97 100.691 282.269 100.695 282.568 100.704L282.575 100.476L282.589 100.019L282.595 99.791C282.288 99.7819 281.979 99.7773 281.669 99.7773V100.006V100.462V100.691ZM312.14 132.228C312.085 132.846 312.011 133.457 311.919 134.063L311.694 134.028L311.243 133.961L311.016 133.926C311.105 133.339 311.177 132.745 311.231 132.147L311.458 132.167L311.913 132.208L312.14 132.228ZM311.588 135.881C311.459 136.487 311.312 137.086 311.147 137.677L310.927 137.616L310.487 137.493L310.267 137.432C310.427 136.859 310.569 136.278 310.696 135.691L310.918 135.739L311.365 135.834L311.588 135.881ZM310.598 139.442C310.396 140.027 310.178 140.602 309.942 141.17L309.731 141.082L309.309 140.907L309.098 140.82C309.327 140.27 309.538 139.711 309.734 139.144L309.95 139.218L310.381 139.367L310.598 139.442ZM309.182 142.855C308.912 143.41 308.624 143.956 308.322 144.491L308.123 144.378L307.726 144.154L307.527 144.041C307.821 143.522 308.099 142.993 308.361 142.454L308.567 142.555L308.978 142.755L309.182 142.855ZM307.364 146.072C307.029 146.589 306.678 147.096 306.313 147.592L306.129 147.456L305.762 147.186L305.578 147.05C305.932 146.569 306.273 146.078 306.598 145.576L306.789 145.7L307.173 145.947L307.364 146.072ZM305.172 149.046C304.778 149.519 304.368 149.98 303.947 150.429L303.78 150.273L303.448 149.959L303.282 149.803C303.692 149.368 304.088 148.92 304.471 148.461L304.646 148.607L304.997 148.9L305.172 149.046ZM302.64 151.736C302.191 152.158 301.73 152.567 301.257 152.962L301.111 152.787L300.818 152.436L300.672 152.261C301.131 151.877 301.578 151.481 302.013 151.071L302.17 151.237L302.483 151.569L302.64 151.736ZM299.803 154.103C299.307 154.467 298.8 154.818 298.282 155.154L298.158 154.962L297.91 154.579L297.786 154.387C298.288 154.062 298.78 153.722 299.261 153.368L299.397 153.551L299.667 153.918L299.803 154.103ZM296.702 156.111C296.166 156.414 295.62 156.701 295.066 156.971L294.965 156.767L294.765 156.356L294.665 156.151C295.204 155.888 295.733 155.61 296.252 155.317L296.365 155.515L296.589 155.913L296.702 156.111ZM293.381 157.731C292.813 157.967 292.237 158.185 291.653 158.387L291.578 158.171L291.429 157.739L291.355 157.524C291.922 157.328 292.481 157.116 293.031 156.887L293.118 157.098L293.293 157.52L293.381 157.731ZM289.888 158.937C289.297 159.101 288.698 159.248 288.092 159.378L288.045 159.154L287.95 158.708L287.901 158.485C288.489 158.359 289.069 158.216 289.643 158.056L289.704 158.276L289.827 158.717L289.888 158.937ZM286.273 159.708C285.668 159.8 285.057 159.874 284.439 159.929L284.419 159.702L284.378 159.247L284.358 159.02C284.956 158.966 285.55 158.895 286.137 158.806L286.171 159.032L286.239 159.483L286.273 159.708ZM282.595 160.039C282.288 160.048 281.979 160.053 281.669 160.053C281.36 160.053 281.051 160.048 280.743 160.039L280.75 159.811L280.763 159.355L280.771 159.127C281.069 159.135 281.369 159.139 281.669 159.139C281.97 159.139 282.269 159.135 282.568 159.127L282.575 159.355L282.589 159.811L282.595 160.039ZM278.899 159.929C278.283 159.874 277.671 159.8 277.066 159.708L277.099 159.483L277.168 159.032L277.202 158.806C277.789 158.895 278.382 158.966 278.981 159.02L278.961 159.247L278.919 159.702L278.899 159.929ZM275.246 159.378C274.641 159.248 274.043 159.101 273.451 158.937L273.512 158.717L273.634 158.276L273.696 158.056C274.269 158.216 274.85 158.359 275.437 158.485L275.39 158.708L275.294 159.154L275.246 159.378ZM271.685 158.387C271.102 158.185 270.526 157.967 269.959 157.731L270.045 157.52L270.221 157.098L270.308 156.887C270.858 157.116 271.417 157.328 271.984 157.524L271.909 157.739L271.76 158.171L271.685 158.387ZM268.273 156.971C267.718 156.701 267.172 156.414 266.637 156.111L266.749 155.913L266.974 155.515L267.086 155.317C267.606 155.61 268.135 155.888 268.674 156.151L268.573 156.356L268.373 156.767L268.273 156.971ZM265.056 155.154C264.538 154.818 264.031 154.467 263.536 154.103L263.672 153.918L263.943 153.551L264.078 153.368C264.558 153.722 265.051 154.062 265.553 154.387L265.429 154.579L265.18 154.962L265.056 155.154ZM262.082 152.962C261.609 152.567 261.147 152.158 260.699 151.736L260.856 151.569L261.168 151.237L261.325 151.071C261.76 151.481 262.208 151.877 262.667 152.261L262.521 152.436L262.229 152.787L262.082 152.962ZM259.392 150.429C258.97 149.98 258.561 149.519 258.166 149.046L258.342 148.9L258.692 148.607L258.868 148.461C259.25 148.92 259.648 149.368 260.057 149.803L259.891 149.959L259.558 150.273L259.392 150.429ZM257.026 147.592C256.66 147.096 256.31 146.589 255.975 146.072L256.166 145.947L256.549 145.7L256.741 145.576C257.066 146.078 257.407 146.569 257.761 147.05L257.576 147.186L257.209 147.456L257.026 147.592ZM255.017 144.491C254.714 143.956 254.427 143.41 254.156 142.855L254.362 142.755L254.772 142.555L254.977 142.454C255.239 142.993 255.518 143.522 255.812 144.041L255.613 144.154L255.216 144.378L255.017 144.491ZM253.396 141.17C253.162 140.602 252.943 140.027 252.741 139.442L252.957 139.367L253.388 139.218L253.605 139.144C253.8 139.711 254.012 140.27 254.24 140.82L254.029 140.907L253.607 141.082L253.396 141.17ZM252.192 137.677C252.027 137.086 251.88 136.487 251.751 135.881L251.974 135.834L252.42 135.739L252.644 135.691C252.769 136.278 252.912 136.859 253.071 137.432L252.851 137.493L252.412 137.616L252.192 137.677ZM251.419 134.063C251.328 133.457 251.254 132.846 251.199 132.228L251.427 132.208L251.881 132.167L252.109 132.147C252.162 132.745 252.234 133.339 252.322 133.926L252.097 133.961L251.645 134.028L251.419 134.063ZM251.089 130.384C251.08 130.077 251.075 129.768 251.075 129.458H251.303H251.76H251.988C251.988 129.76 251.993 130.059 252.002 130.358L251.774 130.364L251.317 130.378L251.089 130.384Z" fill="url(#paint8_linear_26_618)"/>
<path d="M251.532 130.401C251.532 113.756 238.038 100.264 221.394 100.264C204.749 100.264 192.169 112.843 192.169 129.488" stroke="white" stroke-width="0.456632" stroke-dasharray="1.83 1.83"/>
<path fill-rule="evenodd" clip-rule="evenodd" d="M308.653 41.1653C308.732 41.2968 308.81 41.4291 308.886 41.5622L309.085 41.4481L309.48 41.2198L309.677 41.1056C309.523 40.8374 309.364 40.5723 309.202 40.3105L309.009 40.4305L308.855 40.525C308.764 40.3872 308.672 40.25 308.578 40.1132L308.39 40.2422L308.013 40.5003L307.824 40.6293C307.994 40.8775 308.16 41.1272 308.322 41.3785L308.514 41.255L308.653 41.1653ZM306.364 37.86C306.734 38.3245 307.093 38.8026 307.439 39.294L307.625 39.1626L307.999 38.8999L308.185 38.7685C307.829 38.2621 307.46 37.7694 307.077 37.2904L306.899 37.4329L306.542 37.7177L306.364 37.86ZM303.962 35.1983C304.387 35.6153 304.8 36.0468 305.203 36.4925L305.372 36.3396L305.712 36.0337L305.881 35.8807C305.466 35.4212 305.04 34.9763 304.601 34.5464L304.442 34.7094L304.122 35.0353L303.962 35.1983ZM301.256 32.849C301.728 33.2115 302.192 33.5894 302.644 33.9823L302.794 33.8099L303.094 33.4651L303.243 33.2927C302.777 32.8876 302.299 32.498 301.811 32.1242L301.672 32.3054L301.395 32.6678L301.256 32.849ZM298.284 30.8447C298.798 31.1478 299.304 31.4669 299.8 31.8019L299.928 31.6126L300.183 31.234L300.311 31.0447C299.799 30.6994 299.278 30.3705 298.747 30.0579L298.631 30.2547L298.4 30.648L298.284 30.8447ZM295.092 29.2138C295.639 29.453 296.179 29.7088 296.713 29.981L296.817 29.7777L297.024 29.3711L297.128 29.1678C296.578 28.8871 296.021 28.6235 295.458 28.377L295.366 28.5862L295.184 29.0046L295.092 29.2138ZM291.727 27.9782C292.299 28.1501 292.867 28.3393 293.428 28.5454L293.507 28.331L293.664 27.9025L293.743 27.6881C293.165 27.4757 292.579 27.2807 291.989 27.1035L291.923 27.3222L291.793 27.7594L291.727 27.9782ZM288.237 27.1547C288.827 27.2569 289.413 27.3767 289.995 27.514L290.047 27.2918L290.152 26.8474L290.205 26.6252C289.605 26.4837 289.001 26.3601 288.394 26.2548L288.354 26.4798L288.277 26.9297L288.237 27.1547ZM284.676 26.7557C285.273 26.7864 285.868 26.835 286.462 26.9015L286.488 26.6747L286.539 26.2209L286.564 25.9939C285.952 25.9254 285.338 25.8753 284.722 25.8437L284.71 26.0716L284.687 26.5277L284.676 26.7557ZM281.09 26.7886C281.688 26.7469 282.286 26.7234 282.883 26.718L282.88 26.4896L282.877 26.033L282.874 25.8047C282.259 25.8103 281.643 25.8346 281.027 25.8776L281.043 26.1053L281.075 26.5609L281.09 26.7886ZM277.538 27.255C278.126 27.1411 278.716 27.0454 279.307 26.9678L279.277 26.7414L279.218 26.2887L279.188 26.0623C278.579 26.1423 277.971 26.2409 277.364 26.3584L277.407 26.5826L277.494 27.0308L277.538 27.255ZM274.066 28.1496C274.638 27.9646 275.213 27.798 275.789 27.6494L275.732 27.4283L275.618 26.9861L275.56 26.765C274.966 26.9182 274.374 27.0901 273.785 27.2807L273.855 27.498L273.996 27.9324L274.066 28.1496ZM270.73 29.458C271.275 29.2053 271.824 28.9705 272.378 28.7536L272.295 28.541L272.128 28.1159L272.044 27.9034C271.474 28.127 270.907 28.369 270.346 28.6294L270.442 28.8365L270.633 29.2509L270.73 29.458ZM268.341 30.6982C268.602 30.5479 268.864 30.4019 269.127 30.2603L269.019 30.0593L268.802 29.6572L268.694 29.4562C268.423 29.602 268.153 29.7525 267.885 29.9073L267.999 30.1051L268.227 30.5005L268.341 30.6982ZM310.042 42.4682C310.345 43.0083 310.63 43.5543 310.896 44.1057L310.691 44.2052L310.28 44.4042L310.075 44.5037C309.815 43.9689 309.539 43.439 309.245 42.915L309.444 42.8033L309.843 42.5799L310.042 42.4682ZM311.652 45.7936C311.886 46.366 312.104 46.9431 312.302 47.524L312.086 47.5978L311.654 47.7456L311.438 47.8194C311.245 47.256 311.035 46.6962 310.807 46.141L311.018 46.0541L311.44 45.8804L311.652 45.7936ZM312.846 49.2904C313.011 49.8863 313.156 50.4852 313.283 51.0863L313.059 51.1334L312.612 51.2275L312.389 51.2746C312.266 50.6915 312.125 50.1106 311.966 49.5326L312.186 49.4721L312.626 49.351L312.846 49.2904ZM313.609 52.9057C313.698 53.5166 313.771 54.1288 313.823 54.7417L313.596 54.7614L313.141 54.8008L312.914 54.8204C312.862 54.2259 312.792 53.6319 312.705 53.0393L312.931 53.0059L313.382 52.939L313.609 52.9057ZM313.927 56.5871C313.943 57.2037 313.94 57.82 313.919 58.4351L313.691 58.4273L313.234 58.4116L313.006 58.4037C313.027 57.8069 313.03 57.2089 313.014 56.6107L313.243 56.6048L313.698 56.593L313.927 56.5871ZM313.8 60.2794C313.742 60.8931 313.665 61.5046 313.571 62.1132L313.345 62.0781L312.894 62.0077L312.668 61.9726C312.76 61.3821 312.834 60.7886 312.891 60.1932L313.118 60.2147L313.572 60.2578L313.8 60.2794ZM313.231 63.9299C313.1 64.5317 312.95 65.1297 312.783 65.723L312.563 65.6611L312.124 65.5371L311.904 65.4752C312.066 64.8996 312.212 64.3193 312.339 63.7354L312.561 63.784L313.008 63.8813L313.231 63.9299ZM312.229 67.4859C312.026 68.0672 311.806 68.643 311.569 69.2122L311.358 69.1243L310.937 68.9485L310.726 68.8606C310.956 68.3083 311.17 67.7498 311.366 67.1858L311.581 67.2608L312.012 67.4109L312.229 67.4859ZM310.806 70.8958C310.536 71.4482 310.247 71.9934 309.943 72.5304L309.744 72.4178L309.347 72.1924L309.148 72.0797C309.444 71.5586 309.723 71.0299 309.986 70.4939L310.191 70.5944L310.601 70.7953L310.806 70.8958ZM308.982 74.1095C308.647 74.6244 308.295 75.1305 307.927 75.627L307.744 75.491L307.377 75.2191L307.193 75.0831C307.55 74.6016 307.892 74.1108 308.217 73.6113L308.408 73.7358L308.79 73.9849L308.982 74.1095ZM306.782 77.0778C306.387 77.5478 305.977 78.0077 305.55 78.4565L305.385 78.2994L305.053 77.9849L304.888 77.8276C305.302 77.3923 305.7 76.9463 306.083 76.4904L306.258 76.6372L306.607 76.9309L306.782 77.0778ZM304.237 79.758C303.789 80.1758 303.326 80.5822 302.849 80.9766L302.704 80.8005L302.412 80.4484L302.267 80.2724C302.73 79.8898 303.179 79.4955 303.614 79.0901L303.769 79.2571L304.081 79.5911L304.237 79.758ZM301.389 82.1097C301.141 82.291 300.889 82.4693 300.633 82.6445C300.378 82.8195 300.121 82.9902 299.861 83.1565L299.738 82.9645L299.492 82.5803L299.368 82.3882C299.62 82.2267 299.869 82.0611 300.117 81.891C300.366 81.7211 300.61 81.548 300.851 81.3719L300.986 81.5563L301.255 81.9252L301.389 82.1097ZM298.279 84.1082C297.738 84.4111 297.192 84.696 296.641 84.963L296.542 84.7574L296.343 84.3464L296.243 84.141C296.777 83.882 297.308 83.6056 297.831 83.3116L297.944 83.5108L298.166 83.9091L298.279 84.1082ZM294.953 85.7179C294.381 85.9533 293.804 86.1703 293.223 86.3689L293.149 86.1529L293.001 85.7208L292.927 85.5047C293.491 85.3121 294.05 85.1017 294.606 84.8733L294.692 85.0844L294.866 85.5067L294.953 85.7179ZM291.456 86.9133C290.86 87.0772 290.261 87.2224 289.66 87.349L289.613 87.1256L289.519 86.6787L289.472 86.4553C290.055 86.3325 290.636 86.1917 291.214 86.0327L291.274 86.2528L291.396 86.6931L291.456 86.9133ZM287.841 87.6749C287.23 87.7653 286.617 87.8369 286.005 87.8899L285.985 87.6625L285.946 87.2075L285.926 86.9801C286.521 86.9286 287.115 86.8592 287.707 86.7715L287.741 86.9974L287.807 87.4491L287.841 87.6749ZM284.16 87.9935C283.543 88.0094 282.927 88.0068 282.311 87.9856L282.32 87.7574L282.335 87.301L282.343 87.0729C282.94 87.0934 283.538 87.096 284.136 87.0806L284.142 87.3088L284.153 87.7652L284.16 87.9935ZM280.467 87.8664C279.854 87.8083 279.242 87.7316 278.634 87.6367L278.668 87.4112L278.739 86.96L278.774 86.7344C279.364 86.8265 279.958 86.9008 280.553 86.9573L280.532 87.1846L280.488 87.6392L280.467 87.8664ZM276.817 87.2975C276.215 87.1662 275.617 87.0169 275.023 86.8497L275.086 86.6299L275.21 86.1904L275.271 85.9707C275.847 86.133 276.427 86.2778 277.012 86.4051L276.962 86.6282L276.866 87.0744L276.817 87.2975ZM273.261 86.295C272.679 86.0927 272.104 85.8727 271.535 85.6352L271.622 85.4245L271.798 85.0031L271.886 84.7924C272.438 85.0228 272.997 85.2361 273.56 85.4325L273.486 85.6481L273.336 86.0794L273.261 86.295ZM269.851 84.8726C269.298 84.6019 268.753 84.314 268.216 84.0092L268.329 83.8106L268.554 83.4135L268.667 83.2149C269.188 83.5106 269.716 83.7898 270.253 84.0525L270.152 84.2575L269.951 84.6675L269.851 84.8726ZM266.637 83.0485C266.122 82.7134 265.616 82.3617 265.12 81.9938L265.255 81.8104L265.527 81.4435L265.663 81.2601C266.145 81.617 266.636 81.958 267.136 82.2831L267.011 82.4744L266.762 82.8572L266.637 83.0485ZM263.669 80.8485C263.199 80.4536 262.739 80.043 262.29 79.6167L262.447 79.4513L262.762 79.1201L262.919 78.9545C263.355 79.368 263.8 79.7662 264.256 80.1493L264.109 80.3241L263.816 80.6737L263.669 80.8485ZM260.988 78.3035C260.571 77.8554 260.165 77.3927 259.77 76.9152L259.946 76.7698L260.298 76.479L260.474 76.3336C260.857 76.7969 261.251 77.246 261.656 77.6805L261.49 77.8362L261.156 78.1477L260.988 78.3035ZM258.637 75.4562C258.456 75.2076 258.277 74.9555 258.103 74.7L258.291 74.5709L258.667 74.3129L258.856 74.1838C259.026 74.4319 259.198 74.6765 259.375 74.9178L259.19 75.0523L258.821 75.3216L258.637 75.4562Z" fill="url(#paint9_linear_26_618)"/>
<path d="M104.22 125.402C104.22 137.242 94.622 146.84 82.783 146.84C70.9436 146.84 61.3458 137.242 61.3458 125.402" stroke="url(#paint10_linear_26_618)" stroke-width="0.456632" stroke-dasharray="1.83 1.83"/>
<path d="M198.336 185.678C198.336 197.517 207.933 207.116 219.773 207.116C231.612 207.116 241.21 197.517 241.21 185.678" stroke="url(#paint11_linear_26_618)" stroke-width="0.456632" stroke-dasharray="1.83 1.83"/>
<path d="M150.797 186.59C150.797 198.429 141.198 208.028 129.36 208.028C117.52 208.028 107.923 198.429 107.923 186.59" stroke="url(#paint12_linear_26_618)" stroke-width="0.456632" stroke-dasharray="1.83 1.83"/>
<path d="M188.29 25.3746C188.29 13.5353 197.887 3.9375 209.727 3.9375C221.566 3.9375 231.164 13.5353 231.164 25.3746" stroke="url(#paint13_linear_26_618)" stroke-width="0.456632" stroke-dasharray="1.83 1.83"/>
<path d="M150.846 187.022C150.846 160.99 171.949 139.887 197.982 139.887" stroke="white" stroke-width="0.456632" stroke-dasharray="1.83 1.83"/>
<path d="M197.981 187.022C197.981 160.99 176.879 139.887 150.847 139.887" stroke="white" stroke-width="0.456632" stroke-dasharray="1.83 1.83"/>
<path d="M143.126 83.6517C173.611 83.6517 185.136 53.514 188.29 24.748" stroke="white" stroke-width="0.456632" stroke-dasharray="1.83 1.83"/>
<path d="M125.785 61.2793C142.43 61.2793 155.923 74.7724 155.923 91.417" stroke="white" stroke-width="0.456632" stroke-dasharray="1.83 1.83"/>
<path d="M57.1346 99.8546C74.7492 74.1478 109.868 67.5879 135.575 85.2025" stroke="white" stroke-width="0.456632" stroke-dasharray="1.83 1.83"/>
<path d="M180.218 66.9259C204.607 47.5292 239.856 51.2645 258.946 75.269" stroke="white" stroke-width="0.456632" stroke-dasharray="1.83 1.83"/>
</g>
</g>
</g>
<defs>
<filter id="filter0_d_26_618" x="15.3668" y="154.747" width="63.0563" height="63.057" filterUnits="userSpaceOnUse" color-interpolation-filters="sRGB">
<feFlood flood-opacity="0" result="BackgroundImageFix"/>
<feColorMatrix in="SourceAlpha" type="matrix" values="0 0 0 0 0 0 0 0 0 0 0 0 0 0 0 0 0 0 127 0" result="hardAlpha"/>
<feOffset dy="4.11825"/>
<feGaussianBlur stdDeviation="4.11825"/>
<feComposite in2="hardAlpha" operator="out"/>
<feColorMatrix type="matrix" values="0 0 0 0 0.343614 0 0 0 0 0.154931 0 0 0 0 0.808333 0 0 0 0.18 0"/>
<feBlend mode="normal" in2="BackgroundImageFix" result="effect1_dropShadow_26_618"/>
<feBlend mode="normal" in="SourceGraphic" in2="effect1_dropShadow_26_618" result="shape"/>
</filter>
<filter id="filter1_d_26_618" x="250.141" y="102.341" width="63.0561" height="63.057" filterUnits="userSpaceOnUse" color-interpolation-filters="sRGB">
<feFlood flood-opacity="0" result="BackgroundImageFix"/>
<feColorMatrix in="SourceAlpha" type="matrix" values="0 0 0 0 0 0 0 0 0 0 0 0 0 0 0 0 0 0 127 0" result="hardAlpha"/>
<feOffset dy="4.11825"/>
<feGaussianBlur stdDeviation="4.11825"/>
<feComposite in2="hardAlpha" operator="out"/>
<feColorMatrix type="matrix" values="0 0 0 0 0.343614 0 0 0 0 0.154931 0 0 0 0 0.808333 0 0 0 0.18 0"/>
<feBlend mode="normal" in2="BackgroundImageFix" result="effect1_dropShadow_26_618"/>
<feBlend mode="normal" in="SourceGraphic" in2="effect1_dropShadow_26_618" result="shape"/>
</filter>
<filter id="filter2_d_26_618" x="251.34" y="28.8466" width="63.0561" height="63.057" filterUnits="userSpaceOnUse" color-interpolation-filters="sRGB">
<feFlood flood-opacity="0" result="BackgroundImageFix"/>
<feColorMatrix in="SourceAlpha" type="matrix" values="0 0 0 0 0 0 0 0 0 0 0 0 0 0 0 0 0 0 127 0" result="hardAlpha"/>
<feOffset dy="4.11825"/>
<feGaussianBlur stdDeviation="4.11825"/>
<feComposite in2="hardAlpha" operator="out"/>
<feColorMatrix type="matrix" values="0 0 0 0 0.343614 0 0 0 0 0.154931 0 0 0 0 0.808333 0 0 0 0.18 0"/>
<feBlend mode="normal" in2="BackgroundImageFix" result="effect1_dropShadow_26_618"/>
<feBlend mode="normal" in="SourceGraphic" in2="effect1_dropShadow_26_618" result="shape"/>
</filter>
<filter id="filter3_d_26_618" x="196.524" y="165.962" width="46.6659" height="46.6664" filterUnits="userSpaceOnUse" color-interpolation-filters="sRGB">
<feFlood flood-opacity="0" result="BackgroundImageFix"/>
<feColorMatrix in="SourceAlpha" type="matrix" values="0 0 0 0 0 0 0 0 0 0 0 0 0 0 0 0 0 0 127 0" result="hardAlpha"/>
<feOffset dy="4.11825"/>
<feGaussianBlur stdDeviation="4.11825"/>
<feComposite in2="hardAlpha" operator="out"/>
<feColorMatrix type="matrix" values="0 0 0 0 0.343614 0 0 0 0 0.154931 0 0 0 0 0.808333 0 0 0 0.18 0"/>
<feBlend mode="normal" in2="BackgroundImageFix" result="effect1_dropShadow_26_618"/>
<feBlend mode="normal" in="SourceGraphic" in2="effect1_dropShadow_26_618" result="shape"/>
</filter>
<filter id="filter4_d_26_618" x="106.809" y="165.962" width="46.6659" height="46.6664" filterUnits="userSpaceOnUse" color-interpolation-filters="sRGB">
<feFlood flood-opacity="0" result="BackgroundImageFix"/>
<feColorMatrix in="SourceAlpha" type="matrix" values="0 0 0 0 0 0 0 0 0 0 0 0 0 0 0 0 0 0 127 0" result="hardAlpha"/>
<feOffset dy="4.11825"/>
<feGaussianBlur stdDeviation="4.11825"/>
<feComposite in2="hardAlpha" operator="out"/>
<feColorMatrix type="matrix" values="0 0 0 0 0.343614 0 0 0 0 0.154931 0 0 0 0 0.808333 0 0 0 0.18 0"/>
<feBlend mode="normal" in2="BackgroundImageFix" result="effect1_dropShadow_26_618"/>
<feBlend mode="normal" in="SourceGraphic" in2="effect1_dropShadow_26_618" result="shape"/>
</filter>
<filter id="filter5_d_26_618" x="95.2855" y="3.78604" width="63.0563" height="63.057" filterUnits="userSpaceOnUse" color-interpolation-filters="sRGB">
<feFlood flood-opacity="0" result="BackgroundImageFix"/>
<feColorMatrix in="SourceAlpha" type="matrix" values="0 0 0 0 0 0 0 0 0 0 0 0 0 0 0 0 0 0 127 0" result="hardAlpha"/>
<feOffset dy="4.11825"/>
<feGaussianBlur stdDeviation="4.11825"/>
<feComposite in2="hardAlpha" operator="out"/>
<feColorMatrix type="matrix" values="0 0 0 0 0.343614 0 0 0 0 0.154931 0 0 0 0 0.808333 0 0 0 0.18 0"/>
<feBlend mode="normal" in2="BackgroundImageFix" result="effect1_dropShadow_26_618"/>
<feBlend mode="normal" in="SourceGraphic" in2="effect1_dropShadow_26_618" result="shape"/>
</filter>
<filter id="filter6_d_26_618" x="186.121" y="6.93058" width="46.6659" height="46.6664" filterUnits="userSpaceOnUse" color-interpolation-filters="sRGB">
<feFlood flood-opacity="0" result="BackgroundImageFix"/>
<feColorMatrix in="SourceAlpha" type="matrix" values="0 0 0 0 0 0 0 0 0 0 0 0 0 0 0 0 0 0 127 0" result="hardAlpha"/>
<feOffset dy="4.11825"/>
<feGaussianBlur stdDeviation="4.11825"/>
<feComposite in2="hardAlpha" operator="out"/>
<feColorMatrix type="matrix" values="0 0 0 0 0.343614 0 0 0 0 0.154931 0 0 0 0 0.808333 0 0 0 0.18 0"/>
<feBlend mode="normal" in2="BackgroundImageFix" result="effect1_dropShadow_26_618"/>
<feBlend mode="normal" in="SourceGraphic" in2="effect1_dropShadow_26_618" result="shape"/>
</filter>
<filter id="filter7_d_26_618" x="59.3621" y="105.577" width="46.6659" height="46.6664" filterUnits="userSpaceOnUse" color-interpolation-filters="sRGB">
<feFlood flood-opacity="0" result="BackgroundImageFix"/>
<feColorMatrix in="SourceAlpha" type="matrix" values="0 0 0 0 0 0 0 0 0 0 0 0 0 0 0 0 0 0 127 0" result="hardAlpha"/>
<feOffset dy="4.11825"/>
<feGaussianBlur stdDeviation="4.11825"/>
<feComposite in2="hardAlpha" operator="out"/>
<feColorMatrix type="matrix" values="0 0 0 0 0.343614 0 0 0 0 0.154931 0 0 0 0 0.808333 0 0 0 0.18 0"/>
<feBlend mode="normal" in2="BackgroundImageFix" result="effect1_dropShadow_26_618"/>
<feBlend mode="normal" in="SourceGraphic" in2="effect1_dropShadow_26_618" result="shape"/>
</filter>
<filter id="filter8_d_26_618" x="1.5644" y="54.6806" width="63.0563" height="63.057" filterUnits="userSpaceOnUse" color-interpolation-filters="sRGB">
<feFlood flood-opacity="0" result="BackgroundImageFix"/>
<feColorMatrix in="SourceAlpha" type="matrix" values="0 0 0 0 0 0 0 0 0 0 0 0 0 0 0 0 0 0 127 0" result="hardAlpha"/>
<feOffset dy="4.11825"/>
<feGaussianBlur stdDeviation="4.11825"/>
<feComposite in2="hardAlpha" operator="out"/>
<feColorMatrix type="matrix" values="0 0 0 0 0.343614 0 0 0 0 0.154931 0 0 0 0 0.808333 0 0 0 0.18 0"/>
<feBlend mode="normal" in2="BackgroundImageFix" result="effect1_dropShadow_26_618"/>
<feBlend mode="normal" in="SourceGraphic" in2="effect1_dropShadow_26_618" result="shape"/>
</filter>
<filter id="filter9_d_26_618" x="115.164" y="61.8782" width="105.865" height="105.864" filterUnits="userSpaceOnUse" color-interpolation-filters="sRGB">
<feFlood flood-opacity="0" result="BackgroundImageFix"/>
<feColorMatrix in="SourceAlpha" type="matrix" values="0 0 0 0 0 0 0 0 0 0 0 0 0 0 0 0 0 0 127 0" result="hardAlpha"/>
<feOffset dy="4.68429"/>
<feGaussianBlur stdDeviation="4.68429"/>
<feComposite in2="hardAlpha" operator="out"/>
<feColorMatrix type="matrix" values="0 0 0 0 0.343614 0 0 0 0 0.154931 0 0 0 0 0.808333 0 0 0 0.18 0"/>
<feBlend mode="normal" in2="BackgroundImageFix" result="effect1_dropShadow_26_618"/>
<feBlend mode="normal" in="SourceGraphic" in2="effect1_dropShadow_26_618" result="shape"/>
</filter>
<linearGradient id="paint0_linear_26_618" x1="2965.6" y1="182.607" x2="1805.21" y2="1538.69" gradientUnits="userSpaceOnUse">
<stop offset="0.18" stop-color="#0052CC"/>
<stop offset="1" stop-color="#2684FF"/>
</linearGradient>
<linearGradient id="paint1_linear_26_618" x1="3038.91" y1="197.733" x2="1696.63" y2="1676.8" gradientUnits="userSpaceOnUse">
<stop offset="0.18" stop-color="#0052CC"/>
<stop offset="1" stop-color="#2684FF"/>
</linearGradient>
<linearGradient id="paint2_linear_26_618" x1="994.807" y1="177.35" x2="994.807" y2="1742.9" gradientUnits="userSpaceOnUse">
<stop stop-color="#0091E6"/>
<stop offset="1" stop-color="#0079BF"/>
</linearGradient>
<linearGradient id="paint3_linear_26_618" x1="145.069" y1="130.517" x2="191.417" y2="130.517" gradientUnits="userSpaceOnUse">
<stop stop-color="#8930FD"/>
<stop offset="1" stop-color="#49CCF9"/>
</linearGradient>
<linearGradient id="paint4_linear_26_618" x1="146.08" y1="99.557" x2="190.488" y2="99.557" gradientUnits="userSpaceOnUse">
<stop stop-color="#FF02F0"/>
<stop offset="1" stop-color="#FFC800"/>
</linearGradient>
<linearGradient id="paint5_linear_26_618" x1="126.242" y1="11.0476" x2="157.284" y2="9.41914" gradientUnits="userSpaceOnUse">
<stop stop-color="white"/>
<stop offset="0.984848" stop-color="white" stop-opacity="0"/>
</linearGradient>
<linearGradient id="paint6_linear_26_618" x1="28.2834" y1="188.449" x2="29.4163" y2="153.866" gradientUnits="userSpaceOnUse">
<stop stop-color="white"/>
<stop offset="0.984848" stop-color="white" stop-opacity="0"/>
</linearGradient>
<linearGradient id="paint7_linear_26_618" x1="30.1094" y1="81.9129" x2="41.1052" y2="50.8669" gradientUnits="userSpaceOnUse">
<stop stop-color="white"/>
<stop offset="0.984848" stop-color="white" stop-opacity="0"/>
</linearGradient>
<linearGradient id="paint8_linear_26_618" x1="244.585" y1="129.915" x2="259.761" y2="89.8375" gradientUnits="userSpaceOnUse">
<stop stop-color="white"/>
<stop offset="0.984848" stop-color="white" stop-opacity="0"/>
</linearGradient>
<linearGradient id="paint9_linear_26_618" x1="288.792" y1="61.7328" x2="266.915" y2="29.4887" gradientUnits="userSpaceOnUse">
<stop stop-color="white"/>
<stop offset="0.984848" stop-color="white" stop-opacity="0"/>
</linearGradient>
<linearGradient id="paint10_linear_26_618" x1="82.783" y1="149.113" x2="61.3458" y2="120.206" gradientUnits="userSpaceOnUse">
<stop stop-color="white"/>
<stop offset="0.984848" stop-color="white" stop-opacity="0"/>
</linearGradient>
<linearGradient id="paint11_linear_26_618" x1="219.773" y1="209.389" x2="241.21" y2="180.481" gradientUnits="userSpaceOnUse">
<stop stop-color="white"/>
<stop offset="0.984848" stop-color="white" stop-opacity="0"/>
</linearGradient>
<linearGradient id="paint12_linear_26_618" x1="129.36" y1="210.301" x2="107.923" y2="181.393" gradientUnits="userSpaceOnUse">
<stop stop-color="white"/>
<stop offset="0.984848" stop-color="white" stop-opacity="0"/>
</linearGradient>
<linearGradient id="paint13_linear_26_618" x1="209.727" y1="1.66387" x2="231.164" y2="30.5716" gradientUnits="userSpaceOnUse">
<stop stop-color="white"/>
<stop offset="0.984848" stop-color="white" stop-opacity="0"/>
</linearGradient>
<clipPath id="clip0_26_618">
<rect width="314.17" height="218.27" fill="white" transform="translate(0.934814 0.0898438)"/>
</clipPath>
<clipPath id="clip1_26_618">
<rect width="314.17" height="218.27" fill="white" transform="translate(0.934814 0.0898438)"/>
</clipPath>
<clipPath id="clip2_26_618">
<rect width="314.163" height="218.27" fill="white" transform="translate(0.938477 0.0898438)"/>
</clipPath>
</defs>
</svg>
