<svg width="108" height="22" viewBox="0 0 108 22" fill="none" xmlns="http://www.w3.org/2000/svg">
<g clip-path="url(#clip0_26_964)">
<g clip-path="url(#clip1_26_964)">
<g clip-path="url(#clip2_26_964)">
<mask id="mask0_26_964" style="mask-type:luminance" maskUnits="userSpaceOnUse" x="0" y="0" width="107" height="22">
<path d="M106.87 0.0712891H0.819702V21.0713H106.87V0.0712891Z" fill="white"/>
</mask>
<g mask="url(#mask0_26_964)">
<path d="M0.819702 15.3415L3.84578 13C5.45351 15.1194 7.16165 16.0963 9.06294 16.0963C10.9541 16.0963 12.6139 15.131 14.1492 13.0282L17.2185 15.3133C15.0033 18.3454 12.2504 19.9475 9.06294 19.9475C5.88562 19.9475 3.1061 18.3557 0.819702 15.3415Z" fill="url(#paint0_linear_26_964)"/>
<path d="M9.05322 5.16515L3.66699 9.85336L1.17725 6.93672L9.06461 0.0712891L16.8897 6.94181L14.3885 9.84821L9.05322 5.16515Z" fill="url(#paint1_linear_26_964)"/>
<path fill-rule="evenodd" clip-rule="evenodd" d="M39.0531 4.77489C39.0531 5.78905 39.7852 6.52846 40.7892 6.52846V6.52977C41.7602 6.52977 42.51 5.78905 42.51 4.77489C42.51 3.79412 41.7602 3.05469 40.7892 3.05469C39.8195 3.05469 39.0531 3.79412 39.0531 4.77489ZM37.949 3.74265V16.8675H34.9521V3.74265H37.949ZM28.8226 17.0571C26.9838 17.0569 25.4513 16.4548 24.2085 15.2509C22.9655 14.03 22.3529 12.4652 22.3529 10.5549C22.3529 8.62935 22.982 7.04653 24.225 5.80769C25.4857 4.55222 27.0185 3.93346 28.841 3.93346C31.0893 3.93346 33.0809 4.91295 34.2399 6.44446L32.2115 8.5947C31.2405 7.5446 30.1844 7.01183 29.0443 7.01183C28.0734 7.01183 27.2727 7.33791 26.608 8.00933C25.9611 8.6807 25.6383 9.52411 25.6383 10.5383C25.6383 11.5191 25.9611 12.3445 26.608 13.0159C27.2727 13.6693 28.0734 13.9954 29.0265 13.9954C30.2695 13.9954 31.36 13.4447 32.2624 12.3612L34.3747 14.4087C33.7951 15.1828 33.0122 15.8195 32.0412 16.3176C31.0704 16.8169 29.998 17.057 28.8226 17.0571ZM42.3052 7.37161V16.8674H39.2906V7.37161H42.3052ZM44.4663 15.68C45.4017 16.6095 46.5938 17.0742 48.0757 17.0742C50.0685 17.0742 51.7538 16.0934 52.5723 14.5106L50.1702 13.0663C49.8296 13.8058 49.0289 14.2872 48.1609 14.2872C46.9509 14.2872 46.0486 13.3578 46.0486 12.1023C46.038 11.5324 46.2525 10.9818 46.6447 10.5721C47.0539 10.1587 47.5648 9.95204 48.1952 9.95204C49.0632 9.95204 49.7279 10.3654 50.2045 11.1741L52.6053 9.90064C51.8059 8.09443 50.0851 7.13163 48.1266 7.13163C46.6281 7.13163 45.4195 7.5951 44.4828 8.52451C43.5462 9.45392 43.086 10.6401 43.086 12.1023C43.086 13.5645 43.5462 14.7519 44.4663 15.68ZM63.0249 16.8675H59.4475L56.6703 13.0998L56.2282 13.5132V16.8675H53.2326V3.74265H56.2293V10.1241L59.0559 7.37177H62.7177L58.6826 11.1909L63.0249 16.8675ZM63.2259 4.15494V11.9305C63.2259 15.6803 65.8147 17.0911 68.4203 17.0911C71.0421 17.0911 73.6146 15.6803 73.6146 11.9305V4.15494H70.3953V11.8792C70.3953 13.272 69.5779 13.9947 68.4203 13.9947C67.2448 13.9947 66.4274 13.3067 66.4274 11.8792V4.15494H63.2259ZM80.7294 7.13163C82.0755 7.13163 83.166 7.61306 84.0338 8.57586C84.9016 9.52196 85.3274 10.7094 85.3274 12.1023C85.3274 13.4964 84.8853 14.6826 84.0175 15.6634C83.1481 16.6262 82.0587 17.1088 80.7473 17.1088C79.7078 17.1088 78.8053 16.7648 78.0729 16.0767V20.7726H75.0584V7.37172H78.0225V8.24978C78.7544 7.50906 79.6569 7.13163 80.7294 7.13163ZM80.1509 9.9524C81.3778 9.9524 82.2619 10.8985 82.2619 12.1373H82.2635C82.2708 12.7121 82.0566 13.2673 81.666 13.6855C81.2744 14.1155 80.7636 14.3222 80.1509 14.3222C79.5372 14.3222 79.0263 14.1155 78.6184 13.6855C78.2257 13.2554 78.0225 12.7394 78.0225 12.1373C78.0225 10.8985 78.9245 9.9524 80.1509 9.9524Z" fill="black"/>
<path fill-rule="evenodd" clip-rule="evenodd" d="M87.0887 16.2947C88.0957 16.9042 89.1819 17.2618 90.4141 17.2618C92.5865 17.2618 94.0833 16.0563 94.0833 14.3076C94.0833 13.1815 93.4475 12.1747 92.1623 11.8833V11.8303C93.0102 11.5256 93.7788 10.7705 93.7788 9.68414C93.7788 8.21367 92.3482 7.14062 90.5863 7.14062C89.3011 7.14062 88.1219 7.65728 87.314 8.37264L88.4663 10.1478C89.2218 9.6444 89.6985 9.45897 90.2419 9.45897C90.8378 9.45897 91.3013 9.7504 91.3013 10.2671C91.3013 10.7307 90.8908 11.0884 90.1091 11.0884H89.142V13.2875H90.4141C91.1029 13.2875 91.5266 13.632 91.5266 14.1089C91.5266 14.6255 91.0761 14.9965 90.2419 14.9965C89.7384 14.9965 88.9966 14.8508 88.082 14.3341L87.0887 16.2947ZM102.312 17.2618C99.6887 17.2618 98.2445 15.1819 98.2445 12.2012C98.2445 9.22052 99.6887 7.14062 102.312 7.14062C104.948 7.14062 106.392 9.22052 106.392 12.2012C106.392 15.1819 104.948 17.2618 102.312 17.2618ZM102.325 14.9435C103.438 14.9435 103.954 13.7777 103.954 12.2012C103.954 10.6512 103.425 9.45897 102.325 9.45897C101.225 9.45897 100.682 10.6512 100.682 12.2012C100.682 13.7777 101.199 14.9435 102.325 14.9435ZM96.219 17.3148C95.504 17.3148 94.9207 16.7716 94.9207 16.043C94.9207 15.3409 95.504 14.7977 96.219 14.7977C96.8947 14.7977 97.4643 15.3409 97.4643 16.043C97.4643 16.7716 96.8947 17.3148 96.219 17.3148Z" fill="black"/>
</g>
</g>
</g>
</g>
<defs>
<linearGradient id="paint0_linear_26_964" x1="0.819702" y1="21.1988" x2="17.2185" y2="21.1988" gradientUnits="userSpaceOnUse">
<stop stop-color="#7612FA"/>
<stop offset="1" stop-color="#40DDFF"/>
</linearGradient>
<linearGradient id="paint1_linear_26_964" x1="1.17725" y1="11.6151" x2="16.8897" y2="11.6151" gradientUnits="userSpaceOnUse">
<stop stop-color="#FA12E3"/>
<stop offset="1" stop-color="#FFD700"/>
</linearGradient>
<clipPath id="clip0_26_964">
<rect width="107" height="21" fill="white" transform="translate(0.344727 0.0712891)"/>
</clipPath>
<clipPath id="clip1_26_964">
<rect width="107" height="21" fill="white" transform="translate(0.344727 0.0712891)"/>
</clipPath>
<clipPath id="clip2_26_964">
<rect width="107" height="21" fill="white" transform="translate(0.344727 0.0712891)"/>
</clipPath>
</defs>
</svg>
