<svg width="315" height="209" viewBox="0 0 315 209" fill="none" xmlns="http://www.w3.org/2000/svg">
<g clip-path="url(#clip0_26_690)">
<g clip-path="url(#clip1_26_690)">
<g clip-path="url(#clip2_26_690)">
<g opacity="0.6" filter="url(#filter0_f_26_690)">
<g filter="url(#filter1_d_26_690)">
<path d="M45.9322 195.745C58.7586 195.745 69.1565 185.347 69.1565 172.521C69.1565 159.695 58.7586 149.297 45.9322 149.297C33.1059 149.297 22.708 159.695 22.708 172.521C22.708 185.347 33.1059 195.745 45.9322 195.745Z" fill="white"/>
</g>
<mask id="mask0_26_690" style="mask-type:luminance" maskUnits="userSpaceOnUse" x="32" y="159" width="26" height="26">
<path d="M32.1702 159.619H57.1145V184.564H32.1702V159.619Z" fill="white"/>
</mask>
<g mask="url(#mask0_26_690)">
<path d="M54.8471 162.291H44.1228C44.1227 162.927 44.2478 163.556 44.491 164.144C44.7342 164.731 45.0908 165.265 45.5403 165.715C45.9898 166.164 46.5235 166.521 47.1109 166.764C47.6983 167.007 48.3278 167.133 48.9636 167.133H50.9396V169.04C50.9404 170.323 51.4503 171.553 52.3574 172.46C53.2646 173.367 54.4947 173.878 55.7777 173.879V163.221C55.7777 162.707 55.3616 162.291 54.8471 162.291Z" fill="#2684FF"/>
<path d="M49.541 167.635H38.8158C38.8165 168.918 39.3264 170.148 40.2336 171.055C41.1407 171.963 42.3709 172.473 43.6539 172.474H45.6299V174.387C45.6316 175.67 46.1424 176.9 47.0503 177.806C47.9581 178.713 49.1886 179.222 50.4716 179.222V168.565C50.4716 168.052 50.0546 167.635 49.541 167.635Z" fill="url(#paint0_linear_26_690)"/>
<path d="M44.2312 172.977H33.506C33.506 173.612 33.6312 174.242 33.8746 174.829C34.1179 175.417 34.4745 175.95 34.9241 176.4C35.3738 176.849 35.9075 177.206 36.4949 177.449C37.0823 177.692 37.7119 177.818 38.3477 177.817H40.3292V179.725C40.3299 181.007 40.8391 182.236 41.7451 183.143C42.6511 184.05 43.8798 184.561 45.1618 184.563V173.906C45.1618 173.393 44.7447 172.977 44.2312 172.977Z" fill="url(#paint1_linear_26_690)"/>
</g>
<g filter="url(#filter2_d_26_690)">
<path d="M280.025 143.491C292.851 143.491 303.249 133.094 303.249 120.267C303.249 107.441 292.851 97.043 280.025 97.043C267.198 97.043 256.801 107.441 256.801 120.267C256.801 133.094 267.198 143.491 280.025 143.491Z" fill="white"/>
</g>
<path fill-rule="evenodd" clip-rule="evenodd" d="M287.149 120.662C286.422 120.653 285.702 120.788 285.028 121.059C284.355 121.331 283.742 121.733 283.225 122.243C282.708 122.754 282.298 123.361 282.018 124.031C281.738 124.702 281.594 125.421 281.594 126.147C281.594 126.873 281.738 127.592 282.018 128.262C282.298 128.932 282.709 129.54 283.226 130.05C283.742 130.56 284.355 130.962 285.029 131.234C285.703 131.505 286.423 131.64 287.15 131.63C288.592 131.612 289.969 131.026 290.982 129.999C291.995 128.973 292.563 127.588 292.563 126.146C292.563 124.703 291.995 123.319 290.981 122.293C289.968 121.266 288.591 120.681 287.149 120.662ZM272.901 120.663C271.447 120.663 270.052 121.241 269.023 122.269C267.995 123.298 267.417 124.693 267.417 126.147C267.417 127.602 267.995 128.997 269.023 130.025C270.052 131.054 271.447 131.631 272.901 131.631C274.356 131.631 275.751 131.054 276.779 130.025C277.808 128.997 278.385 127.602 278.385 126.147C278.385 124.693 277.808 123.298 276.779 122.269C275.751 121.241 274.356 120.663 272.901 120.663ZM285.509 113.808C285.509 114.528 285.367 115.241 285.091 115.906C284.816 116.572 284.412 117.176 283.902 117.685C283.393 118.195 282.789 118.599 282.123 118.874C281.458 119.15 280.745 119.292 280.025 119.292C279.305 119.292 278.592 119.15 277.926 118.874C277.261 118.599 276.657 118.195 276.147 117.685C275.638 117.176 275.234 116.572 274.959 115.906C274.683 115.241 274.541 114.528 274.541 113.808C274.541 112.354 275.119 110.959 276.147 109.93C277.176 108.902 278.571 108.324 280.025 108.324C281.479 108.324 282.874 108.902 283.902 109.93C284.931 110.959 285.509 112.354 285.509 113.808Z" fill="#F06A6A"/>
<g filter="url(#filter3_d_26_690)">
<path d="M282.473 70.1653C295.299 70.1653 305.697 59.7674 305.697 46.941C305.697 34.1146 295.299 23.7168 282.473 23.7168C269.646 23.7168 259.248 34.1146 259.248 46.941C259.248 59.7674 269.646 70.1653 282.473 70.1653Z" fill="white"/>
</g>
<path d="M273.533 53.7405C272.982 53.7415 272.44 53.5962 271.963 53.3194C271.486 53.0426 271.091 52.6443 270.819 52.1651C270.55 51.6892 270.417 51.1492 270.432 50.6031C270.446 50.0569 270.61 49.5251 270.903 49.0645L276.494 40.2862C276.78 39.8149 277.187 39.4279 277.672 39.1645C278.156 38.9011 278.702 38.7706 279.254 38.7864C279.805 38.7996 280.343 38.9589 280.812 39.2482C281.281 39.5375 281.665 39.9463 281.924 40.4328C282.18 40.9156 282.299 41.4588 282.27 42.0042C282.24 42.5497 282.063 43.0767 281.756 43.5289L276.169 52.3072C275.886 52.7487 275.496 53.1115 275.035 53.3621C274.574 53.6126 274.058 53.7428 273.533 53.7405Z" fill="#F62B54"/>
<path d="M283.122 53.7402C282.571 53.7419 282.03 53.5973 281.554 53.3211C281.078 53.045 280.684 52.6472 280.412 52.1685C280.144 51.6939 280.01 51.1552 280.025 50.6104C280.04 50.0655 280.203 49.535 280.497 49.076L286.077 40.3178C286.359 39.8396 286.764 39.4454 287.249 39.1762C287.735 38.9069 288.284 38.7722 288.839 38.7861C289.394 38.7968 289.936 38.9561 290.409 39.2474C290.882 39.5387 291.268 39.9514 291.528 40.4425C291.782 40.9297 291.897 41.4772 291.862 42.0256C291.826 42.5739 291.641 43.1019 291.326 43.5523L285.747 52.3105C285.465 52.7503 285.077 53.1118 284.618 53.3617C284.159 53.6116 283.644 53.7418 283.122 53.7402Z" fill="#FFCC00"/>
<path d="M292.497 53.8135C294.086 53.8135 295.374 52.5514 295.374 50.9952C295.374 49.4398 294.086 48.1777 292.497 48.1777C290.907 48.1777 289.618 49.4398 289.618 50.9952C289.618 52.5523 290.907 53.8135 292.497 53.8135Z" fill="#00CA72"/>
<g filter="url(#filter4_d_26_690)">
<path d="M218.392 190.585C226.705 190.585 233.444 183.846 233.444 175.533C233.444 167.22 226.705 160.48 218.392 160.48C210.079 160.48 203.34 167.22 203.34 175.533C203.34 183.846 210.079 190.585 218.392 190.585Z" fill="white"/>
</g>
<path d="M224.672 167.729H212.111C211.269 167.729 210.586 168.411 210.586 169.253V181.814C210.586 182.656 211.269 183.338 212.111 183.338H224.672C225.514 183.338 226.197 182.656 226.197 181.814V169.253C226.197 168.411 225.514 167.729 224.672 167.729Z" fill="url(#paint2_linear_26_690)"/>
<path d="M223.436 169.758H220.139C219.944 169.758 219.758 169.835 219.621 169.972C219.484 170.11 219.406 170.296 219.406 170.49V175.856C219.406 176.26 219.734 176.587 220.139 176.587H223.436C223.532 176.588 223.627 176.569 223.716 176.532C223.805 176.495 223.885 176.441 223.953 176.374C224.021 176.306 224.075 176.225 224.112 176.136C224.148 176.047 224.167 175.952 224.167 175.856V170.49C224.167 170.394 224.148 170.299 224.112 170.21C224.075 170.121 224.021 170.04 223.953 169.972C223.885 169.904 223.805 169.85 223.716 169.814C223.627 169.777 223.532 169.758 223.436 169.758ZM216.645 169.758H213.347C213.251 169.758 213.156 169.777 213.067 169.814C212.978 169.85 212.898 169.904 212.83 169.972C212.762 170.04 212.708 170.121 212.671 170.21C212.634 170.299 212.615 170.394 212.615 170.49V179.758C212.615 180.162 212.943 180.49 213.347 180.49H216.645C217.049 180.49 217.377 180.162 217.377 179.758V170.49C217.377 170.296 217.3 170.11 217.162 169.972C217.025 169.835 216.839 169.758 216.645 169.758Z" fill="white"/>
<g filter="url(#filter5_d_26_690)">
<path d="M128.937 190.585C137.25 190.585 143.99 183.846 143.99 175.533C143.99 167.22 137.25 160.48 128.937 160.48C120.624 160.48 113.885 167.22 113.885 175.533C113.885 183.846 120.624 190.585 128.937 190.585Z" fill="white"/>
</g>
<path d="M124.461 175.47C124.461 175.47 125.211 174.297 126.233 174.297C127.778 174.25 129.05 177.253 129.278 177.675C131.004 173.546 133.867 170.051 136.184 167.729H121.871V184.783C121.871 185.44 121.803 186.05 121.689 186.684C123.552 186.355 125.392 185.886 127.164 185.229C131.504 183.563 133.208 181.804 133.208 181.804L133.322 181.686L133.39 181.828C133.662 182.531 134.071 183.164 134.48 183.798C135.071 184.572 135.389 184.642 135.617 184.572C135.866 184.502 136.003 184.056 136.071 183.376C136.138 182.672 136.184 181.147 136.184 179.247V169.042C132.027 174.555 128.914 182.813 128.914 182.813C128.914 182.813 126.846 175.446 124.461 175.47Z" fill="#003059"/>
<g filter="url(#filter6_d_26_690)">
<path d="M110.139 51.5969C122.965 51.5969 133.363 41.1991 133.363 28.3727C133.363 15.5463 122.965 5.14844 110.139 5.14844C97.3122 5.14844 86.9143 15.5463 86.9143 28.3727C86.9143 41.1991 97.3122 51.5969 110.139 51.5969Z" fill="white"/>
</g>
<path d="M109.143 17.4719L99.2012 21.5851C99.0788 21.636 98.9743 21.7222 98.9012 21.8327C98.828 21.9432 98.7894 22.073 98.7904 22.2056C98.7914 22.3381 98.8319 22.4673 98.9067 22.5768C98.9815 22.6862 99.0872 22.7708 99.2103 22.8199L109.193 26.7783C110.07 27.1262 111.047 27.1262 111.924 26.7783L121.907 22.8199C122.031 22.7712 122.137 22.6867 122.212 22.5772C122.287 22.4677 122.328 22.3383 122.329 22.2056C122.33 22.0728 122.291 21.9428 122.217 21.8323C122.144 21.7217 122.039 21.6356 121.916 21.5851L111.975 17.471C111.068 17.0956 110.049 17.0956 109.142 17.471" fill="#FCB400"/>
<path d="M111.445 28.9405V38.8298C111.445 39.3006 111.92 39.622 112.357 39.449L123.481 35.1318C123.605 35.0826 123.711 34.9973 123.786 34.8868C123.861 34.7764 123.901 34.646 123.901 34.5126V24.6233C123.901 24.5146 123.874 24.4075 123.823 24.3114C123.772 24.2153 123.699 24.1332 123.609 24.0721C123.519 24.011 123.415 23.9728 123.307 23.961C123.199 23.9491 123.09 23.9639 122.989 24.0041L111.865 28.3213C111.741 28.3705 111.635 28.4558 111.56 28.5663C111.485 28.6767 111.445 28.8071 111.445 28.9405Z" fill="#18BFFF"/>
<path d="M108.847 29.4507L105.546 31.0443L105.21 31.2064L98.2414 34.5456C97.7997 34.7587 97.2361 34.4363 97.2361 33.9464V24.6646C97.2361 24.487 97.3271 24.3331 97.4492 24.2184C97.4994 24.1682 97.5564 24.1253 97.6185 24.0909C97.7098 24.0389 97.8115 24.0079 97.9162 24C98.0209 23.9922 98.1261 24.0076 98.2241 24.0454L108.792 28.2323C109.329 28.4454 109.371 29.1976 108.847 29.4507Z" fill="#F82B60"/>
<path d="M108.847 29.4509L105.545 31.0445L97.4491 24.2177C97.4991 24.1681 97.5558 24.1258 97.6176 24.092C97.7089 24.0397 97.8106 24.0084 97.9155 24.0002C98.0203 23.992 98.1257 24.0072 98.224 24.0446L108.792 28.2325C109.329 28.4456 109.371 29.1978 108.847 29.4509Z" fill="black" fill-opacity="0.25"/>
<g filter="url(#filter7_d_26_690)">
<path d="M208.93 37.4779C217.243 37.4779 223.982 30.7387 223.982 22.4255C223.982 14.1122 217.243 7.37305 208.93 7.37305C200.617 7.37305 193.877 14.1122 193.877 22.4255C193.877 30.7387 200.617 37.4779 208.93 37.4779Z" fill="white"/>
</g>
<path fill-rule="evenodd" clip-rule="evenodd" d="M204.155 16.941C204.655 17.3472 204.843 17.3162 205.782 17.2534L214.638 16.7216C214.826 16.7216 214.67 16.5349 214.607 16.503L213.137 15.4404C212.855 15.2218 212.479 14.9705 211.76 15.0333L203.184 15.6589C202.872 15.6899 202.809 15.8465 202.933 15.9712L204.155 16.941ZM204.686 19.0054V28.3237C204.686 28.8245 204.937 29.0121 205.5 28.9802L215.233 28.4175C215.797 28.3865 215.86 28.0423 215.86 27.6343V18.3798C215.86 17.9737 215.703 17.7551 215.359 17.7861L205.187 18.3798C204.812 18.4117 204.686 18.5984 204.686 19.0054ZM214.295 19.5053C214.357 19.7867 214.295 20.0681 214.013 20.0999L213.544 20.1928V27.0725C213.137 27.291 212.762 27.4167 212.448 27.4167C211.948 27.4167 211.822 27.2601 211.447 26.7911L208.379 21.9758V26.6345L209.35 26.854C209.35 26.854 209.35 27.4167 208.566 27.4167L206.407 27.5415C206.345 27.4167 206.407 27.1044 206.627 27.0415L207.191 26.8858V20.7237L206.407 20.6609C206.346 20.3795 206.501 19.9734 206.94 19.9415L209.256 19.7858L212.448 24.6639V20.3504L211.634 20.2566C211.572 19.9124 211.822 19.6629 212.135 19.6319L214.295 19.5053ZM202.464 14.8148L211.384 14.1582C212.479 14.0635 212.762 14.1263 213.45 14.6272L216.298 16.6278C216.767 16.972 216.924 17.0658 216.924 17.441V28.4184C216.924 29.1059 216.673 29.5129 215.797 29.5749L205.438 30.2014C204.78 30.2323 204.467 30.1385 204.123 29.7005L202.026 26.9796C201.65 26.4788 201.494 26.1045 201.494 25.6665V15.9084C201.494 15.3466 201.745 14.8767 202.464 14.8148Z" fill="black"/>
<g filter="url(#filter8_d_26_690)">
<path d="M81.6282 130.374C89.9414 130.374 96.6806 123.635 96.6806 115.322C96.6806 107.009 89.9414 100.27 81.6282 100.27C73.315 100.27 66.5758 107.009 66.5758 115.322C66.5758 123.635 73.315 130.374 81.6282 130.374Z" fill="white"/>
</g>
<path d="M77.3256 106.682H86.4882C87.417 106.682 88.3078 107.051 88.9646 107.708C89.6215 108.364 89.9908 109.255 89.9913 110.184V119.347C89.9908 120.276 89.6215 121.167 88.9646 121.824C88.3078 122.48 87.417 122.849 86.4882 122.85H77.3256C76.3969 122.849 75.5064 122.48 74.8497 121.823C74.193 121.167 73.8238 120.276 73.8234 119.347V110.184C73.8238 109.255 74.193 108.365 74.8497 107.708C75.5064 107.051 76.3969 106.682 77.3256 106.682Z" fill="#FFD02F"/>
<path d="M85.0576 108.699H83.2828L84.7617 111.297L81.508 108.699H79.7324L81.3596 111.876L77.9576 108.699H76.1819L77.9576 112.742L76.1819 120.829H77.9576L81.3596 112.163L79.7324 120.829H81.508L84.7617 111.589L83.2828 120.829H85.0585L88.3121 110.719L85.0576 108.699Z" fill="#050038"/>
<g filter="url(#filter9_d_26_690)">
<path d="M32.1702 95.9699C44.9965 95.9699 55.3944 85.5721 55.3944 72.7457C55.3944 59.9193 44.9965 49.5215 32.1702 49.5215C19.3438 49.5215 8.94592 59.9193 8.94592 72.7457C8.94592 85.5721 19.3438 95.9699 32.1702 95.9699Z" fill="white"/>
</g>
<path d="M24.8634 70.7735C26.1956 70.7735 26.8239 70.9966 27.7892 71.8754L32.966 76.586C33.119 76.7253 33.1499 76.7808 33.1809 76.8646C33.1931 76.8956 33.1981 76.9289 33.1955 76.9621C33.1955 76.9894 33.1955 77.0313 33.1809 77.0595C33.1499 77.1433 33.119 77.1988 32.966 77.3381L29.4274 80.5717C29.2744 80.711 29.2134 80.7393 29.1214 80.7666C29.0904 80.7812 29.0449 80.7812 29.0139 80.7812C28.9839 80.7812 28.9375 80.7812 28.9074 80.7666C28.8154 80.7393 28.7535 80.711 28.6005 80.5717L18.5674 71.4428C18.276 71.1788 18.3835 70.7735 18.8743 70.7735H24.8634ZM39.476 65.0176C38.1437 65.0176 37.5154 65.2407 36.5511 66.1194L31.3733 70.83C31.2204 70.9693 31.1894 71.0249 31.1593 71.1086C31.1439 71.136 31.1439 71.1778 31.1439 71.2061C31.1439 71.2334 31.1439 71.2753 31.1593 71.3035C31.1894 71.3873 31.2204 71.4428 31.3733 71.5822L34.912 74.8021C35.065 74.9414 35.126 74.9696 35.2179 74.997C35.2489 75.0106 35.2944 75.0106 35.3254 75.0106C35.3564 75.0106 35.4019 75.0106 35.4328 74.997C35.5239 74.9696 35.5858 74.9414 35.7388 74.8021L45.7719 65.6732C46.0633 65.4082 45.9559 65.0039 45.4651 65.0039H39.476V65.0176Z" fill="#08CF65"/>
</g>
<g filter="url(#filter10_d_26_690)">
<path d="M172.065 159.53C204.837 159.53 231.405 132.962 231.405 100.19C231.405 67.417 204.837 40.8496 172.065 40.8496C139.292 40.8496 112.725 67.417 112.725 100.19C112.725 132.962 139.292 159.53 172.065 159.53Z" fill="white"/>
</g>
<path d="M140.605 119.487L152.254 110.51C158.444 118.636 165.02 122.381 172.34 122.381C179.62 122.381 186.011 118.681 191.921 110.618L203.738 119.379C195.209 131.005 184.611 137.147 172.34 137.147C160.107 137.147 149.407 131.044 140.605 119.487Z" fill="url(#paint3_linear_26_690)"/>
<path d="M172.301 80.4762L151.566 98.4508L141.981 87.2685L172.345 60.9473L202.471 87.2885L192.842 98.4317L172.301 80.4762Z" fill="url(#paint4_linear_26_690)"/>
</g>
</g>
</g>
<defs>
<filter id="filter0_f_26_690" x="4.39287" y="0.595381" width="305.857" height="199.704" filterUnits="userSpaceOnUse" color-interpolation-filters="sRGB">
<feFlood flood-opacity="0" result="BackgroundImageFix"/>
<feBlend mode="normal" in="SourceGraphic" in2="BackgroundImageFix" result="shape"/>
<feGaussianBlur stdDeviation="2.27653" result="effect1_foregroundBlur_26_690"/>
</filter>
<filter id="filter1_d_26_690" x="14.4961" y="145.191" width="62.8723" height="62.873" filterUnits="userSpaceOnUse" color-interpolation-filters="sRGB">
<feFlood flood-opacity="0" result="BackgroundImageFix"/>
<feColorMatrix in="SourceAlpha" type="matrix" values="0 0 0 0 0 0 0 0 0 0 0 0 0 0 0 0 0 0 127 0" result="hardAlpha"/>
<feOffset dy="4.10595"/>
<feGaussianBlur stdDeviation="4.10595"/>
<feComposite in2="hardAlpha" operator="out"/>
<feColorMatrix type="matrix" values="0 0 0 0 0.343614 0 0 0 0 0.154931 0 0 0 0 0.808333 0 0 0 0.18 0"/>
<feBlend mode="normal" in2="BackgroundImageFix" result="effect1_dropShadow_26_690"/>
<feBlend mode="normal" in="SourceGraphic" in2="effect1_dropShadow_26_690" result="shape"/>
</filter>
<filter id="filter2_d_26_690" x="248.589" y="92.937" width="62.8722" height="62.873" filterUnits="userSpaceOnUse" color-interpolation-filters="sRGB">
<feFlood flood-opacity="0" result="BackgroundImageFix"/>
<feColorMatrix in="SourceAlpha" type="matrix" values="0 0 0 0 0 0 0 0 0 0 0 0 0 0 0 0 0 0 127 0" result="hardAlpha"/>
<feOffset dy="4.10595"/>
<feGaussianBlur stdDeviation="4.10595"/>
<feComposite in2="hardAlpha" operator="out"/>
<feColorMatrix type="matrix" values="0 0 0 0 0.343614 0 0 0 0 0.154931 0 0 0 0 0.808333 0 0 0 0.18 0"/>
<feBlend mode="normal" in2="BackgroundImageFix" result="effect1_dropShadow_26_690"/>
<feBlend mode="normal" in="SourceGraphic" in2="effect1_dropShadow_26_690" result="shape"/>
</filter>
<filter id="filter3_d_26_690" x="251.037" y="19.6109" width="62.8722" height="62.873" filterUnits="userSpaceOnUse" color-interpolation-filters="sRGB">
<feFlood flood-opacity="0" result="BackgroundImageFix"/>
<feColorMatrix in="SourceAlpha" type="matrix" values="0 0 0 0 0 0 0 0 0 0 0 0 0 0 0 0 0 0 127 0" result="hardAlpha"/>
<feOffset dy="4.10595"/>
<feGaussianBlur stdDeviation="4.10595"/>
<feComposite in2="hardAlpha" operator="out"/>
<feColorMatrix type="matrix" values="0 0 0 0 0.343614 0 0 0 0 0.154931 0 0 0 0 0.808333 0 0 0 0.18 0"/>
<feBlend mode="normal" in2="BackgroundImageFix" result="effect1_dropShadow_26_690"/>
<feBlend mode="normal" in="SourceGraphic" in2="effect1_dropShadow_26_690" result="shape"/>
</filter>
<filter id="filter4_d_26_690" x="195.128" y="156.375" width="46.5286" height="46.5293" filterUnits="userSpaceOnUse" color-interpolation-filters="sRGB">
<feFlood flood-opacity="0" result="BackgroundImageFix"/>
<feColorMatrix in="SourceAlpha" type="matrix" values="0 0 0 0 0 0 0 0 0 0 0 0 0 0 0 0 0 0 127 0" result="hardAlpha"/>
<feOffset dy="4.10595"/>
<feGaussianBlur stdDeviation="4.10595"/>
<feComposite in2="hardAlpha" operator="out"/>
<feColorMatrix type="matrix" values="0 0 0 0 0.343614 0 0 0 0 0.154931 0 0 0 0 0.808333 0 0 0 0.18 0"/>
<feBlend mode="normal" in2="BackgroundImageFix" result="effect1_dropShadow_26_690"/>
<feBlend mode="normal" in="SourceGraphic" in2="effect1_dropShadow_26_690" result="shape"/>
</filter>
<filter id="filter5_d_26_690" x="105.673" y="156.375" width="46.5286" height="46.5293" filterUnits="userSpaceOnUse" color-interpolation-filters="sRGB">
<feFlood flood-opacity="0" result="BackgroundImageFix"/>
<feColorMatrix in="SourceAlpha" type="matrix" values="0 0 0 0 0 0 0 0 0 0 0 0 0 0 0 0 0 0 127 0" result="hardAlpha"/>
<feOffset dy="4.10595"/>
<feGaussianBlur stdDeviation="4.10595"/>
<feComposite in2="hardAlpha" operator="out"/>
<feColorMatrix type="matrix" values="0 0 0 0 0.343614 0 0 0 0 0.154931 0 0 0 0 0.808333 0 0 0 0.18 0"/>
<feBlend mode="normal" in2="BackgroundImageFix" result="effect1_dropShadow_26_690"/>
<feBlend mode="normal" in="SourceGraphic" in2="effect1_dropShadow_26_690" result="shape"/>
</filter>
<filter id="filter6_d_26_690" x="78.7024" y="1.04249" width="62.8723" height="62.873" filterUnits="userSpaceOnUse" color-interpolation-filters="sRGB">
<feFlood flood-opacity="0" result="BackgroundImageFix"/>
<feColorMatrix in="SourceAlpha" type="matrix" values="0 0 0 0 0 0 0 0 0 0 0 0 0 0 0 0 0 0 127 0" result="hardAlpha"/>
<feOffset dy="4.10595"/>
<feGaussianBlur stdDeviation="4.10595"/>
<feComposite in2="hardAlpha" operator="out"/>
<feColorMatrix type="matrix" values="0 0 0 0 0.343614 0 0 0 0 0.154931 0 0 0 0 0.808333 0 0 0 0.18 0"/>
<feBlend mode="normal" in2="BackgroundImageFix" result="effect1_dropShadow_26_690"/>
<feBlend mode="normal" in="SourceGraphic" in2="effect1_dropShadow_26_690" result="shape"/>
</filter>
<filter id="filter7_d_26_690" x="185.666" y="3.2671" width="46.5286" height="46.5293" filterUnits="userSpaceOnUse" color-interpolation-filters="sRGB">
<feFlood flood-opacity="0" result="BackgroundImageFix"/>
<feColorMatrix in="SourceAlpha" type="matrix" values="0 0 0 0 0 0 0 0 0 0 0 0 0 0 0 0 0 0 127 0" result="hardAlpha"/>
<feOffset dy="4.10595"/>
<feGaussianBlur stdDeviation="4.10595"/>
<feComposite in2="hardAlpha" operator="out"/>
<feColorMatrix type="matrix" values="0 0 0 0 0.343614 0 0 0 0 0.154931 0 0 0 0 0.808333 0 0 0 0.18 0"/>
<feBlend mode="normal" in2="BackgroundImageFix" result="effect1_dropShadow_26_690"/>
<feBlend mode="normal" in="SourceGraphic" in2="effect1_dropShadow_26_690" result="shape"/>
</filter>
<filter id="filter8_d_26_690" x="58.3639" y="96.1636" width="46.5286" height="46.5293" filterUnits="userSpaceOnUse" color-interpolation-filters="sRGB">
<feFlood flood-opacity="0" result="BackgroundImageFix"/>
<feColorMatrix in="SourceAlpha" type="matrix" values="0 0 0 0 0 0 0 0 0 0 0 0 0 0 0 0 0 0 127 0" result="hardAlpha"/>
<feOffset dy="4.10595"/>
<feGaussianBlur stdDeviation="4.10595"/>
<feComposite in2="hardAlpha" operator="out"/>
<feColorMatrix type="matrix" values="0 0 0 0 0.343614 0 0 0 0 0.154931 0 0 0 0 0.808333 0 0 0 0.18 0"/>
<feBlend mode="normal" in2="BackgroundImageFix" result="effect1_dropShadow_26_690"/>
<feBlend mode="normal" in="SourceGraphic" in2="effect1_dropShadow_26_690" result="shape"/>
</filter>
<filter id="filter9_d_26_690" x="0.73403" y="45.4155" width="62.8723" height="62.873" filterUnits="userSpaceOnUse" color-interpolation-filters="sRGB">
<feFlood flood-opacity="0" result="BackgroundImageFix"/>
<feColorMatrix in="SourceAlpha" type="matrix" values="0 0 0 0 0 0 0 0 0 0 0 0 0 0 0 0 0 0 127 0" result="hardAlpha"/>
<feOffset dy="4.10595"/>
<feGaussianBlur stdDeviation="4.10595"/>
<feComposite in2="hardAlpha" operator="out"/>
<feColorMatrix type="matrix" values="0 0 0 0 0.343614 0 0 0 0 0.154931 0 0 0 0 0.808333 0 0 0 0.18 0"/>
<feBlend mode="normal" in2="BackgroundImageFix" result="effect1_dropShadow_26_690"/>
<feBlend mode="normal" in="SourceGraphic" in2="effect1_dropShadow_26_690" result="shape"/>
</filter>
<filter id="filter10_d_26_690" x="100.08" y="34.5272" width="143.969" height="143.969" filterUnits="userSpaceOnUse" color-interpolation-filters="sRGB">
<feFlood flood-opacity="0" result="BackgroundImageFix"/>
<feColorMatrix in="SourceAlpha" type="matrix" values="0 0 0 0 0 0 0 0 0 0 0 0 0 0 0 0 0 0 127 0" result="hardAlpha"/>
<feOffset dy="6.32237"/>
<feGaussianBlur stdDeviation="6.32237"/>
<feComposite in2="hardAlpha" operator="out"/>
<feColorMatrix type="matrix" values="0 0 0 0 0.343614 0 0 0 0 0.154931 0 0 0 0 0.808333 0 0 0 0.18 0"/>
<feBlend mode="normal" in2="BackgroundImageFix" result="effect1_dropShadow_26_690"/>
<feBlend mode="normal" in="SourceGraphic" in2="effect1_dropShadow_26_690" result="shape"/>
</filter>
<linearGradient id="paint0_linear_26_690" x1="2956.16" y1="172.97" x2="1799.14" y2="1525.12" gradientUnits="userSpaceOnUse">
<stop offset="0.18" stop-color="#0052CC"/>
<stop offset="1" stop-color="#2684FF"/>
</linearGradient>
<linearGradient id="paint1_linear_26_690" x1="3029.26" y1="188.053" x2="1690.88" y2="1662.83" gradientUnits="userSpaceOnUse">
<stop offset="0.18" stop-color="#0052CC"/>
<stop offset="1" stop-color="#2684FF"/>
</linearGradient>
<linearGradient id="paint2_linear_26_690" x1="991.091" y1="167.729" x2="991.091" y2="1728.73" gradientUnits="userSpaceOnUse">
<stop stop-color="#0091E6"/>
<stop offset="1" stop-color="#0079BF"/>
</linearGradient>
<linearGradient id="paint3_linear_26_690" x1="140.605" y1="128.625" x2="203.738" y2="128.625" gradientUnits="userSpaceOnUse">
<stop stop-color="#8930FD"/>
<stop offset="1" stop-color="#49CCF9"/>
</linearGradient>
<linearGradient id="paint4_linear_26_690" x1="141.981" y1="86.4535" x2="202.471" y2="86.4535" gradientUnits="userSpaceOnUse">
<stop stop-color="#FF02F0"/>
<stop offset="1" stop-color="#FFC800"/>
</linearGradient>
<clipPath id="clip0_26_690">
<rect width="314.17" height="208.53" fill="white" transform="translate(0.104858 0.0898438)"/>
</clipPath>
<clipPath id="clip1_26_690">
<rect width="314.17" height="208.53" fill="white" transform="translate(0.104858 0.0898438)"/>
</clipPath>
<clipPath id="clip2_26_690">
<rect width="314.161" height="208.53" fill="white" transform="translate(0.109375 0.0898438)"/>
</clipPath>
</defs>
</svg>
