<svg width="85" height="14" viewBox="0 0 85 14" fill="none" xmlns="http://www.w3.org/2000/svg">
<g clip-path="url(#clip0_26_423)">
<path d="M11.8433 8.86358C11.1653 10.9701 9.97863 12.7984 6.90313 12.9194C2.32703 12.9194 0.934814 9.10583 0.934814 7.05939C0.934814 1.79323 5.16027 0.521484 6.8552 0.521484C8.77987 0.521484 11.5043 1.40587 11.5043 3.68162C11.5043 4.4805 10.9956 5.25564 10.1725 5.25564C9.37363 5.25564 8.77986 4.72319 8.77986 3.86342C8.77986 2.71346 9.72428 2.55584 9.72428 2.24103C9.72428 1.44215 7.86007 1.11525 7.20628 1.11525C4.36095 1.11525 3.62209 3.18545 3.62209 7.05982C3.62209 8.8394 4.07033 10.1953 4.2396 10.6069C4.68784 11.5876 5.59555 12.2051 7.1333 12.2897C8.86494 12.3869 10.5115 10.9943 11.2257 8.86358H11.8433ZM15.5009 6.70875C15.5009 9.19047 15.5255 12.3265 18.5159 12.3265C21.5063 12.3265 21.5301 9.19047 21.5301 6.70832C21.5301 4.2512 21.5063 1.11525 18.5159 1.11525C15.5255 1.11525 15.5009 4.25077 15.5009 6.70875ZM24.2303 6.70875C24.2303 10.2921 21.6272 12.9194 18.528 12.9194C15.4283 12.9194 12.8136 10.28 12.8136 6.70875C12.8136 3.13708 15.4162 0.521916 18.5159 0.521916C21.6151 0.521916 24.2303 3.12499 24.2303 6.70875ZM26.3247 1.50217H24.7023V0.824197H25.3198C25.8769 0.83672 26.4214 0.812537 26.978 0.763741C27.5351 0.727899 28.0922 0.642828 28.6371 0.521916V3.65744H28.6976C29.5206 1.79323 30.671 0.521916 32.8259 0.521916C33.8916 0.521916 36.3492 0.763741 36.3492 3.47564V11.8419H37.9469V12.5199H32.4994V11.8419H34.0367V3.85133C34.0367 1.6965 33.3588 1.36917 32.1725 1.36917C30.1628 1.36917 28.6255 4.11777 28.6255 6.33306V11.8298H30.2232V12.5078H24.7023V11.8298H26.3247V1.50217ZM44.9331 0.824629V1.5026H46.7368L43.7464 9.98979H43.686L40.8165 1.50217H42.3905V0.824197H37.0634V1.50217H38.4798L42.4388 12.9189H43.4558L47.5357 1.50217H48.9526V0.824197L44.9331 0.824629ZM56.9056 4.92874V3.92388C56.9056 1.79323 55.6585 1.11525 54.1816 1.11525C52.4016 1.11525 51.6027 2.77348 51.5422 2.97946C51.3604 3.60907 51.2516 4.27495 51.2516 4.92874H56.9056ZM59.5691 8.86358C58.9758 11.6118 56.966 12.9194 54.363 12.9194C51.3484 12.9194 48.4426 10.498 48.4426 7.20492C48.4426 3.71832 50.755 0.521916 54.2662 0.521916C57.2808 0.521916 59.557 2.56793 59.5933 5.78852H51.2154V6.99894C51.2154 9.9289 51.6027 12.2897 54.8233 12.2897C56.5061 12.2897 58.4917 10.8129 58.9032 8.86358H59.5691ZM61.8461 1.50217H60.2238V0.824197H60.8408C61.3979 0.83672 61.9429 0.812537 62.4995 0.763741C63.0566 0.727899 63.6136 0.642828 64.1582 0.521916V3.65744H64.2191C65.0421 1.79323 66.1925 0.521916 68.3594 0.521916C69.4248 0.521916 71.8827 0.763741 71.8827 3.47564V11.8419H73.4809V12.5199H68.0325V11.8419H69.5703V3.85133C69.5703 1.6965 68.8923 1.36917 67.7056 1.36917C65.6959 1.36917 64.1582 4.11777 64.1582 6.33306V11.8298H65.7564V12.5078H60.2238V11.8298H61.8461V1.50217ZM82.2346 4.92874V3.92388C82.2346 1.79323 80.9879 1.11525 79.5106 1.11525C77.731 1.11525 76.9317 2.77348 76.8833 2.97946C76.702 3.60907 76.5927 4.27495 76.5927 4.92874H82.2346ZM84.8981 8.86358C84.3052 11.6118 82.2955 12.9194 79.6924 12.9194C76.6778 12.9194 73.7841 10.498 73.7841 7.20492C73.7841 3.71832 76.0844 0.521916 79.6077 0.521916C82.6224 0.521916 84.8981 2.56793 84.9348 5.78852H76.5564V6.99894C76.5564 9.9289 76.9438 12.2897 80.1644 12.2897C81.8472 12.2897 83.8328 10.8129 84.2443 8.86358H84.8981Z" fill="black"/>
</g>
<defs>
<clipPath id="clip0_26_423">
<rect width="84" height="13" fill="white" transform="translate(0.934814 0.521484)"/>
</clipPath>
</defs>
</svg>
