<svg width="32" height="32" viewBox="0 0 32 32" fill="none" xmlns="http://www.w3.org/2000/svg">
<g clip-path="url(#clip0_26_586)">
<path d="M28.0897 26.1573C28.7142 24.4535 29.5347 21.2422 29.5347 16.1293C29.5347 14.5908 29.2674 10.8322 29.2674 10.8322C29.2674 10.8322 24.4558 9.75 15.6346 9.75C6.81349 9.75 1.73464 10.8322 1.73464 10.8322L1.73462 16.1293C1.73462 21.343 2.58778 24.5497 3.21634 26.2047C3.58012 27.1626 4.33043 27.883 5.31355 28.1716C6.91019 28.6403 10.0332 29.2308 15.6346 29.2308C21.0867 29.2308 24.1907 28.6971 25.8247 28.2562C26.8924 27.9682 27.7091 27.1956 28.0897 26.1573Z" fill="#4AB9FD" fill-opacity="0.1"/>
<path d="M29.5347 16.5382C29.5347 19.7103 29.3664 22.2094 29.1634 24.0702C28.8772 26.6931 26.8942 28.6282 24.2675 28.8769C22.2422 29.0686 19.414 29.2303 15.6346 29.2303C11.8552 29.2303 9.02712 29.0686 7.00185 28.8769C4.3751 28.6282 2.39208 26.6931 2.1059 24.0702C1.90288 22.2094 1.73462 19.7103 1.73462 16.5382C1.73462 14.3577 1.81413 12.4513 1.92978 10.8317C1.98297 10.0869 2.04381 9.40263 2.10807 8.78028C2.39868 5.96601 4.5424 3.85466 7.35991 3.59724C9.40053 3.4108 12.1459 3.25586 15.6346 3.25586C19.1234 3.25586 21.8688 3.4108 23.9094 3.59724C26.7269 3.85466 28.8706 5.96601 29.1612 8.78028C29.2255 9.40263 29.2863 10.0869 29.3395 10.8317C29.4552 12.4513 29.5347 14.3577 29.5347 16.5382Z" fill="#4AB9FD" fill-opacity="0.1"/>
<path d="M29.3395 10.8317C29.2863 10.0869 29.2255 9.40263 29.1612 8.78028C28.8706 5.96601 26.7269 3.85466 23.9094 3.59724C21.8688 3.4108 19.1234 3.25586 15.6346 3.25586C12.1459 3.25586 9.40053 3.4108 7.35991 3.59724C4.5424 3.85466 2.39868 5.96601 2.10807 8.78028C2.04381 9.40263 1.98297 10.0869 1.92978 10.8317M29.3395 10.8317C29.4552 12.4513 29.5347 14.3577 29.5347 16.5382C29.5347 19.7103 29.3664 22.2094 29.1634 24.0702C28.8772 26.6931 26.8942 28.6282 24.2675 28.8769C22.2422 29.0686 19.414 29.2303 15.6346 29.2303C11.8552 29.2303 9.02712 29.0686 7.00185 28.8769C4.3751 28.6282 2.39208 26.6931 2.1059 24.0702C1.90288 22.2094 1.73462 19.7103 1.73462 16.5382C1.73462 14.3577 1.81413 12.4513 1.92978 10.8317M29.3395 10.8317C29.3395 10.8317 24.1944 9.74948 15.6346 9.74948C7.07488 9.74948 1.92978 10.8317 1.92978 10.8317" stroke="#4AB9FD" stroke-width="2" stroke-linecap="round" stroke-linejoin="round"/>
<path d="M8.19152 1.0918C8.19152 1.0918 8.15039 1.94859 8.15039 5.96202M23.0786 1.0918C23.0786 1.0918 23.1196 1.94859 23.1196 5.96202" stroke="#4AB9FD" stroke-width="2" stroke-linecap="round" stroke-linejoin="round"/>
<path d="M20.9804 18.9482H10.2881M20.9804 18.9482L16.6337 23.2773M20.9804 18.9482L16.6337 14.6191" stroke="#4AB9FD" stroke-width="2" stroke-linecap="round" stroke-linejoin="round"/>
</g>
<defs>
<clipPath id="clip0_26_586">
<rect width="31" height="31" fill="white" transform="translate(0.264648 0.0917969)"/>
</clipPath>
</defs>
</svg>
