<svg width="97" height="17" viewBox="0 0 97 17" fill="none" xmlns="http://www.w3.org/2000/svg">
<g clip-path="url(#clip0_26_417)">
<path d="M16.8893 6.43217C17.016 6.30647 17.1426 6.14209 17.1426 5.96805C17.1426 5.67797 16.8309 5.56194 16.5971 5.52326L11.7075 4.81741L9.51598 0.417922C9.42832 0.234207 9.26273 0.0214844 9.03871 0.0214844C8.81468 0.0214844 8.6491 0.234207 8.56143 0.417922L6.36987 4.81741L1.48027 5.52326C1.23676 5.56194 0.934814 5.67797 0.934814 5.96805C0.934814 6.14209 1.06144 6.30647 1.17832 6.43217L4.72377 9.85507L3.88611 14.6897C3.88501 14.6973 3.88392 14.7048 3.88283 14.7122C3.8743 14.7706 3.86663 14.823 3.86663 14.8831C3.86663 15.1345 3.99325 15.3665 4.27572 15.3665C4.41208 15.3665 4.53871 15.3182 4.66533 15.2505L9.03871 12.9686L13.4121 15.2505C13.529 15.3182 13.6653 15.3665 13.8017 15.3665C14.0841 15.3665 14.201 15.1345 14.201 14.8831C14.201 14.8154 14.201 14.7574 14.1913 14.6897L13.3536 9.85507L16.8893 6.43217Z" fill="#FFC800"/>
<path d="M36.8374 6.43217C36.964 6.30647 37.0906 6.14209 37.0906 5.96805C37.0906 5.67797 36.779 5.56194 36.5452 5.52326L31.6556 4.81741L29.464 0.417922C29.3764 0.234207 29.2108 0.0214844 28.9867 0.0214844C28.7627 0.0214844 28.5971 0.234207 28.5095 0.417922L26.3179 4.81741L21.4283 5.52326C21.1848 5.56194 20.8829 5.67797 20.8829 5.96805C20.8829 6.14209 21.0095 6.30647 21.1264 6.43217L24.6718 9.85507L23.8341 14.6897C23.8331 14.6973 23.832 14.7048 23.8309 14.7122C23.8223 14.7706 23.8147 14.823 23.8147 14.8831C23.8147 15.1345 23.9413 15.3665 24.2238 15.3665C24.3601 15.3665 24.4867 15.3182 24.6134 15.2505L28.9867 12.9686L33.3601 15.2505C33.477 15.3182 33.6134 15.3665 33.7497 15.3665C34.0322 15.3665 34.1491 15.1345 34.1491 14.8831C34.1491 14.8154 34.1491 14.7574 34.1393 14.6897L33.3017 9.85507L36.8374 6.43217Z" fill="#FFC800"/>
<path d="M56.7854 6.43217C56.9121 6.30647 57.0387 6.14209 57.0387 5.96805C57.0387 5.67797 56.727 5.56194 56.4932 5.52326L51.6036 4.81741L49.4121 0.417922C49.3244 0.234207 49.1588 0.0214844 48.9348 0.0214844C48.7108 0.0214844 48.5452 0.234207 48.4575 0.417922L46.266 4.81741L41.3764 5.52326C41.1329 5.56194 40.8309 5.67797 40.8309 5.96805C40.8309 6.14209 40.9575 6.30647 41.0744 6.43217L44.6199 9.85507L43.7822 14.6897C43.7811 14.6973 43.78 14.7048 43.7789 14.7122C43.7704 14.7706 43.7627 14.823 43.7627 14.8831C43.7627 15.1345 43.8893 15.3665 44.1718 15.3665C44.3082 15.3665 44.4348 15.3182 44.5614 15.2505L48.9348 12.9686L53.3082 15.2505C53.4251 15.3182 53.5614 15.3665 53.6978 15.3665C53.9803 15.3665 54.0971 15.1345 54.0971 14.8831C54.0971 14.8154 54.0971 14.7574 54.0874 14.6897L53.2497 9.85507L56.7854 6.43217Z" fill="#FFC800"/>
<path d="M76.7336 6.43217C76.8602 6.30647 76.9868 6.14209 76.9868 5.96805C76.9868 5.67797 76.6752 5.56194 76.4414 5.52326L71.5518 4.81741L69.3602 0.417922C69.2726 0.234207 69.1069 0.0214844 68.8829 0.0214844C68.6588 0.0214844 68.4933 0.234207 68.4057 0.417922L66.2141 4.81741L61.3245 5.52326C61.081 5.56194 60.7791 5.67797 60.7791 5.96805C60.7791 6.14209 60.9057 6.30647 61.0226 6.43217L64.568 9.85507L63.7304 14.6897C63.7293 14.6973 63.7282 14.7048 63.7271 14.7122C63.7185 14.7706 63.7109 14.823 63.7109 14.8831C63.7109 15.1345 63.8375 15.3665 64.12 15.3665C64.2563 15.3665 64.383 15.3182 64.5096 15.2505L68.8829 12.9686L73.2563 15.2505C73.3732 15.3182 73.5096 15.3665 73.6459 15.3665C73.9284 15.3665 74.0452 15.1345 74.0452 14.8831C74.0452 14.8154 74.0453 14.7574 74.0355 14.6897L73.1979 9.85507L76.7336 6.43217Z" fill="#FFC800"/>
<path d="M96.6815 6.43217C96.8082 6.30647 96.9349 6.14209 96.9349 5.96805C96.9349 5.67797 96.6232 5.56194 96.3894 5.52326L91.4998 4.81741L89.3083 0.417922C89.2206 0.234207 89.055 0.0214844 88.831 0.0214844C88.607 0.0214844 88.4414 0.234207 88.3537 0.417922L86.1622 4.81741L81.2726 5.52326C81.0291 5.56194 80.7271 5.67797 80.7271 5.96805C80.7271 6.14209 80.8537 6.30647 80.9706 6.43217L84.5161 9.85507L83.6784 14.6897C83.6773 14.6973 83.6761 14.7048 83.675 14.7122C83.6665 14.7706 83.6589 14.823 83.6589 14.8831C83.6589 15.1345 83.7855 15.3665 84.068 15.3665C84.2044 15.3665 84.331 15.3182 84.4576 15.2505L88.831 12.9686L93.2044 15.2505C93.3213 15.3182 93.4576 15.3665 93.594 15.3665C93.8765 15.3665 93.9933 15.1345 93.9933 14.8831C93.9933 14.8154 93.9933 14.7574 93.9836 14.6897L93.1459 9.85507L96.6815 6.43217Z" fill="#FFC800"/>
</g>
<defs>
<clipPath id="clip0_26_417">
<rect width="96" height="16" fill="white" transform="translate(0.934814 0.0214844)"/>
</clipPath>
</defs>
</svg>
